<?xml version="1.0" standalone="no"?>
<!DOCTYPE svg PUBLIC "-//W3C//DTD SVG 1.1//EN" "http://www.w3.org/Graphics/SVG/1.1/DTD/svg11.dtd" >
<svg xmlns="http://www.w3.org/2000/svg">
<metadata>
This is a custom SVG webfont generated by Font Squirrel.
Copyright   : Copyright c SIL International httpwwwsilorg 19982009 All rights reserved
</metadata>
<defs>
<font id="ApparatusSILItalic" horiz-adv-x="1138" >
<font-face units-per-em="2048" ascent="1638" descent="-410" />
<missing-glyph horiz-adv-x="600" />
<glyph horiz-adv-x="600" />
<glyph unicode=" "  horiz-adv-x="600" />
<glyph unicode="&#x09;" horiz-adv-x="600" />
<glyph unicode="&#xa0;" horiz-adv-x="600" />
<glyph unicode="!" horiz-adv-x="692" d="M152 104q0 57 36.5 91t81.5 34t82 -30q41 -37 41 -95q0 -53 -37 -87.5t-86 -34.5q-39 0 -73 28q-45 37 -45 94zM248 344l104 885q20 170 148 170q92 0 92 -109q0 -25 -234 -946h-110z" />
<glyph unicode="&#x22;" horiz-adv-x="677" d="M221 864l25 455q8 143 114 143q74 0 74 -80q0 -43 -166 -518h-47zM539 864l24 455q8 143 115 143q76 0 76 -80q0 -43 -168 -518h-47z" />
<glyph unicode="#" horiz-adv-x="1521" d="M127 467v102h324l98 293h-330v105h365l164 483l104 -33l-154 -450h297l164 483l105 -33l-154 -450h285v-105h-322l-98 -293h330v-102h-365l-172 -514l-104 33l161 481h-295l-174 -514l-102 35l162 479h-289zM563 569h297l101 293h-297z" />
<glyph unicode="$" d="M43 90l66 326h120l-18 -238q0 -10 12 -14q31 -14 62 -27q74 -25 129 -26l96 512q-293 129 -293 340q0 172 137 286q123 106 299 121l29 152h100l-24 -146q129 -2 295 -61l-66 -311h-104l10 204q0 18 -19 25q-33 18 -139 37l-94 -498q319 -106 320 -346q0 -217 -193 -336 q-137 -84 -274 -90l-39 -209h-103l39 207q-192 12 -348 92zM403 1018q0 -135 144 -199l86 447q-104 -25 -167 -90.5t-63 -157.5zM520 115q117 23 181.5 91t64.5 167q0 141 -158 205z" />
<glyph unicode="%" horiz-adv-x="1763" d="M66 971q0 190 80.5 310t234.5 120q152 0 235 -123q78 -117 78 -307t-78 -307q-84 -123 -235 -123q-154 0 -238 123q-77 117 -77 307zM219 971q0 -352 162 -353q156 0 156 353q0 352 -156 352q-162 0 -162 -352zM383 0l870 1374h127l-868 -1374h-129zM1069 406 q0 190 81 310t234 120q154 0 238 -123q78 -117 78 -307t-78 -308q-84 -123 -238 -123t-237 123q-78 118 -78 308zM1225 406q0 -352 159 -353q158 0 158 353q0 352 -158 352q-159 0 -159 -352z" />
<glyph unicode="&#x26;" horiz-adv-x="1441" d="M41 319q0 258 344 435q-106 150 -106 262q0 168 130 276.5t314 108.5q145 0 227 -84q74 -74 74 -189q0 -260 -406 -397l287 -381q92 96 166 254q2 4 -7 11.5t-15 9.5l-101 18v102h414v-102l-148 -18q-90 -193 -247 -359q70 -92 139.5 -129t185.5 -37v-98 q-190 -10 -180 -10q-82 0 -137 28q-63 33 -135 125q-217 -168 -445 -168q-147 0 -248 89q-106 95 -106 253zM240 379q0 -117 73.5 -190.5t184.5 -73.5q131 0 280 108l-338 451q-200 -123 -200 -295zM446 1071q0 -133 115 -268q281 104 281 307q0 76 -37 125q-43 57 -123 57 q-92 0 -160 -55q-76 -64 -76 -166z" />
<glyph unicode="'" horiz-adv-x="348" d="M221 864l25 455q8 143 114 143q74 0 74 -80q0 -43 -166 -518h-47z" />
<glyph unicode="(" horiz-adv-x="858" d="M162 287q0 418 196 762q223 395 584 421l-20 -102q-293 -37 -455 -465q-123 -324 -123 -657q0 -381 285 -436l-21 -101q-188 8 -317 168t-129 410z" />
<glyph unicode=")" horiz-adv-x="856" d="M-84 -293l21 105q303 37 462 487q113 322 113 643q0 141 -47 246q-72 158 -236 180l21 102q264 -27 377 -256q68 -139 67 -307q0 -500 -229 -839q-221 -328 -549 -361z" />
<glyph unicode="*" horiz-adv-x="1024" d="M109 1167l145 43l221 -145l-8 -29l-266 15zM264 690l4 152l207 166l25 -19l-94 -246zM428 1341l84 125l86 -125l-72 -256h-28zM524 989l25 19l207 -166l4 -152l-142 53zM549 1065l221 145l145 -43l-92 -116l-264 -15z" />
<glyph unicode="+" horiz-adv-x="1705" d="M254 545v133h532v543h136v-543h530v-133h-530v-545h-136v545h-532z" />
<glyph unicode="," horiz-adv-x="569" d="M-98 -346l14 82q225 47 266 266h-119q-23 29 -22 66q0 68 43 108.5t106 40.5q133 0 134 -145q0 -160 -130 -282t-292 -136z" />
<glyph unicode="-" horiz-adv-x="653" d="M76 424l28 154h463l-28 -154h-463z" />
<glyph unicode="." horiz-adv-x="569" d="M84 109q0 53 34 88.5t87 35.5q49 0 86 -35.5t37 -84.5q0 -53 -36 -88t-87 -35q-49 0 -85 34t-36 85z" />
<glyph unicode="/" horiz-adv-x="985" d="M-158 -190l1174 1564h145l-1173 -1564h-146z" />
<glyph unicode="0" d="M76 436q0 362 164 645q186 317 483 318q182 0 285 -133q94 -123 94 -330q0 -377 -176 -662q-188 -299 -467 -299q-178 0 -280.5 121t-102.5 340zM279 403q0 -313 200 -313q176 0 303 297q117 272 117 586q0 313 -197 313q-184 0 -309 -299q-114 -271 -114 -584z" />
<glyph unicode="1" d="M188 0v104l195 11q39 2 45 37l199 1042q0 10 -11 10l-299 -41v101l471 135h62l-238 -1252q-6 -35 25 -36l164 -9v-102h-613z" />
<glyph unicode="2" d="M-27 0l27 141q498 356 651 510q213 213 213 416q0 211 -215 211q-82 0 -176 -47l-41 -213q-8 -6 -14 -10q-16 -10 -37 -19q-27 -8 -55 -8q-102 0 -103 92q0 121 151.5 223.5t338.5 102.5q160 0 256 -70q111 -80 110 -239q0 -233 -268 -482q-104 -96 -276 -223 q-94 -68 -291 -207h571l68 172h106l-63 -350h-953z" />
<glyph unicode="3" d="M33 205q0 53 31.5 88t85.5 35q43 0 79 -19l31 -174q80 -45 160 -45q158 0 263 101.5t105 248.5q0 215 -233 215q-68 0 -133 -12l18 133q193 -12 309.5 76t116.5 227q0 104 -69 160q-59 47 -142 47q-102 0 -188 -61l-31 -195q-63 -27 -102 -26q-33 0 -62 24q-35 29 -34 80 q0 123 157 211q145 80 326 80q166 0 262 -75t96 -218q0 -117 -92 -219.5t-258 -151.5q268 -35 268 -266q0 -201 -177 -346.5t-423 -145.5q-178 0 -278 78q-86 64 -86 150z" />
<glyph unicode="4" d="M39 412l27 143l811 844h133l-160 -840h184l-28 -147h-187l-88 -467h-174l90 467h-608zM256 559h420l108 545z" />
<glyph unicode="5" d="M27 166q0 55 35.5 92t91.5 37q20 0 55 -6l53 -174q86 -29 139 -29q160 0 268.5 111.5t108.5 261.5q0 254 -342 254q-66 0 -211 -15l137 676h723l-32 -172h-586l-78 -391q98 33 215 33q150 0 248 -70q125 -88 125 -262q0 -223 -185.5 -381t-435.5 -158q-152 0 -237 50 q-92 51 -92 143z" />
<glyph unicode="6" d="M76 451q0 387 258 675q266 299 676 340l4 -120q-262 -27 -449 -185q-176 -145 -223 -350q154 117 334 117q156 0 256 -97q104 -104 104 -276q0 -240 -160.5 -410t-381.5 -170q-164 0 -273 95q-145 123 -145 381zM274 426q0 -340 232 -340q135 0 233.5 124t98.5 292 q0 287 -248 286q-139 0 -277 -104q-39 -143 -39 -258z" />
<glyph unicode="7" d="M84 -76l901 1278h-600l-66 -184h-112l69 356h947l-19 -94l-919 -1307l-11 -49h-190z" />
<glyph unicode="8" d="M37 297q0 115 74 219q88 125 258 201q-156 82 -156 254q0 178 137 304t348 126q168 0 264.5 -81t96.5 -212q0 -150 -90 -250q-68 -74 -203 -135q244 -109 244 -301q0 -193 -163 -325t-390 -132q-195 0 -307.5 88t-112.5 244zM223 332q0 -106 68 -174q72 -74 203 -74 q135 0 229 88q86 84 86 193q0 137 -350 297q-236 -123 -236 -330zM399 1016q0 -137 267 -250q217 111 217 324q0 92 -52.5 148t-150.5 56q-121 0 -201 -82.5t-80 -195.5z" />
<glyph unicode="9" d="M84 -16q252 98 399 206q190 139 320 361q-172 -96 -320 -96q-137 0 -237 82q-123 98 -123 284q0 242 169 410t404 168q147 0 248 -70q156 -106 156 -360q0 -414 -328 -721q-258 -244 -645 -365zM328 862q0 -137 78 -211q68 -66 167 -65q94 0 195 55q63 35 96 68 q37 221 37 258q0 326 -239 325q-139 0 -236.5 -129t-97.5 -301z" />
<glyph unicode=":" horiz-adv-x="569" d="M82 117q0 57 37 93t88 36q49 0 87 -36t38 -91t-37 -92t-88 -37q-55 0 -90 36t-35 91zM217 850q0 53 36 90t89 37q51 0 87 -35t36 -92q0 -53 -35 -91t-88 -38q-49 0 -87 38t-38 91z" />
<glyph unicode=";" horiz-adv-x="569" d="M-88 -346l14 82q123 29 184.5 89t86.5 183h-119q-27 29 -27 68q0 63 43 107t107 44q137 0 137 -147q0 -162 -129 -287t-297 -139zM207 850q0 51 36 89t89 38q55 0 91 -35t36 -92q0 -55 -37 -93t-88 -38t-89 37t-38 94z" />
<glyph unicode="&#x3c;" horiz-adv-x="1705" d="M264 557v105l1178 483v-127l-1000 -408l1000 -405v-129z" />
<glyph unicode="=" horiz-adv-x="1705" d="M254 360v117h1198v-117h-1198zM254 743v117h1198v-117h-1198z" />
<glyph unicode="&#x3e;" horiz-adv-x="1705" d="M264 76v129l1000 405l-1000 408v127l1178 -481v-105z" />
<glyph unicode="?" horiz-adv-x="995" d="M213 104q0 51 37 88t88 37t86 -35.5t35 -87.5q0 -53 -35 -88.5t-86 -35.5t-88 35.5t-37 86.5zM231 1174q0 82 78 145q94 80 264 80q166 0 262.5 -79t96.5 -218q0 -328 -457 -516l-45 -242h-121l58 313q154 47 249 150q113 117 113 274q0 207 -209 207h-18l-121 -201h-49 q-101 1 -101 87z" />
<glyph unicode="@" horiz-adv-x="1929" d="M156 504q0 436 309 692q264 221 614 221q311 0 504 -168q201 -178 201 -483q0 -299 -174 -490q-152 -166 -330 -165q-154 0 -162 159q-156 -160 -289 -159q-109 0 -182 84q-80 92 -80 254q0 233 162 401q154 162 350 162q109 0 199 -54l37 46h125q-29 -78 -156 -685 q-6 -31 20.5 -55t61.5 -24q96 0 195 137q113 158 112 383q0 270 -182 422q-158 131 -385 131q-344 0 -566.5 -226.5t-222.5 -560.5q0 -315 187 -514q197 -209 524 -209q152 0 283 41q106 33 258 113l35 -86q-336 -184 -619 -184q-350 0 -586 221q-243 229 -243 596zM760 471 q0 -217 158 -217q57 0 108 35q33 23 96 90l84 428q10 47 -22.5 76.5t-89.5 29.5q-145 0 -239.5 -123.5t-94.5 -318.5z" />
<glyph unicode="A" horiz-adv-x="1257" d="M-152 0v94l115 12l746 1280h145l219 -1249q6 -31 27 -33l106 -10v-94h-461v94l127 10q8 12 7 25l-62 373h-477l-211 -375q-4 -6 1 -14.5t13 -8.5l123 -10v-94h-418zM399 606h398l-88 547z" />
<glyph unicode="B" horiz-adv-x="1214" d="M-16 0v94l82 4q76 10 81 45l209 1096q6 29 -26 31l-119 10v94h551q391 0 391 -264q0 -276 -315 -377q276 -33 276 -272q0 -242 -174 -359q-150 -102 -414 -102h-542zM336 106q68 -6 123 -6q440 0 440 340q0 221 -307 222q-47 0 -150 -11zM461 764q61 -6 94 -6 q190 0 291 102q90 90 90 234q0 184 -274 184q-57 0 -107 -6z" />
<glyph unicode="C" horiz-adv-x="1257" d="M104 547q0 340 228 592q236 260 577 260q168 0 385 -72l-57 -326h-102v193q0 41 -35 49q-80 43 -182 43q-250 0 -424 -207q-180 -215 -181 -555q0 -217 115 -329q109 -106 297 -107q94 0 160 25q33 4 45 39l90 233h102l-57 -338q-25 -12 -129 -37q-150 -35 -277 -35 q-272 0 -421 177q-134 153 -134 395z" />
<glyph unicode="D" horiz-adv-x="1357" d="M-16 0v94l112 10q43 4 51 41l213 1094q6 29 -26 31l-123 10v94h469q637 0 637 -526q0 -332 -203 -569q-240 -279 -665 -279h-465zM342 113l145 2q113 2 223.5 46t178.5 111q92 92 151 248q63 168 64 348q0 387 -410 394q-84 2 -135 2z" />
<glyph unicode="E" horiz-adv-x="1132" d="M-31 0v94l115 10q45 4 51 41l211 1092q6 31 -27 33l-120 10v94h956l-61 -313h-113v174q0 29 -20 29h-418l-97 -494h289q33 0 56 72q12 53 24 104h105l-89 -463h-98q0 16 6 66q4 41 4 59q0 49 -22 49h-295l-107 -546h498q29 0 68 112l37 123h108l-67 -346h-994z" />
<glyph unicode="F" horiz-adv-x="1032" d="M-35 0v94l135 10q23 2 27 23l213 1110q6 27 -27 31l-120 12v94h935l-65 -336h-115v197q0 29 -18 29h-391l-99 -516h271q27 0 51 73l29 103h106l-92 -463h-103l9 123q0 53 -19 53h-274l-96 -506q-4 -20 18 -22l149 -11v-98h-524z" />
<glyph unicode="G" horiz-adv-x="1349" d="M80 549q0 379 274 625q252 227 588 227q168 0 369 -64l-62 -336h-123l7 193q2 43 -37 51q-76 37 -178 37q-248 0 -431 -209q-193 -221 -192 -555q0 -219 135 -334q109 -92 256 -92q109 0 207 27l74 418q4 25 -15 26l-137 10v95h516v-95l-131 -10q-27 -2 -33 -31l-94 -485 q-260 -72 -428 -72q-301 0 -450 199q-115 154 -115 375z" />
<glyph unicode="H" horiz-adv-x="1458" d="M-47 0v94l123 12q37 4 43 35l213 1096q6 29 -31 33l-121 10v94h512v-94l-121 -8q-41 -2 -47 -39l-90 -459h643l92 463q6 31 -26 33l-125 10v94h510v-94l-121 -8q-39 -2 -45 -37l-211 -1098q-6 -27 29 -31l118 -12v-94h-510v94l134 12q27 2 32 35l99 523h-639l-103 -527 q-6 -29 47.5 -34t104.5 -9v-94h-510z" />
<glyph unicode="I" horiz-adv-x="612" d="M-37 0v94l117 10q41 4 47 37l209 1096q6 29 -45 37q-51 2 -103 6v94h504v-94l-133 -10q-25 -2 -31 -31l-211 -1102q-6 -29 47.5 -34t104.5 -9v-94h-506z" />
<glyph unicode="J" horiz-adv-x="915" d="M-86 29l68 354h116v-252q0 -33 23 -35q49 -6 67 -6q127 0 187 107q45 80 90 311l141 729q6 29 -45 37q-51 2 -102 6v94h506v-94l-138 -10q-20 -2 -26 -37l-133 -709q-53 -283 -146 -401q-115 -147 -348 -148q-180 1 -260 54z" />
<glyph unicode="K" horiz-adv-x="1280" d="M-61 0v94l118 10q39 4 45 37l215 1106q4 20 -47 24.5t-104 8.5v94h510v-94l-146 -10q-12 0 -18 -27l-109 -538h46l552 546q14 14 -6 17l-151 10v96h508v-98l-172 -12l-527 -512l279 -543q35 -68 66.5 -89.5t86.5 -23.5q47 -2 93 -2v-94q-137 -8 -183 -8q-92 0 -133 16 q-59 27 -102 111l-248 483h-129l-90 -477q-4 -16 14 -19l142 -12v-94h-510z" />
<glyph unicode="L" horiz-adv-x="1019" d="M-57 0v94l114 10q43 4 49 35l213 1108q4 27 -55 31q-47 0 -96 2v94h508v-94l-139 -10q-20 -2 -25 -23l-219 -1136h401q49 0 88 129q16 74 33 145h115l-74 -385h-913z" />
<glyph unicode="M" horiz-adv-x="1718" d="M-45 0v94q156 0 164 47l209 1096q6 29 -47 37q-49 2 -101 6v94h432v-61l179 -1006l555 998v69h440v-94l-135 -10q-23 -2 -29 -35l-209 -1100q-4 -27 21 -29l127 -12v-94h-500v94l147 12q16 2 23 33l205 1069l-676 -1208h-103l-211 1204l-198 -1067q-4 -25 46 -32t99 -11 v-94h-438z" />
<glyph unicode="N" horiz-adv-x="1421" d="M-37 0v94l141 12q18 2 23 27l215 1118q6 16 -12 19l-140 10v94h367v-57l471 -998l178 918q6 31 -10 33l-137 10v94h442v-94l-133 -10q-25 -2 -31 -33l-235 -1237h-131l-522 1106l-193 -977q-4 -20 16 -23l136 -12v-94h-445z" />
<glyph unicode="O" horiz-adv-x="1449" d="M109 537q0 342 210 596q219 264 535 264q240 0 390.5 -155t150.5 -388q0 -346 -199 -602q-215 -276 -545 -277q-236 0 -389 153t-153 409zM322 522q0 -201 95 -316.5t249 -115.5q219 0 372 254q141 231 142 510q0 199 -93.5 315.5t-250.5 116.5q-221 0 -373 -248 q-141 -229 -141 -516z" />
<glyph unicode="P" horiz-adv-x="1124" d="M-47 0v94l135 12q25 2 31 35l211 1106q4 20 -17 23l-135 10v94h492q453 0 452 -330q0 -246 -178 -393q-170 -141 -430 -141q-27 0 -76 2h-57l-76 -385q-4 -20 10 -21l134 -12v-94h-496zM401 627q37 -4 74 -4q188 0 307 88q135 102 136 299q0 260 -312 260q-51 0 -80 -4z " />
<glyph unicode="Q" horiz-adv-x="1449" d="M92 530q0 334 213 594q221 272 537 273q238 0 388 -151.5t150 -391.5q0 -219 -82 -410q-113 -262 -360 -403q70 -129 113 -174q68 -68 168 -68q106 0 225 60v-88q-193 -98 -334 -99q-137 0 -229 88q-74 70 -140 220q-74 -8 -108 -9q-225 0 -377 144q-164 153 -164 415z M303 520q0 -193 90 -309q92 -123 256 -123q217 0 373 252q143 233 143 514q0 193 -90 312.5t-244 119.5q-225 0 -380 -242q-148 -227 -148 -524z" />
<glyph unicode="R" horiz-adv-x="1232" d="M-59 0v92l137 12q20 2 26 35l215 1108q0 18 -16 21l-149 12v94h544q410 0 410 -305q0 -164 -113 -276q-98 -98 -266 -144q76 -31 127 -108q43 -66 83 -204t79 -190.5t180 -52.5v-92q-82 -12 -141 -12q-162 0 -217 82q-43 61 -68 157q-20 86 -41 170q-14 57 -35 95 q-33 59 -63 81q-45 29 -135 29q-27 0 -66 -2t-43 -2l-92 -475q-4 -18 48 -23.5t106 -7.5v-94h-510zM410 715h49q438 0 438 325q0 225 -299 226q-4 0 -38 -2t-44 -2z" />
<glyph unicode="S" horiz-adv-x="1099" d="M16 74l70 334h121l-21 -238q-2 -18 25 -25q111 -55 213 -55q145 0 239.5 77t94.5 208q0 106 -174 203q-84 45 -168 88q-102 57 -152 116q-68 78 -67 176q0 203 151 324q143 115 365 115q121 0 235 -31q80 -20 99 -33l-66 -319h-104l8 209q0 12 -21 26q-74 39 -168 39 q-131 0 -221 -74.5t-90 -189.5q0 -127 256 -252q172 -84 238 -154q74 -78 73 -196q0 -174 -129 -299q-152 -147 -426 -148q-139 0 -270 48q-74 26 -111 51z" />
<glyph unicode="T" horiz-adv-x="1157" d="M117 1055l61 319h1104l-65 -319h-125l10 200q0 18 -19 19h-274l-219 -1145q-4 -25 49 -29t104 -6v-94h-510v94l146 15q14 0 18 20l213 1145h-270q-20 0 -29 -25l-67 -194h-127z" />
<glyph unicode="U" horiz-adv-x="1349" d="M141 328q0 10 17.5 56.5t42 125t49.5 180t42.5 248.5t17.5 303q0 25 -48 33q-6 0 -102 6v94h508v-94q-158 0 -166 -45q-160 -803 -160 -875q0 -242 287 -241q190 0 284 117q74 88 111 276l141 725q6 27 -47 33t-106 10v94h440v-94l-113 -8q-45 -4 -51 -37l-155 -797 q-90 -461 -558 -461q-434 1 -434 351z" />
<glyph unicode="V" horiz-adv-x="1247" d="M115 1280v94h440v-94q-43 -2 -88 -5t-41 -26l156 -1026l534 1028q8 16 -14 19l-119 10v94h397v-94l-110 -12l-695 -1278h-137l-198 1255q-4 25 -52 31z" />
<glyph unicode="W" horiz-adv-x="1839" d="M104 1280v94h453v-94q-43 -2 -88 -5t-43 -28l74 -917l491 1044h146l108 -1059l428 932q2 4 2 8q0 16 -45 19.5t-90 5.5v94h408v-94l-121 -12l-594 -1268h-129l-119 1085l-506 -1085h-141l-100 1245q-2 23 -54 29q-39 4 -80 6z" />
<glyph unicode="X" horiz-adv-x="1245" d="M-100 0v94q41 0 82 2q35 2 61 31l506 571l-244 551q-6 20 -12 21l-135 10v94h510v-94l-142 -10q-31 -2 -18 -31l170 -393l346 397q10 10 10 19q0 14 -44 16t-85 2v94h441v-94l-148 -10l-467 -535l266 -606q10 -23 13 -23l135 -12v-94h-506v94l141 12q29 2 23 19l-193 450 l-405 -452q-4 -4 2 -10.5t12 -6.5l137 -12v-94h-456z" />
<glyph unicode="Y" horiz-adv-x="1200" d="M94 1280v94h508v-94l-143 -10q-25 -2 -19 -23l174 -553l410 555q10 18 -14 21l-136 10v94h472v-94l-142 -10q-10 -10 -26 -29l-512 -668l-88 -448q-4 -16 16 -19l141 -12v-94h-510v94l135 12q25 2 25 23l86 428l-227 692q-4 10 -15 21z" />
<glyph unicode="Z" horiz-adv-x="1118" d="M-74 0l19 96l942 1164h-481q-39 0 -74 -99l-33 -119h-123l66 332h913l-20 -98l-947 -1159h541q49 0 90 131q16 68 33 137h115l-72 -385h-969z" />
<glyph unicode="[" horiz-adv-x="862" d="M96 -270l328 1720h491l-18 -104h-317l-287 -1514h315l-18 -102h-494z" />
<glyph unicode="\" horiz-adv-x="1038" d="M49 1374h135l805 -1564h-133z" />
<glyph unicode="]" horiz-adv-x="862" d="M-53 -272l18 104h318l286 1514h-315l18 104h494l-328 -1722h-491z" />
<glyph unicode="^" horiz-adv-x="2048" d="M485 23l484 1177h112l482 -1177h-146l-393 968l-393 -968h-146z" />
<glyph unicode="_" horiz-adv-x="1024" d="M-201 -483l27 135h1026l-27 -135h-1026z" />
<glyph unicode="`" horiz-adv-x="704" d="M121 1409q0 90 94 90q61 0 104 -51l275 -320h-127l-297 195q-49 33 -49 86z" />
<glyph unicode="a" horiz-adv-x="1075" d="M35 344q0 256 151 442q164 201 422 201q98 0 185 -43l36 43h121q-18 -47 -41 -121q-31 -125 -75 -342q-55 -268 -56 -325q0 -88 96 -88q-10 0 125 22v-78q-174 -72 -254 -71q-129 0 -133 151q-145 -154 -293 -153q-152 0 -227 124q-57 97 -57 238zM219 356 q0 -233 164 -233q104 0 231 127l105 528q2 8 -34 60.5t-48 52.5q-217 0 -330 -184q-88 -148 -88 -351z" />
<glyph unicode="b" horiz-adv-x="1038" d="M49 76l236 1272l-174 32v66l311 61h80q-47 -162 -131 -647q154 137 284 137q135 0 207 -116q61 -98 62 -246q0 -233 -131 -424q-160 -229 -428 -229q-175 0 -316 94zM240 158q68 -74 168 -74q141 0 241 180q92 166 92 363q0 119 -53 180q-41 49 -100 49q-104 0 -236 -104 z" />
<glyph unicode="c" horiz-adv-x="806" d="M31 358q0 266 168 457q160 178 362 178q90 0 143.5 -45t53.5 -100q0 -109 -140 -125l-114 154h-11q-100 0 -184 -111q-102 -139 -102 -385q0 -262 188 -262q152 0 324 180v-119q-201 -201 -385 -200q-137 0 -217 96q-86 102 -86 282z" />
<glyph unicode="d" horiz-adv-x="1071" d="M43 344q0 260 154 453q164 205 409 204q84 0 152 -30l65 385l-176 20v72l314 59h67l-115 -647q-115 -645 -114 -680q0 -80 80 -80q-8 0 139 25v-80q-172 -59 -258 -59q-141 0 -142 153v13q-49 -63 -124 -111q-90 -59 -170 -59q-147 0 -220 114q-61 96 -61 248zM223 356 q0 -242 164 -241q111 0 250 164l90 516q2 10 -45 59t-80 49q-158 0 -268.5 -157t-110.5 -390z" />
<glyph unicode="e" horiz-adv-x="868" d="M43 350q0 246 157.5 441.5t360.5 195.5q121 0 176 -82q37 -55 37 -127q0 -158 -190 -250q-150 -72 -355 -82q-6 -55 -6 -88q0 -111 51.5 -179t145.5 -68q139 0 332 176v-119q-182 -186 -398 -186q-115 0 -194 65q-117 94 -117 303zM240 532q143 8 254 76q119 72 118 172 q0 43 -25.5 74t-70.5 31q-98 0 -180 -123q-67 -101 -96 -230z" />
<glyph unicode="f" horiz-adv-x="618" d="M-289 -336q0 66 51 100l207 -53q98 113 168 535l78 581l-154 -16l2 86l175 61q39 207 131 351q123 190 299 190q84 0 135 -45q43 -39 43 -86q0 -98 -113 -113l-162 134q-57 -29 -112 -205q-41 -129 -58 -246h252v-111h-270q-43 -311 -121 -778q-45 -184 -166 -332 q-131 -160 -266 -159q-49 0 -84 29.5t-35 76.5z" />
<glyph unicode="g" horiz-adv-x="964" d="M-63 -168q0 197 268 287v12q-2 10 -2 16q0 43 21.5 101.5t54.5 91.5q-182 82 -183 254q0 160 111.5 277.5t288.5 117.5q102 0 192 -51h275v-104h-185q25 -61 25 -125q0 -164 -115 -278t-282 -114q-6 0 -21 2h-20q-24 -55 -25 -88q0 -9 2 -16l268 -123q109 -49 150 -90 q59 -55 59 -139q0 -131 -160 -223q-150 -86 -337 -86q-182 0 -283.5 76.5t-101.5 201.5zM111 -133q0 -76 61 -137q74 -72 203 -72q139 0 215 59q57 47 57 105q0 74 -100 121l-260 120q-176 -38 -176 -196zM274 569q0 -166 123 -166q102 0 170 113q57 96 58 205 q0 176 -125 176q-86 0 -156 -96.5t-70 -231.5z" />
<glyph unicode="h" d="M63 0l275 1358l-184 14v68l327 67h70l-148 -700q215 180 377 180q182 0 183 -160q0 -37 -9 -82l-104 -559q-2 -10 -2 -18q0 -64 96 -64q47 0 119 23l2 -76q-176 -63 -262 -63q-158 0 -158 100q0 12 2 25l121 612q4 18 4 35q0 86 -104 86q-119 0 -289 -162l-125 -684h-191 z" />
<glyph unicode="i" horiz-adv-x="587" d="M68 858v70l297 65h63l-147 -817q0 -70 84 -70q51 0 155 35v-82q-172 -74 -282 -73q-139 0 -140 143q0 98 127 700zM293 1323q0 47 34.5 83t82.5 36q47 0 79.5 -35t32.5 -84t-33.5 -83t-80.5 -34q-49 0 -82 33t-33 84z" />
<glyph unicode="j" horiz-adv-x="575" d="M-262 -330q0 59 53 94l201 -55q47 41 104 271q82 338 150 866l-203 22v64l311 59h84l-129 -827q-39 -248 -147 -391q-162 -215 -307 -215q-53 0 -85 30.5t-32 81.5zM276 1315q0 53 33 87t84 34q49 0 83 -34t34 -85q0 -43 -31 -78q-33 -41 -86 -41q-45 0 -81 33t-36 84z " />
<glyph unicode="k" horiz-adv-x="1052" d="M49 0l273 1364l-185 10v74l322 59h69l-209 -989q264 281 351 365q113 111 184 110q53 0 88 -33.5t35 -78.5q-2 -96 -123 -136l-72 78q-102 -76 -247 -211q47 -111 153 -323q102 -184 205 -185q35 0 117 17v-74q-152 -57 -242 -57q-98 0 -152 82q-68 104 -213 415 l-104 -94l-66 -393h-184z" />
<glyph unicode="l" horiz-adv-x="563" d="M72 137q0 51 104 600q59 311 119 621l-174 18v70l303 61h68q-61 -315 -123 -633q-121 -635 -121 -688q0 -88 96 -88q39 0 150 37v-82q-172 -72 -267 -71q-155 -1 -155 155z" />
<glyph unicode="m" horiz-adv-x="1669" d="M66 0l170 823l-164 31v68l303 65h63l-32 -176q213 176 360 176q154 0 170 -174q211 174 375 174q176 0 176 -174q0 -31 -6 -65l-103 -549q-3 -13 -2 -25q0 -70 97 -70q59 0 120 21v-72q-160 -66 -260 -65q-162 0 -162 104q0 14 5 31l108 543q8 41 8 73q0 109 -86 109 q-80 0 -178 -74q-59 -43 -96 -86l-135 -688h-187l135 668q6 35 7 63q0 117 -99 117q-98 0 -270 -164l-129 -684h-188z" />
<glyph unicode="n" d="M63 0l168 825l-161 29v66l303 67h63l-35 -180q215 180 379 180q182 0 183 -160q0 -37 -9 -82l-104 -559q-2 -10 -2 -18q0 -64 96 -64q47 0 119 23l2 -76q-176 -63 -262 -63q-158 0 -158 100q0 12 2 25l121 612q4 18 4 35q0 86 -104 86q-119 0 -289 -162l-125 -684h-191z " />
<glyph unicode="o" horiz-adv-x="1028" d="M45 369q0 256 149.5 438t372.5 182q147 0 244 -94q109 -106 109 -303q0 -254 -153 -432t-372 -178q-158 0 -254 104.5t-96 282.5zM233 379q0 -297 185 -297q143 0 233 170q80 152 80 348q0 293 -186 293q-135 0 -223.5 -154.5t-88.5 -359.5z" />
<glyph unicode="p" horiz-adv-x="1036" d="M-141 -371l127 29q10 0 14 27l209 1155l-158 18v68l293 61h66l-23 -113q156 113 295 113q133 0 203 -108q59 -94 59 -248q0 -258 -165 -450.5t-396 -192.5q-90 0 -150 32l-63 -356l190 -33v-77h-501v75zM256 143q78 -51 166 -51q160 0 256 182q82 154 82 349 q0 98 -39 163q-45 78 -131 78q-102 0 -221 -104z" />
<glyph unicode="q" horiz-adv-x="1048" d="M51 346q0 252 150 447q160 205 393 204q84 0 192 -49l52 49h104l-225 -1329l192 -33v-81h-512v79l129 27q12 2 17 25l73 434q-141 -135 -286 -135q-119 0 -195 88q-84 96 -84 274zM231 354q0 -238 177 -237q100 0 229 116l94 545q4 20 -42 68.5t-66 48.5 q-174 0 -283 -152.5t-109 -388.5z" />
<glyph unicode="r" horiz-adv-x="794" d="M55 0l166 825l-162 29v66l308 67h49l-58 -242q178 242 338 242q57 0 89 -32.5t32 -82.5q0 -137 -162 -137l-51 105q-168 -68 -233 -203q-25 -51 -78 -346q-27 -145 -51 -291h-187z" />
<glyph unicode="s" horiz-adv-x="737" d="M-35 166q0 113 113 113q51 0 96 -43l-37 -101q43 -63 142 -63q74 0 119.5 43t45.5 114q0 76 -82 144q-152 127 -157 131q-88 90 -88 174q0 143 121 231q104 78 231 78q100 0 154 -47q41 -37 41 -84q0 -104 -127 -115l-91 123q-20 14 -59 15q-59 0 -92 -40t-33 -85 q0 -59 109 -150q143 -119 155 -131q86 -88 86 -174q0 -135 -100 -223q-104 -94 -274 -94q-129 0 -201 52t-72 132z" />
<glyph unicode="t" horiz-adv-x="681" d="M90 180q0 66 121 670l-121 -10v75l150 68l98 203h106l-41 -232h275v-102h-293q-115 -631 -115 -623q0 -113 113 -112q63 0 199 45v-84q-201 -92 -318 -92q-174 -1 -174 194z" />
<glyph unicode="u" horiz-adv-x="1132" d="M61 854v68l326 67l41 -33q-8 -23 -76 -340q-74 -346 -73 -397q0 -102 104 -102q119 0 281 123l149 729h182q-41 -193 -84 -383q-82 -383 -82 -416q0 -72 101 -72q45 0 119 25v-74q-178 -66 -267 -65q-127 0 -129 125v30q-199 -156 -356 -155q-84 0 -137 45 q-66 51 -66 153q0 70 131 643z" />
<glyph unicode="v" horiz-adv-x="940" d="M-6 856v68l213 67q137 0 151 -147l62 -621q219 285 293 475l-39 246q43 47 110 47q115 0 115 -125q0 -76 -43 -155q-180 -338 -514 -711h-113q33 72 33 129q0 47 -24 309q-31 303 -56 371l-8 12q-6 12 -18 25z" />
<glyph unicode="w" horiz-adv-x="1460" d="M0 858v66l240 69l79 -4l46 -772q170 305 358 725l135 16l53 -774q193 246 312 516l-41 238q41 53 112 53q115 0 115 -123q0 -223 -524 -868h-129l-47 678q-229 -440 -375 -678h-152l23 51l-53 791z" />
<glyph unicode="x" horiz-adv-x="1042" d="M-66 100q0 98 111 113l90 -84q63 33 133 123q84 104 138 246q-16 72 -66 194q-55 139 -82 144l-172 22v64q207 74 233 73q119 0 216 -391q195 389 383 389q47 0 85.5 -33.5t38.5 -89.5q0 -74 -108 -120l-88 77q-55 -10 -127 -100t-131 -235q16 -59 67 -211 q72 -176 154 -177q39 0 113 25v-78q-123 -63 -234 -63q-152 0 -237 387q-88 -172 -150 -250q-113 -141 -233 -141q-53 0 -93.5 30.5t-40.5 85.5z" />
<glyph unicode="y" horiz-adv-x="1013" d="M-152 -303q0 49 40 85t83 36l117 -117q74 2 135.5 71.5t169.5 266.5q-43 233 -84 426q-84 385 -114 387l-179 14v60q195 70 234 69q92 0 158 -221q37 -125 112 -532l309 745h43l168 -55v-53l-104 -66q-113 -150 -154 -244q-207 -469 -286 -608q-240 -406 -467 -405 q-90 0 -140 49q-41 39 -41 92z" />
<glyph unicode="z" horiz-adv-x="901" d="M-35 45l680 764l-174 -39q-119 59 -176 59q-82 0 -115 -57l107 -129q-41 -72 -105 -72q-104 0 -104 125q0 104 81 198.5t195 94.5q61 0 161.5 -50t143.5 -50q25 0 54 14l41 105l141 -74l-682 -764l170 45q39 -16 111 -45q59 -23 94 -23q66 0 112 64l-110 123 q41 82 106 82q53 0 84 -43q25 -37 25 -88q0 -121 -98 -209q-90 -80 -187 -80q-57 0 -162.5 43t-154.5 43q-41 0 -62 -21l-47 -88z" />
<glyph unicode="{" horiz-adv-x="995" d="M133 543l21 102q150 0 206 27q80 37 117 159l58 275q37 160 124 242q100 92 373 92l-16 -94q-158 0 -218.5 -56.5t-101.5 -275.5q-43 -227 -108 -301q-76 -86 -207 -119q178 -53 178 -227q0 -59 -18 -162q-12 -59 -31 -174q-10 -94 16 -131q41 -57 199 -58l-18 -94 q-268 0 -334 94q-43 59 -43 152q0 55 32 215q27 133 27 182q0 70 -27 101q-43 51 -229 51z" />
<glyph unicode="|" horiz-adv-x="1024" d="M442 -483v2048h142v-2048h-142z" />
<glyph unicode="}" horiz-adv-x="995" d="M-16 -252l16 94q158 0 221 60q57 53 98 275t109 298q74 84 207 119q-180 53 -180 225q0 66 27.5 201t27.5 186q0 53 -21 82q-41 57 -198 58l18 94q268 0 334 -94q43 -59 43 -152q0 -55 -33 -215q-27 -133 -26 -182q0 -70 26 -101q43 -51 230 -51l-21 -102 q-150 0 -209 -27q-80 -39 -116 -160q-16 -55 -36 -171.5t-38 -174.5q-51 -160 -184 -219q-98 -43 -295 -43z" />
<glyph unicode="~" horiz-adv-x="1705" d="M178 455v143q225 141 393 141q92 0 222 -41q109 -33 215 -67q80 -20 135 -21q84 0 170 35q78 33 217 121v-145q-209 -139 -393 -140q-98 0 -283.5 65.5t-286.5 65.5q-94 0 -182 -39q-68 -28 -207 -118z" />
<glyph unicode="&#xa6;" horiz-adv-x="1024" d="M442 365h142v-848h-142v848zM442 717v848h142v-848h-142z" />
<glyph unicode="&#xad;" horiz-adv-x="653" d="M76 424l28 154h463l-28 -154h-463z" />
<glyph unicode="&#xb0;" horiz-adv-x="845" d="M76 1159q0 145 102.5 247.5t245.5 102.5t245.5 -102t102.5 -248q0 -143 -101.5 -245.5t-246.5 -102.5q-143 0 -245.5 102.5t-102.5 245.5zM164 1159q0 -109 74.5 -183.5t185.5 -74.5q115 0 187.5 73t72.5 185q0 109 -77 185.5t-183 76.5q-115 0 -187.5 -73.5 t-72.5 -188.5z" />
<glyph unicode="&#xb2;" horiz-adv-x="854" d="M-20 649l20 101q373 250 489 356q160 150 160 291q0 147 -162 147q-68 0 -133 -33l-30 -149q-39 -25 -80 -25q-76 0 -76 64q0 86 113.5 156.5t253.5 70.5q274 0 274 -215q0 -164 -201 -338q-74 -63 -207 -155q-72 -47 -219 -146h428l52 121h79l-47 -246h-714z" />
<glyph unicode="&#xb3;" horiz-adv-x="854" d="M25 793q0 86 88 86q35 0 59 -13l23 -121q55 -33 120 -32q117 0 197 70.5t80 174.5q0 150 -176 150q-51 0 -101 -8l15 94q145 -8 232 53.5t87 157.5q0 74 -51 113q-45 33 -106 32q-70 0 -142 -43l-22 -137q-49 -18 -78 -18q-25 0 -45 16q-27 23 -27 57q0 86 117 148 q111 55 246 55q268 0 268 -205q0 -82 -68 -149q-72 -74 -194 -109q201 -27 201 -186q0 -139 -132.5 -241.5t-316.5 -102.5q-133 0 -211 53q-63 46 -63 105z" />
<glyph unicode="&#xb6;" horiz-adv-x="995" d="M55 973q0 217 125 313q115 88 355 88h405v-74l-127 -20v-1442h-100v1452h-156v-715q-244 0 -360 80q-142 95 -142 318z" />
<glyph unicode="&#xb7;" horiz-adv-x="761" d="M100 748q0 117 82 198.5t199 81.5t199 -82t82 -198q0 -117 -82 -198t-199 -81t-199 81t-82 198z" />
<glyph unicode="&#xb9;" horiz-adv-x="854" d="M141 649v74l146 8q27 2 35 25l149 729q0 8 -8 8l-225 -29v70l354 94h45l-178 -874q-6 -25 18 -27l123 -6v-72h-459z" />
<glyph unicode="&#xe6;" horiz-adv-x="1409" d="M33 199q0 291 579 356q35 193 35 213q0 115 -127 115q-51 0 -127 -29l-33 -170h-141q-70 0 -69 45q0 8 2 19q23 115 159 180q117 59 260 59q168 0 217 -100q6 -10 13 -29q145 129 299 129q119 0 176 -80q39 -55 39 -129q0 -168 -207 -258q-147 -63 -344 -74 q-6 -55 -6 -86q0 -106 45 -174q53 -76 155 -75q88 0 181 57q43 27 151 117v-119q-213 -182 -397 -182q-190 0 -270 149q-213 -150 -377 -149q-98 0 -155.5 57.5t-57.5 157.5zM231 246q0 -123 131 -123q100 0 236 90q-14 72 -14 139q0 25 10 111q-363 -53 -363 -217zM776 532 q129 4 242 64q135 74 135 186q0 43 -27.5 72t-70.5 29q-96 0 -178 -113q-72 -101 -101 -238z" />
<glyph unicode="&#xe7;" horiz-adv-x="806" d="M31 367q0 254 170 444q164 182 360 182q72 0 134.5 -41t62.5 -106q0 -109 -140 -123l-114 154q-152 -2 -234 -185q-63 -141 -63 -305q0 -274 186 -274q137 0 326 180v-117q-61 -66 -146 -121q-102 -70 -172 -73l-43 -88q37 6 39 6q47 0 83 -42t36 -104q0 -94 -86 -149 q-78 -49 -186 -49q-63 0 -152 20l17 90q66 -16 124 -16q139 0 140 78q0 63 -74 63q-27 0 -92 -14l102 209q-150 20 -214 105.5t-64 275.5z" />
<glyph unicode="&#xfc;" horiz-adv-x="1132" d="M61 856v70l330 69l37 -34q-8 -23 -76 -343q-74 -346 -73 -397q0 -104 106 -104q123 0 279 123l151 735h180l-82 -385q-82 -385 -82 -418q0 -74 101 -74q43 0 117 25v-74q-178 -63 -267 -63q-123 0 -129 123v30q-195 -156 -360 -155q-80 0 -135 47q-63 53 -64 143 q0 66 131 655zM348 1296q0 43 35 79t78 36q45 0 78.5 -34t33.5 -81q0 -45 -32.5 -78.5t-79.5 -33.5q-45 0 -79 33.5t-34 78.5zM766 1296q0 43 35 79t78 36q45 0 78.5 -34t33.5 -81q0 -45 -32.5 -78.5t-79.5 -33.5q-45 0 -79 33.5t-34 78.5z" />
<glyph unicode="&#x2b0;" horiz-adv-x="854" d="M47 649l207 950l-139 11v47l245 49h54l-111 -492q156 127 283 127q137 0 137 -112q0 -25 -6 -58l-80 -391q-12 -57 72 -57q35 0 88 16l2 -53q-131 -45 -197 -45q-135 0 -117 88l90 428q2 14 3 25q0 59 -76 59q-92 0 -217 -113l-95 -479h-143z" />
<glyph unicode="&#x2b2;" horiz-adv-x="432" d="M-197 420q0 41 39 65l152 -39q35 27 78 189q57 219 112 606l-151 16v46l233 40h62l-97 -579q-29 -172 -110 -272q-123 -152 -230 -152q-88 0 -88 80zM207 1571q0 84 88 84q37 0 62.5 -23.5t25.5 -60.5q0 -29 -24.5 -55.5t-63.5 -26.5q-35 0 -61.5 22.5t-26.5 59.5z" />
<glyph unicode="&#x2b3;" horiz-adv-x="595" d="M41 649l125 578l-121 20v47l229 47h37l-43 -170q135 170 254 170q90 0 90 -79q0 -96 -120 -97l-39 72q-123 -45 -174 -141q-18 -37 -60 -242q-37 -188 -37 -205h-141z" />
<glyph unicode="&#x2b7;" horiz-adv-x="1095" d="M0 1251v45l180 50l60 -5l32 -538q117 190 271 506l100 12l41 -543q143 176 234 363l-31 166q29 37 84 36q86 0 86 -86q0 -156 -393 -608h-97l-35 475q-184 -328 -282 -475h-113l17 37l-39 553z" />
<glyph unicode="&#x2b8;" horiz-adv-x="759" d="M-115 438q0 35 30 59.5t62 24.5l89 -82q55 2 101 50.5t128 187.5q-51 244 -64 299q-63 268 -86 270l-133 8v43q145 49 174 50q72 0 119 -156q27 -88 84 -373l234 522h30l127 -38v-37l-78 -47q-66 -66 -114 -170q-156 -330 -217 -426q-178 -285 -348 -285q-70 0 -107 35 q-31 26 -31 65z" />
<glyph unicode="&#x2e1;" horiz-adv-x="421" d="M53 745q0 78 168 854l-131 15v49l227 43h52q-182 -911 -183 -926q0 -61 72 -61q47 0 113 26v-57q-129 -51 -201 -51q-117 -1 -117 108z" />
<glyph unicode="&#x2e2;" horiz-adv-x="552" d="M-27 766q0 80 84 80q41 0 74 -31l-29 -70q31 -45 107 -45q55 0 90 30t35 81t-60.5 98t-117.5 95q-68 61 -68 120q0 100 90 164q78 53 174 53q74 0 115 -32q31 -27 31 -60q0 -74 -95 -80l-67 86q-31 10 -45 11q-45 0 -69.5 -29t-24.5 -59q0 -39 82 -105q113 -88 114 -92 q66 -61 66 -121q0 -94 -77 -158.5t-204 -64.5q-96 0 -150.5 37t-54.5 92z" />
<glyph unicode="&#x2e3;" horiz-adv-x="782" d="M-49 721q0 66 82 78l67 -60q125 66 205 258q-12 51 -49 138q-43 98 -61 100l-132 16v43q156 53 177 54q88 0 161 -275q141 272 287 273q35 0 64.5 -25t29.5 -61q0 -53 -82 -84l-65 53q-100 -18 -195 -236q12 -43 52 -147q51 -123 114 -123q4 0 86 16v-53 q-98 -45 -176 -45q-113 0 -178 270q-150 -272 -287 -272q-100 0 -100 82z" />
<glyph unicode="&#x2f8;" horiz-adv-x="428" d="M61 731q0 41 28 65.5t67 24.5q37 0 64.5 -24.5t27.5 -63.5h2q0 -39 -27.5 -64.5t-66.5 -25.5q-41 0 -68 25.5t-27 62.5zM162 1245q0 37 27.5 62.5t66.5 25.5t65.5 -24.5t26.5 -63.5q0 -37 -25.5 -63.5t-66.5 -26.5q-37 0 -65.5 26.5t-28.5 63.5z" />
<glyph unicode="&#x307;" horiz-adv-x="0" d="M-221 1159q0 33 22.5 54.5t53.5 21.5q76 0 75 -76q0 -31 -21.5 -52.5t-53.5 -21.5q-31 0 -53.5 21.5t-22.5 52.5z" />
<glyph unicode="&#x308;" horiz-adv-x="995" d="M213 104q0 51 37 88t88 37t86 -35.5t35 -87.5q0 -53 -35 -88.5t-86 -35.5t-88 35.5t-37 86.5zM231 1174q0 82 78 145q94 80 264 80q166 0 262.5 -79t96.5 -218q0 -328 -457 -516l-45 -242h-121l58 313q154 47 249 150q113 117 113 274q0 207 -209 207h-18l-121 -201h-49 q-101 1 -101 87z" />
<glyph unicode="&#x327;" horiz-adv-x="0" />
<glyph unicode="&#x37e;" horiz-adv-x="569" d="M-88 -346l14 82q123 29 184.5 89t86.5 183h-119q-27 29 -27 68q0 63 43 107t107 44q137 0 137 -147q0 -162 -129 -287t-297 -139zM207 850q0 51 36 89t89 38q55 0 91 -35t36 -92q0 -55 -37 -93t-88 -38t-89 37t-38 94z" />
<glyph unicode="&#x387;" horiz-adv-x="761" d="M100 748q0 117 82 198.5t199 81.5t199 -82t82 -198q0 -117 -82 -198t-199 -81t-199 81t-82 198z" />
<glyph unicode="&#x394;" horiz-adv-x="1351" d="M0 0l645 1401h19l647 -1401h-1311zM123 72h926l-457 991z" />
<glyph unicode="&#x398;" horiz-adv-x="1511" d="M61 688q0 295 209 504t504 209t504 -209t209 -504t-209 -504t-504 -209t-504 209t-209 504zM287 688q0 -262 127 -442q137 -197 366 -197q209 0 353 217q129 195 129 422q0 250 -132 438q-143 207 -366 207q-215 0 -352 -209q-125 -188 -125 -436zM483 485v398h35 q0 -61 39 -97q31 -29 74 -28h291q39 0 71 28q41 35 41 97h35v-398h-35q0 61 -41 97q-33 29 -71 28h-291q-43 0 -74 -28q-39 -35 -39 -97h-35z" />
<glyph unicode="&#x39e;" horiz-adv-x="1286" d="M125 0v358h31q0 -178 157 -178h668q158 0 158 178h30v-358h-1044zM125 1018v358h1044v-358h-30q0 178 -158 178h-668q-158 0 -157 -178h-31zM336 477v430h35q0 -61 39 -96q31 -29 73 -29h338q39 0 72 29q41 35 41 96h35v-430h-35q0 61 -41 96q-33 29 -72 29h-338 q-43 0 -73 -29q-39 -35 -39 -96h-35z" />
<glyph unicode="&#x3a0;" horiz-adv-x="1574" d="M4 0v31q205 0 205 129v1030q0 156 -205 156v30h1430v-30q-205 0 -205 -156v-1030q0 -129 205 -129v-31h-615v31q205 0 205 129v1030q0 125 -195 125h-221q-195 0 -194 -125v-1030q0 -129 204 -129v-31h-614z" />
<glyph unicode="&#x3a8;" horiz-adv-x="1767" d="M0 1339v29q207 0 266 -47q92 -72 92 -328q0 -305 82 -405q78 -92 322 -101v703q0 156 -184 156v30h573v-30q-184 0 -184 -156v-703q244 8 321 101q82 100 82 405q0 256 92 328q59 47 267 47v-29q-96 0 -127 -49q-43 -72 -43 -315q0 -279 -84 -385q-125 -158 -508 -172 v-248q0 -63 69 -102q61 -37 135 -37v-31h-614v31q74 0 135 37q70 39 70 102v248q-383 14 -508 172q-84 106 -84 385q0 244 -43 315q-31 49 -127 49z" />
<glyph unicode="&#x1d2c;" horiz-adv-x="944" d="M-115 649v68l86 8l559 895h111l164 -875q4 -20 20 -22l80 -6v-68h-346v68l94 6q8 8 6 16l-47 262h-356l-160 -262q-6 -16 10 -16l95 -6v-68h-316zM299 1075h299l-66 381z" />
<glyph unicode="&#x1d2e;" horiz-adv-x="911" d="M-12 649v68q117 0 123 33l157 768q0 20 -20 20l-90 8v66h413q293 0 293 -185q0 -190 -235 -264q207 -25 207 -190q0 -324 -441 -324h-407zM252 725q33 -4 92 -4q330 0 330 237q0 154 -230 154q-63 0 -112 -6zM346 1184q6 0 34 -2t36 -2q141 0 219 71q68 63 67 164 q0 129 -206 129q-55 0 -80 -4z" />
<glyph unicode="&#x1d30;" horiz-adv-x="1017" d="M-12 649v68l84 6q33 2 39 29l159 766q4 20 -20 20l-92 8v66h352q477 0 477 -369q0 -231 -153 -397q-178 -197 -498 -197h-348zM256 729l109 2q186 4 301 109q70 63 115.5 176.5t45.5 240.5q0 276 -307 277h-100z" />
<glyph unicode="&#x1d31;" horiz-adv-x="849" d="M-23 649v68l86 6q31 2 37 29l160 764q4 23 -20 22l-90 8v66h716l-45 -219h-86v120q0 20 -14 21h-313l-74 -344h217q25 0 41 49q10 37 18 74h80l-65 -324h-76q4 39 8 80q2 41 -16 41h-222l-79 -383h372q23 0 52 80q20 53 26 86h82l-49 -244h-746z" />
<glyph unicode="&#x1d33;" horiz-adv-x="1011" d="M59 1034q0 264 207 436q188 160 441 160q125 0 276 -45l-45 -233h-94l6 133q2 31 -29 37q-55 27 -133 26q-186 0 -321 -145q-145 -156 -146 -391q0 -152 101 -232q82 -66 192 -65q82 0 156 18l55 293q2 16 -10 18l-105 7v67h389v-67l-98 -7q-25 -2 -24 -22l-72 -340 q-197 -49 -322 -49q-225 0 -338 139q-86 108 -86 262z" />
<glyph unicode="&#x1d34;" horiz-adv-x="1093" d="M-35 649v68l92 8q27 2 31 25l160 766q8 23 -23 22l-90 8v66h385v-66l-92 -6q-29 -2 -35 -27l-67 -321h481l70 324q4 20 -19 22l-94 8v66h383v-66l-92 -6q-29 -2 -33 -27l-158 -768q-8 -18 21 -20l90 -8v-68h-383v68l98 8q20 2 25 25l76 364h-480l-78 -369q-4 -18 36 -22 t79 -6v-68h-383z" />
<glyph unicode="&#x1d35;" horiz-adv-x="458" d="M-29 649v68l88 6q35 2 35 27l158 766q4 20 -34 24t-77 6v66h379v-66l-100 -8q-23 -2 -23 -20l-159 -773q-4 -18 35.5 -22t78.5 -6v-68h-381z" />
<glyph unicode="&#x1d36;" horiz-adv-x="686" d="M-66 670l52 248h88v-177q0 -20 16 -24q37 -4 51 -4q94 0 140 75q33 55 67 218l107 510q4 20 -34 24t-77 6v66h379v-66l-102 -8q-12 0 -21 -25l-98 -495q-39 -199 -111 -283q-86 -102 -260 -102q-86 0 -197 37z" />
<glyph unicode="&#x1d37;" horiz-adv-x="960" d="M-47 649v68l90 6q33 2 33 27l162 774q2 14 -33 18q-41 2 -80 4v66h383v-66l-111 -8q-8 0 -12 -18l-82 -377h33l416 383q8 6 -4 12l-115 6v68h381v-70l-129 -8l-396 -358l209 -379q27 -49 50.5 -63.5t64.5 -16.5h70v-68q-100 -4 -135 -4q-70 0 -101 12q-45 16 -78 76 l-184 338h-98l-68 -334q0 -12 10 -12l107 -8v-68h-383z" />
<glyph unicode="&#x1d38;" horiz-adv-x="765" d="M-43 649v68l86 6q33 2 37 25l160 776q4 18 -41 20q-37 2 -74 2v66h383v-66l-105 -8q-18 -2 -18 -14l-166 -797h301q37 0 66 90l24 103h88l-55 -271h-686z" />
<glyph unicode="&#x1d39;" horiz-adv-x="1288" d="M-35 649v68q117 0 123 33l158 766q4 20 -35 24t-76 6v66h324v-43l133 -705l418 699v49h329v-66l-100 -8q-18 -2 -22 -25l-158 -768q0 -18 16 -20l96 -8v-68h-376v68l110 8q10 0 19 23l153 747l-508 -846h-75l-158 844l-150 -748q-4 -16 34 -21t75 -7v-68h-330z" />
<glyph unicode="&#x1d3a;" horiz-adv-x="1067" d="M-29 649v68l107 8q12 0 16 18l162 783q6 10 -8 12l-105 8v66h275v-41l352 -697l135 642q4 23 -8 22l-102 8v66h331v-66l-100 -8q-18 -2 -22 -22l-177 -867h-98l-393 774l-143 -684q-4 -12 12 -14l100 -8v-68h-334z" />
<glyph unicode="&#x1d3c;" horiz-adv-x="1087" d="M82 1026q0 240 160.5 421t398.5 181q178 0 292 -108.5t114 -272.5q0 -242 -150 -422q-160 -193 -408 -192q-178 0 -292.5 106.5t-114.5 286.5zM242 1016q0 -141 70.5 -222t187.5 -81q164 0 278 178q106 162 107 356q0 139 -70 221t-188 82q-166 0 -279 -174 q-106 -159 -106 -360z" />
<glyph unicode="&#x1d3e;" horiz-adv-x="843" d="M-35 649v68l101 8q23 2 22 25l160 774q0 14 -12 14l-103 8v66h369q340 0 340 -232q0 -170 -131 -271t-326 -101h-98l-58 -269q-2 -14 7 -14l100 -8v-68h-371zM301 1090q29 -2 57 -3q141 0 230 62q100 72 100 207q0 182 -233 182q-49 0 -60 -2z" />
<glyph unicode="&#x1d3f;" horiz-adv-x="925" d="M-45 649v66l102 8q16 2 21 25l162 776q-6 14 -13 14l-112 8v66h409q307 0 307 -213q0 -223 -284 -295q55 -20 96 -77.5t66 -147.5q14 -51 20 -68q14 -35 35 -61q27 -33 135 -33v-66q-63 -8 -106 -8q-121 0 -162 57q-31 43 -51 111q-14 59 -31 119q-12 39 -27 65 q-25 43 -49 58q-33 20 -100 20q-18 0 -47 -2t-33 -2l-70 -332q-2 -12 36 -15t79 -5v-68h-383zM307 1151h37q328 0 328 227h2q0 158 -225 158h-29q-25 -2 -33 -2z" />
<glyph unicode="&#x1d40;" horiz-adv-x="868" d="M88 1389l45 223h830l-50 -223h-94l8 139q0 14 -14 14h-207l-164 -803q-4 -16 36 -18t79 -4v-68h-383v68l111 8q12 0 12 14l162 803h-203q-16 0 -23 -18l-51 -135h-94z" />
<glyph unicode="&#x1d41;" horiz-adv-x="1011" d="M106 879q0 49 125 637q4 20 -34.5 24t-77.5 6v66h383v-66q-119 0 -125 -33q-121 -561 -121 -610q0 -170 215 -170q141 0 215 82q55 61 82 193l106 508q4 20 -35.5 24t-80.5 6v66h332v-66l-84 -6q-39 -2 -39 -27l-117 -557q-68 -322 -418 -321q-326 0 -326 244z" />
<glyph unicode="&#x1d42;" horiz-adv-x="1380" d="M78 1546v66h340v-66q-33 -2 -64 -2q-37 -4 -35 -20l56 -643l368 731h109l82 -742l321 654q8 16 -27.5 18t-72.5 4v66h305v-66l-90 -8l-444 -889h-99l-88 760l-379 -760h-106l-76 873q-2 14 -35.5 18t-64.5 6z" />
<glyph unicode="&#x1d43;" horiz-adv-x="604" d="M20 1274q0 125 84 217q92 98 238 98q59 0 104 -22l21 22h68q-10 -25 -23 -59q-16 -41 -45 -169t-29 -159q0 -43 54 -43q10 0 39.5 5t31.5 5v-36q-100 -35 -143 -35q-72 0 -76 73q-84 -76 -164 -75q-86 0 -127 61q-33 47 -33 117zM123 1280q0 -115 92 -115q49 0 131 62 l57 260q2 4 -18 29.5t-27 25.5q-123 0 -184 -90q-51 -74 -51 -172z" />
<glyph unicode="&#x1d47;" horiz-adv-x="778" d="M37 702l176 891l-131 23v47l233 43h62q-41 -133 -98 -455q113 96 213 97q100 0 155 -80q45 -70 45 -174q0 -162 -98 -295q-119 -162 -320 -162q-106 -1 -237 65zM180 760q47 -51 125 -51q106 0 180 127q70 117 70 254h2q0 84 -39 127q-33 33 -78 32q-76 0 -176 -73z" />
<glyph unicode="&#x1d48;" horiz-adv-x="802" d="M33 891q0 182 114 317q123 143 308 144q68 0 112 -23l51 270l-133 15v49l236 43h49q0 -2 -86 -453.5t-86 -476.5q0 -55 61 -55q23 0 105 16v-55q-129 -43 -195 -43q-104 0 -104 109v8q-104 -119 -221 -119q-111 0 -166 82q-45 66 -45 172zM168 899q0 -168 123 -168 q84 0 186 115l68 360q2 8 -33 42t-59 34q-119 0 -202 -109.5t-83 -273.5z" />
<glyph unicode="&#x1d49;" horiz-adv-x="651" d="M33 895q0 172 117.5 309t269.5 137q72 0 117 -38.5t45 -108.5q0 -109 -144 -174q-115 -51 -266 -57q-4 -25 -4 -62q0 -174 147 -174q100 0 248 123v-82q-135 -131 -297 -131q-86 0 -147 47q-86 66 -86 211zM180 1022q106 6 189 53q90 51 90 121q0 74 -72 74 q-74 0 -135 -86q-52 -72 -72 -162z" />
<glyph unicode="&#x1d4d;" horiz-adv-x="722" d="M-47 532q0 137 201 201v8q-2 8 -2 13q0 78 57 135q-137 55 -137 176q0 113 84 194.5t215 81.5q88 0 145 -34h207v-74h-139q18 -43 18 -86q0 -115 -86 -195t-211 -80q-6 0 -16 2h-15q-23 -49 -18 -73l201 -86q82 -35 112 -64q45 -39 45 -98q0 -92 -115.5 -153.5 t-256.5 -61.5q-137 0 -213 54t-76 140zM82 557q0 -55 47 -96q55 -51 152 -51q104 0 161 43q43 31 43 71q0 53 -75 86l-195 84q-133 -26 -133 -137zM205 1049q0 -117 92 -117q78 0 129 78q43 68 43 145q0 123 -94 123q-63 0 -116.5 -67.5t-53.5 -161.5z" />
<glyph unicode="&#x1d4f;" horiz-adv-x="790" d="M37 649l205 957l-140 6v51l242 43h53l-157 -694q98 100 262 256q86 78 139 78q41 0 66.5 -24t25.5 -56q-2 -66 -92 -95l-53 56q-78 -55 -187 -148q35 -78 115 -227q78 -129 154 -129q39 0 88 12v-53q-123 -39 -183 -39q-72 0 -112 57q-47 68 -160 291l-78 -65l-49 -277 h-139z" />
<glyph unicode="&#x1d50;" horiz-adv-x="1251" d="M49 649l127 578l-123 20v47l228 47h49l-27 -122q166 123 270 122q113 0 129 -122q156 123 281 122q131 0 131 -122q0 -20 -4 -45l-76 -386q-12 -66 70 -65q20 0 92 14v-49q-123 -47 -197 -47q-121 0 -120 74q0 10 2 20l82 381q6 31 6 53q0 74 -64 74q-74 0 -207 -110 l-100 -484h-141l102 469q4 23 4 43q0 82 -74 82q-70 0 -202 -115l-97 -479h-141z" />
<glyph unicode="&#x1d52;" horiz-adv-x="772" d="M33 907q0 180 112.5 307t280.5 127q111 0 182 -63q82 -76 82 -213q0 -178 -113.5 -303t-279.5 -125q-119 0 -191.5 72.5t-72.5 197.5zM174 915q0 -209 139 -208q109 0 176 118q59 106 60 244q0 207 -139 207q-102 0 -170 -113q-66 -105 -66 -248z" />
<glyph unicode="&#x1d56;" horiz-adv-x="778" d="M-106 338v53l96 19q6 4 10 20l158 807l-119 14v47l219 43h49l-16 -79q117 80 221 79q98 0 152 -75q45 -68 45 -174q0 -180 -124 -315.5t-298 -135.5q-66 0 -111 23l-49 -248l143 -25v-53h-376zM193 750q53 -35 122 -35q121 0 193 127q61 109 61 243q0 70 -28 117 q-35 53 -99 53q-78 0 -166 -73z" />
<glyph unicode="&#x1d57;" horiz-adv-x="512" d="M68 776q0 49 90 469l-90 -8v53l112 47l74 144h80l-31 -162h205v-72h-219q-2 -12 -45 -225q-41 -195 -41 -211q0 -80 84 -80q68 0 149 33v-59q-150 -66 -237 -66q-131 0 -131 137z" />
<glyph unicode="&#x1d58;" horiz-adv-x="849" d="M45 1247v47l246 47l31 -22q-4 -8 -58 -238q-55 -242 -55 -278q0 -72 78 -72q84 0 211 86l112 510h135l-61 -268q-61 -268 -61 -291q0 -49 73 -49q8 0 90 16v-51q-133 -45 -198 -45q-96 0 -99 86v23q-147 -109 -266 -109q-154 0 -153 139q0 104 100 449z" />
<glyph unicode="&#x1d5b;" horiz-adv-x="704" d="M-4 1249v47l160 47q102 0 112 -102l47 -434q166 205 220 332l-29 172q31 33 82 32q86 0 86 -88q0 -39 -31 -108q-139 -238 -387 -498h-84q27 55 25 96q-2 49 -19 211q-23 213 -41 261l-6 8q-4 8 -14 16z" />
<glyph unicode="&#x1d5d;" horiz-adv-x="745" d="M39 377v850q0 199 84 323q90 133 250 133q117 0 188 -65q66 -57 66 -137q0 -166 -209 -244q113 -12 194 -86q92 -86 93 -211q0 -133 -84 -220t-197 -87q-141 0 -213 108l22 13q70 -86 164 -86q172 0 172 264q0 133 -80 221q-59 66 -102 66q-8 0 -39 -12.5t-47 -12.5 q-53 0 -53 41q0 39 51 39q14 0 44 -9.5t36 -9.5q35 0 78 39q63 57 63 160q0 92 -61 148q-51 47 -115 47q-84 0 -133 -74t-49 -201v-997h-123z" />
<glyph unicode="&#x1d60;" horiz-adv-x="989" d="M45 1008q0 164 115 260q111 90 293 98l8 240q2 43 24 43q20 0 23 -43l8 -240q186 -6 295 -94q117 -94 117 -264q0 -160 -107.5 -259.5t-281.5 -113.5l6 -172q4 -86 -64 -86t-63 86l8 174q-170 16 -272 115q-109 100 -109 256zM170 1008q0 -139 70.5 -228.5t185.5 -107.5 l25 655q-127 -8 -201 -88q-80 -84 -80 -231zM516 1327l23 -655q117 18 186.5 107t69.5 229q0 145 -76 227t-203 92z" />
<glyph unicode="&#x1d9c;" horiz-adv-x="606" d="M23 901q0 186 127 320q119 125 270 125q68 0 108.5 -32t40.5 -71q0 -74 -104 -88l-86 109q-82 4 -146 -78q-78 -96 -77 -268q0 -184 141 -185q115 0 242 127v-84q-145 -141 -289 -141q-102 0 -162 67q-65 72 -65 199z" />
<glyph unicode="&#x1da0;" horiz-adv-x="464" d="M-217 416q0 43 39 69l155 -36q70 74 111 294q23 152 74 486l-115 -10v59l131 43q31 145 98 246q92 133 224 133q63 0 102 -31q33 -29 33 -61q0 -66 -84 -80l-123 94q-43 -20 -84 -143q-31 -92 -43 -172h188v-78h-202q-45 -369 -90 -545q-33 -129 -125 -233 q-98 -111 -199 -111q-35 0 -62.5 20.5t-27.5 55.5z" />
<glyph unicode="&#x1dbb;" horiz-adv-x="675" d="M-27 682l510 535l-129 -27q4 0 -47 20.5t-86 20.5q-61 0 -86 -41l80 -90q-31 -49 -78 -49q-80 0 -80 86q0 74 60.5 139t148.5 65q45 0 120 -34.5t108 -34.5q10 0 41 10l30 74l107 -51l-512 -537l127 33q29 -12 84 -33q39 -14 69 -14q49 0 86 43l-84 86q31 57 80 57 q82 0 82 -90q0 -84 -74 -148q-68 -55 -139 -55q-37 0 -94 19q-47 16 -92 32q-29 8 -53 9q-33 0 -46 -15l-34 -61z" />
<glyph unicode="&#x1fef;" horiz-adv-x="704" d="M121 1409q0 90 94 90q61 0 104 -51l275 -320h-127l-297 195q-49 33 -49 86z" />
<glyph unicode="&#x2000;" horiz-adv-x="851" />
<glyph unicode="&#x2001;" horiz-adv-x="2048" />
<glyph unicode="&#x2002;" horiz-adv-x="851" />
<glyph unicode="&#x2003;" horiz-adv-x="2048" />
<glyph unicode="&#x2004;" horiz-adv-x="567" />
<glyph unicode="&#x2005;" horiz-adv-x="425" />
<glyph unicode="&#x2006;" horiz-adv-x="282" />
<glyph unicode="&#x2007;" horiz-adv-x="282" />
<glyph unicode="&#x2008;" horiz-adv-x="212" />
<glyph unicode="&#x2009;" horiz-adv-x="339" />
<glyph unicode="&#x200a;" horiz-adv-x="94" />
<glyph unicode="&#x2010;" horiz-adv-x="653" d="M76 424l28 154h463l-28 -154h-463z" />
<glyph unicode="&#x2011;" horiz-adv-x="653" d="M76 424l28 154h463l-28 -154h-463z" />
<glyph unicode="&#x2012;" horiz-adv-x="653" d="M76 424l28 154h463l-28 -154h-463z" />
<glyph unicode="&#x2013;" horiz-adv-x="1185" d="M76 424l60 154h964l-60 -154h-964z" />
<glyph unicode="&#x2014;" horiz-adv-x="2209" d="M76 424l119 154h1929l-120 -154h-1928z" />
<glyph unicode="&#x202f;" horiz-adv-x="339" />
<glyph unicode="&#x205f;" horiz-adv-x="425" />
<glyph unicode="&#x2070;" horiz-adv-x="854" d="M57 954q0 254 123 451q139 223 363 223q137 0 210.5 -89t73.5 -234q0 -264 -133 -461q-141 -211 -350 -211q-133 0 -210 84.5t-77 236.5zM209 932q0 -219 149 -219q133 0 230 209q86 190 86 409t-148 219q-137 0 -231 -209q-86 -188 -86 -409z" />
<glyph unicode="&#x2071;" horiz-adv-x="440" d="M51 1251v47l221 48h50l-111 -572q0 -49 61 -49q57 0 119 25v-58q-129 -53 -213 -53q-104 0 -104 100q0 33 43 244q39 190 53 248zM219 1577q0 33 26.5 57.5t61.5 24.5t59.5 -24.5t24.5 -57.5q0 -35 -24.5 -58.5t-61.5 -23.5q-86 0 -86 82z" />
<glyph unicode="&#x2074;" horiz-adv-x="854" d="M29 938l20 100l608 590h101l-121 -588h139l-22 -102h-140l-65 -328h-131l67 328h-456zM193 1040h313l82 383z" />
<glyph unicode="&#x2075;" horiz-adv-x="854" d="M20 766q0 39 27 64.5t68 25.5q14 0 41 -4l41 -121q66 -20 104 -20q121 0 202 77.5t81 182.5q0 178 -256 178q-49 0 -160 -10l104 473h543l-24 -121h-441l-59 -272q90 23 162 22q113 0 186 -49q94 -61 94 -184q0 -156 -139 -266.5t-326 -110.5q-248 0 -248 135z" />
<glyph unicode="&#x2076;" horiz-adv-x="854" d="M57 965q0 272 197 478t504 234l2 -86q-195 -18 -336 -127q-133 -104 -168 -245q119 80 250 79q117 0 194.5 -69.5t77.5 -190.5q0 -168 -120.5 -286.5t-286.5 -118.5q-123 0 -205 65q-109 87 -109 267zM205 948q0 -238 174 -237q102 0 176 87t74 203q0 201 -187 201 q-106 0 -206 -74q-31 -123 -31 -180z" />
<glyph unicode="&#x2077;" horiz-adv-x="854" d="M63 596l676 895h-450l-49 -129h-84l51 250h711l-15 -66l-690 -915l-6 -35h-144z" />
<glyph unicode="&#x2078;" horiz-adv-x="854" d="M27 858q0 80 55 154q66 86 194 139q-117 59 -116 178q0 125 102.5 213t261.5 88q127 0 199 -56t72 -149q0 -174 -222 -270q184 -72 185 -209q0 -135 -123 -228t-293 -93q-145 0 -230 61t-85 172zM168 883q0 -76 52 -125t151 -49q102 0 168.5 59t66.5 137q0 98 -262 207 q-176 -82 -176 -229zM299 1362q0 -96 201 -176q162 80 162 227q0 143 -152 143q-92 0 -151.5 -57t-59.5 -137z" />
<glyph unicode="&#x2079;" horiz-adv-x="854" d="M63 639q188 68 302 143q141 98 237 254q-121 -68 -240 -67q-102 0 -178 57q-92 70 -92 199q0 170 126 286.5t304 116.5q111 0 187 -49q117 -74 116 -252q0 -289 -245 -504q-195 -170 -484 -256zM246 1253q0 -94 59 -147q49 -45 125 -45q70 0 145 39q49 25 72 47 q29 115 29 180q0 227 -180 227q-104 0 -177 -91t-73 -210z" />
<glyph unicode="&#x207a;" horiz-adv-x="1280" d="M190 1032v92h400v381h100v-381h400v-92h-398v-383h-102v383h-400z" />
<glyph unicode="&#x207b;" horiz-adv-x="489" d="M57 946l21 109h348l-23 -109h-346z" />
<glyph unicode="&#x207c;" horiz-adv-x="1280" d="M190 903v80h900v-80h-900zM190 1169v82h900v-82h-900z" />
<glyph unicode="&#x207d;" horiz-adv-x="643" d="M121 850q0 293 147 534q168 276 439 295l-15 -71q-221 -27 -342 -326q-92 -225 -92 -461q0 -264 213 -305l-14 -70q-141 4 -238.5 117t-97.5 287z" />
<glyph unicode="&#x207e;" horiz-adv-x="643" d="M-63 444l16 74q227 25 346 342q86 225 86 449q0 98 -35 172q-55 111 -178 127l14 71q197 -20 283 -180q51 -98 51 -215q0 -350 -172 -588q-165 -227 -411 -252z" />
<glyph unicode="&#x207f;" horiz-adv-x="854" d="M47 649l127 578l-123 20v47l228 47h49l-27 -127q162 127 285 127q137 0 137 -112q0 -25 -6 -58l-80 -391q-12 -57 72 -57q35 0 88 16l2 -53q-131 -45 -197 -45q-135 0 -117 88l90 428q2 14 3 25q0 59 -76 59q-92 0 -217 -113l-95 -479h-143z" />
<glyph unicode="&#x2113;" horiz-adv-x="854" d="M51 117l53 -94q242 129 439 454q211 350 211 692q0 190 -47 256q-37 51 -134 52q-121 0 -225 -244q-127 -299 -127 -797q0 -229 68.5 -349t193.5 -120q76 0 129 53q70 72 160 279l-78 47q-90 -244 -192 -244q-127 0 -127 529q0 319 53 524q51 190 119 191q41 0 57 -50 q18 -59 19 -225q0 -285 -193 -582q-176 -272 -379 -372z" />
<glyph unicode="&#x212a;" horiz-adv-x="1280" d="M-61 0v94l118 10q39 4 45 37l215 1106q4 20 -47 24.5t-104 8.5v94h510v-94l-146 -10q-12 0 -18 -27l-109 -538h46l552 546q14 14 -6 17l-151 10v96h508v-98l-172 -12l-527 -512l279 -543q35 -68 66.5 -89.5t86.5 -23.5q47 -2 93 -2v-94q-137 -8 -183 -8q-92 0 -133 16 q-59 27 -102 111l-248 483h-129l-90 -477q-4 -16 14 -19l142 -12v-94h-510z" />
<glyph unicode="&#x212d;" horiz-adv-x="1396" d="M84 586q0 272 215 471l342 317h616l25 -65l-170 -181h-500l199 -380q37 -70 37 -115q0 -35 -29 -98l-135 -302q49 -6 107 -6q156 0 241 35q59 23 156 98l125 -63l-178 -285q-201 -39 -322 -39q-373 0 -575 230q-154 176 -154 383zM260 684q0 -143 72 -252 q82 -123 237 -174l56 129q14 33 14 64q0 35 -18 69l-248 484q-78 -84 -97 -148q-16 -49 -16 -172z" />
<glyph unicode="&#x2135;" horiz-adv-x="1220" d="M63 0l11 51q131 16 131 88q0 35 -59.5 146.5t-59.5 179.5q0 158 190 366l-49 50q-90 90 -121 149q-37 68 -36 168q0 96 63 178q53 68 90 68q18 0 19 -29q0 -4 -13.5 -23.5t-13.5 -33.5q0 -51 66 -125q51 -49 102 -100l299 -299l143 180q-74 55 -98 104q-18 35 -18 92 q0 96 71 172q57 61 97 62q18 0 18 -19q0 -4 -5 -9t-5 -19q0 -49 108 -127q129 -94 129 -238q0 -100 -43 -153q-35 -43 -75 -43q-20 0 -39 34q-31 55 -84 101l-150 -187l252 -254q90 -90 121 -149q39 -70 39 -168q0 -96 -66 -178q-53 -68 -90 -68q-18 0 -18 29q0 4 13 24.5 t13 34.5q0 49 -65 123l-103 103l-501 501q-55 -82 -56 -147q0 -86 123 -233.5t123 -235.5q0 -72 -54 -119t-132 -47h-267z" />
<glyph unicode="&#x214f;" horiz-adv-x="1839" d="M100 109q158 0 269 110q-61 135 -62 281q0 190 139 190q59 0 96.5 -48t37.5 -134q0 -147 -76 -279q80 -90 176 -90q80 0 156 72q-53 131 -54 297q0 88 41 135t99 47q133 0 133 -182q0 -147 -76 -289q70 -80 178 -80q92 0 168 72q-63 121 -63 297q0 92 43 141q35 41 92 41 q135 0 135 -182q0 -147 -70 -287q106 -113 277 -112l-21 -117q-211 0 -325 125q-109 -125 -248 -125q-156 0 -246 114q-109 -115 -240 -114q-139 0 -235 131q-129 -129 -309 -129zM414 457q0 -68 28 -131q29 68 29 131q0 117 -25 116q-32 1 -32 -116zM891 463q0 -68 24 -141 q33 70 33 141q0 111 -28 110q-29 1 -29 -110zM1366 465q0 -78 31 -146q29 68 28 146q0 109 -28 108q-31 1 -31 -108z" />
<glyph unicode="&#x2225;" horiz-adv-x="1024" d="M283 -483v2048h141v-2048h-141zM602 -483v2048h141v-2048h-141z" />
<glyph unicode="&#x27e6;" horiz-adv-x="1222" d="M285 -270v1720h850v-92h-322v-1534h322v-94h-850zM463 -176h172v1534h-172v-1534z" />
<glyph unicode="&#x27e7;" horiz-adv-x="1222" d="M90 -176h322v1534h-322v92h848v-1720h-848v94zM590 -176h172v1534h-172v-1534z" />
<glyph unicode="&#x2afd;" horiz-adv-x="1003" d="M152 -190l423 1564h119l-424 -1564h-118zM391 -190l424 1564h121l-426 -1564h-119z" />
<glyph unicode="&#x2c7d;" horiz-adv-x="935" d="M86 1546v66h330v-66l-66 -4q-33 -2 -31 -18l117 -717l402 719q2 2 -2.5 7t-8.5 5l-90 8v66h299v-66l-84 -8l-520 -895h-102l-150 879q-2 16 -39 20q-26 2 -55 4z" />
<glyph unicode="&#x2c88;" horiz-adv-x="1552" d="M84 659q0 389 264 584q201 147 483 148q211 0 412 -136q209 -141 227 -319h-301q-16 115 -102 227q-100 135 -219 135q-145 0 -252 -118q-125 -139 -139 -404h671q166 0 258 -39q84 -37 84 -92q0 -72 -55 -72h-102q-31 0 -107 37q-100 49 -162 68q-117 37 -243 37h-346 v-2q0 -326 110 -496q98 -152 258 -151q147 0 244 139q74 106 102 268l301 2q-25 -213 -182 -348q-180 -154 -491 -154q-289 0 -490 174q-223 190 -223 512z" />
<glyph unicode="&#x2e00;" horiz-adv-x="598" d="M78 879v561q0 27 20.5 45t44.5 18h314q66 0 65 -43q0 -45 -65 -45h-291v-536q0 -63 -43 -64q-45 1 -45 64z" />
<glyph unicode="&#x2e02;" horiz-adv-x="495" d="M78 879v362q0 29 20 47l213 201q23 20 45 20q45 0 45 -43q0 -23 -18 -39l-215 -198v-350q0 -63 -45 -64q-45 1 -45 64z" />
<glyph unicode="&#x2e03;" horiz-adv-x="495" d="M96 1475q0 39 39 38q23 0 49 -24l213 -201q20 -18 21 -47v-362q0 -66 -45 -66q-43 0 -43 66v358l-209 190q-25 23 -25 48z" />
<glyph unicode="&#x2e06;" horiz-adv-x="886" d="M74 1460q0 43 65 43h609q63 0 63 -43t-63 -43h-263v-538q0 -63 -43 -64q-43 0 -43 64v538h-260q-65 0 -65 43z" />
<glyph unicode="&#x2e09;" horiz-adv-x="751" d="M76 907q0 41 53 41q16 0 71.5 -26.5t94.5 -26.5q45 0 71.5 35t26.5 82q0 33 -46 124t-46 154q0 96 71.5 159.5t170.5 63.5q41 0 82 -16q51 -23 51 -59q0 -33 -41 -33q-16 0 -52 11t-55 11q-57 0 -98 -34.5t-41 -92.5q0 -49 46 -144t46 -152q0 -86 -58 -141.5t-144 -55.5 q-47 0 -119 29q-84 34 -84 71z" />
<glyph unicode="&#x2e0a;" horiz-adv-x="751" d="M76 1438q0 -33 41 -33q12 0 51 11t55 11q55 0 97 -34.5t42 -92.5q0 -49 -46 -144t-46 -152q0 -86 57.5 -141.5t145.5 -55.5q70 0 166 53q37 20 37 47q0 41 -53 41q-14 0 -68.5 -26.5t-97.5 -26.5q-39 0 -69 31.5t-30 85.5q0 33 46.5 123t46.5 155q0 96 -71 159.5 t-171 63.5q-49 0 -88 -20q-45 -22 -45 -55z" />
<glyph unicode="&#x2e0b;" horiz-adv-x="806" d="M78 918v522q0 27 19.5 45t45.5 18h521q27 0 46 -18.5t19 -44.5v-522q0 -25 -20.5 -44.5t-44.5 -19.5h-521q-25 0 -45 19.5t-20 44.5zM168 944h473v471h-473v-471z" />
<glyph unicode="&#x2e0c;" horiz-adv-x="864" d="M94 1473q0 39 41 38q25 0 47 -20l584 -508q27 -23 27 -49q0 -41 -41 -41q-25 0 -47 20l-582 508q-29 25 -29 52z" />
<glyph unicode="&#xe000;" horiz-adv-x="995" d="M0 995h995v-995h-995v995z" />
<glyph unicode="&#x1d40c;" horiz-adv-x="1914" d="M59 0v49q80 0 145.5 40t65.5 99v959q0 66 -53 119q-61 59 -158 59v51h471l484 -946l395 946h467v-51q-72 0 -102 -25q-37 -31 -37 -110v-1000q0 -141 164 -141v-49h-656v49q164 0 164 141v908l-467 -1114h-53l-498 977v-773q0 -59 70 -100q63 -39 145 -39v-49h-547z" />
<glyph unicode="&#x1d504;" horiz-adv-x="1480" d="M84 1169l256 222q172 -2 289 -142q111 -133 110 -311q0 -154 -96 -301q-68 -102 -207 -234q23 -14 230 -161l264 235v481q0 178 -101 209v66q193 33 443 158l45 -62q-113 -115 -113 -219v-733q0 -80 78 -80q49 0 72 16l45 -57l-238 -264q-231 0 -231 239v119l-424 -385 l-400 271v53q371 176 371 493q0 135 -82 240q-76 94 -157 94q-57 0 -125 -12z" />
<glyph unicode="&#x1d505;" horiz-adv-x="1507" d="M84 1163l256 221q236 -37 315 -241l293 252q20 2 41 2q131 0 230 -70q106 -76 106 -192q0 -180 -156 -263q121 -41 187.5 -139t66.5 -217q0 -147 -123 -252q-94 -84 -210 -108q-88 -18 -197 -78l-201 -109l-588 322v104q182 70 258 162t76 240q0 137 -71 233 q-66 88 -146 88q-59 0 -108 -20zM426 479l506 -266q96 -2 158 76q51 63 51 135q0 143 -121 217q-98 59 -242 59q-55 0 -160 -22q-71 -113 -192 -199zM662 762l88 14q88 14 174 62q131 72 131 176q0 131 -181 131q-29 0 -77.5 -15.5t-67.5 -33.5l-47 -45q10 -51 10 -127 q1 -80 -30 -162z" />
<glyph unicode="&#x1d50a;" horiz-adv-x="1595" d="M84 608q0 139 70 258q59 98 190 211l342 297h625l18 -65l-164 -181h-497l172 -288l327 221q344 -137 344 -502q0 -229 -196 -403q-211 -182 -522 -183q-344 0 -531 177q-178 167 -178 458zM338 668q0 -123 68 -275q80 -182 208 -262l109 150q31 41 31 84q0 29 -15 53 l-321 577q-80 -139 -80 -327zM715 88q45 -10 86 -10q223 0 342 131q102 117 102 301q0 121 -71.5 209t-151.5 88q-27 0 -47 -12l-82 -45l63 -109q33 -55 33 -102q0 -55 -49 -125z" />
<glyph unicode="&#x1d50e;" horiz-adv-x="1599" d="M84 1108l90 170q39 72 92 72q45 0 97.5 -30t103.5 -30q74 0 143 45l64 41l41 -26v-543h73q86 0 145.5 64.5t61.5 146.5q2 160 49 248q57 104 191 141l258 -190l-23 -52q-215 0 -272 -211q-4 -18 -36 -67t-50 -64q29 -14 76 -108t61 -172q18 -111 43 -160q37 -74 105 -74 q51 0 76 15l43 -50l-351 -282q-205 66 -204 512q0 106 -41 175t-113 69q-55 0 -92 -7v-180q0 -31 -25.5 -67.5t-58.5 -55.5l-164 -94l233 -94q25 -10 48 -10q31 0 73 28l49 -49l-307 -237l-463 186v68l211 92q109 47 109 155l-4 549q0 82 -37 82q-10 0 -63.5 -26.5 t-104.5 -26.5q-66 0 -127 47z" />
<glyph unicode="&#x1d50f;" horiz-adv-x="1253" d="M84 891q0 201 278 356l29 -24q-106 -78 -106 -228q0 -78 112.5 -210t112.5 -199q0 -88 -111 -199q-82 -84 -153 -121l-31 33q4 -10 60.5 54.5t56.5 119.5q0 49 -64 115q-109 106 -121 123q-63 84 -63 180zM137 76l230 192q98 82 200 82q31 0 164 -63.5t174 -63.5 q82 0 139 39l56 37l37 -43q-10 -8 -226 -205q-86 -78 -139 -78q-27 0 -204 81t-206 81q-39 0 -104 -39q-43 -27 -88 -55zM379 1012q0 76 31 121q33 53 133 118q209 139 262 140q25 0 116 -58.5t126 -58.5q37 0 102 35l29 -31q-272 -203 -310 -203q-29 0 -135 74t-141 74 q-29 0 -29 -29q0 -72 70 -145q66 -61 133 -123q70 -80 70 -168q0 -131 -265 -342l-32 33q68 68 67 151q0 68 -113.5 213.5t-113.5 198.5z" />
<glyph unicode="&#x1d510;" horiz-adv-x="2068" d="M84 156v45q315 295 315 524q0 186 -106 303q-76 80 -174 105v49l239 209q133 -86 220 -261l186 140q162 121 207 121q127 0 190 -228l168 125q137 102 168 103q39 0 74 -17l166 -78q39 -18 47 -18q20 0 47 18l55 39l43 -49l-225 -178q-39 -31 -59 -31q-27 0 -82 27 q-121 61 -127 61q-37 20 -66 21q-57 0 -129 -53l-61 -46q6 -49 6 -81v-1006h-258v913q0 100 -44 179t-112 77q-47 0 -113 -49l-57 -43q33 -86 33 -164q0 -281 -311 -589l237 -95q51 -20 86 -20q47 0 101 37l43 -53l-244 -222zM1501 354v381q0 94 66 146l325 254l39 -52 l-110 -92q-55 -45 -56 -176v-491q0 -51 39 -83t90 -32q33 0 58 12l33 -53l-269 -176q-109 18 -162 101t-53 261z" />
<glyph unicode="&#x1d513;" horiz-adv-x="1677" d="M84 981q0 178 90 315q102 154 266 154q193 0 389 -297q129 201 220 201q59 0 192 -146q139 -154 238 -340q117 -219 116 -385q0 -223 -108.5 -365.5t-282.5 -142.5q-90 0 -203 50q-174 74 -186 77v-313q0 -102 -55 -180q-59 -88 -154 -88q-111 0 -180 49v88q29 -8 55 -8 q59 0 99.5 32.5t40.5 88.5v348q-164 -12 -283 -76v90q94 88 283 109l-3 702q0 127 -88 230q-82 94 -168 94q-82 0 -131 -51q-59 -59 -59 -173q0 -80 66 -157l118 -131q66 -84 66 -181q0 -119 -92 -184q-63 -45 -156 -55v59q137 27 137 123q0 43 -63 115q-98 111 -115 135 q-49 74 -49 213zM815 231q68 -10 227 -51q129 -33 191 -33q135 0 184 41t49 142q0 70 -94 270q-98 215 -209 369q-133 184 -219 184q-51 0 -90 -49t-39 -131v-742z" />
<glyph unicode="&#x1d514;" horiz-adv-x="1531" d="M86 694q0 328 209 520q188 176 465 177q49 0 76 -7v-333l325 278q154 -121 219 -262q68 -152 68 -397q0 -190 -86 -347t-232 -249q55 -61 95 -133q59 -109 106 -109q12 0 25 6l16 -26l-160 -142q-123 16 -182 117q-66 109 -78 129q-33 47 -57 66q-49 -8 -113 -9 q-254 0 -456 177q-240 204 -240 544zM332 786q0 -334 121 -522l102 96q18 16 18 60v846q-86 -20 -149 -111q-92 -131 -92 -369zM524 211q70 -20 119 -23q53 -4 115 0q78 6 102 7q96 0 170 -43q86 74 137 190q49 111 50 211q0 168 -67 322.5t-151 154.5q-47 0 -131 -63 l-32 -25v-405q0 -49 -39 -84z" />
<glyph unicode="&#x1d516;" horiz-adv-x="1337" d="M98 68l168 180h479q367 0 363 186q-2 57 -70 96q-57 31 -114 31q-59 0 -197 -2q-156 -2 -233 -2q-115 0 -202 85t-87 181q0 111 69 215q55 80 234 260q92 92 135 93q31 0 215 -51.5t213 -51.5q55 0 90 23l31 -31l-197 -225q-12 -14 -65 -15q-23 0 -210.5 54.5 t-219.5 54.5q-33 0 -90.5 -53.5t-57.5 -100.5q0 -176 228 -176h364q115 0 199 -51q111 -66 110 -201q0 -160 -170 -329l-237 -238h-725z" />
<glyph unicode="&#x1d517;" horiz-adv-x="1406" d="M94 575q0 305 309 551h-59q-39 0 -62.5 -13t-72.5 -64l-74 41l256 284h877l24 -65l-168 -181h-571q-170 -156 -201 -198q-66 -92 -65 -246q0 -236 162 -356l102 71q47 33 47 115v363q0 63 18.5 90.5t69.5 50.5l236 106v-61q-63 -27 -64 -82v-430q0 -59 -57 -98l-264 -177 q111 -49 264 -49q156 0 241 35q59 23 156 98l125 -63l-178 -285q-201 -39 -322 -39q-375 0 -575 224q-154 171 -154 378z" />
<glyph unicode="&#x1d519;" horiz-adv-x="1472" d="M90 1200l213 191q233 6 258 -299l352 299q178 0 318 -142q158 -160 158 -420q0 -135 -89 -280q-78 -127 -202 -234l-410 -346l-590 236v67q117 86 150 156q29 59 28 199v415q0 113 -96 113q-25 0 -61 -20zM346 406l479 -207q174 154 230 254q63 113 63 297 q0 166 -125 278q-100 92 -192 92q-68 0 -101 -24l-135 -101l2 -333q0 -53 -49 -99z" />
<glyph unicode="&#x1d52d;" horiz-adv-x="962" d="M57 129v78q61 16 129 24v457q0 164 -65 164q-14 0 -41 -25l-23 33l197 150q80 -59 104.5 -99.5t26.5 -130.5l252 230l88 -72q70 -57 88 -100t18 -140v-516q-164 -78 -284 -207q-63 47 -162 86q0 -166 18 -223q18 -63 93 -112l-13 -27q-176 59 -229 143q-55 -63 -133 -86 l-12 21q51 51 67 104q10 37 10 121v115q-70 12 -129 12zM385 229q150 -25 250 -73v551q0 51 -25 71l-92 76l-133 -123v-502z" />
<glyph horiz-adv-x="1480" d="M84 1092l256 219q174 -2 286.5 -118t112.5 -290q0 -152 -96 -282q-49 -70 -207 -218q23 -14 230 -161l264 235v428q0 174 -101 211v64q201 37 443 157l45 -61q-113 -113 -113 -219v-680q0 -80 78 -80q49 0 72 16l45 -57l-238 -264q-231 0 -231 239v119l-424 -385 l-400 271v53q207 98 293 207q78 102 78 252q0 133 -82 217q-72 72 -157 71q-57 0 -125 -10zM424 1434q0 45 43 77.5t102 32.5t101.5 -31.5t42.5 -78.5q0 -45 -42 -77t-102 -32q-59 0 -102 32t-43 77zM829 1434q0 47 42 78.5t102 31.5q59 0 102 -32.5t43 -77.5t-43 -77 t-102 -32t-101.5 32t-42.5 77z" />
<glyph horiz-adv-x="784" d="M35 649l282 694l-41 134q-35 111 -110 110q-37 0 -63.5 -26.5t-26.5 -57.5h-31q0 84 39 135q37 45 86 45q55 0 87 -32.5t58 -120.5l209 -690q31 -98 113 -99q31 0 52.5 30t21.5 65h30q0 -94 -31.5 -148.5t-76.5 -54.5q-100 0 -148 153l-110 363l-203 -500h-137z" />
<glyph horiz-adv-x="858" d="M94 520v834h123v-514q0 -57 34 -106.5t79 -49.5q84 0 145 127q49 104 49 197v346h123v-529q0 -141 76 -141q29 0 54.5 47t25.5 109h26q0 -86 -32 -144q-35 -63 -99 -63q-154 0 -159 254q-20 -104 -74 -172q-61 -82 -148 -82q-137 0 -186 145q0 -104 41 -220t41 -148 q0 -49 -53 -50q-66 0 -66 160z" />
<glyph horiz-adv-x="913" d="M20 829h27q0 -92 66 -92q137 0 137 297v230h-64q-102 0 -129 -80h-28q0 59 39 108q49 61 133 62h549q59 0 71 35h31q0 -125 -115 -125h-96v-424q0 -150 76 -150q39 0 68.5 44t29.5 128h29q0 -111 -45 -170t-117 -59q-164 0 -164 182v449h-231v-373q0 -258 -160 -258 q-107 -1 -107 196z" />
<glyph horiz-adv-x="821" d="M61 520v484q0 147 105.5 256.5t257.5 109.5t255 -109.5t103 -261.5q0 -147 -104.5 -256.5t-255.5 -109.5q-193 0 -291 162q0 -154 35 -245t35 -122q0 -68 -68 -68q-39 0 -53 19q-19 28 -19 141zM190 1049q0 -147 60 -254q70 -125 192 -125q106 0 164 96q51 84 51 209 q0 137 -65 244q-74 117 -189 116q-111 0 -167 -92q-46 -75 -46 -194z" />
<glyph horiz-adv-x="1536" />
<glyph horiz-adv-x="739" d="M-119 522l881 1096h108l-880 -1096h-109z" />
<glyph horiz-adv-x="747" d="M160 723q0 37 27.5 62.5t66.5 25.5q37 0 63.5 -24.5t26.5 -61.5t-25.5 -62.5t-64.5 -25.5t-66.5 24.5t-27.5 61.5zM174 1470q0 57 57 103q72 55 199 55q125 0 196.5 -54t71.5 -153q0 -229 -342 -360l-32 -170h-93l43 219q115 35 189 104q84 82 84 193q0 145 -156 145h-14 l-90 -141h-37q-76 0 -76 59z" />
<glyph horiz-adv-x="944" d="M78 1032q0 238 170 414q178 182 434 182q125 0 289 -49l-43 -227h-76v133q0 29 -27 35q-59 31 -137 30q-186 0 -317 -145q-135 -152 -135 -387q0 -154 86 -234q80 -74 221 -73q72 0 121 18q23 4 32 27l68 164h78l-43 -238q-170 -49 -303 -49q-205 0 -318 123 q-100 108 -100 276z" />
<glyph horiz-adv-x="774" d="M-27 649v68l103 6q18 4 18 16l162 777q0 18 -20 22l-93 8v66h703l-49 -236h-86v137q0 20 -13 21h-295l-73 -360h202q20 0 39 51q10 37 21 71h82l-70 -323h-78q4 43 6 86q2 37 -12 37h-207l-71 -355q-2 -12 12 -16l113 -6v-70h-394z" />
<glyph horiz-adv-x="1087" d="M70 1022q0 233 157 416q168 190 404 190q178 0 291.5 -106.5t113.5 -274.5q0 -154 -61 -286q-86 -182 -273 -283q53 -90 86 -121q49 -47 125 -47q68 0 170 41v-62q-145 -70 -249 -69q-176 0 -277 215q-6 0 -37 -2t-45 -2q-170 0 -282 100q-123 107 -123 291zM227 1014 q0 -135 69 -219t191 -84q162 0 279 176q109 166 108 360q0 135 -67.5 219t-181.5 84q-170 0 -287 -170q-111 -159 -111 -366z" />
<glyph horiz-adv-x="825" d="M12 702l51 234h93l-17 -168q8 -14 19 -16q84 -39 159 -39q111 0 181.5 54t70.5 144q0 76 -131 144q-178 90 -188 98q-102 72 -103 168q0 141 115 227q106 80 273 80q160 0 249 -45l-49 -223h-78l7 145q0 10 -15 19q-55 29 -127 28q-98 0 -165.5 -53t-67.5 -133 q0 -88 192 -176q129 -59 178 -107q55 -55 56 -137q0 -123 -97 -211q-115 -102 -319 -102q-104 0 -205 33q-70 24 -82 36z" />
<glyph horiz-adv-x="933" d="M-76 649v68h64q27 2 45 22l379 400l-183 385q-4 6 -10 14l-100 8v66h383v-66l-107 -8q-23 -2 -14 -20l127 -277l260 279q6 8 6 12q0 10 -32.5 12t-63.5 2v66h332v-66l-111 -8l-350 -373l199 -426q4 -6 10 -14l100 -8v-68h-379v68l107 8q6 0 12 5t4 7l-143 316l-305 -318 q-8 -8 10 -10l104 -8v-68h-344z" />
<glyph horiz-adv-x="901" d="M70 1546v66h383v-66l-109 -8q-18 -2 -14 -14l131 -387l307 387q6 12 -10 14l-103 8v66h355v-66l-107 -8q-6 -6 -20 -18l-383 -469l-68 -314q0 -12 12 -12l107 -8v-68h-383v68l102 8q16 2 19 14l65 301l-172 484q-2 6 -10 14z" />
<glyph horiz-adv-x="839" d="M-55 649l14 68l707 815h-361q-29 0 -55 -70l-25 -82h-94l49 232h686l-14 -70l-711 -811h406q37 0 67 92q12 47 25 97h86l-53 -271h-727z" />
<glyph horiz-adv-x="647" d="M72 461l245 1204h369l-12 -74h-240l-215 -1059h238l-15 -71h-370z" />
<glyph horiz-adv-x="647" d="M-41 459l14 73h238l217 1059h-238l15 74h370l-245 -1206h-371z" />
<glyph horiz-adv-x="428" d="M63 725q0 88 91 88q37 0 64.5 -24.5t27.5 -59.5q0 -37 -26.5 -61.5t-65.5 -24.5q-37 0 -64 23.5t-27 58.5z" />
<glyph horiz-adv-x="428" d="M-74 408l11 57q170 33 200 186h-90q-16 20 -16 45q0 49 32.5 78t79.5 29q100 0 101 -103q0 -113 -97.5 -197.5t-220.5 -94.5z" />
<glyph horiz-adv-x="768" d="M82 1466l108 31l166 -102l-6 -19l-198 8zM199 1133l2 106l155 117l19 -15l-70 -172zM322 1589l61 88l66 -88l-54 -180h-22zM393 1341l19 15l155 -117l2 -106l-104 36zM412 1395l166 102l108 -31l-68 -82l-198 -8z" />
<glyph horiz-adv-x="786" d="M39 893q0 176 113 311q119 143 292 144q76 0 146 -35l39 35h78l-170 -930l145 -23v-57h-385v55l98 19q10 4 13 18l55 303q-104 -94 -215 -94q-90 0 -146 61q-63 68 -63 193zM174 897q0 -166 131 -166q74 0 172 82l72 381q2 14 -32 48t-50 34q-129 0 -211 -106.5 t-82 -272.5z" />
<glyph horiz-adv-x="1536" d="M-16 950l20 101h1534l-20 -101h-1534z" />
</font>
</defs>
</svg>
