<?xml version="1.0" standalone="no"?>
<!DOCTYPE svg PUBLIC "-//W3C//DTD SVG 1.1//EN" "http://www.w3.org/Graphics/SVG/1.1/DTD/svg11.dtd" >
<svg xmlns="http://www.w3.org/2000/svg">
<metadata>
This is a custom SVG webfont generated by Font Squirrel.
Copyright   : Copyright c SIL International httpwwwsilorg 19982009 All rights reserved
</metadata>
<defs>
<font id="ApparatusSILBold" horiz-adv-x="1202" >
<font-face units-per-em="2048" ascent="1638" descent="-410" />
<missing-glyph horiz-adv-x="600" />
<glyph horiz-adv-x="600" />
<glyph unicode=" "  horiz-adv-x="600" />
<glyph unicode="&#x09;" horiz-adv-x="600" />
<glyph unicode="&#xa0;" horiz-adv-x="600" />
<glyph unicode="!" horiz-adv-x="696" d="M182 1235q-12 82 43 127q47 39 125 39t123 -39q53 -45 43 -127l-110 -815h-111zM184 156q0 74 56 120q47 41 110 41q61 0 112.5 -45t51.5 -116q0 -70 -48 -119t-116 -49q-61 0 -108 39q-58 47 -58 129z" />
<glyph unicode="&#x22;" horiz-adv-x="698" d="M82 1346q0 117 98 116q98 0 99 -116l-78 -492h-41zM420 1346q0 117 98 116q98 0 98 -116l-77 -492h-41z" />
<glyph unicode="#" horiz-adv-x="1503" d="M111 449v129h317l88 270h-303v135h346l158 471l137 -37l-152 -434h267l151 471l140 -39l-152 -432h268v-135h-311l-88 -270h317v-129h-362l-156 -498l-141 35l151 463h-256l-159 -498l-138 37l154 461h-276zM573 578h254l93 270h-258z" />
<glyph unicode="$" d="M127 68v354h147l41 -240q82 -55 232 -55l2 451q-178 51 -262 112q-147 106 -148 287q0 172 121 276q86 74 215 103q43 4 86 10v154h115v-152q154 0 362 -59v-342h-141l-39 227q8 8 -71.5 28.5t-110.5 20.5v-422q178 -49 268 -106q166 -109 166 -295q0 -170 -121 -279.5 t-321 -138.5v-211h-119v209q-63 10 -125 20q-250 34 -297 48zM399 1051q0 -113 93 -172q6 -4 69 -27v383q-57 -12 -67 -18q-95 -49 -95 -166zM670 135q180 29 180 211q0 154 -180 201v-412z" />
<glyph unicode="%" horiz-adv-x="1837" d="M63 971q0 203 89.5 315.5t261.5 112.5t261 -112.5t89 -315.5t-89 -316.5t-261 -113.5t-261.5 113.5t-89.5 316.5zM270 971q0 -334 144 -334q129 0 129 334q0 332 -129 332q-144 0 -144 -332zM420 0l850 1374h149l-852 -1374h-147zM1075 403q0 428 348 428 q172 0 261.5 -112.5t89.5 -315.5t-89.5 -315.5t-261.5 -112.5q-348 0 -348 428zM1282 403q0 -332 141 -331q129 0 129 331q0 332 -129 332q-141 0 -141 -332z" />
<glyph unicode="&#x26;" horiz-adv-x="1536" d="M109 377q0 260 288 352q-20 16 -43 33q-57 51 -94 112q-53 88 -53 179q0 164 131 260q123 88 313 88q154 0 262 -66q143 -86 144 -256q0 -174 -144 -270q-82 -55 -163 -68l315 -327q18 23 39 59q55 92 70 170q2 8 -6.5 20.5t-14.5 14.5l-106 18v97h430v-97l-142 -28 q-41 -133 -127 -260q-33 -41 -63 -80l192 -207l166 -17v-104h-446v49l-86 96q2 2 4 2q0 -20 -121 -88q-150 -84 -303 -84q-199 0 -320.5 111t-121.5 291zM385 471q0 -162 96 -248q82 -72 205 -71q78 0 148 41q57 33 57 43q-2 0 -4 -3l-406 424q2 2 4 2q-100 -79 -100 -188z M477 1118q0 -86 72 -176q6 -6 123 -127q70 68 88 96q43 68 43 164q0 88 -44 145.5t-118 57.5q-72 0 -118 -45t-46 -115z" />
<glyph unicode="'" horiz-adv-x="360" d="M82 1346q0 117 98 116q98 0 99 -116l-78 -492h-41z" />
<glyph unicode="(" horiz-adv-x="882" d="M178 590q0 406 158 638t455 240v-110q-201 -27 -283 -242q-70 -176 -70 -526t70 -529q82 -215 283 -241v-111q-297 8 -457 244q-156 229 -156 637z" />
<glyph unicode=")" horiz-adv-x="882" d="M92 -180q201 27 285 241q68 178 67 529q0 350 -67 526q-84 215 -285 242v110q297 -8 455 -240.5t158 -637.5q0 -408 -156 -637q-160 -236 -457 -244v111z" />
<glyph unicode="*" horiz-adv-x="1024" d="M109 1169l147 60l219 -162l-12 -29l-266 -2zM256 852l219 160l25 -25l-82 -254l-156 -41zM410 1348l102 122l102 -122l-86 -256h-34zM524 987l25 25l219 -160l-6 -160l-156 41zM547 1069l217 160l151 -60l-90 -133l-264 2z" />
<glyph unicode="+" horiz-adv-x="1705" d="M244 551v117h551v549h116v-549h551v-117h-551v-551h-116v551h-551z" />
<glyph unicode="," horiz-adv-x="598" d="M59 -260q238 39 228 274h-125q-45 39 -45 113q0 150 147 149q90 0 141.5 -61t51.5 -156q0 -180 -125 -299q-113 -109 -273 -120v100z" />
<glyph unicode="-" horiz-adv-x="671" d="M68 385v217h536v-217h-536z" />
<glyph unicode="." horiz-adv-x="598" d="M129 154q0 72 51 122t121 50t120 -50.5t50 -121.5q0 -70 -49 -120t-121 -50t-122 50t-50 120z" />
<glyph unicode="/" horiz-adv-x="1026" d="M0 -190l864 1564h162l-866 -1564h-160z" />
<glyph unicode="0" d="M74 686q0 309 125 500q139 213 401 213q264 0 406 -213q125 -190 124 -500q0 -311 -124 -500q-141 -211 -406 -211q-264 0 -401 211q-125 189 -125 500zM373 686q0 -590 227 -590q231 0 231 590q0 594 -231 594q-227 0 -227 -594z" />
<glyph unicode="1" d="M152 1130v109l442 160h151v-1241q0 -43 46 -45l161 -7v-106h-716v106l176 7q45 2 45 45v1016z" />
<glyph unicode="2" d="M88 0v170l250 192q188 150 291 281q139 178 139 340q0 123 -69.5 201t-184.5 78q-59 0 -117 -19v-276q-78 -39 -139 -39q-154 0 -154 151q0 172 183 256q137 63 317 64q201 0 333 -108.5t132 -289.5q0 -201 -203 -399q-143 -143 -506 -381h582l39 180h131v-401h-1024z " />
<glyph unicode="3" d="M88 238q0 141 152 141q47 0 88 -19l65 -231q98 -27 150 -27q109 0 188.5 81t79.5 198q0 104 -72 174q-80 76 -215 76q-57 0 -143 -10v153q23 -2 57 -2q135 0 221 53q104 63 105 199q0 98 -76 168t-186 70q-37 0 -109 -17v-252q-43 -29 -110 -28q-70 0 -115 37.5 t-45 109.5q0 125 141 207q135 80 334 80q186 0 315 -84q150 -96 150 -268q0 -166 -154 -256q-92 -55 -194 -68q104 4 219 -51q178 -86 178 -279q0 -190 -180 -309q-168 -109 -410 -109q-193 0 -317 80q-117 77 -117 183z" />
<glyph unicode="4" d="M74 383v176l667 840h222v-848h167v-166h-167v-410h-261v408h-628zM272 551h430v539z" />
<glyph unicode="5" d="M84 236q0 51 40 92t109 41q37 0 93 -19l65 -244q25 -8 107 -8q158 0 254 113q76 90 75 184q0 133 -104.5 214t-259.5 81q-129 0 -301 -33v717h880v-227h-706v-330q49 12 96 27q100 23 186 22q221 0 361.5 -111.5t140.5 -289.5q0 -221 -188 -361q-176 -129 -424 -129 q-172 0 -291 64q-133 72 -133 197z" />
<glyph unicode="6" d="M74 596q0 393 243 604q233 203 639 199v-160q-76 12 -90 10q-420 -31 -483 -442q154 102 317 102q201 0 324 -135q106 -119 106 -280q0 -231 -148 -376t-361 -145q-260 0 -403.5 161t-143.5 462zM369 520q-4 -156 57 -276q72 -137 197 -138q102 0 161 99q53 88 54 227 q0 303 -269 303q-74 0 -145.5 -21.5t-52.5 -21.5q0 -82 -2 -172z" />
<glyph unicode="7" d="M78 938v436h1048v-145l-690 -1192v-62h-262l668 1153h-590l-33 -190h-141z" />
<glyph unicode="8" d="M74 371q0 229 284 315q-80 31 -145 102q-84 92 -84 205q0 213 162 320q131 86 340 86q178 0 303 -84q141 -98 141 -268q0 -127 -88 -213q-51 -47 -166 -103q121 -45 174 -84q133 -100 133 -270q0 -197 -165 -305q-150 -96 -375 -97q-223 0 -368.5 112t-145.5 284z M336 391q0 -119 79 -202t189 -83q102 0 170 50q76 55 76 149q0 90 -74 162q-55 51 -162 100q-80 35 -159 68q-35 -41 -68 -82q-51 -76 -51 -162zM410 1081q0 -109 98 -186q59 -47 215 -115q100 104 100 250q0 98 -60.5 169t-156.5 71q-82 0 -139 -54.5t-57 -134.5z" />
<glyph unicode="9" d="M74 879q0 231 151 378q145 141 359 142q260 0 403 -161t143 -462q0 -393 -243 -604q-233 -203 -639 -199v158q76 -10 90 -8q418 31 481 442q-137 -102 -315 -102q-203 0 -324 135q-106 119 -106 281zM367 940q0 -303 268 -303q72 0 143.5 21.5t55.5 21.5q0 82 2 172 q4 156 -60 276q-72 137 -194 138q-102 0 -162 -99q-53 -88 -53 -227z" />
<glyph unicode=":" horiz-adv-x="727" d="M205 154q0 72 47 122t119 50q74 0 123 -51.5t49 -122.5q0 -70 -50.5 -119t-119.5 -49q-70 0 -119 50t-49 120zM205 834q0 74 48 122t120 48q74 0 122 -49.5t48 -123.5q0 -70 -50.5 -118.5t-119.5 -48.5q-70 0 -119 49t-49 121z" />
<glyph unicode=";" horiz-adv-x="706" d="M133 -260q236 37 227 274h-124q-45 39 -46 113q0 150 148 149q90 0 141 -61t51 -156q0 -180 -124 -299q-113 -109 -273 -120v100zM193 834q0 74 49 122t120 48q70 0 118 -49.5t48 -120.5q0 -70 -49 -120t-119 -50t-118.5 50t-48.5 120z" />
<glyph unicode="&#x3c;" horiz-adv-x="1705" d="M264 557v105l1178 483v-127l-1000 -408l1000 -405v-129z" />
<glyph unicode="=" horiz-adv-x="1705" d="M254 360v117h1198v-117h-1198zM254 743v117h1198v-117h-1198z" />
<glyph unicode="&#x3e;" horiz-adv-x="1705" d="M264 76v129l1000 405l-1000 408v127l1178 -483v-105z" />
<glyph unicode="?" horiz-adv-x="997" d="M61 1163q0 121 129 185q104 51 254 51q203 0 332 -101q133 -106 133 -280q0 -156 -121 -273q-86 -82 -221 -135q-51 -14 -102 -30v-174h-139v272q297 98 297 344q0 252 -269 252l-92 -238q-6 -4 -24 -4q-177 0 -177 131zM240 154q0 68 45 115.5t112 47.5q72 0 119 -50 t47 -122q0 -68 -49 -112.5t-119 -44.5q-66 0 -110.5 49t-44.5 117z" />
<glyph unicode="@" horiz-adv-x="1865" d="M154 498q0 391 247 651q258 268 666 268q303 0 487.5 -179t184.5 -476q0 -272 -158 -465q-147 -182 -338 -182q-86 0 -129 39q-31 29 -37 73q-2 23 -2 43q-41 -49 -112 -96q-92 -59 -166 -59q-131 0 -201 110q-57 90 -57 215q0 225 143 395.5t352 170.5q106 0 195 -54 l37 47h145q-49 -150 -127 -555q-16 -74 -16 -118q0 -80 63 -80q111 0 205 156.5t94 353.5q0 250 -150.5 404.5t-404.5 154.5q-324 0 -538 -213q-225 -221 -226 -576q0 -317 189 -518q193 -207 504 -207q197 0 393 84q10 4 125 68l39 -86q-289 -180 -611 -180 q-326 0 -551 211q-245 227 -245 600zM760 483q0 -219 141 -219q80 0 180 129l72 400q6 31 -28.5 71.5t-77.5 40.5q-135 0 -216 -139q-71 -121 -71 -283z" />
<glyph unicode="A" horiz-adv-x="1404" d="M0 0v104l125 17l459 1268h233l455 -1231q12 -33 45 -39l88 -15v-104h-576v104l121 15q8 2 14.5 14t4.5 21l-111 325h-438l-113 -317q-4 -12 6.5 -26.5t22.5 -16.5l115 -15v-104h-451zM459 600h348l-176 492z" />
<glyph unicode="B" horiz-adv-x="1290" d="M57 0v104l111 11q45 4 45 45v1054q0 41 -45 46l-111 10v104h652q436 0 436 -317q0 -158 -121 -250q-72 -55 -170 -76q147 -4 242 -65q129 -86 129 -267q0 -401 -416 -401h-53q-31 2 -35 2h-664zM498 121l96 -4q324 0 324 268q0 260 -318 260q-45 0 -102 -2v-522zM498 768 l51 -2q295 0 295 258q0 236 -262 236q-10 0 -84 -5v-487z" />
<glyph unicode="C" horiz-adv-x="1310" d="M84 688q0 315 209 516q203 195 512 195q190 0 432 -78v-348h-158l-45 229q-8 23 -28 33q-55 25 -146 25q-209 0 -331.5 -155t-122.5 -421q0 -242 106 -395q125 -180 365 -180q78 0 120 18q27 12 33 39l47 242h160v-359q-184 -74 -434 -74q-315 0 -517 199t-202 514z" />
<glyph unicode="D" horiz-adv-x="1478" d="M57 0v104l113 11q47 4 47 45v1054q0 41 -47 46l-113 10v104h627q344 0 539 -186q188 -180 188 -486q0 -344 -194 -526q-186 -176 -521 -176h-639zM508 121l172 4q162 4 266 115q135 143 135 440q0 575 -442 575h-131v-1134z" />
<glyph unicode="E" horiz-adv-x="1228" d="M57 0v104l113 11q47 4 47 45v1054q0 41 -47 46l-113 10v104h1045v-327h-148l-32 170q-8 39 -37 38h-381v-481h244q31 0 34 37l19 139h127v-481h-127l-19 139q-4 37 -34 37h-244v-522h446q31 0 37 39l31 213h149v-375h-1110z" />
<glyph unicode="F" horiz-adv-x="1136" d="M49 1270v104h1038v-350h-147l-29 186q-6 39 -37 39h-370v-504h254q29 0 35 37l20 140h127v-484h-127l-20 140q-6 37 -35 36h-254v-454q0 -41 45 -45l133 -11v-104h-627v104l111 11q47 4 47 45v1054q0 41 -47 46z" />
<glyph unicode="G" horiz-adv-x="1462" d="M80 690q0 326 209 520q201 186 524 187q229 0 461 -70v-354h-160l-39 221q-6 31 -37 43q-61 25 -149 25q-248 0 -377 -172q-113 -150 -113 -392q0 -268 129 -419q131 -158 369 -158h94v399q0 41 -47 45l-139 10v105h620v-105l-106 -10q-47 -4 -47 -45v-457 q-221 -88 -475 -88q-311 0 -514 196.5t-203 518.5z" />
<glyph unicode="H" horiz-adv-x="1566" d="M59 0v104l107 11q45 4 45 45v1050q0 41 -45 45l-107 11v108h600v-108l-108 -11q-45 -4 -45 -45v-424h563v424q0 41 -45 45l-106 11v108h598v-108l-107 -11q-45 -4 -45 -45v-1050q0 -41 45 -45l107 -11v-104h-598v104l106 11q45 4 45 45v495h-563v-495q0 -41 45 -45 l108 -11v-104h-600z" />
<glyph unicode="I" horiz-adv-x="741" d="M57 0v104l127 11q45 4 45 45v1050q0 41 -45 45l-127 11v108h639v-108l-127 -11q-47 -4 -47 -45v-1050q0 -41 47 -45l127 -11v-104h-639z" />
<glyph unicode="J" horiz-adv-x="1003" d="M55 25v374h158l49 -274q0 -27 53 -27q119 0 172 86q59 94 60 318v712q0 41 -45 46l-131 10v104h622v-104l-110 -10q-45 -4 -45 -46v-718q0 -520 -478 -521q-172 1 -305 50z" />
<glyph unicode="K" horiz-adv-x="1398" d="M59 0v104l109 11q45 4 45 45v1054q0 41 -45 46l-109 10v104h603v-104l-109 -10q-45 -4 -45 -46l2 -516h55l441 537q6 6 2 14q-2 10 -13 11l-116 10v104h469v-104q-39 -2 -144 -13l-381 -454l430 -686l146 -13v-104h-445v76l-333 524h-111l-2 -440q0 -41 45 -45l109 -11 v-104h-603z" />
<glyph unicode="L" horiz-adv-x="1124" d="M55 0v104l113 11q45 4 45 45v1054q0 41 -45 46l-113 10v104h613v-104l-115 -10q-45 -4 -45 -46v-1089h356q43 0 49 47l27 236h164v-408h-1049z" />
<glyph unicode="M" horiz-adv-x="1816" d="M47 0v104l115 11q47 4 47 45v1054q0 41 -47 46l-115 10v104h563v-57l303 -918l301 918v57h568v-104l-117 -10q-45 -4 -45 -46v-1054q0 -41 45 -45l117 -11v-104h-586v104l100 11q45 4 45 45v1075l-411 -1235h-162l-403 1227v-1067q0 -41 45 -45l110 -11v-104h-473z" />
<glyph unicode="N" horiz-adv-x="1497" d="M51 0v104l113 11q45 4 45 45v1054q0 41 -45 46l-111 10v104h490v-55l610 -954v849q0 41 -47 46l-117 10v104h477v-104l-110 -10q-45 -4 -45 -46v-1214h-252l-692 1083v-923q0 -41 45 -45l114 -11v-104h-475z" />
<glyph unicode="O" horiz-adv-x="1550" d="M84 696q0 311 182 506q190 203 512 203q311 0 512 -213q193 -207 193 -512q0 -299 -192.5 -506t-495.5 -207q-315 0 -508 191q-203 198 -203 538zM412 690q0 -242 86 -405q100 -188 276 -189q190 0 293 189q86 158 86 387q0 254 -90 418q-98 178 -268 178 q-197 0 -299 -187q-84 -153 -84 -391z" />
<glyph unicode="P" horiz-adv-x="1216" d="M51 1270v104h574q252 0 383 -71q174 -100 174 -345q0 -242 -170 -358q-139 -96 -367 -96q-98 0 -135 4v-348q0 -41 45 -45l129 -11v-104h-627v104l113 11q47 4 47 45v1054q0 41 -47 46zM510 631q35 -2 55 -2q311 4 312 319q0 141 -69 221t-183 80h-115v-618z" />
<glyph unicode="Q" horiz-adv-x="1546" d="M78 684q0 299 176 502q193 221 514 221q313 0 516 -204t203 -521q0 -276 -158 -467q-150 -176 -381 -215q2 -236 271 -236q84 0 190 25v-108q-203 -47 -362 -48q-410 0 -411 334q0 11 1 23q-180 10 -340 157q-219 195 -219 537zM410 705q0 -242 86 -406 q102 -190 286 -193h4q186 0 285 193q80 160 80 387t-84 389q-100 193 -289 193q-182 0 -282 -178q-86 -156 -86 -385z" />
<glyph unicode="R" horiz-adv-x="1445" d="M61 0v104l109 11q47 4 47 45v1054q0 41 -47 46l-109 10v104h680q164 0 281 -61q166 -86 166 -279q0 -180 -137 -276q-88 -63 -220 -82q41 -10 62 -17q84 -29 125 -73q61 -68 104 -193q53 -160 74 -196q27 -47 55 -64q54 -29 178 -29h17v-102q-143 -16 -203 -16 q-98 0 -155.5 21.5t-122.5 80.5q-59 53 -127 233.5t-113 221.5q-68 59 -174 59h-41v-442q0 -41 45 -45l113 -11v-104h-607zM510 727q70 -4 68 -4q303 0 303 272q0 256 -306 256q-16 1 -32 1l-33 -1v-524z" />
<glyph unicode="S" horiz-adv-x="1124" d="M96 45v375h162l37 -252q2 -18 24 -27q70 -25 158 -24q264 0 264 180q0 106 -90 180q-47 41 -211 125q-315 162 -315 389q0 190 147 303q137 104 346 105q166 0 388 -74v-334h-158l-33 201q-4 29 -31 43q-47 27 -149 27q-86 0 -152 -43q-74 -49 -73 -134q0 -156 245 -270 q186 -86 267 -158q121 -109 120 -256q0 -207 -163 -321q-147 -102 -381 -103q-199 0 -402 68z" />
<glyph unicode="T" horiz-adv-x="1236" d="M33 999v375h1181v-375h-149l-37 228q-4 25 -29 24h-229v-1091q0 -41 45 -45l121 -11v-104h-625v104l119 11q47 4 47 45v1091h-229q-27 0 -31 -24l-37 -228h-147z" />
<glyph unicode="U" horiz-adv-x="1443" d="M41 1270v104h602v-104l-111 -10q-45 -4 -45 -46v-710q0 -190 80 -274.5t252 -84.5q299 0 299 359v710q0 41 -45 46l-117 10v104h474v-104l-107 -10q-45 -4 -45 -46v-694q0 -297 -134 -421t-427 -124q-518 0 -518 545v694q0 41 -47 46z" />
<glyph unicode="V" horiz-adv-x="1445" d="M20 1270v104h584v-104l-115 -15q-35 -4 -20 -45l324 -891l313 893q10 39 -29 43l-110 15v104h458v-104l-129 -17l-460 -1263h-213q2 -4 2 -6q-127 346 -473 1267z" />
<glyph unicode="W" horiz-adv-x="1978" d="M20 1270v104h558v-104l-121 -13q-29 -2 -19 -43l217 -811l287 971h221l297 -993l205 833q10 39 -29 43l-131 13v104h453v-104l-125 -17l-315 -1263h-207l-314 1042l-307 -1042h-209l-336 1263z" />
<glyph unicode="X" horiz-adv-x="1374" d="M20 0v104l132 17l407 534l-383 596l-129 19v104h600v-104l-108 -10q-12 0 -17 -15q-6 -16 6 -35l205 -323l252 325q12 16 8 33q-6 14 -20 17l-109 8v104h467v-104l-129 -19l-383 -497l406 -633l129 -17v-104h-615v104l125 9q14 0 19 16q4 14 -9 33l-229 360l-276 -358 q-8 -10 -9 -23q0 -25 21 -26l123 -11v-104h-484z" />
<glyph unicode="Y" horiz-adv-x="1357" d="M20 1270v104h582v-104l-108 -10q-12 0 -17 -15q-4 -16 6 -35l258 -485l279 487q10 18 6 33q-2 16 -16 17l-125 8v104h452v-104l-118 -19l-379 -657v-434q0 -41 45 -45l125 -11v-104h-635v104l125 11q47 4 47 45v377l-395 714z" />
<glyph unicode="Z" horiz-adv-x="1214" d="M90 0v121l703 1128h-453q-25 0 -29 -24l-35 -224h-151v373h993v-121l-700 -1126h489q27 0 31 23l41 253h151v-403h-1040z" />
<glyph unicode="[" horiz-adv-x="917" d="M276 -270v1720h568v-123h-314v-1479h314v-118h-568z" />
<glyph unicode="\" horiz-adv-x="1011" d="M0 1374h160l852 -1564h-160z" />
<glyph unicode="]" horiz-adv-x="917" d="M84 -152h313v1483h-313v119h571v-1720h-571v118z" />
<glyph unicode="^" horiz-adv-x="1619" d="M274 23l484 1177h104l481 -1177h-129l-403 999l-410 -999h-127z" />
<glyph unicode="_" horiz-adv-x="1024" d="M0 -297h1024v-186h-1024v186z" />
<glyph unicode="`" horiz-adv-x="765" d="M0 1395q0 109 117 108q70 0 129 -65l280 -310h-143l-332 181q-51 29 -51 86z" />
<glyph unicode="a" horiz-adv-x="1134" d="M82 248q0 150 102 219q123 88 525 176q2 32 2 86q0 185 -193 184q-63 0 -88 -8v-196h-211q-92 0 -92 75q0 109 147 179q133 63 310 63q201 0 288 -63q111 -80 111 -285v-528q0 -45 45 -48l90 -6v-96h-385l-26 117q-186 -133 -357 -133q-113 0 -190.5 72.5t-77.5 191.5z M373 297q0 -63 41 -103t104 -40q82 0 189 51v327q-195 -41 -264.5 -91t-69.5 -144z" />
<glyph unicode="b" horiz-adv-x="1228" d="M37 1329v84l315 103h107v-586l86 45q117 51 211 51q172 0 286 -123q119 -129 119 -342q0 -244 -155 -399q-166 -162 -445 -162h-379v1329h-145zM459 115h26q12 -2 17 -2q180 0 266 84q96 94 96 303q0 168 -75.5 261t-219.5 93q-68 0 -110 -12v-727z" />
<glyph unicode="c" horiz-adv-x="1038" d="M72 483q0 238 153.5 390.5t374.5 152.5q162 0 259 -62.5t97 -162.5q0 -68 -44 -110t-103 -42q-78 0 -137 43v228q-16 2 -39 2q-102 0 -176 -95q-84 -109 -84 -286q0 -178 84 -281.5t227 -103.5q82 0 180 39q78 31 107 55v-156q-139 -63 -150 -67q-121 -43 -252 -43 q-231 0 -368 149q-129 137 -129 350z" />
<glyph unicode="d" horiz-adv-x="1239" d="M72 477q0 258 151 408q145 141 385 141q96 0 189 -18v321h-150v84l318 103h104v-1366q0 -43 45 -48l86 -6v-96h-403v119q-59 -37 -117 -74q-113 -61 -207 -61q-184 0 -292.5 137t-108.5 356zM371 524q0 -166 68.5 -260t197.5 -94q43 0 115 20l45 13v671q-92 31 -144 31 q-137 0 -213 -110q-69 -103 -69 -271z" />
<glyph unicode="e" horiz-adv-x="1093" d="M72 496q0 233 142 381.5t374 148.5q225 0 340 -141q98 -121 98 -320v-49h-670q0 -168 83 -265t231 -97q193 0 356 114v-164q-188 -121 -432 -120q-252 0 -391 149q-131 140 -131 363zM365 631h370v45q0 231 -168 231q-104 0 -157 -90q-43 -71 -45 -186z" />
<glyph unicode="f" horiz-adv-x="710" d="M59 844v82l131 67q0 158 72 283q57 98 158 168q117 78 244 78q74 0 129 -35q68 -41 67 -121q0 -96 -127 -135q-86 74 -203 190q-66 -98 -65 -313v-133h223v-131h-221v-694q0 -45 45 -48l125 -6v-96h-574v96l84 6q45 4 46 48v694h-134z" />
<glyph unicode="g" horiz-adv-x="1142" d="M68 -156q0 113 82 174q56 42 107 43q9 0 17 -2q-29 57 -28 109q0 88 116 190q-86 20 -153 80q-100 88 -100 228q0 176 133 270q121 86 321 86q113 0 291 -61h268v-121h-182q10 -27 23 -56q18 -49 18 -100q0 -186 -172 -276q-120 -65 -269 -66q-24 0 -48 2 q-66 -41 -66 -84q0 -14 12 -39q86 -6 281 -37q156 -35 231 -82q109 -70 109 -184q0 -168 -174 -270q-160 -92 -379 -92q-184 0 -299 61q-139 75 -139 227zM338 -127q0 -92 72 -152q66 -53 155 -53q92 0 156 45q74 53 74 146q0 59 -52 92q-35 23 -116.5 45t-223.5 37 q-33 -43 -43 -66q-22 -45 -22 -94zM393 686q0 -100 37 -168q45 -78 123 -78t121 78q37 70 37 170q0 92 -41 163t-113 71q-84 0 -127 -74q-37 -64 -37 -162z" />
<glyph unicode="h" horiz-adv-x="1306" d="M49 1329v84l316 103h104v-619q217 127 360 127q160 0 232 -115q49 -82 49 -207v-552q0 -43 43 -48l86 -6v-96h-514v96l66 6q45 4 45 48v483q0 203 -172 203q-47 0 -136 -17q-29 -6 -59 -10v-659q0 -43 45 -48l74 -6v-96h-520v96l84 6q45 4 45 48v1179h-148z" />
<glyph unicode="i" horiz-adv-x="681" d="M86 0v96l94 6q45 2 45 48v690h-131v84l279 102h104v-876q0 -45 47 -48l99 -6v-96h-537zM188 1346q0 66 46.5 111.5t111.5 45.5q66 0 113 -46t47 -111q0 -66 -47 -113t-113 -47t-112 47t-46 113z" />
<glyph unicode="j" horiz-adv-x="681" d="M-184 -293q0 53 39 93t92 44l200 -202q57 92 58 372v826h-146v84l314 102h104v-905q0 -309 -155 -453q-127 -117 -302 -117q-86 0 -145 42t-59 114zM180 1346q0 66 47 111.5t113 45.5t112 -46t46 -111q0 -66 -46 -113t-112 -47t-113 47t-47 113z" />
<glyph unicode="k" horiz-adv-x="1224" d="M49 1329v84l316 103h104v-984h45l277 328q10 10 4 23q-4 10 -21 12l-76 8v96h426v-96l-137 -16l-219 -250l317 -531l119 -10v-96h-411v84l-228 379h-96v-313q0 -43 45 -48l84 -6v-96h-535v96l87 6q45 4 45 48v1179h-146z" />
<glyph unicode="l" horiz-adv-x="681" d="M59 0v96l101 6q45 2 45 48v1179h-146v84l314 103h104v-1366q0 -45 45 -48l103 -6v-96h-566z" />
<glyph unicode="m" horiz-adv-x="1861" d="M43 0v96l88 6q45 4 45 48v686h-131v84l301 102h103v-123q10 10 102 57q135 68 233 68q100 0 168 -53q25 -16 80 -86q244 139 371 139q162 0 233 -121q49 -80 50 -192v-561q0 -43 45 -48l86 -6v-96h-517v96l66 6q47 4 47 48v468q0 217 -184 218q-100 0 -166 -33v-653 q0 -43 47 -48l70 -6v-96h-496v96l61 6q45 4 46 48v493q0 193 -173 193q-113 0 -169 -29v-657q0 -43 47 -48l63 -6v-96h-516z" />
<glyph unicode="n" horiz-adv-x="1290" d="M55 836v84l310 102h104v-123q10 10 104 55q147 70 256 70q276 0 277 -356v-518q0 -43 45 -48l84 -6v-96h-514v96l67 6q45 4 46 48v481q0 205 -168 205q-59 0 -132 -14.5t-67 -14.5l2 2v-659q0 -43 45 -48l70 -6v-96h-521v96l89 6q45 4 45 48v686h-142z" />
<glyph unicode="o" horiz-adv-x="1206" d="M72 500q0 248 149.5 387t392.5 139q248 0 390 -147q135 -143 135 -381q0 -231 -142 -371q-147 -143 -399 -143q-236 0 -381 138t-145 378zM379 508q0 -410 229 -410q225 0 226 402q0 166 -43 270q-59 141 -185 141q-227 0 -227 -403z" />
<glyph unicode="p" horiz-adv-x="1236" d="M47 -352l90 6q45 2 45 47v1135h-135v84l303 102h105v-127q176 131 331 131q176 0 285 -158q98 -141 98 -340q0 -248 -150.5 -393t-402.5 -145q-78 0 -161 20v-309q0 -45 45 -47l110 -6v-97h-563v97zM455 125q76 -25 114 -25q141 0 222 113q76 106 75 285q0 145 -63 237 q-70 102 -195 103q-66 0 -153 -31v-682z" />
<glyph unicode="q" horiz-adv-x="1228" d="M72 469q0 281 186 424q172 133 477 133q82 0 226 -14q49 -6 98 -11v-1300q0 -43 45 -47l84 -6v-97h-563v97l114 6q45 2 45 47v393q-43 -25 -84 -47q-125 -57 -227 -57q-180 0 -293 141q-108 135 -108 338zM371 516q0 -166 74.5 -257t207.5 -91q102 0 131 8v723 q-25 8 -84 8q-329 0 -329 -391z" />
<glyph unicode="r" horiz-adv-x="894" d="M45 836v84l317 102h105v-215q172 219 278 219q74 0 129 -39v-311h-141q-57 82 -133 82q-39 0 -89 -21.5t-48 -21.5q0 2 4 6v-571q0 -45 45 -48l131 -6v-96l-584 -2v98l91 6q45 2 45 48v686h-150z" />
<glyph unicode="s" horiz-adv-x="913" d="M74 31v311h129l24 -188q82 -57 191 -58q92 0 141 47q35 37 35 84q0 78 -115 142q-106 53 -215 106q-178 98 -178 244q0 143 114.5 226t297.5 83q203 0 327 -53v-283h-129l-20 158q-45 57 -162 57q-154 0 -154 -112q0 -57 50 -99q37 -31 163 -94q283 -143 283 -283 q0 -178 -133 -268q-111 -76 -285 -76q-123 0 -262 31q-90 19 -102 25z" />
<glyph unicode="t" horiz-adv-x="745" d="M33 844v82l157 94l111 217h139v-262h285v-131h-285v-518q0 -178 168 -179q61 0 133 15v-103q-174 -70 -327 -69q-133 0 -189.5 60.5t-56.5 191.5v602h-135z" />
<glyph unicode="u" horiz-adv-x="1249" d="M47 840v84l301 102h105v-629q0 -227 190 -227q51 0 121 16q20 6 43 11v643h-129v84l297 102h104v-876q0 -43 47 -48l91 -6v-96h-410v113q-20 -16 -96 -58q-135 -72 -228 -71q-168 0 -239 88q-63 80 -64 245v523h-133z" />
<glyph unicode="v" horiz-adv-x="1159" d="M20 903v96h539v-96l-94 -6q-32 -2 -32 -26q0 -8 3 -19l201 -567l223 567q6 14 -4 28.5t-27 16.5l-86 6v96h398v-96l-117 -14l-352 -889h-203l-328 891z" />
<glyph unicode="w" horiz-adv-x="1722" d="M20 903v96h525v-96l-88 -6q-33 -2 -34 -28q0 -8 3 -17l160 -563l229 710h225l220 -714q86 285 170 567q3 10 2 18q0 26 -31 27l-90 6v96h393v-96l-115 -14l-278 -901q0 2 4 12h-228l-223 727l-235 -727h-223l4 -12l-273 913q2 -2 4 -10z" />
<glyph unicode="x" horiz-adv-x="1118" d="M20 0v96l123 17l293 354l-303 422l-108 14v96h503v-96l-59 -6q-39 -4 -14 -37l143 -198l164 198q10 10 4 23q-4 12 -18 14l-66 6v96h381v-96l-115 -14l-272 -336l315 -440l109 -17v-96h-520v96l79 8q39 4 17 35l-162 221l-180 -221q-8 -10 -4 -22q4 -10 18 -13l72 -8v-96 h-400z" />
<glyph unicode="y" horiz-adv-x="1159" d="M20 903v96h539v-96l-94 -6q-35 -3 -35 -26q0 -8 4 -19l211 -526l217 526q6 14 -4 28.5t-27 16.5l-90 6v96h400v-96l-109 -14l-354 -869q-102 -252 -201.5 -361.5t-234.5 -109.5q-66 0 -123.5 46.5t-57.5 117.5q2 94 119 152l174 -133q115 109 152 250l-365 909z" />
<glyph unicode="z" horiz-adv-x="1028" d="M94 0v133l524 750h-309q-35 0 -39 -43l-14 -158h-145v317h829v-114l-537 -764h353q14 0 28.5 16.5t16.5 32.5l26 174h142v-344h-875z" />
<glyph unicode="{" horiz-adv-x="1013" d="M84 537v122q25 -4 74 0q102 6 151 56q35 35 45 116q6 45 6 166q0 143 13 203q18 102 86 162q94 84 405 84v-113q-139 0 -194.5 -55t-55.5 -252q0 -129 -12 -192q-20 -90 -78.5 -146.5t-156.5 -81.5q-31 -4 -64 -8q33 -4 64 -10q98 -25 156.5 -81t78.5 -147 q12 -61 12 -190q0 -197 55.5 -252t194.5 -55v-113q-311 0 -405 84q-68 59 -86 162q-12 59 -13 203q0 121 -6 166q-10 80 -45 114.5t-100 48.5q-43 10 -94 11q-27 -2 -31 -2z" />
<glyph unicode="|" horiz-adv-x="1024" d="M418 -483v2048h190v-2048h-190z" />
<glyph unicode="}" horiz-adv-x="1013" d="M150 -137q139 0 194 55t55 252q0 129 13 190q20 90 78.5 146.5t156.5 81.5q31 6 64 10q-33 4 -64 8q-98 25 -156.5 81t-78.5 147q-12 63 -13 192q0 197 -55 252t-194 55v113q311 0 405 -84q68 -59 86 -162q12 -59 12 -203q0 -231 52 -282q35 -35 98 -49q45 -10 96 -9 q25 2 31 2v-122q-4 0 -31 2q-51 0 -96 -11q-63 -14 -98 -49q-51 -51 -52 -280q0 -143 -12 -203q-18 -102 -86 -162q-94 -84 -405 -84v113z" />
<glyph unicode="~" horiz-adv-x="1705" d="M178 461v133q203 145 389 145q102 0 298 -68.5t282 -68.5q166 0 383 158v-133q-209 -143 -385 -144q-94 0 -288.5 69t-303.5 69q-156 0 -375 -160z" />
<glyph unicode="&#xa6;" horiz-adv-x="1024" d="M442 365h142v-848h-142v848zM442 717v848h142v-848h-142z" />
<glyph unicode="&#xad;" horiz-adv-x="671" d="M68 385v217h536v-217h-536z" />
<glyph unicode="&#xb0;" horiz-adv-x="845" d="M76 1159q0 145 102.5 247.5t245.5 102.5t245.5 -102t102.5 -248q0 -143 -101.5 -245.5t-246.5 -102.5q-143 0 -245.5 102.5t-102.5 245.5zM164 1159q0 -109 74.5 -183.5t185.5 -74.5q115 0 187.5 73t72.5 185q0 109 -77 185.5t-183 76.5q-115 0 -187.5 -73.5 t-72.5 -188.5z" />
<glyph unicode="&#xb2;" horiz-adv-x="901" d="M66 649v119q94 68 186 135q141 104 219 197q104 125 104 237q0 88 -52 142.5t-138 54.5q-39 0 -88 -14v-193q-59 -27 -104 -27q-115 0 -115 105q0 121 137 180q102 45 238 45q150 0 249 -75.5t99 -202.5q0 -141 -152 -281q-106 -98 -379 -266h437l28 125h99v-281h-768z " />
<glyph unicode="&#xb3;" horiz-adv-x="901" d="M66 817q0 98 114 98q37 0 66 -14l49 -162q74 -18 113 -18q82 0 141 56.5t59 140.5q0 72 -53 120q-59 53 -162 54q-43 0 -106 -7v107q16 -2 41 -2q246 0 245 176q0 70 -56 119t-140 49q-27 0 -82 -12v-176q-33 -20 -82 -21q-121 0 -121 102q0 88 103.5 145.5t253.5 57.5 q139 0 237 -59q111 -68 111 -189q0 -117 -115 -180q-70 -37 -145 -45q82 0 163 -37q133 -61 134 -194q0 -133 -136 -217q-125 -76 -307 -76q-143 0 -234 55t-91 129z" />
<glyph unicode="&#xb6;" horiz-adv-x="995" d="M55 973q0 217 125 313q115 88 355 88h405v-74l-127 -20v-1442h-100v1452h-156v-715q-244 0 -360 80q-142 95 -142 318z" />
<glyph unicode="&#xb7;" horiz-adv-x="761" d="M100 748q0 117 82 198.5t199 81.5t199 -82t82 -198q0 -117 -82 -198t-199 -81t-199 81t-82 198z" />
<glyph unicode="&#xb9;" horiz-adv-x="901" d="M115 1442v76l331 112h113v-870q0 -29 35 -31l121 -4v-76h-539v76l133 4q33 0 33 31v713z" />
<glyph unicode="&#xe6;" horiz-adv-x="1595" d="M84 252q0 160 133 242q113 68 457 149v57q0 213 -191 213q-47 0 -71 -8v-196h-185q-57 0 -78.5 16t-21.5 61q0 106 141 177q127 63 291 63q135 0 227 -51q39 -29 78 -60q16 18 70 52q102 59 217 59q195 0 295 -143q86 -125 86 -330q0 -12 -2 -41h-594v-236 q137 -123 303 -122q100 0 201 53l90 57v-162q-170 -119 -381 -118q-248 0 -408 149q-201 -150 -395 -149q-129 0 -199 82q-63 73 -63 186zM367 303q0 -66 32 -106q37 -47 99 -47q74 0 176 55v327q-186 -49 -252 -104q-55 -45 -55 -125zM930 627h321q2 41 0 43 q0 244 -147 243q-174 1 -174 -286z" />
<glyph unicode="&#xe7;" horiz-adv-x="1021" d="M72 483q0 238 153.5 390.5t374.5 152.5q162 0 259 -62.5t97 -162.5q0 -68 -44 -110t-103 -42q-78 0 -137 43v228q-16 2 -39 2q-102 0 -176 -95q-84 -109 -84 -286q0 -178 84 -281.5t227 -103.5q82 0 180 39q74 29 107 55v-156l-135 -61q-106 -41 -222 -47v-99h29 q170 0 170 -157q0 -96 -68.5 -149.5t-181.5 -53.5q-78 0 -168 20v105q86 -18 131 -19q119 0 119 70t-90 70q-12 0 -43 -2v217q-207 18 -328 162q-112 134 -112 333z" />
<glyph unicode="&#xfc;" horiz-adv-x="1249" d="M47 840v84l301 102h105v-629q0 -227 190 -227q51 0 121 16q23 6 45 11v643h-131v84l299 102h102v-876q0 -43 47 -48l91 -6v-96h-408v115q-35 -25 -98 -58q-135 -72 -228 -71q-168 0 -239 88q-63 78 -64 243v523h-133zM299 1339q0 59 42 100.5t99 41.5q59 0 100.5 -41 t41.5 -101q0 -57 -41 -99t-101 -42q-57 0 -99 42t-42 99zM731 1339q0 59 42 100.5t99 41.5q59 0 100.5 -41t41.5 -101q0 -57 -41 -99t-101 -42q-57 0 -99 42t-42 99z" />
<glyph unicode="&#x2b0;" horiz-adv-x="980" d="M37 1581v57l237 74h78v-434q158 88 271 88q209 0 208 -225v-385q0 -33 33 -35l66 -4v-68h-385v68l49 4q33 2 33 35v338q0 141 -129 141q-35 0 -101 -12q-23 -2 -45 -6v-461q0 -33 33 -35l55 -4v-68h-389v68l64 4q33 2 32 35v825h-110z" />
<glyph unicode="&#x2b2;" horiz-adv-x="512" d="M-137 444q0 37 28.5 65t69.5 32l150 -142q43 66 43 260v578h-109v59l236 72h77v-633q0 -217 -116 -317q-94 -82 -228 -82q-63 0 -107 28.5t-44 79.5zM135 1591q0 47 35 79t86 32q49 0 83 -32t34 -79t-34 -78.5t-83 -31.5q-51 0 -86 31.5t-35 78.5z" />
<glyph unicode="&#x2b3;" horiz-adv-x="671" d="M33 1235v59l239 72h78v-152q127 154 209 154q51 0 96 -27v-219h-106q-35 57 -98 58q-31 0 -68 -14.5t-35 -14.5q0 2 2 4v-399q0 -33 33 -35l98 -4v-68h-436v68l68 4q33 2 32 35v479h-112z" />
<glyph unicode="&#x2b7;" horiz-adv-x="1292" d="M14 1282v68h396v-68l-68 -4q-31 -2 -23 -31l121 -395l170 498h170l164 -500q66 199 129 397q10 29 -22 31l-68 4v68h295v-68l-86 -10l-209 -631q2 2 4 8h-172l-168 510l-176 -510h-166l2 -8l-203 639l2 -6z" />
<glyph unicode="&#x2b8;" horiz-adv-x="870" d="M14 1282v68h406v-68l-72 -4q-35 -2 -22 -31l157 -368l164 368q12 29 -24 31l-68 4v68h301v-68l-82 -10l-266 -608q-76 -174 -149.5 -252t-176.5 -78q-51 0 -94 32.5t-43 82.5q2 66 90 106l131 -92q88 80 113 174l-273 637z" />
<glyph unicode="&#x2e1;" horiz-adv-x="512" d="M45 649v68l76 4q33 2 33 35v825h-109v57l236 74h77v-956q0 -33 33 -35l78 -4v-68h-424z" />
<glyph unicode="&#x2e2;" horiz-adv-x="686" d="M55 672v217h97l18 -131q63 -41 143 -41q70 0 107 35q27 25 26 57q0 53 -86 100q-82 37 -161 74q-135 70 -136 170q0 100 86.5 158.5t223.5 58.5q154 0 245 -37v-198h-96l-14 110q-35 39 -123 39q-115 0 -115 -78q0 -41 37 -69q29 -23 123 -66q211 -98 211 -199 q0 -125 -98 -186q-84 -53 -215 -53q-92 0 -195 20q-70 15 -78 19z" />
<glyph unicode="&#x2e3;" horiz-adv-x="839" d="M14 649v68l92 12l222 248l-228 295l-82 10v68h377v-68l-43 -4q-29 -2 -10 -27l107 -137l122 137q6 8 4 17q-4 10 -14 10l-49 4v68h285v-68l-86 -10l-203 -236l235 -307l82 -12v-68h-391v68l60 6q31 4 14 25l-123 153l-135 -153q-18 -20 10 -25l55 -6v-68h-301z" />
<glyph unicode="&#x2f8;" horiz-adv-x="544" d="M154 758q0 49 35.5 85t89.5 36q55 0 92 -36t37 -87q0 -47 -38 -82t-89 -35q-53 0 -90 35t-37 84zM154 1233q0 53 35.5 87t91.5 34q55 0 91 -36t36 -87q0 -49 -38 -83t-89 -34q-53 0 -90 35t-37 84z" />
<glyph unicode="&#x307;" horiz-adv-x="0" d="M-221 1159q0 33 22.5 54.5t53.5 21.5q76 0 75 -76q0 -31 -21.5 -52.5t-53.5 -21.5q-31 0 -53.5 21.5t-22.5 52.5z" />
<glyph unicode="&#x308;" horiz-adv-x="997" d="M61 1163q0 121 129 185q104 51 254 51q203 0 332 -101q133 -106 133 -280q0 -156 -121 -273q-86 -82 -221 -135q-51 -14 -102 -30v-174h-139v272q297 98 297 344q0 252 -269 252l-92 -238q-6 -4 -24 -4q-177 0 -177 131zM240 154q0 68 45 115.5t112 47.5q72 0 119 -50 t47 -122q0 -68 -49 -112.5t-119 -44.5q-66 0 -110.5 49t-44.5 117z" />
<glyph unicode="&#x327;" horiz-adv-x="0" />
<glyph unicode="&#x37e;" horiz-adv-x="706" d="M133 -260q236 37 227 274h-124q-45 39 -46 113q0 150 148 149q90 0 141 -61t51 -156q0 -180 -124 -299q-113 -109 -273 -120v100zM193 834q0 74 49 122t120 48q70 0 118 -49.5t48 -120.5q0 -70 -49 -120t-119 -50t-118.5 50t-48.5 120z" />
<glyph unicode="&#x387;" horiz-adv-x="761" d="M100 748q0 117 82 198.5t199 81.5t199 -82t82 -198q0 -117 -82 -198t-199 -81t-199 81t-82 198z" />
<glyph unicode="&#x394;" horiz-adv-x="1351" d="M0 0l645 1401h19l647 -1401h-1311zM123 72h926l-457 991z" />
<glyph unicode="&#x398;" horiz-adv-x="1511" d="M61 688q0 295 209 504t504 209t504 -209t209 -504t-209 -504t-504 -209t-504 209t-209 504zM287 688q0 -262 127 -442q137 -197 366 -197q209 0 353 217q129 195 129 422q0 250 -132 438q-143 207 -366 207q-215 0 -352 -209q-125 -188 -125 -436zM483 485v398h35 q0 -61 39 -97q31 -29 74 -28h291q39 0 71 28q41 35 41 97h35v-398h-35q0 61 -41 97q-33 29 -71 28h-291q-43 0 -74 -28q-39 -35 -39 -97h-35z" />
<glyph unicode="&#x39e;" horiz-adv-x="1286" d="M125 0v358h31q0 -178 157 -178h668q158 0 158 178h30v-358h-1044zM125 1018v358h1044v-358h-30q0 178 -158 178h-668q-158 0 -157 -178h-31zM336 477v430h35q0 -61 39 -96q31 -29 73 -29h338q39 0 72 29q41 35 41 96h35v-430h-35q0 61 -41 96q-33 29 -72 29h-338 q-43 0 -73 -29q-39 -35 -39 -96h-35z" />
<glyph unicode="&#x3a0;" horiz-adv-x="1574" d="M4 0v31q205 0 205 129v1030q0 156 -205 156v30h1430v-30q-205 0 -205 -156v-1030q0 -129 205 -129v-31h-615v31q205 0 205 129v1030q0 125 -195 125h-221q-195 0 -194 -125v-1030q0 -129 204 -129v-31h-614z" />
<glyph unicode="&#x3a8;" horiz-adv-x="1767" d="M0 1339v29q207 0 266 -47q92 -72 92 -328q0 -305 82 -405q78 -92 322 -101v703q0 156 -184 156v30h573v-30q-184 0 -184 -156v-703q244 8 321 101q82 100 82 405q0 256 92 328q59 47 267 47v-29q-96 0 -127 -49q-43 -72 -43 -315q0 -279 -84 -385q-125 -158 -508 -172 v-248q0 -63 69 -102q61 -37 135 -37v-31h-614v31q74 0 135 37q70 39 70 102v248q-383 14 -508 172q-84 106 -84 385q0 244 -43 315q-31 49 -127 49z" />
<glyph unicode="&#x1d2c;" horiz-adv-x="1054" d="M0 649v74l94 12l344 887h174l342 -862q8 -23 33 -27l68 -10v-74h-432v74l90 10q18 4 14 25l-84 227h-328l-86 -221q-4 -8 5.5 -19.5t17.5 -11.5l86 -10v-74h-338zM344 1069h262l-133 346z" />
<glyph unicode="&#x1d2e;" horiz-adv-x="968" d="M43 649v74l84 8q33 4 33 31v737q0 31 -33 33l-84 6v74h489q326 0 326 -221q0 -184 -217 -230q279 -4 279 -231q0 -205 -170 -262q-55 -18 -209 -19h-498zM373 735q63 -4 73 -4q242 0 242 189q0 182 -237 182q-35 0 -78 -2v-365zM373 1188q33 -2 39 -2q221 0 221 180 q0 166 -197 166q-8 0 -63 -4v-340z" />
<glyph unicode="&#x1d30;" horiz-adv-x="1110" d="M43 649v74l84 8q35 4 35 31v737q0 31 -35 33l-84 6v74h469q258 0 406 -131q141 -125 141 -340q0 -240 -143.5 -366t-393.5 -126h-479zM381 735l129 2q123 2 201 80q100 100 100 309q0 401 -332 402h-98v-793z" />
<glyph unicode="&#x1d31;" horiz-adv-x="921" d="M43 649v74l84 8q35 4 35 31v737q0 31 -35 33l-84 6v74h784v-230h-112l-23 119q-8 27 -28 27h-285v-336h182q25 0 25 27l14 96h96v-336h-96l-14 96q0 27 -25 27h-182v-367h334q27 0 26 29l25 149h110v-264h-831z" />
<glyph unicode="&#x1d33;" horiz-adv-x="1097" d="M59 1133q0 227 156 364q152 131 395 131q162 0 346 -49v-248h-120l-29 154q-4 20 -29 31q-47 18 -110 18q-186 0 -285 -121q-84 -106 -84 -274q0 -186 97.5 -295t275.5 -109h71v279q0 29 -34 30l-105 9v73h465v-73l-80 -9q-35 0 -35 -30v-320q-166 -61 -356 -61 q-233 0 -386 137.5t-153 362.5z" />
<glyph unicode="&#x1d34;" horiz-adv-x="1175" d="M45 649v74l80 8q33 4 33 31v735q0 27 -33 31l-80 8v76h449v-76l-80 -8q-35 -4 -35 -31v-297h422v297q0 27 -33 31l-80 8v76h449v-76l-80 -8q-33 0 -33 -31v-735q0 -27 33 -31l80 -8v-74h-449v74l80 8q33 4 33 31v346h-422v-346q0 -27 35 -31l80 -8v-74h-449z" />
<glyph unicode="&#x1d35;" horiz-adv-x="557" d="M43 649v74l94 8q35 2 35 31v735q0 29 -35 31l-94 8v76h479v-76l-96 -8q-35 -2 -35 -31v-735q0 -29 35 -31l96 -8v-74h-479z" />
<glyph unicode="&#x1d36;" horiz-adv-x="753" d="M41 668v262h119l37 -193q0 -18 39 -18q88 0 129 59q45 68 45 223v498q0 31 -33 33l-98 6v74h466v-74l-83 -6q-33 -2 -33 -33v-502q0 -365 -359 -364q-129 0 -229 35z" />
<glyph unicode="&#x1d37;" horiz-adv-x="1048" d="M45 649v74l82 8q33 4 33 31v737q0 31 -33 33l-82 6v74h451v-74l-80 -6q-35 -2 -35 -33l2 -360h41l330 374q14 16 -9 19l-86 6v74h353v-74q-29 -2 -109 -8l-287 -318l324 -481l109 -8v-74h-334v53l-250 367h-82l-2 -307q0 -27 35 -31l80 -8v-74h-451z" />
<glyph unicode="&#x1d38;" horiz-adv-x="843" d="M41 649v74l86 8q33 4 33 31v737q0 31 -33 33l-86 6v74h461v-74l-86 -6q-35 -2 -35 -33v-762h266q37 0 37 33l21 166h122v-287h-786z" />
<glyph unicode="&#x1d39;" horiz-adv-x="1361" d="M35 649v74l86 8q37 0 37 31v737q0 31 -37 33l-86 6v74h422v-39l227 -643l227 643v39h426v-74l-88 -6q-35 -2 -35 -33v-737q0 -31 35 -31l88 -8v-74h-440v74l76 8q33 4 33 31v754l-308 -867h-123l-301 860v-747q0 -31 33 -31l82 -8v-74h-354z" />
<glyph unicode="&#x1d3a;" horiz-adv-x="1122" d="M39 649v74l84 8q35 4 35 31v737q0 31 -35 33l-84 6v74h369v-39l456 -668v594q0 31 -35 33l-88 6v74h359v-74l-82 -6q-35 -2 -35 -33v-850h-188l-521 760v-647q0 -31 35 -31l86 -8v-74h-356z" />
<glyph unicode="&#x1d3c;" horiz-adv-x="1163" d="M63 1137q0 217 139.5 357t381.5 140q233 0 380.5 -147.5t147.5 -360.5q0 -211 -141 -352q-147 -147 -375 -147q-236 0 -381 133q-152 137 -152 377zM309 1133q0 -168 66 -285q74 -131 205 -131q143 0 221 133q63 111 63 270q0 178 -67 293q-74 125 -201 125 q-147 0 -223 -131q-64 -108 -64 -274z" />
<glyph unicode="&#x1d3e;" horiz-adv-x="913" d="M39 1538v74h430q188 0 287 -51q131 -70 131 -240t-127 -250q-104 -68 -277 -67q-80 0 -100 2v-244q0 -29 33 -31l96 -8v-74h-469v74l84 8q35 4 35 31v737q0 31 -35 33zM383 1092q25 -2 41 -2q233 2 233 223q0 100 -51 155.5t-137 55.5h-86v-432z" />
<glyph unicode="&#x1d3f;" horiz-adv-x="1085" d="M45 649v74l82 8q35 4 35 31v737q0 31 -35 33l-82 6v74h510q123 0 211 -43q125 -61 125 -195q0 -213 -268 -252q23 -4 47 -10q61 -18 94 -51q47 -47 78 -135q39 -111 55 -138q20 -33 41 -45q43 -23 147 -20v-72q-113 -10 -153 -10q-125 0 -209 70q-45 37 -95 163.5 t-83 155.5q-49 41 -131 41h-31v-309q0 -27 33 -31l86 -8v-74h-457zM383 1159q27 -2 51 -2q227 0 228 189q0 180 -230 180q-25 2 -49 0v-367z" />
<glyph unicode="&#x1d40;" horiz-adv-x="927" d="M25 1350v262h886v-262h-112l-29 159q-2 16 -20 17h-172v-764q0 -31 32 -31l92 -8v-74h-469v74l89 8q37 0 36 31v764h-172q-23 0 -24 -17l-27 -159h-110z" />
<glyph unicode="&#x1d41;" horiz-adv-x="1083" d="M31 1538v74h450v-74l-82 -6q-35 -2 -34 -33v-495q0 -133 60 -192.5t189 -59.5q223 0 224 252v495q0 31 -33 33l-88 6v74h356v-74l-82 -6q-33 -2 -33 -33v-485q0 -207 -100 -294t-319 -87q-389 0 -389 381v485q0 31 -35 33z" />
<glyph unicode="&#x1d42;" horiz-adv-x="1484" d="M14 1538v74h420v-74l-92 -8q-18 -2 -14 -31l164 -567l215 680h165l224 -694l153 581q4 29 -22 31l-99 8v74h340v-74l-94 -10l-235 -885h-156l-235 729l-230 -729h-158l-251 885z" />
<glyph unicode="&#x1d43;" horiz-adv-x="851" d="M61 823q0 104 76 154q94 59 395 123v55q0 133 -143 133q-59 0 -67 -4v-137h-158q-68 0 -68 51q0 76 111 125q100 45 231 45q150 0 217 -45q82 -55 82 -199v-368q0 -33 33 -35l68 -4v-68h-289l-19 82q-141 -92 -268 -92q-86 0 -143.5 51t-57.5 133zM281 858 q0 -45 30.5 -72.5t77.5 -27.5q61 0 141 35v229q-147 -29 -198 -63.5t-51 -100.5z" />
<glyph unicode="&#x1d47;" horiz-adv-x="921" d="M29 1581v57l235 74h80v-412q135 68 223 68q129 0 216 -88t87 -238q0 -172 -116 -278q-123 -115 -334 -115h-283v932h-108zM344 731h21q8 -2 12 -2q270 0 270 270q0 248 -221 248q-41 0 -82 -8v-508z" />
<glyph unicode="&#x1d48;" horiz-adv-x="929" d="M53 983q0 182 115 285q109 100 289 100q92 0 141 -12v225h-113v57l238 74h78v-956q0 -33 35 -35l63 -4v-68h-301v84q-43 -27 -88 -51q-84 -43 -156 -43q-137 0 -219 95t-82 249zM279 1016q0 -248 198 -248q33 0 86 16q18 4 35 9v469q-90 23 -109 22q-102 0 -156 -74.5 t-54 -193.5z" />
<glyph unicode="&#x1d49;" horiz-adv-x="821" d="M53 997q0 164 106.5 267.5t280.5 103.5q170 0 256 -98q74 -86 74 -226v-32h-504q0 -119 62.5 -186.5t173.5 -67.5q145 0 268 80v-115q-141 -84 -324 -84q-188 0 -294 104q-99 98 -99 254zM274 1092h277v30q0 162 -125 162q-152 1 -152 -192z" />
<glyph unicode="&#x1d4d;" horiz-adv-x="858" d="M51 541q0 78 62 123q47 33 92 28q-20 41 -21 76q0 63 88 133q-63 12 -116 55q-74 61 -74 160q0 123 100 191q90 59 240 59q90 0 219 -43h201v-86h-137l16 -37q14 -35 14 -72q0 -131 -129 -194q-102 -51 -237 -43q-49 -29 -50 -60q0 -10 9 -26q66 -4 211 -27 q256 -55 256 -186q0 -117 -131 -189q-119 -63 -285 -63q-137 0 -223 43q-105 52 -105 158zM254 561q0 -66 51 -104.5t119 -38.5t120 34.5t52 98.5q0 66 -125 96q-63 16 -168 27q-25 -31 -33 -47q-16 -31 -16 -66zM295 1130q0 -70 29 -116q33 -55 92 -56q57 0 90 56 q27 47 26 119q0 63 -30.5 113t-83.5 50q-123 0 -123 -166z" />
<glyph unicode="&#x1d4f;" horiz-adv-x="919" d="M37 1581v57l237 74h78v-690h33l209 229q18 20 -14 25l-56 6v68h320v-68l-105 -10l-164 -176l238 -371l90 -8v-68h-309v60l-170 266h-72v-219q0 -33 33 -35l64 -4v-68h-402v68l66 4q33 2 32 35v825h-108z" />
<glyph unicode="&#x1d50;" horiz-adv-x="1396" d="M33 649v68l65 4q33 2 33 35v479h-98v59l227 72h76v-86q6 6 78 39q102 47 174 47q76 0 127 -37q12 -10 59 -59q176 96 279 96q121 0 176 -84q35 -55 35 -135v-391q0 -33 34 -35l64 -4v-68h-387v68l49 4q35 2 35 35v327q0 152 -137 152q-39 0 -93 -14l-32 -9v-456 q0 -33 34 -35l54 -4v-68h-373v68l47 4q35 2 35 35v344q0 135 -131 135q-86 0 -127 -21v-458q0 -31 37 -35l47 -4v-68h-387z" />
<glyph unicode="&#x1d52;" horiz-adv-x="905" d="M53 999q0 174 115 273q109 96 293 96t288.5 -101.5t104.5 -267.5q0 -162 -108.5 -261t-296.5 -99q-176 0 -286 97t-110 263zM285 1006q0 -287 172 -287q168 0 168 280q0 289 -170 289q-170 1 -170 -282z" />
<glyph unicode="&#x1d56;" horiz-adv-x="927" d="M35 336v67l67 5q35 2 35 32v795h-102v59l227 72h80v-90q129 92 248 92q133 0 213 -111q74 -100 74 -237q0 -174 -112 -275.5t-302 -101.5q-59 0 -121 14v-217q0 -31 33 -32l82 -5v-67h-422zM342 737q55 -16 84 -16q106 0 168 78q55 76 55 200q0 100 -49 169t-143 69 q-51 0 -115 -23v-477z" />
<glyph unicode="&#x1d57;" horiz-adv-x="559" d="M25 1241v57l118 66l82 152h105v-183h215v-92h-215v-362q0 -125 127 -125q45 0 98 10v-72q-129 -49 -244 -49q-100 0 -142 42t-42 134v422h-102z" />
<glyph unicode="&#x1d58;" horiz-adv-x="937" d="M35 1237v59l225 72h80v-440q0 -160 141 -160q84 0 125 20v449h-98v59l223 72h78v-612q0 -33 35 -35l69 -4v-68h-307v80q-16 -12 -74 -41q-100 -49 -170 -49q-127 0 -180 61q-47 55 -47 172v365h-100z" />
<glyph unicode="&#x1d5b;" horiz-adv-x="870" d="M14 1282v68h406v-68l-72 -4q-31 -2 -20 -31l149 -397l168 397q12 29 -22 31l-66 4v68h299v-68l-88 -10l-264 -623h-152l-246 625z" />
<glyph unicode="&#x1d5d;" horiz-adv-x="745" d="M39 377v850q0 199 84 323q90 133 250 133q117 0 188 -65q66 -57 66 -137q0 -166 -209 -244q113 -12 194 -86q92 -86 93 -211q0 -133 -84 -220t-197 -87q-141 0 -213 108l22 13q70 -86 164 -86q172 0 172 264q0 133 -80 221q-59 66 -102 66q-8 0 -39 -12.5t-47 -12.5 q-53 0 -53 41q0 39 51 39q14 0 44 -9.5t36 -9.5q35 0 78 39q63 57 63 160q0 92 -61 148q-51 47 -115 47q-84 0 -133 -74t-49 -201v-997h-123z" />
<glyph unicode="&#x1d60;" horiz-adv-x="989" d="M45 1008q0 164 115 260q111 90 293 98l8 240q2 43 24 43q20 0 23 -43l8 -240q186 -6 295 -94q117 -94 117 -264q0 -160 -107.5 -259.5t-281.5 -113.5l6 -172q4 -86 -64 -86t-63 86l8 174q-170 16 -272 115q-109 100 -109 256zM170 1008q0 -139 70.5 -228.5t185.5 -107.5 l25 655q-127 -8 -201 -88q-80 -84 -80 -231zM516 1327l23 -655q117 18 186.5 107t69.5 229q0 145 -76 227t-203 92z" />
<glyph unicode="&#x1d9c;" horiz-adv-x="778" d="M53 987q0 166 115 273.5t283 107.5q121 0 193.5 -44t72.5 -114q0 -47 -33 -76.5t-78 -29.5q-53 0 -102 31v159q-12 2 -29 2q-78 0 -133 -67q-61 -76 -61 -201t62.5 -196.5t168.5 -71.5q61 0 137 26q57 23 80 39v-108q-176 -78 -303 -78q-174 0 -276 104q-97 97 -97 244z " />
<glyph unicode="&#x1da0;" horiz-adv-x="532" d="M45 1241v57l98 48q0 111 54 198q41 70 118 117q88 55 183 55q55 0 96 -24q51 -31 51 -86q0 -66 -96 -95q-68 59 -152 134q-49 -70 -49 -220v-92h168v-92h-166v-485q0 -33 33 -35l94 -4v-68h-430v68l64 4q35 2 34 35v485h-100z" />
<glyph unicode="&#x1dbb;" horiz-adv-x="772" d="M70 649v94l393 525h-232q-29 0 -28 -31l-10 -111h-109v224h621v-80l-402 -535h264q27 0 33 33l21 123h106v-242h-657z" />
<glyph unicode="&#x1fef;" horiz-adv-x="765" d="M0 1395q0 109 117 108q70 0 129 -65l280 -310h-143l-332 181q-51 29 -51 86z" />
<glyph unicode="&#x2000;" horiz-adv-x="858" />
<glyph unicode="&#x2001;" horiz-adv-x="2048" />
<glyph unicode="&#x2002;" horiz-adv-x="858" />
<glyph unicode="&#x2003;" horiz-adv-x="2048" />
<glyph unicode="&#x2004;" horiz-adv-x="571" />
<glyph unicode="&#x2005;" horiz-adv-x="428" />
<glyph unicode="&#x2006;" horiz-adv-x="284" />
<glyph unicode="&#x2007;" horiz-adv-x="284" />
<glyph unicode="&#x2008;" horiz-adv-x="212" />
<glyph unicode="&#x2009;" horiz-adv-x="342" />
<glyph unicode="&#x200a;" horiz-adv-x="94" />
<glyph unicode="&#x2010;" horiz-adv-x="671" d="M68 385v217h536v-217h-536z" />
<glyph unicode="&#x2011;" horiz-adv-x="671" d="M68 385v217h536v-217h-536z" />
<glyph unicode="&#x2012;" horiz-adv-x="671" d="M68 385v217h536v-217h-536z" />
<glyph unicode="&#x2013;" horiz-adv-x="1159" d="M68 385v217h1024v-217h-1024z" />
<glyph unicode="&#x2014;" horiz-adv-x="2183" d="M68 385v217h2048v-217h-2048z" />
<glyph unicode="&#x202f;" horiz-adv-x="342" />
<glyph unicode="&#x205f;" horiz-adv-x="428" />
<glyph unicode="&#x2070;" horiz-adv-x="901" d="M55 1130q0 217 95 351q104 150 301 149q199 0 303 -149q94 -133 94 -351q0 -217 -94 -350q-104 -147 -303 -147t-301 147q-95 131 -95 350zM281 1130q0 -414 170 -413q172 0 172 413q0 416 -172 416q-170 0 -170 -416z" />
<glyph unicode="&#x2071;" horiz-adv-x="512" d="M49 649v68l72 4q33 2 33 35v481h-99v59l226 72h77v-612q0 -33 35 -35l74 -4v-68h-418zM141 1591q0 47 34 79t85 32q49 0 84 -32t35 -79q0 -45 -35 -77.5t-84 -32.5q-51 0 -85 31.5t-34 78.5z" />
<glyph unicode="&#x2074;" horiz-adv-x="901" d="M55 918v122l500 590h168v-594h125v-116h-125v-287h-197v285h-471zM205 1036h321v377z" />
<glyph unicode="&#x2075;" horiz-adv-x="901" d="M63 815q0 37 30 65.5t81 28.5q23 0 70 -14l49 -170q23 -6 80 -6q119 0 190 78q57 63 58 129q0 94 -78 150.5t-195 56.5q-96 0 -227 -23v502h661v-160h-530v-229q37 8 72 16q76 16 139 16q166 0 271.5 -77.5t105.5 -202.5q0 -156 -142 -252q-131 -90 -317 -90 q-127 0 -217 45q-101 51 -101 137z" />
<glyph unicode="&#x2076;" horiz-adv-x="901" d="M55 1067q0 274 183 424q176 143 479 139v-112q-55 8 -68 6q-315 -20 -362 -310q125 72 237 72q152 0 242 -94q82 -84 82 -197q0 -162 -110.5 -263t-272.5 -101q-195 0 -302.5 112.5t-107.5 323.5zM276 1014q-4 -109 43 -193q53 -96 148 -96q78 0 120 65.5t42 161.5 q0 213 -203 213q-53 0 -106.5 -15t-40.5 -15q-1 -58 -3 -121z" />
<glyph unicode="&#x2077;" horiz-adv-x="901" d="M59 1307v305h785v-103l-516 -833v-43h-197l500 807h-443l-24 -133h-105z" />
<glyph unicode="&#x2078;" horiz-adv-x="901" d="M55 909q0 158 213 221q-59 20 -108 72q-63 63 -64 144q0 147 121 223q100 61 256 61q135 0 227 -59q106 -68 107 -189q0 -88 -68 -147q-37 -35 -123 -74q90 -33 132 -59q98 -70 98 -189q0 -137 -125 -213q-111 -68 -281 -67q-166 0 -275.5 77.5t-109.5 198.5zM252 924 q0 -84 58.5 -141.5t142.5 -57.5q78 0 131 36t53 103q0 88 -113 152q-90 39 -182 78q-27 -29 -51 -58q-39 -51 -39 -112zM307 1407q0 -76 76 -131q43 -33 160 -80q74 74 73 174q0 70 -45 119t-116 49q-61 0 -104.5 -37t-43.5 -94z" />
<glyph unicode="&#x2079;" horiz-adv-x="901" d="M55 1266q0 162 115 266q109 98 268 98q195 0 302.5 -112.5t107.5 -323.5q0 -276 -182 -424q-174 -143 -480 -139v110q55 -6 68 -6q313 23 360 309q-104 -70 -235 -69q-152 0 -244 94q-80 82 -80 197zM274 1309q0 -213 203 -213q55 0 108.5 15t39.5 15q0 57 2 121 q4 109 -43 193q-55 96 -148 96q-76 0 -119 -65.5t-43 -161.5z" />
<glyph unicode="&#x207a;" horiz-adv-x="1280" d="M182 1036v82h414v383h88v-383h412v-82h-412v-387h-88v387h-414z" />
<glyph unicode="&#x207b;" horiz-adv-x="503" d="M51 920v151h402v-151h-402z" />
<glyph unicode="&#x207c;" horiz-adv-x="1280" d="M190 901v82h900v-82h-900zM190 1169v82h900v-82h-900z" />
<glyph unicode="&#x207d;" horiz-adv-x="661" d="M133 1063q0 285 119 446.5t342 167.5v-75q-152 -20 -213 -170q-53 -125 -53 -369t53 -369q61 -152 213 -170v-78q-223 4 -342 168t-119 449z" />
<glyph unicode="&#x207e;" horiz-adv-x="661" d="M70 446v78q150 18 213 170q51 125 51 369q0 246 -51 369q-61 150 -213 170v75q223 -6 340.5 -167.5t117.5 -446.5t-117.5 -449t-340.5 -168z" />
<glyph unicode="&#x207f;" horiz-adv-x="968" d="M41 1235v59l233 72h78v-86q6 6 78 37q111 49 193 49q207 0 206 -248v-362q0 -33 35 -35l62 -4v-68h-385v68l51 4q33 2 33 35v336q0 143 -125 143q-49 0 -111 -12q-18 -2 -37 -6v-461q0 -33 33 -35l53 -4v-68h-391v68l68 4q33 2 32 35v479h-106z" />
<glyph unicode="&#x2113;" horiz-adv-x="854" d="M51 117l53 -94q242 129 439 454q211 350 211 692q0 190 -47 256q-37 51 -134 52q-121 0 -225 -244q-127 -299 -127 -797q0 -229 68.5 -349t193.5 -120q76 0 129 53q70 72 160 279l-78 47q-90 -244 -192 -244q-127 0 -127 529q0 319 53 524q51 190 119 191q41 0 57 -50 q18 -59 19 -225q0 -285 -193 -582q-176 -272 -379 -372z" />
<glyph unicode="&#x212a;" horiz-adv-x="1398" d="M59 0v104l109 11q45 4 45 45v1054q0 41 -45 46l-109 10v104h603v-104l-109 -10q-45 -4 -45 -46l2 -516h55l441 537q6 6 2 14q-2 10 -13 11l-116 10v104h469v-104q-39 -2 -144 -13l-381 -454l430 -686l146 -13v-104h-445v76l-333 524h-111l-2 -440q0 -41 45 -45l109 -11 v-104h-603z" />
<glyph unicode="&#x212d;" horiz-adv-x="1396" d="M84 586q0 272 215 471l342 317h616l25 -65l-170 -181h-500l199 -380q37 -70 37 -115q0 -35 -29 -98l-135 -302q49 -6 107 -6q156 0 241 35q59 23 156 98l125 -63l-178 -285q-201 -39 -322 -39q-373 0 -575 230q-154 176 -154 383zM260 684q0 -143 72 -252 q82 -123 237 -174l56 129q14 33 14 64q0 35 -18 69l-248 484q-78 -84 -97 -148q-16 -49 -16 -172z" />
<glyph unicode="&#x2135;" horiz-adv-x="1220" d="M63 0l11 51q131 16 131 88q0 35 -59.5 146.5t-59.5 179.5q0 158 190 366l-49 50q-90 90 -121 149q-37 68 -36 168q0 96 63 178q53 68 90 68q18 0 19 -29q0 -4 -13.5 -23.5t-13.5 -33.5q0 -51 66 -125q51 -49 102 -100l299 -299l143 180q-74 55 -98 104q-18 35 -18 92 q0 96 71 172q57 61 97 62q18 0 18 -19q0 -4 -5 -9t-5 -19q0 -49 108 -127q129 -94 129 -238q0 -100 -43 -153q-35 -43 -75 -43q-20 0 -39 34q-31 55 -84 101l-150 -187l252 -254q90 -90 121 -149q39 -70 39 -168q0 -96 -66 -178q-53 -68 -90 -68q-18 0 -18 29q0 4 13 24.5 t13 34.5q0 49 -65 123l-103 103l-501 501q-55 -82 -56 -147q0 -86 123 -233.5t123 -235.5q0 -72 -54 -119t-132 -47h-267z" />
<glyph unicode="&#x214f;" horiz-adv-x="1839" d="M100 109q158 0 269 110q-61 135 -62 281q0 190 139 190q59 0 96.5 -48t37.5 -134q0 -147 -76 -279q80 -90 176 -90q80 0 156 72q-53 131 -54 297q0 88 41 135t99 47q133 0 133 -182q0 -147 -76 -289q70 -80 178 -80q92 0 168 72q-63 121 -63 297q0 92 43 141q35 41 92 41 q135 0 135 -182q0 -147 -70 -287q106 -113 277 -112l-21 -117q-211 0 -325 125q-109 -125 -248 -125q-156 0 -246 114q-109 -115 -240 -114q-139 0 -235 131q-129 -129 -309 -129zM414 457q0 -68 28 -131q29 68 29 131q0 117 -25 116q-32 1 -32 -116zM891 463q0 -68 24 -141 q33 70 33 141q0 111 -28 110q-29 1 -29 -110zM1366 465q0 -78 31 -146q29 68 28 146q0 109 -28 108q-31 1 -31 -108z" />
<glyph unicode="&#x2225;" horiz-adv-x="1024" d="M283 -483v2048h141v-2048h-141zM602 -483v2048h141v-2048h-141z" />
<glyph unicode="&#x27e6;" horiz-adv-x="1222" d="M285 -270v1720h850v-92h-322v-1534h322v-94h-850zM463 -176h172v1534h-172v-1534z" />
<glyph unicode="&#x27e7;" horiz-adv-x="1222" d="M90 -176h322v1534h-322v92h848v-1720h-848v94zM590 -176h172v1534h-172v-1534z" />
<glyph unicode="&#x2afd;" horiz-adv-x="1003" d="M152 -190l423 1564h119l-424 -1564h-118zM391 -190l424 1564h121l-426 -1564h-119z" />
<glyph unicode="&#x2c7d;" horiz-adv-x="1085" d="M14 1538v74h439v-74l-86 -10q-25 -2 -15 -31l242 -625l235 627q10 25 -22 29l-82 10v74h344v-74l-96 -10l-346 -885h-160q-176 442 -352 883z" />
<glyph unicode="&#x2c88;" horiz-adv-x="1552" d="M84 659q0 389 264 584q201 147 483 148q211 0 412 -136q209 -141 227 -319h-301q-16 115 -102 227q-100 135 -219 135q-145 0 -252 -118q-125 -139 -139 -404h671q166 0 258 -39q84 -37 84 -92q0 -72 -55 -72h-102q-31 0 -107 37q-100 49 -162 68q-117 37 -243 37h-346 v-2q0 -326 110 -496q98 -152 258 -151q147 0 244 139q74 106 102 268l301 2q-25 -213 -182 -348q-180 -154 -491 -154q-289 0 -490 174q-223 190 -223 512z" />
<glyph unicode="&#x2e00;" horiz-adv-x="598" d="M78 879v561q0 27 20.5 45t44.5 18h314q66 0 65 -43q0 -45 -65 -45h-291v-536q0 -63 -43 -64q-45 1 -45 64z" />
<glyph unicode="&#x2e02;" horiz-adv-x="495" d="M78 879v362q0 29 20 47l213 201q23 20 45 20q45 0 45 -43q0 -23 -18 -39l-215 -198v-350q0 -63 -45 -64q-45 1 -45 64z" />
<glyph unicode="&#x2e03;" horiz-adv-x="495" d="M96 1475q0 39 39 38q23 0 49 -24l213 -201q20 -18 21 -47v-362q0 -66 -45 -66q-43 0 -43 66v358l-209 190q-25 23 -25 48z" />
<glyph unicode="&#x2e06;" horiz-adv-x="886" d="M74 1460q0 43 65 43h609q63 0 63 -43t-63 -43h-263v-538q0 -63 -43 -64q-43 0 -43 64v538h-260q-65 0 -65 43z" />
<glyph unicode="&#x2e09;" horiz-adv-x="751" d="M76 907q0 41 53 41q16 0 71.5 -26.5t94.5 -26.5q45 0 71.5 35t26.5 82q0 33 -46 124t-46 154q0 96 71.5 159.5t170.5 63.5q41 0 82 -16q51 -23 51 -59q0 -33 -41 -33q-16 0 -52 11t-55 11q-57 0 -98 -34.5t-41 -92.5q0 -49 46 -144t46 -152q0 -86 -58 -141.5t-144 -55.5 q-47 0 -119 29q-84 34 -84 71z" />
<glyph unicode="&#x2e0a;" horiz-adv-x="751" d="M76 1438q0 -33 41 -33q12 0 51 11t55 11q55 0 97 -34.5t42 -92.5q0 -49 -46 -144t-46 -152q0 -86 57.5 -141.5t145.5 -55.5q70 0 166 53q37 20 37 47q0 41 -53 41q-14 0 -68.5 -26.5t-97.5 -26.5q-39 0 -69 31.5t-30 85.5q0 33 46.5 123t46.5 155q0 96 -71 159.5 t-171 63.5q-49 0 -88 -20q-45 -22 -45 -55z" />
<glyph unicode="&#x2e0b;" horiz-adv-x="806" d="M78 918v522q0 27 19.5 45t45.5 18h521q27 0 46 -18.5t19 -44.5v-522q0 -25 -20.5 -44.5t-44.5 -19.5h-521q-25 0 -45 19.5t-20 44.5zM168 944h473v471h-473v-471z" />
<glyph unicode="&#x2e0c;" horiz-adv-x="864" d="M94 1473q0 39 41 38q25 0 47 -20l584 -508q27 -23 27 -49q0 -41 -41 -41q-25 0 -47 20l-582 508q-29 25 -29 52z" />
<glyph unicode="&#xe000;" horiz-adv-x="1000" d="M0 1000h1000v-1000h-1000v1000z" />
<glyph unicode="&#x1d40c;" horiz-adv-x="1914" d="M59 0v49q80 0 145.5 40t65.5 99v959q0 66 -53 119q-61 59 -158 59v51h471l484 -946l395 946h467v-51q-72 0 -102 -25q-37 -31 -37 -110v-1000q0 -141 164 -141v-49h-656v49q164 0 164 141v908l-467 -1114h-53l-498 977v-773q0 -59 70 -100q63 -39 145 -39v-49h-547z" />
<glyph unicode="&#x1d504;" horiz-adv-x="1480" d="M84 1169l256 222q172 -2 289 -142q111 -133 110 -311q0 -154 -96 -301q-68 -102 -207 -234q23 -14 230 -161l264 235v481q0 178 -101 209v66q193 33 443 158l45 -62q-113 -115 -113 -219v-733q0 -80 78 -80q49 0 72 16l45 -57l-238 -264q-231 0 -231 239v119l-424 -385 l-400 271v53q371 176 371 493q0 135 -82 240q-76 94 -157 94q-57 0 -125 -12z" />
<glyph unicode="&#x1d505;" horiz-adv-x="1507" d="M84 1163l256 221q236 -37 315 -241l293 252q20 2 41 2q131 0 230 -70q106 -76 106 -192q0 -180 -156 -263q121 -41 187.5 -139t66.5 -217q0 -147 -123 -252q-94 -84 -210 -108q-88 -18 -197 -78l-201 -109l-588 322v104q182 70 258 162t76 240q0 137 -71 233 q-66 88 -146 88q-59 0 -108 -20zM426 479l506 -266q96 -2 158 76q51 63 51 135q0 143 -121 217q-98 59 -242 59q-55 0 -160 -22q-71 -113 -192 -199zM662 762l88 14q88 14 174 62q131 72 131 176q0 131 -181 131q-29 0 -77.5 -15.5t-67.5 -33.5l-47 -45q10 -51 10 -127 q1 -80 -30 -162z" />
<glyph unicode="&#x1d50a;" horiz-adv-x="1595" d="M84 608q0 139 70 258q59 98 190 211l342 297h625l18 -65l-164 -181h-497l172 -288l327 221q344 -137 344 -502q0 -229 -196 -403q-211 -182 -522 -183q-344 0 -531 177q-178 167 -178 458zM338 668q0 -123 68 -275q80 -182 208 -262l109 150q31 41 31 84q0 29 -15 53 l-321 577q-80 -139 -80 -327zM715 88q45 -10 86 -10q223 0 342 131q102 117 102 301q0 121 -71.5 209t-151.5 88q-27 0 -47 -12l-82 -45l63 -109q33 -55 33 -102q0 -55 -49 -125z" />
<glyph unicode="&#x1d50e;" horiz-adv-x="1599" d="M84 1108l90 170q39 72 92 72q45 0 97.5 -30t103.5 -30q74 0 143 45l64 41l41 -26v-543h73q86 0 145.5 64.5t61.5 146.5q2 160 49 248q57 104 191 141l258 -190l-23 -52q-215 0 -272 -211q-4 -18 -36 -67t-50 -64q29 -14 76 -108t61 -172q18 -111 43 -160q37 -74 105 -74 q51 0 76 15l43 -50l-351 -282q-205 66 -204 512q0 106 -41 175t-113 69q-55 0 -92 -7v-180q0 -31 -25.5 -67.5t-58.5 -55.5l-164 -94l233 -94q25 -10 48 -10q31 0 73 28l49 -49l-307 -237l-463 186v68l211 92q109 47 109 155l-4 549q0 82 -37 82q-10 0 -63.5 -26.5 t-104.5 -26.5q-66 0 -127 47z" />
<glyph unicode="&#x1d50f;" horiz-adv-x="1253" d="M84 891q0 201 278 356l29 -24q-106 -78 -106 -228q0 -78 112.5 -210t112.5 -199q0 -88 -111 -199q-82 -84 -153 -121l-31 33q4 -10 60.5 54.5t56.5 119.5q0 49 -64 115q-109 106 -121 123q-63 84 -63 180zM137 76l230 192q98 82 200 82q31 0 164 -63.5t174 -63.5 q82 0 139 39l56 37l37 -43q-10 -8 -226 -205q-86 -78 -139 -78q-27 0 -204 81t-206 81q-39 0 -104 -39q-43 -27 -88 -55zM379 1012q0 76 31 121q33 53 133 118q209 139 262 140q25 0 116 -58.5t126 -58.5q37 0 102 35l29 -31q-272 -203 -310 -203q-29 0 -135 74t-141 74 q-29 0 -29 -29q0 -72 70 -145q66 -61 133 -123q70 -80 70 -168q0 -131 -265 -342l-32 33q68 68 67 151q0 68 -113.5 213.5t-113.5 198.5z" />
<glyph unicode="&#x1d510;" horiz-adv-x="2068" d="M84 156v45q315 295 315 524q0 186 -106 303q-76 80 -174 105v49l239 209q133 -86 220 -261l186 140q162 121 207 121q127 0 190 -228l168 125q137 102 168 103q39 0 74 -17l166 -78q39 -18 47 -18q20 0 47 18l55 39l43 -49l-225 -178q-39 -31 -59 -31q-27 0 -82 27 q-121 61 -127 61q-37 20 -66 21q-57 0 -129 -53l-61 -46q6 -49 6 -81v-1006h-258v913q0 100 -44 179t-112 77q-47 0 -113 -49l-57 -43q33 -86 33 -164q0 -281 -311 -589l237 -95q51 -20 86 -20q47 0 101 37l43 -53l-244 -222zM1501 354v381q0 94 66 146l325 254l39 -52 l-110 -92q-55 -45 -56 -176v-491q0 -51 39 -83t90 -32q33 0 58 12l33 -53l-269 -176q-109 18 -162 101t-53 261z" />
<glyph unicode="&#x1d513;" horiz-adv-x="1677" d="M84 981q0 178 90 315q102 154 266 154q193 0 389 -297q129 201 220 201q59 0 192 -146q139 -154 238 -340q117 -219 116 -385q0 -223 -108.5 -365.5t-282.5 -142.5q-90 0 -203 50q-174 74 -186 77v-313q0 -102 -55 -180q-59 -88 -154 -88q-111 0 -180 49v88q29 -8 55 -8 q59 0 99.5 32.5t40.5 88.5v348q-164 -12 -283 -76v90q94 88 283 109l-3 702q0 127 -88 230q-82 94 -168 94q-82 0 -131 -51q-59 -59 -59 -173q0 -80 66 -157l118 -131q66 -84 66 -181q0 -119 -92 -184q-63 -45 -156 -55v59q137 27 137 123q0 43 -63 115q-98 111 -115 135 q-49 74 -49 213zM815 231q68 -10 227 -51q129 -33 191 -33q135 0 184 41t49 142q0 70 -94 270q-98 215 -209 369q-133 184 -219 184q-51 0 -90 -49t-39 -131v-742z" />
<glyph unicode="&#x1d514;" horiz-adv-x="1531" d="M86 694q0 328 209 520q188 176 465 177q49 0 76 -7v-333l325 278q154 -121 219 -262q68 -152 68 -397q0 -190 -86 -347t-232 -249q55 -61 95 -133q59 -109 106 -109q12 0 25 6l16 -26l-160 -142q-123 16 -182 117q-66 109 -78 129q-33 47 -57 66q-49 -8 -113 -9 q-254 0 -456 177q-240 204 -240 544zM332 786q0 -334 121 -522l102 96q18 16 18 60v846q-86 -20 -149 -111q-92 -131 -92 -369zM524 211q70 -20 119 -23q53 -4 115 0q78 6 102 7q96 0 170 -43q86 74 137 190q49 111 50 211q0 168 -67 322.5t-151 154.5q-47 0 -131 -63 l-32 -25v-405q0 -49 -39 -84z" />
<glyph unicode="&#x1d516;" horiz-adv-x="1337" d="M98 68l168 180h479q367 0 363 186q-2 57 -70 96q-57 31 -114 31q-59 0 -197 -2q-156 -2 -233 -2q-115 0 -202 85t-87 181q0 111 69 215q55 80 234 260q92 92 135 93q31 0 215 -51.5t213 -51.5q55 0 90 23l31 -31l-197 -225q-12 -14 -65 -15q-23 0 -210.5 54.5 t-219.5 54.5q-33 0 -90.5 -53.5t-57.5 -100.5q0 -176 228 -176h364q115 0 199 -51q111 -66 110 -201q0 -160 -170 -329l-237 -238h-725z" />
<glyph unicode="&#x1d517;" horiz-adv-x="1406" d="M94 575q0 305 309 551h-59q-39 0 -62.5 -13t-72.5 -64l-74 41l256 284h877l24 -65l-168 -181h-571q-170 -156 -201 -198q-66 -92 -65 -246q0 -236 162 -356l102 71q47 33 47 115v363q0 63 18.5 90.5t69.5 50.5l236 106v-61q-63 -27 -64 -82v-430q0 -59 -57 -98l-264 -177 q111 -49 264 -49q156 0 241 35q59 23 156 98l125 -63l-178 -285q-201 -39 -322 -39q-375 0 -575 224q-154 171 -154 378z" />
<glyph unicode="&#x1d519;" horiz-adv-x="1472" d="M90 1200l213 191q233 6 258 -299l352 299q178 0 318 -142q158 -160 158 -420q0 -135 -89 -280q-78 -127 -202 -234l-410 -346l-590 236v67q117 86 150 156q29 59 28 199v415q0 113 -96 113q-25 0 -61 -20zM346 406l479 -207q174 154 230 254q63 113 63 297 q0 166 -125 278q-100 92 -192 92q-68 0 -101 -24l-135 -101l2 -333q0 -53 -49 -99z" />
<glyph unicode="&#x1d52d;" horiz-adv-x="962" d="M57 129v78q61 16 129 24v457q0 164 -65 164q-14 0 -41 -25l-23 33l197 150q80 -59 104.5 -99.5t26.5 -130.5l252 230l88 -72q70 -57 88 -100t18 -140v-516q-164 -78 -284 -207q-63 47 -162 86q0 -166 18 -223q18 -63 93 -112l-13 -27q-176 59 -229 143q-55 -63 -133 -86 l-12 21q51 51 67 104q10 37 10 121v115q-70 12 -129 12zM385 229q150 -25 250 -73v551q0 51 -25 71l-92 76l-133 -123v-502z" />
<glyph horiz-adv-x="1480" d="M84 1092l256 219q174 -2 286.5 -118t112.5 -290q0 -152 -96 -282q-49 -70 -207 -218q23 -14 230 -161l264 235v428q0 174 -101 211v64q201 37 443 157l45 -61q-113 -113 -113 -219v-680q0 -80 78 -80q49 0 72 16l45 -57l-238 -264q-231 0 -231 239v119l-424 -385 l-400 271v53q207 98 293 207q78 102 78 252q0 133 -82 217q-72 72 -157 71q-57 0 -125 -10zM424 1434q0 45 43 77.5t102 32.5t101.5 -31.5t42.5 -78.5q0 -45 -42 -77t-102 -32q-59 0 -102 32t-43 77zM829 1434q0 47 42 78.5t102 31.5q59 0 102 -32.5t43 -77.5t-43 -77 t-102 -32t-101.5 32t-42.5 77z" />
<glyph horiz-adv-x="784" d="M35 649l282 694l-41 134q-35 111 -110 110q-37 0 -63.5 -26.5t-26.5 -57.5h-31q0 84 39 135q37 45 86 45q55 0 87 -32.5t58 -120.5l209 -690q31 -98 113 -99q31 0 52.5 30t21.5 65h30q0 -94 -31.5 -148.5t-76.5 -54.5q-100 0 -148 153l-110 363l-203 -500h-137z" />
<glyph horiz-adv-x="858" d="M94 520v834h123v-514q0 -57 34 -106.5t79 -49.5q84 0 145 127q49 104 49 197v346h123v-529q0 -141 76 -141q29 0 54.5 47t25.5 109h26q0 -86 -32 -144q-35 -63 -99 -63q-154 0 -159 254q-20 -104 -74 -172q-61 -82 -148 -82q-137 0 -186 145q0 -104 41 -220t41 -148 q0 -49 -53 -50q-66 0 -66 160z" />
<glyph horiz-adv-x="913" d="M20 829h27q0 -92 66 -92q137 0 137 297v230h-64q-102 0 -129 -80h-28q0 59 39 108q49 61 133 62h549q59 0 71 35h31q0 -125 -115 -125h-96v-424q0 -150 76 -150q39 0 68.5 44t29.5 128h29q0 -111 -45 -170t-117 -59q-164 0 -164 182v449h-231v-373q0 -258 -160 -258 q-107 -1 -107 196z" />
<glyph horiz-adv-x="821" d="M61 520v484q0 147 105.5 256.5t257.5 109.5t255 -109.5t103 -261.5q0 -147 -104.5 -256.5t-255.5 -109.5q-193 0 -291 162q0 -154 35 -245t35 -122q0 -68 -68 -68q-39 0 -53 19q-19 28 -19 141zM190 1049q0 -147 60 -254q70 -125 192 -125q106 0 164 96q51 84 51 209 q0 137 -65 244q-74 117 -189 116q-111 0 -167 -92q-46 -75 -46 -194z" />
<glyph horiz-adv-x="770" d="M0 522l649 1096h121l-649 -1096h-121z" />
<glyph horiz-adv-x="747" d="M45 1464q0 86 98 129q78 37 191 37q152 0 250 -72.5t98 -195.5q0 -109 -90 -191q-66 -57 -166 -94l-78 -20v-123h-104v190q223 74 223 242q0 176 -201 176l-69 -168q-4 -2 -19 -2q-133 0 -133 92zM180 758q0 49 34 81.5t83 32.5q53 0 89 -35.5t36 -84.5q0 -47 -37 -79 t-88 -32q-49 0 -83 35t-34 82z" />
<glyph horiz-adv-x="983" d="M63 1133q0 219 155 358t386 139q139 0 324 -55v-244h-119l-33 160q-8 18 -22 22q-37 18 -109 19q-156 0 -248 -108.5t-92 -295.5q0 -168 80 -276q92 -125 272 -125q66 0 91 12q20 4 24 27l35 170h121v-252q-139 -51 -326 -51q-238 0 -388.5 139.5t-150.5 360.5z" />
<glyph horiz-adv-x="851" d="M37 1538v74h778v-246h-110l-21 131q-8 27 -29 27h-276v-353h190q25 0 25 27l16 98h95v-340h-95l-16 99q0 25 -25 24h-190v-317q0 -29 33 -31l100 -8v-74h-471v74l84 8q35 4 35 31v737q0 31 -35 33z" />
<glyph horiz-adv-x="1159" d="M59 1128q0 209 131 353q143 154 385 153q233 0 387 -143t154 -365q0 -193 -119 -325q-113 -125 -286 -152q2 -164 202 -164q68 0 144 17v-76q-156 -33 -273 -33q-317 0 -307 250q-133 6 -254 109q-164 136 -164 376zM307 1143q0 -168 66 -283q76 -135 213 -135 q143 0 217 135q61 111 61 270q0 160 -63 273q-76 135 -217 135q-135 0 -211 -125q-66 -108 -66 -270z" />
<glyph horiz-adv-x="843" d="M72 682v262h121l28 -176q2 -18 19 -18q47 -18 118 -19q197 0 197 127q0 74 -66 125q-37 29 -159 88q-236 113 -236 272q0 133 111 213q102 74 258 74q100 0 215 -28q37 -12 76 -25v-234h-117l-27 142q0 6 -9 17t-13 11q-35 20 -111 21q-66 0 -115 -31q-55 -35 -55 -94 q0 -106 185 -188q141 -61 198 -111q92 -76 92 -180q0 -143 -123 -223q-111 -72 -286 -72q-147 0 -301 47z" />
<glyph horiz-adv-x="1030" d="M14 649v74l101 12l305 373l-289 418l-96 12v74h450v-74l-82 -6q-8 0 -12 -10q-4 -12 4 -25l154 -225l190 227q10 10 6 23q-4 10 -16 12l-82 4v74h350v-74l-96 -12l-287 -348l306 -443l96 -12v-74h-461v74l92 6q31 2 8 35l-172 252l-207 -252q-10 -12 -4 -23q4 -10 15 -10 l92 -8v-74h-365z" />
<glyph horiz-adv-x="1017" d="M14 1538v74h437v-74l-80 -6q-27 -2 -9 -35l193 -340l211 342q18 31 -8 35l-94 4v74h340v-74l-91 -12l-282 -461v-303q0 -29 33 -31l94 -8v-74h-477v74l94 8q35 2 35 31v264l-295 500z" />
<glyph horiz-adv-x="911" d="M68 649v86l526 789h-338q-20 0 -23 -17l-26 -155h-113v260h744v-84l-525 -789h367q23 0 25 17l30 176h113v-283h-780z" />
<glyph horiz-adv-x="688" d="M207 461v1204h426v-86h-236v-1036h236v-82h-426z" />
<glyph horiz-adv-x="688" d="M63 461v82h234v1038h-234v84h429v-1204h-429z" />
<glyph horiz-adv-x="448" d="M96 758q0 49 38 85t91 36t90 -36t37 -85t-36.5 -84t-90.5 -35q-53 0 -91 35t-38 84z" />
<glyph horiz-adv-x="448" d="M45 397v72q178 25 170 190h-94q-33 27 -33 80q0 104 111 105q68 0 105.5 -43t37.5 -109q0 -127 -92 -211q-86 -76 -205 -84z" />
<glyph horiz-adv-x="768" d="M82 1468l111 41l163 -112l-8 -21l-201 -2zM193 1247l163 111l19 -17l-62 -178l-116 -28zM307 1593l76 86l78 -86l-66 -178h-24zM393 1341l19 17l163 -111l-4 -112l-116 28zM410 1399l163 110l113 -41l-68 -94l-198 2z" />
<glyph horiz-adv-x="921" d="M53 979q0 195 140 297q129 92 358 92q59 0 168 -10q39 -4 76 -6v-912q0 -31 32 -32l64 -5v-67h-422v67l86 5q33 2 33 32v277q-31 -16 -64 -33q-92 -41 -170 -41q-135 0 -218 96.5t-83 239.5zM279 1012q0 -244 210 -244q68 0 99 6v506q-10 4 -64 4q-245 0 -245 -272z" />
<glyph horiz-adv-x="1536" d="M0 924v141h1536v-141h-1536z" />
</font>
</defs>
</svg>
