<?xml version="1.0" standalone="no"?>
<!DOCTYPE svg PUBLIC "-//W3C//DTD SVG 1.1//EN" "http://www.w3.org/Graphics/SVG/1.1/DTD/svg11.dtd" >
<svg xmlns="http://www.w3.org/2000/svg">
<metadata>
This is a custom SVG webfont generated by Font Squirrel.
Copyright   : Copyright c SIL International httpwwwsilorg 19982009 All rights reserved
</metadata>
<defs>
<font id="ApparatusSILRegular" horiz-adv-x="864" >
<font-face units-per-em="2048" ascent="1638" descent="-410" />
<missing-glyph horiz-adv-x="600" />
<glyph horiz-adv-x="600" />
<glyph unicode=" "  horiz-adv-x="600" />
<glyph unicode="&#x09;" horiz-adv-x="600" />
<glyph unicode="&#xa0;" horiz-adv-x="600" />
<glyph unicode="!" horiz-adv-x="692" d="M221 111q0 53 37 89t88 36q53 0 90 -37t37 -88t-37 -89t-90 -38q-51 0 -88 37t-37 90zM223 1241q-14 160 123 160q139 0 125 -160l-74 -876h-100z" />
<glyph unicode="&#x22;" horiz-adv-x="681" d="M88 1362q0 100 88 100q86 0 86 -100l-69 -500h-33zM420 1362q0 100 86 100q88 0 88 -100l-72 -500h-33z" />
<glyph unicode="#" horiz-adv-x="1521" d="M127 467v102h324l100 293h-330v105h365l164 483l104 -33l-156 -450h299l162 483l107 -33l-156 -450h287v-105h-322l-98 -293h330v-102h-365l-174 -514l-102 33l161 481h-297l-174 -514l-102 35l164 479h-291zM565 569h297l99 293h-297z" />
<glyph unicode="$" horiz-adv-x="1153" d="M121 53v348h104l37 -229q59 -72 273 -72v518q-381 88 -381 373q0 168 131 273q102 82 252 104v154h94v-148q164 0 348 -47v-323h-105l-32 217q-47 53 -211 53v-488q195 -57 270 -112q137 -100 137 -285q0 -170 -153 -287q-127 -94 -256 -102v-211h-94v211q-145 8 -193 14 q-131 12 -221 39zM344 1032q0 -150 193 -219v453q-193 -41 -193 -234zM629 109q221 39 221 241q0 174 -221 244v-485z" />
<glyph unicode="%" horiz-adv-x="1763" d="M66 971q0 190 80.5 310t234.5 120q152 0 235 -123q78 -117 78 -307t-78 -307q-84 -123 -235 -123q-154 0 -238 123q-77 117 -77 307zM219 971q0 -352 162 -353q156 0 156 353q0 352 -156 352q-162 0 -162 -352zM383 0l870 1374h127l-868 -1374h-129zM1069 406 q0 190 81 310t234 120q154 0 238 -123q78 -117 78 -307t-78 -308q-84 -123 -238 -123t-237 123q-78 118 -78 308zM1225 406q0 -352 159 -353q158 0 158 353q0 352 -158 352q-159 0 -159 -352z" />
<glyph unicode="&#x26;" horiz-adv-x="1460" d="M109 381q0 246 274 360q-172 172 -172 314q0 152 110.5 249t278.5 97q156 0 258.5 -88t102.5 -221q0 -135 -95 -230q-68 -66 -207 -129l345 -371q100 129 114 240q2 10 -10 23.5t-25 15.5l-110 16v86h420v-86l-148 -22q-49 -172 -174 -346l166 -191l182 -10v-88h-377v49 l-92 103q-109 -86 -176 -119q-113 -57 -239 -58q-178 0 -302 116t-124 290zM315 428q0 -137 86 -228t211 -91q137 0 273 114l-422 459q-148 -102 -148 -254zM395 1108q0 -88 68 -176q25 -35 123 -129q186 94 186 276q0 94 -47 154q-51 68 -145 67q-82 0 -133.5 -55 t-51.5 -137z" />
<glyph unicode="'" horiz-adv-x="350" d="M88 1362q0 100 86 100q88 0 88 -100l-69 -500h-33z" />
<glyph unicode="(" horiz-adv-x="860" d="M209 590q0 365 131 590q147 256 451 288v-90q-209 -35 -304 -241q-86 -188 -86 -547q0 -358 86 -549q94 -207 304 -242v-90q-303 33 -451 291q-131 225 -131 590z" />
<glyph unicode=")" horiz-adv-x="860" d="M70 -201q209 35 303 242q86 190 86 549q0 358 -86 547q-94 207 -303 241v90q303 -33 450 -288q131 -225 131 -590t-131 -590q-147 -258 -450 -291v90z" />
<glyph unicode="*" horiz-adv-x="1024" d="M109 1167l145 43l221 -145l-8 -29l-266 15zM264 690l4 152l207 166l25 -19l-94 -246zM428 1341l84 125l86 -125l-72 -256h-28zM524 989l25 19l207 -166l4 -152l-142 53zM549 1065l221 145l145 -43l-92 -116l-264 -15z" />
<glyph unicode="+" horiz-adv-x="1705" d="M244 551v117h551v549h116v-549h551v-117h-551v-551h-116v551h-551z" />
<glyph unicode="," horiz-adv-x="575" d="M76 -274q117 27 168 86q59 70 57 202h-129q-37 37 -37 95q0 53 36 86.5t91 33.5q170 0 170 -209q0 -150 -105.5 -253t-250.5 -115v74z" />
<glyph unicode="-" horiz-adv-x="657" d="M90 416v153h475v-153h-475z" />
<glyph unicode="." horiz-adv-x="573" d="M150 121q0 57 39.5 97t97.5 40q57 0 98 -40t41 -97t-41 -97t-98 -40t-97 40t-40 97z" />
<glyph unicode="/" horiz-adv-x="1003" d="M0 -190l872 1564h132l-873 -1564h-131z" />
<glyph unicode="0" horiz-adv-x="1153" d="M82 686q0 311 121 504q133 209 372 209q240 0 373 -209q123 -195 123 -504t-123 -502q-133 -209 -373 -209t-372 209q-121 191 -121 502zM297 686q0 -608 278 -608q279 0 279 608q0 610 -279 610q-278 0 -278 -610z" />
<glyph unicode="1" horiz-adv-x="1153" d="M156 1169v93l442 137h78v-1254q0 -43 45 -45l192 -8v-92h-692v92l207 8q45 2 45 45v1080z" />
<glyph unicode="2" horiz-adv-x="1153" d="M96 0v137q418 346 514 447q201 213 201 403q0 141 -86 225q-82 76 -207 76q-59 0 -117 -22q-27 -10 -53 -23v-227q-41 -35 -100 -35q-51 0 -87 31.5t-36 89.5q0 127 133 212t317 85q201 0 329 -107.5t128 -283.5q0 -190 -221 -418q-113 -113 -498 -418h607l36 176h101 v-348h-961z" />
<glyph unicode="3" horiz-adv-x="1153" d="M96 209q0 45 32 77.5t89 32.5q51 0 70 -14l61 -182q78 -45 178 -45q139 0 232 96q88 90 88 217q0 135 -103 203q-82 55 -204 55q-66 0 -125 -8v127h20q20 -2 33 -2q139 0 229 63q98 70 99 197q0 123 -82 195q-76 66 -187 65q-100 0 -184 -49v-205q-53 -27 -92 -26 q-119 0 -119 114q0 117 133 198t320 81q182 0 301 -93.5t119 -252.5q0 -240 -316 -330q147 -6 250 -84q119 -92 119 -248q0 -182 -156 -299t-381 -117q-193 0 -315 80q-109 70 -109 154z" />
<glyph unicode="4" horiz-adv-x="1153" d="M82 408v141l672 850h143v-852h174v-139h-174v-433h-192v433h-623zM244 547h461v590z" />
<glyph unicode="5" horiz-adv-x="1153" d="M92 209q0 115 129 115q23 0 55 -9l78 -188q55 -51 158 -51q152 0 250 104q88 94 88 215q0 166 -100 256q-94 82 -250 82q-123 0 -326 -69v710h791v-174h-646v-389q-14 0 88.5 26.5t188.5 26.5q215 0 339 -111.5t124 -308.5q0 -213 -148 -338q-154 -131 -430 -131 q-154 0 -274 78q-115 72 -115 156z" />
<glyph unicode="6" horiz-adv-x="1153" d="M82 588q0 373 217 592t602 219v-127l-70 2q-201 6 -346 -129q-152 -139 -182 -379q147 129 342 129q190 0 308 -120t118 -306q0 -219 -143.5 -356.5t-354.5 -137.5q-223 0 -350 138q-141 158 -141 475zM293 547q0 -465 280 -465q141 0 220 104q70 94 69 256 q0 150 -76.5 235t-212.5 85q-143 0 -276 -103q-4 -42 -4 -112z" />
<glyph unicode="7" horiz-adv-x="1153" d="M86 1014v360h981v-114l-672 -1217v-68h-217l676 1225h-631l-33 -186h-104z" />
<glyph unicode="8" horiz-adv-x="1153" d="M82 369q0 231 293 342q-98 39 -162 112q-76 86 -76 199q0 174 120 275.5t318 101.5q188 0 313.5 -97.5t125.5 -246.5q0 -209 -250 -332q305 -111 305 -350q0 -174 -140.5 -286t-353.5 -112q-223 0 -358 110t-135 284zM272 385q0 -135 79 -217t224 -82q129 0 208 73.5 t79 180.5q0 115 -106 188q-63 43 -299 138q-185 -101 -185 -281zM340 1069q0 -102 88 -178q80 -68 248 -129q150 109 149 274q0 121 -73 193q-70 66 -177 65q-102 0 -168.5 -65.5t-66.5 -159.5z" />
<glyph unicode="9" horiz-adv-x="1153" d="M82 903q0 221 142.5 358.5t353.5 137.5q223 0 350 -137q143 -158 143 -476q0 -371 -215 -589q-221 -221 -606 -222v127l69 -2q201 -6 347 129q154 139 184 379q-147 -129 -342 -129q-190 0 -308 120t-118 304zM289 932q0 -150 76.5 -235t212.5 -85q143 0 276 103 q4 43 4 112q0 465 -280 465q-141 0 -215 -99t-74 -261z" />
<glyph unicode=":" horiz-adv-x="600" d="M166 121q0 57 39 97t96 40t97 -40t40 -97t-40 -97t-97 -40t-96 40t-39 97zM166 850q0 57 39 97t96 40t97 -40t40 -97t-40 -97t-97 -40t-96 40t-39 97z" />
<glyph unicode=";" horiz-adv-x="661" d="M131 -274q117 27 168 86q59 70 57 202h-129q-37 37 -37 95q0 53 36 86.5t91 33.5q170 0 170 -209q0 -150 -105.5 -253t-250.5 -115v74zM195 850q0 57 40.5 97t98.5 40q57 0 96 -40t39 -97t-40 -97t-97 -40t-97 40t-40 97z" />
<glyph unicode="&#x3c;" horiz-adv-x="1705" d="M264 557v105l1178 483v-127l-1000 -408l1000 -405v-129z" />
<glyph unicode="=" horiz-adv-x="1705" d="M254 360v117h1198v-117h-1198zM254 743v117h1198v-117h-1198z" />
<glyph unicode="&#x3e;" horiz-adv-x="1705" d="M264 76v129l1000 405l-1000 408v127l1178 -483v-105z" />
<glyph unicode="?" horiz-adv-x="995" d="M102 1198q0 80 80 137q90 63 246 64q184 0 305 -101.5t121 -265.5q0 -172 -135 -293q-84 -76 -254 -151v-228h-115v297q119 39 197 119q100 102 100 240q0 283 -293 282l-84 -208l-34 -3q-134 0 -134 111zM285 111q0 53 36.5 89t88.5 36q53 0 90 -37t37 -90 q0 -51 -37 -88t-90 -37q-51 0 -88 37t-37 90z" />
<glyph unicode="@" horiz-adv-x="1916" d="M156 489q0 430 288 691q262 236 633 235q313 0 502 -168q197 -174 197 -483q0 -289 -172 -481q-154 -168 -328 -168q-160 0 -160 170q-168 -168 -295 -168q-113 0 -184.5 91t-71.5 243q0 229 158 395q152 162 350 162q100 0 201 -56l37 47h116q-10 -31 -141 -608 q-8 -37 -8 -65q0 -94 84 -95q104 0 203 144q113 162 112 387q0 272 -180 426q-160 137 -395 137q-348 0 -573.5 -227.5t-225.5 -571.5q0 -322 189 -524q197 -213 528 -213q268 0 541 152l30 -74q-338 -180 -620 -180q-340 0 -572 215q-243 225 -243 587zM752 469 q0 -221 161 -221q102 0 209 133l82 424q6 31 -31.5 74t-89.5 43q-150 0 -240.5 -130t-90.5 -323z" />
<glyph unicode="A" horiz-adv-x="1359" d="M0 0v88l119 25l477 1278h154l475 -1248q8 -23 14 -28.5t29 -10.5l92 -16v-88h-488v88l119 10q8 0 15.5 13.5t5.5 21.5l-140 375h-475l-135 -369q-4 -12 6.5 -26.5t22.5 -14.5l121 -10v-88h-412zM434 606h400l-203 553z" />
<glyph unicode="B" horiz-adv-x="1247" d="M66 0v88l108 8q43 4 43 45v1092q0 41 -43 45l-108 8v88h548q461 0 461 -330q0 -240 -295 -315q158 0 258 -72q121 -84 121 -251q0 -223 -180 -328q-133 -78 -340 -78h-573zM422 106q90 -6 127 -6q211 0 299 70t88 219q0 270 -330 270q-41 0 -112 -6l-72 -6v-541zM422 756 q53 -2 74 -2q358 0 358 276q0 250 -315 250q-25 0 -69 -3t-48 -3v-518z" />
<glyph unicode="C" horiz-adv-x="1277" d="M84 680q0 313 194.5 505.5t512.5 192.5q172 0 401 -71v-316h-121l-31 183q-6 35 -32 47q-94 45 -207 45q-215 0 -344 -146q-139 -154 -140 -434q0 -281 135.5 -440.5t374.5 -159.5q100 0 164 27q31 12 37 41l47 219h117v-326q-178 -72 -404 -72q-324 0 -520 215 q-184 199 -184 490z" />
<glyph unicode="D" horiz-adv-x="1429" d="M66 0v88l108 8q45 4 45 45v1092q0 41 -45 45l-108 8v88h528q340 0 536 -164q215 -180 216 -520q0 -297 -162 -479q-188 -211 -549 -211h-569zM424 98l168 2q522 6 522 586q0 590 -532 590h-158v-1178z" />
<glyph unicode="E" horiz-adv-x="1198" d="M66 0v88l108 8q45 4 45 45v1092q0 41 -45 45l-108 8v88h995v-305h-123l-29 168q-6 39 -37 39h-448v-510h311q33 0 37 35l19 141h104v-457h-104l-19 142q-4 37 -37 37h-311v-564h522q31 0 37 39l35 203h112v-342h-1064z" />
<glyph unicode="F" horiz-adv-x="1110" d="M63 1286v88h996v-325h-121l-29 188q-6 37 -35 37h-438v-533h316q33 0 36 37l19 144h102v-461h-102l-19 143q-4 37 -36 37h-316v-500q0 -43 43 -45l137 -8v-88h-536v88l108 8q43 4 43 45v1092q0 43 -43 45z" />
<glyph unicode="G" horiz-adv-x="1429" d="M86 690q0 324 199.5 516.5t541.5 192.5q168 0 402 -62v-331h-123l-33 184q-6 35 -41 49q-104 45 -213 45q-227 0 -360 -149q-139 -156 -140 -435q0 -291 144 -452q137 -158 381 -158q55 0 119.5 11.5t60.5 11.5v409q0 39 -43 43l-137 10v89h534v-89l-104 -10 q-43 -4 -43 -43v-473q-225 -74 -430 -74q-330 0 -529 215q-186 201 -186 500z" />
<glyph unicode="H" horiz-adv-x="1521" d="M66 0v88l106 8q45 4 45 45v1092q0 39 -45 43l-106 8v90h518v-90l-117 -8q-43 -2 -43 -43v-461h676v461q0 41 -43 43l-117 8v90h516v-90l-106 -8q-45 -4 -45 -43v-1092q0 -41 45 -45l106 -8v-88h-516v88l117 8q43 2 43 45v529h-676v-529q0 -43 43 -45l117 -8v-88h-518z " />
<glyph unicode="I" horiz-adv-x="675" d="M68 0v88l122 8q43 2 43 45v1092q0 41 -43 43l-122 8v90h540v-90l-125 -8q-43 -2 -43 -43v-1092q0 -43 43 -45l125 -8v-88h-540z" />
<glyph unicode="J" horiz-adv-x="980" d="M51 25v350h123l45 -250q8 -45 94 -45q137 0 198.5 102.5t61.5 321.5v729q0 43 -43 45l-129 8v88h539v-88l-119 -8q-43 -2 -43 -45v-715q0 -266 -100 -399q-111 -143 -350 -144q-130 1 -277 50z" />
<glyph unicode="K" horiz-adv-x="1306" d="M66 0v88l108 8q43 4 43 45v1092q0 41 -43 45l-108 8v88h520v-88l-117 -8q-45 -4 -45 -45l2 -537h72l446 545q8 8 0 23q-6 10 -16 12l-105 10v88h434v-88l-139 -16l-418 -500l459 -672l148 -10v-88h-359v63l-381 547h-141l-2 -469q0 -41 45 -45l117 -8v-88h-520z" />
<glyph unicode="L" horiz-adv-x="1077" d="M55 0v88l119 8q43 2 43 45v1092q0 43 -43 45l-119 8v88h523v-88l-109 -8q-45 -4 -45 -45v-1133h430q41 0 45 35l33 246h119v-381h-996z" />
<glyph unicode="M" horiz-adv-x="1783" d="M59 0v88l117 8q43 2 43 45v1092q0 43 -43 45l-117 8v88h459v-55l371 -1006l371 1000v61h462v-88l-110 -8q-45 -4 -45 -45v-1092q0 -41 45 -45l110 -8v-88h-508v88l109 8q45 4 45 45v1129l-471 -1270h-102l-455 1251v-1110q0 -41 45 -45l117 -8v-88h-443z" />
<glyph unicode="N" horiz-adv-x="1466" d="M51 1286v88h406v-51l682 -1030v940q0 43 -43 45l-117 8v88h438v-88l-114 -8q-43 -2 -43 -45v-1233h-160l-762 1147v-1006q0 -43 43 -45l117 -8v-88h-443v88l117 8q45 4 45 45v1092q0 43 -45 45z" />
<glyph unicode="O" horiz-adv-x="1507" d="M86 688q0 307 180 510q188 211 488 211q297 0 487 -213q182 -205 182 -510t-182 -508q-190 -211 -485 -211q-297 0 -486 207q-184 201 -184 514zM322 688q0 -262 106 -426q115 -182 324 -182q211 0 327 180q106 164 107 424q0 264 -107 430q-117 178 -323 178 q-211 0 -328 -180q-106 -164 -106 -424z" />
<glyph unicode="P" horiz-adv-x="1157" d="M51 1286v88h490q295 0 428 -92q137 -98 137 -321q0 -217 -156 -336q-143 -111 -370 -111h-9q-109 0 -145 8v-381q0 -43 43 -45l135 -8v-88h-538v88l108 8q45 4 45 45v1092q0 43 -45 45zM426 627l46 -5q46 -5 69 -6h4q348 0 348 342q0 315 -363 316q-37 0 -104 -2v-645z " />
<glyph unicode="Q" horiz-adv-x="1519" d="M86 686q0 307 186.5 515t487.5 208q305 0 495 -211q184 -203 185 -512q0 -279 -150.5 -469t-415.5 -233q4 -244 283 -244q96 0 197 22v-88q-162 -35 -303 -34q-395 0 -396 340q-252 37 -407 221q-162 192 -162 485zM326 690q0 -256 108 -422q119 -182 328 -182 q211 0 330 180q106 162 106 420q0 260 -104 424q-119 184 -332 184t-330 -180q-106 -164 -106 -424z" />
<glyph unicode="R" horiz-adv-x="1331" d="M68 0v88l106 8q45 4 45 45v1092q0 41 -45 45l-106 8v88h534q502 0 502 -364q0 -266 -336 -342q125 -31 176 -90q66 -78 102.5 -227.5t86 -207t198.5 -57.5v-84q-147 -16 -135 -16q-164 0 -230.5 72.5t-111.5 232.5q-49 170 -92 227q-72 94 -244 94q-27 0 -60.5 -2 t-31.5 -2v-467q0 -41 43 -45l109 -8v-88h-510zM426 713h41q41 -2 61 -2q178 0 265.5 66.5t87.5 223.5q0 272 -361 273h-94v-561z" />
<glyph unicode="S" horiz-adv-x="1085" d="M90 43v363h129l27 -232q4 -33 35 -45q96 -39 206 -39q135 0 218 61.5t83 172.5q0 106 -124 192q-41 29 -236 121q-158 76 -221 135q-94 92 -94 234q0 180 133 286.5t340 106.5q168 0 360 -62v-319h-117l-30 196q-4 20 -31 35q-57 39 -180 39q-121 0 -192.5 -64.5 t-71.5 -168.5q0 -162 284 -271q201 -76 287 -157q102 -96 102 -242q0 -172 -127 -283q-145 -127 -415 -127q-205 0 -365 68z" />
<glyph unicode="T" horiz-adv-x="1226" d="M33 1047v327h1161v-327h-121l-29 192q-6 35 -34 35h-293v-1133q0 -43 43 -45l131 -8v-88h-555v88l131 8q43 2 43 45v1133h-295q-29 0 -35 -35l-28 -192h-119z" />
<glyph unicode="U" horiz-adv-x="1441" d="M47 1286v88h531v-88l-117 -8q-43 -2 -43 -45v-725q0 -197 67 -287q80 -109 281 -108q199 0 281 112q70 92 69 283v725q0 41 -45 45l-117 8v88h443v-88l-117 -8q-43 -2 -43 -45v-778q0 -479 -528 -480q-510 0 -510 480v778q0 41 -43 45z" />
<glyph unicode="V" horiz-adv-x="1363" d="M20 1286v88h490v-88l-121 -10q-10 0 -16 -13.5t-2 -23.5l360 -999l346 995q4 12 -5 25.5t-23 15.5l-113 10v88h407v-88l-118 -22l-459 -1274h-156q-113 301 -469 1276z" />
<glyph unicode="W" horiz-adv-x="1906" d="M20 1286v88h469v-88l-122 -12q-31 -2 -21 -41l244 -911l321 1052h158l330 -1075l227 934q8 37 -29 41l-129 12v88h418v-88l-125 -24l-313 -1272h-150l-342 1112l-335 -1112h-148l-334 1272z" />
<glyph unicode="X" horiz-adv-x="1296" d="M20 0v88l123 25l412 565l-373 586l-135 24v86h514v-86l-104 -10q-47 -4 -25 -41l250 -387l276 381q6 8 7 16q0 23 -29 27l-105 14v86h429v-86l-132 -20l-380 -525l403 -630l127 -25v-88h-526v88l118 12q29 2 29 29q0 8 -4 14l-272 428l-316 -434q-25 -35 25 -39l123 -10 v-88h-435z" />
<glyph unicode="Y" horiz-adv-x="1280" d="M20 1288v86h486v-86l-103 -10q-45 -4 -24 -41l287 -537l317 531q4 6 4 14q0 25 -29 29l-114 14v86h416v-86l-111 -20l-412 -684v-443q0 -43 43 -45l131 -8v-88h-551v88l127 8q45 2 45 45v412l-393 711z" />
<glyph unicode="Z" horiz-adv-x="1202" d="M92 0v90l762 1182h-532q-29 0 -35 -35l-31 -190h-121v327h965v-94l-764 -1176h584q29 0 34 37l35 238h121v-379h-1018z" />
<glyph unicode="[" horiz-adv-x="872" d="M285 -270v1720h499v-92h-321v-1534h321v-94h-499z" />
<glyph unicode="\" horiz-adv-x="1001" d="M0 1374h131l870 -1564h-131z" />
<glyph unicode="]" horiz-adv-x="872" d="M90 -176h322v1534h-322v92h504v-1720h-504v94z" />
<glyph unicode="^" horiz-adv-x="1961" d="M446 23l484 1177h104l482 -1177h-130l-405 999l-408 -999h-127z" />
<glyph unicode="_" horiz-adv-x="1024" d="M0 -350h1024v-133h-1024v133z" />
<glyph unicode="`" horiz-adv-x="716" d="M0 1409q0 92 94 92q59 0 107 -55l274 -318h-117l-311 199q-47 31 -47 82z" />
<glyph unicode="a" horiz-adv-x="1048" d="M86 252q0 127 100 199q129 92 504 174v88q0 203 -186 202q-78 0 -146 -26v-178h-149q-76 0 -76 59q0 117 137 182q119 57 289 58q324 0 324 -305v-574q0 -43 43 -45l98 -6v-80h-307l-27 121q-190 -137 -338 -137q-115 0 -190.5 71.5t-75.5 196.5zM289 266q0 -68 42 -115 t111 -47q100 0 248 89v354q-252 -63 -338 -137q-63 -54 -63 -144z" />
<glyph unicode="b" horiz-adv-x="1126" d="M20 1362v68l263 79h84v-575q158 76 282 76q193 0 305 -140q102 -131 103 -329q0 -244 -139 -385q-152 -156 -447 -156h-295v1362h-156zM367 98q-2 0 36 0q39 -2 64 -2q190 0 283 90q100 96 100 314q0 389 -315 389q-80 0 -168 -31v-760z" />
<glyph unicode="c" horiz-adv-x="962" d="M76 487q0 246 149 392q135 131 344 131q139 0 228.5 -54.5t89.5 -150.5q0 -57 -36 -88t-85 -31q-53 0 -102 33v180q-43 25 -86 25q-135 0 -214 -114t-79 -296q0 -178 86 -287q90 -115 254 -114q131 0 266 88v-117q-188 -100 -346 -100q-213 0 -341 140t-128 363z" />
<glyph unicode="d" horiz-adv-x="1150" d="M76 467q0 225 129 377q143 166 393 166q98 0 188 -23v375h-155v68l264 79h84v-1378q0 -43 43 -45l88 -6v-80h-324v109q-164 -125 -317 -125q-193 0 -299 155q-94 133 -94 328zM279 502q0 -170 78.5 -274.5t217.5 -104.5q109 0 211 63v697q-86 31 -174 30 q-152 0 -242.5 -112.5t-90.5 -298.5z" />
<glyph unicode="e" horiz-adv-x="1013" d="M76 483q0 238 135 382.5t346 144.5q184 0 287 -117q96 -113 96 -301q0 -39 -2 -57h-664q0 -180 72 -291q88 -135 270 -135q145 0 324 118v-125q-190 -119 -389 -118q-201 0 -330 120q-145 135 -145 379zM285 627h450v45q0 106 -50 172.5t-148 66.5q-102 0 -173 -77.5 t-79 -206.5z" />
<glyph unicode="f" horiz-adv-x="667" d="M59 0v80l101 6q43 2 43 45v727h-131v70l131 37q0 201 69 333q117 225 349 226q84 0 130 -36t46 -87q0 -84 -95 -111q-4 4 -95 68.5t-93 66.5q-115 -59 -119 -309l-2 -155h254v-103h-254v-727q0 -43 43 -45l121 -6v-80h-498z" />
<glyph unicode="g" horiz-adv-x="1085" d="M80 -178q0 94 53 158q57 72 164 90q-20 61 -21 94q0 88 103 192q-109 25 -178 103q-76 86 -76 205q0 160 112.5 253t299.5 93q109 0 237 -60h277v-100h-205q55 -88 55 -184q0 -158 -135 -250q-111 -75 -263 -76q-22 0 -44 2q-26 -41 -26 -84q0 -26 9 -53q209 -20 228 -35 q328 -51 327 -252q0 -147 -155.5 -254.5t-376.5 -107.5q-182 0 -283.5 70.5t-101.5 195.5zM264 -137q0 -82 66 -144q74 -68 202 -67q135 0 218 67q72 61 71 144q0 66 -36.5 99.5t-139 52t-225.5 40.5q-156 -57 -156 -192zM322 676q0 -109 49 -176q53 -74 145 -74 q90 0 140.5 71.5t50.5 180.5q0 102 -51.5 175t-139.5 73t-141 -66.5t-53 -183.5z" />
<glyph unicode="h" horiz-adv-x="1171" d="M39 1362v68l262 79h84v-624q205 125 336 125q125 0 197 -74q80 -82 79 -234v-571q0 -43 45 -45l93 -6v-80h-455v80l84 6q45 4 45 45v528q0 203 -203 203q-113 0 -221 -59v-672q0 -43 41 -45l88 -6v-80h-463v80l99 6q43 2 43 45v1231h-154z" />
<glyph unicode="i" horiz-adv-x="620" d="M70 0v80l100 6q43 2 43 45v731h-141v70l250 78h81v-879q0 -43 43 -45l105 -6v-80h-481zM195 1323q0 51 36.5 88t90.5 37q53 0 88.5 -36t35.5 -89t-36.5 -90t-87.5 -37t-89 38t-38 89z" />
<glyph unicode="j" horiz-adv-x="630" d="M-162 -332q0 88 88 119l199 -137q98 55 98 332v872h-145v68l252 77h84v-843q0 -287 -80 -410q-125 -193 -340 -192q-156 -1 -156 114zM184 1323q0 51 37 88t90 37t89 -36t36 -89t-37 -90t-88 -37t-89 38t-38 89z" />
<glyph unicode="k" horiz-adv-x="1103" d="M39 1362v68l262 79h84v-985h41l301 342q8 8 2 21q-4 12 -18 14l-84 8v78h397v-78l-131 -14l-270 -291l352 -512l108 -12v-80h-317v72l-266 393h-115v-334q0 -43 43 -45l88 -6v-80h-465v80l101 6q43 2 43 45v1231h-156z" />
<glyph unicode="l" horiz-adv-x="608" d="M53 1362v68l262 79h84v-1380q0 -14 14.5 -28.5t28.5 -14.5l111 -6v-80h-498v80l109 6q14 0 29.5 14.5t15.5 28.5v1233h-156z" />
<glyph unicode="m" horiz-adv-x="1751" d="M57 0v80l101 6q43 2 43 45v723h-142v68l248 77h84v-114q209 125 334 125q154 0 225 -140q223 139 355 140q145 0 215 -103q53 -82 53 -209v-567q0 -43 43 -45l98 -6v-80h-461v80l84 6q43 4 43 45v522q0 209 -182 209q-102 0 -217 -59v-672q0 -41 43 -45l86 -6v-80h-448 v80l86 6q43 4 43 45v533q0 199 -181 198q-115 0 -219 -59v-672q0 -41 43 -45l86 -6v-80h-463z" />
<glyph unicode="n" horiz-adv-x="1181" d="M51 0v80l101 6q43 2 43 45v723h-144v68l250 77h84v-114q219 125 338 125q274 0 274 -314v-565q0 -43 43 -45l90 -6v-80h-452v80l86 6q43 4 43 45v531q0 201 -197 200q-106 0 -225 -59v-672q0 -41 43 -45l86 -6v-80h-463z" />
<glyph unicode="o" horiz-adv-x="1122" d="M76 494q0 225 133 370.5t356 145.5t354.5 -146.5t131.5 -369.5q0 -221 -134.5 -365.5t-355.5 -144.5t-354 145q-131 140 -131 365zM291 496q0 -178 67 -293q74 -127 205 -127q133 0 209 127q66 113 66 293q0 178 -68 295q-76 127 -207 127q-135 0 -207 -127 q-65 -115 -65 -295z" />
<glyph unicode="p" horiz-adv-x="1148" d="M47 -369l98 11q43 4 43 43v1169h-141v68l250 77h82v-114q162 125 309 125q164 0 275 -127q117 -135 116 -357q0 -244 -138 -388t-380 -144q-68 0 -182 18v-327q0 -39 45 -43l121 -11v-77h-498v77zM379 121q88 -33 166 -33q160 0 250 125q80 113 79 285q0 164 -71 264 q-78 106 -215 106q-94 0 -209 -61v-686z" />
<glyph unicode="q" horiz-adv-x="1110" d="M76 469q0 252 156.5 397.5t435.5 145.5q154 0 290 -33v-1294q0 -39 43 -43l99 -11v-77h-496v77l121 11q43 4 43 43v389q-164 -80 -287 -80q-186 0 -295.5 133t-109.5 342zM283 502q0 -172 71 -273q80 -115 238 -114q86 0 176 28v754q-92 20 -141 21q-164 0 -254 -113 t-90 -303z" />
<glyph unicode="r" horiz-adv-x="811" d="M57 854v68l254 77h84v-194q88 98 121 127q88 78 150 78q72 0 125 -29v-203h-80q-47 55 -111 56q-94 0 -205 -127v-576q0 -43 43 -45l135 -6v-80h-512v78l101 8q43 4 43 45v723h-148z" />
<glyph unicode="s" horiz-adv-x="837" d="M84 27v274h104l25 -176q78 -51 182 -51q84 0 134.5 46t50.5 109q0 78 -66 127q-35 27 -184 99q-121 57 -172 110q-59 61 -60 150q0 137 97.5 217t271.5 80q158 0 262 -47v-242h-106l-17 145q-59 47 -155 47q-166 0 -166 -137q0 -68 47 -108.5t180 -102.5 q248 -113 248 -270q0 -150 -103.5 -232.5t-287.5 -82.5q-172 0 -285 45z" />
<glyph unicode="t" horiz-adv-x="696" d="M55 858v68l140 65l92 197h90v-227h289v-103h-289v-545q0 -117 39 -160.5t125 -43.5q74 0 143 16v-82q-141 -49 -278 -49q-119 0 -169.5 46t-50.5 165v653h-131z" />
<glyph unicode="u" horiz-adv-x="1165" d="M43 862v70l252 78h84v-664q0 -223 196 -223q117 0 224 53v686h-144v70l250 78h82v-879q0 -43 45 -45l90 -6v-80h-323v117q-174 -133 -330 -133q-283 0 -283 323v555h-143z" />
<glyph unicode="v" horiz-adv-x="1083" d="M20 909v78h453v-78l-98 -6q-16 -2 -26.5 -15.5t-4.5 -29.5l229 -643l252 643q6 16 -3 29.5t-25 15.5l-92 6v78h358v-78l-109 -12l-358 -897h-133l-330 897z" />
<glyph unicode="w" horiz-adv-x="1603" d="M20 909v78h449v-78l-96 -6q-33 -2 -34 -28q0 -8 3 -17l170 -639l264 768h146l237 -768l189 639q3 10 2 18q0 26 -31 27l-94 6v78h358v-78l-104 -12l-281 -897h-145l-242 766l-270 -766h-146l-262 897z" />
<glyph unicode="x" horiz-adv-x="1050" d="M25 0v80l118 16l293 381l-280 414l-121 18v78h452v-78l-73 -10q-14 -2 -21 -14q-6 -12 2 -23l160 -231l180 231q8 10 2 23q-4 12 -18 14l-88 10v78h370v-78l-112 -18l-273 -352l302 -443l112 -16v-80h-442v80l71 8q14 2 19 14q6 12 -2 23l-176 262l-201 -262 q-8 -10 -4 -23q4 -12 18 -14l101 -8v-80h-389z" />
<glyph unicode="y" horiz-adv-x="1085" d="M20 909v78h453v-78l-98 -6q-33 -2 -33 -33q0 -6 2 -12l238 -606l243 606q6 16 -3 29.5t-25 15.5l-97 6v78h365v-78l-107 -12l-393 -960q-88 -215 -176 -304q-80 -80 -178 -79q-70 0 -110 34.5t-40 83.5q0 70 66 123l192 -88q92 92 162 295l-348 895z" />
<glyph unicode="z" horiz-adv-x="972" d="M92 0v109l543 782h-356q-35 0 -41 -43l-21 -152h-104v291h757v-84l-561 -805h414q14 0 28.5 16.5t16.5 32.5l20 162h111v-309h-807z" />
<glyph unicode="{" horiz-adv-x="999" d="M123 549v92q180 0 237.5 55.5t57.5 290.5q0 147 8 197q14 104 76 168q86 90 356 90v-84q-152 0 -209 -62q-37 -41 -45 -131q-4 -33 -4 -172q0 -205 -59 -280q-66 -84 -217 -117q150 -33 217 -119q59 -76 59 -280q0 -139 4 -172q8 -90 45 -131q57 -61 209 -62v-84 q-270 0 -356 90q-61 63 -76 168q-8 49 -8 197q0 236 -57.5 291t-237.5 55z" />
<glyph unicode="|" horiz-adv-x="1024" d="M442 -483v2048h142v-2048h-142z" />
<glyph unicode="}" horiz-adv-x="999" d="M141 -168q152 0 209 62q37 41 45 131q4 33 4 172q0 205 60 280q68 86 217 119q-152 33 -217 117q-59 76 -60 280q0 139 -4 172q-8 90 -45 131q-57 61 -209 62v84q270 0 357 -90q61 -63 75 -168q8 -49 9 -197q0 -236 57 -291t238 -55v-92q-180 0 -237.5 -55.5 t-57.5 -290.5q0 -147 -9 -197q-14 -104 -75 -168q-86 -90 -357 -90v84z" />
<glyph unicode="~" horiz-adv-x="1705" d="M178 461v133q203 145 389 145q102 0 298 -68.5t282 -68.5q166 0 383 158v-133q-209 -143 -385 -144q-94 0 -288.5 69t-303.5 69q-156 0 -375 -160z" />
<glyph unicode="&#xa6;" horiz-adv-x="1024" d="M442 365h142v-848h-142v848zM442 717v848h142v-848h-142z" />
<glyph unicode="&#xad;" horiz-adv-x="657" d="M90 416v153h475v-153h-475z" />
<glyph unicode="&#xb0;" horiz-adv-x="845" d="M76 1159q0 145 102.5 247.5t245.5 102.5t245.5 -102t102.5 -248q0 -143 -101.5 -245.5t-246.5 -102.5q-143 0 -245.5 102.5t-102.5 245.5zM164 1159q0 -109 74.5 -183.5t185.5 -74.5q115 0 187.5 73t72.5 185q0 109 -77 185.5t-183 76.5q-115 0 -187.5 -73.5 t-72.5 -188.5z" />
<glyph unicode="&#xb2;" d="M72 649v96q315 246 385 314q152 150 151 282q0 98 -65 158q-59 53 -154 53q-45 0 -88 -16l-41 -16v-158q-31 -25 -74 -25q-92 0 -92 84q0 88 100.5 148.5t237.5 60.5q150 0 246 -75.5t96 -198.5q0 -133 -166 -293q-82 -78 -372 -293h454l27 123h76v-244h-721z" />
<glyph unicode="&#xb3;" d="M72 797q0 76 90 75q41 0 53 -8l45 -129q61 -31 135 -30q102 0 171 65.5t69 153.5q0 94 -78 143q-61 37 -154 37q-49 0 -92 -6v90q31 -2 39 -2q104 0 175 46t71 136q0 86 -61 137q-55 45 -140 45q-76 0 -139 -34v-144q-55 -18 -68 -18q-90 0 -90 80q0 82 100.5 139 t239.5 57q137 0 226.5 -66.5t89.5 -177.5q0 -168 -238 -229q111 -6 186 -59q90 -66 91 -174q0 -129 -117 -210t-287 -81q-143 0 -235 55q-82 50 -82 109z" />
<glyph unicode="&#xb6;" horiz-adv-x="995" d="M55 973q0 217 125 313q115 88 355 88h405v-74l-127 -20v-1442h-100v1452h-156v-715q-244 0 -360 80q-142 95 -142 318z" />
<glyph unicode="&#xb7;" horiz-adv-x="761" d="M100 748q0 117 82 198.5t199 81.5t199 -82t82 -198q0 -117 -82 -198t-199 -81t-199 81t-82 198z" />
<glyph unicode="&#xb9;" d="M117 1468v66l332 96h59v-878q0 -29 33 -31l143 -6v-66h-518v66l156 6q33 2 32 31v755z" />
<glyph unicode="&#xe6;" horiz-adv-x="1507" d="M86 244q0 154 133 231q104 61 447 150v84q0 207 -183 206q-61 0 -129 -26v-178h-143q-78 0 -78 59q0 117 131 182q113 57 271 58q190 0 272 -119q100 119 276 119q172 0 263 -125q78 -109 77 -289q0 -20 -4 -72h-573v-272q131 -131 303 -131q150 0 274 104v-123 q-164 -119 -340 -118q-221 0 -372 147q-193 -147 -361 -147q-125 0 -194.5 71.5t-69.5 188.5zM283 272q0 -166 155 -166q90 0 228 87v354q-221 -59 -302 -120t-81 -155zM846 612h375v62q0 100 -41 168q-47 74 -133 73q-104 0 -158 -96q-43 -80 -43 -207z" />
<glyph unicode="&#xe7;" horiz-adv-x="962" d="M76 487q0 246 149 392q135 131 344 131q139 0 228.5 -54.5t89.5 -150.5q0 -57 -36 -88t-85 -31q-53 0 -102 33v180q-43 25 -86 25q-135 0 -214 -114t-79 -296q0 -178 86 -287q90 -115 254 -114q131 0 266 88v-117q-170 -92 -322 -100v-113q57 8 47 8q150 0 150 -145 q0 -92 -65.5 -143.5t-172.5 -51.5q-66 0 -153 21v80q78 -16 125 -17q133 0 133 84q0 76 -98 76q-18 0 -46 -12v215q-188 18 -300.5 156t-112.5 345z" />
<glyph unicode="&#xfc;" horiz-adv-x="1165" d="M43 862v70l252 78h84v-664q0 -223 196 -223q117 0 224 53v686h-144v70l250 78h82v-879q0 -43 45 -45l90 -6v-80h-323v117q-174 -133 -330 -133q-283 0 -283 323v555h-143zM279 1311q0 45 32.5 79.5t77.5 34.5q47 0 80 -32.5t33 -79.5q0 -45 -34 -80t-81 -35 q-45 0 -76.5 34t-31.5 79zM702 1313q0 43 34 77.5t77 34.5q47 0 80 -32.5t33 -79.5t-34 -81t-79 -34t-78 34t-33 81z" />
<glyph unicode="&#x2b0;" horiz-adv-x="878" d="M29 1604v47l196 55h64v-436q158 88 252 88t150.5 -55.5t56.5 -161.5v-400q0 -29 34 -30l70 -4v-58h-342v58l63 4q33 2 33 30v371q0 141 -151 141q-84 0 -166 -41v-471q0 -29 30 -30l66 -4v-58h-346v58l74 4q33 2 32 30v863h-116z" />
<glyph unicode="&#x2b2;" horiz-adv-x="473" d="M-121 418q0 61 66 84l149 -96q74 37 74 231v610h-109v49l189 54h63v-590q0 -199 -61 -287q-94 -135 -254 -135q-117 0 -117 80zM137 1577q0 35 29 60.5t67 25.5q39 0 67 -25.5t28 -60.5q0 -37 -28 -63.5t-67 -26.5t-67.5 26.5t-28.5 63.5z" />
<glyph unicode="&#x2b3;" horiz-adv-x="608" d="M43 1247v49l190 54h64v-136q137 143 203 144q53 0 94 -21v-143h-62q-33 39 -81 39q-72 0 -154 -88v-404q0 -29 31 -30l102 -4v-58h-385v56l76 6q33 2 33 30v506h-111z" />
<glyph unicode="&#x2b7;" horiz-adv-x="1202" d="M14 1286v55h338v-55l-71 -4q-33 -2 -25 -31l127 -448l199 538h110l176 -538l144 448q10 29 -23 31l-69 4v55h268v-55l-78 -8l-211 -629h-108l-183 537l-202 -537h-109l-197 629z" />
<glyph unicode="&#x2b8;" horiz-adv-x="815" d="M14 1286v55h340v-55l-73 -4q-35 -2 -23 -31l178 -424l182 424q12 29 -20 31l-74 4v55h275v-55l-80 -8l-295 -672q-68 -152 -130.5 -210t-135.5 -58q-51 0 -82 23.5t-31 58.5q0 49 51 86l144 -62q70 66 120 207l-260 627z" />
<glyph unicode="&#x2e1;" horiz-adv-x="456" d="M39 1604v47l197 55h63v-967q0 -27 33 -28l84 -4v-58h-375v58l82 4q35 2 35 28v865h-119z" />
<glyph unicode="&#x2e2;" horiz-adv-x="628" d="M63 670v190h78l19 -123q57 -35 137 -35q61 0 99 32t38 77q0 53 -49 88q-27 20 -137 70q-174 78 -174 182q0 96 72.5 151.5t203.5 55.5q127 0 197 -33v-168h-80l-12 100q-45 33 -117 33q-125 0 -125 -96q0 -47 36 -75.5t134 -71.5q186 -80 186 -189q0 -104 -77.5 -162.5 t-215.5 -58.5q-131 0 -213 33z" />
<glyph unicode="&#x2e3;" horiz-adv-x="788" d="M18 649v58l88 10l222 266l-211 291l-90 12v55h338v-55l-54 -6q-31 -4 -14 -27l119 -161l135 161q6 6 2 17q-4 10 -14 10l-66 6v55h279v-55l-84 -12l-205 -246l225 -311l84 -10v-58h-332v58l54 4q10 0 14 10q6 8 0 16l-133 185l-152 -185q-6 -6 -2 -16q4 -8 15 -10l75 -4 v-58h-293z" />
<glyph unicode="&#x2f8;" horiz-adv-x="450" d="M125 735q0 41 28.5 68.5t71.5 27.5q45 0 75 -27.5t30 -68.5q0 -39 -31 -67.5t-74 -28.5q-41 0 -70.5 28.5t-29.5 67.5zM125 1245q0 41 28.5 68.5t71.5 27.5t74 -28.5t31 -67.5t-31 -67.5t-74 -28.5q-41 0 -70.5 28.5t-29.5 67.5z" />
<glyph unicode="&#x307;" horiz-adv-x="0" d="M-221 1159q0 33 22.5 54.5t53.5 21.5q76 0 75 -76q0 -31 -21.5 -52.5t-53.5 -21.5q-31 0 -53.5 21.5t-22.5 52.5z" />
<glyph unicode="&#x308;" horiz-adv-x="995" d="M102 1198q0 80 80 137q90 63 246 64q184 0 305 -101.5t121 -265.5q0 -172 -135 -293q-84 -76 -254 -151v-228h-115v297q119 39 197 119q100 102 100 240q0 283 -293 282l-84 -208l-34 -3q-134 0 -134 111zM285 111q0 53 36.5 89t88.5 36q53 0 90 -37t37 -90 q0 -51 -37 -88t-90 -37q-51 0 -88 37t-37 90z" />
<glyph unicode="&#x327;" horiz-adv-x="0" />
<glyph unicode="&#x37e;" horiz-adv-x="661" d="M131 -274q117 27 168 86q59 70 57 202h-129q-37 37 -37 95q0 53 36 86.5t91 33.5q170 0 170 -209q0 -150 -105.5 -253t-250.5 -115v74zM195 850q0 57 40.5 97t98.5 40q57 0 96 -40t39 -97t-40 -97t-97 -40t-97 40t-40 97z" />
<glyph unicode="&#x387;" horiz-adv-x="761" d="M100 748q0 117 82 198.5t199 81.5t199 -82t82 -198q0 -117 -82 -198t-199 -81t-199 81t-82 198z" />
<glyph unicode="&#x394;" horiz-adv-x="1351" d="M0 0l645 1401h19l647 -1401h-1311zM123 72h926l-457 991z" />
<glyph unicode="&#x398;" horiz-adv-x="1511" d="M61 688q0 295 209 504t504 209t504 -209t209 -504t-209 -504t-504 -209t-504 209t-209 504zM287 688q0 -262 127 -442q137 -197 366 -197q209 0 353 217q129 195 129 422q0 250 -132 438q-143 207 -366 207q-215 0 -352 -209q-125 -188 -125 -436zM483 485v398h35 q0 -61 39 -97q31 -29 74 -28h291q39 0 71 28q41 35 41 97h35v-398h-35q0 61 -41 97q-33 29 -71 28h-291q-43 0 -74 -28q-39 -35 -39 -97h-35z" />
<glyph unicode="&#x39e;" horiz-adv-x="1286" d="M125 0v358h31q0 -178 157 -178h668q158 0 158 178h30v-358h-1044zM125 1018v358h1044v-358h-30q0 178 -158 178h-668q-158 0 -157 -178h-31zM336 477v430h35q0 -61 39 -96q31 -29 73 -29h338q39 0 72 29q41 35 41 96h35v-430h-35q0 61 -41 96q-33 29 -72 29h-338 q-43 0 -73 -29q-39 -35 -39 -96h-35z" />
<glyph unicode="&#x3a0;" horiz-adv-x="1574" d="M4 0v31q205 0 205 129v1030q0 156 -205 156v30h1430v-30q-205 0 -205 -156v-1030q0 -129 205 -129v-31h-615v31q205 0 205 129v1030q0 125 -195 125h-221q-195 0 -194 -125v-1030q0 -129 204 -129v-31h-614z" />
<glyph unicode="&#x3a8;" horiz-adv-x="1767" d="M0 1339v29q207 0 266 -47q92 -72 92 -328q0 -305 82 -405q78 -92 322 -101v703q0 156 -184 156v30h573v-30q-184 0 -184 -156v-703q244 8 321 101q82 100 82 405q0 256 92 328q59 47 267 47v-29q-96 0 -127 -49q-43 -72 -43 -315q0 -279 -84 -385q-125 -158 -508 -172 v-248q0 -63 69 -102q61 -37 135 -37v-31h-614v31q74 0 135 37q70 39 70 102v248q-383 14 -508 172q-84 106 -84 385q0 244 -43 315q-31 49 -127 49z" />
<glyph unicode="&#x1d2c;" horiz-adv-x="1019" d="M0 649v62l90 18l356 895h117l357 -874q6 -16 10 -20.5t20 -6.5l70 -12v-62h-367v62l90 8q6 0 12.5 9t4.5 15l-107 263h-356l-100 -258q-4 -8 4 -18.5t18 -10.5l90 -8v-62h-309zM326 1075h299l-152 387z" />
<glyph unicode="&#x1d2e;" horiz-adv-x="935" d="M49 649v62l82 6q31 2 31 33v763q0 29 -31 31l-82 6v62h412q346 0 346 -232q0 -168 -221 -219q117 0 192 -49q90 -61 90 -178q0 -156 -133 -229q-102 -55 -256 -56h-430zM317 725q68 -4 95 -4q158 0 224 48t66 153q0 190 -247 190q-31 0 -85.5 -4t-52.5 -4v-379zM317 1180 q39 -2 56 -2q268 0 268 192q0 176 -238 176q-18 0 -51 -2t-35 -2v-362z" />
<glyph unicode="&#x1d30;" horiz-adv-x="1073" d="M49 649v62l82 6q33 2 33 33v763q0 29 -33 31l-82 6v62h397q254 0 402 -115q162 -125 162 -364q0 -207 -121 -336q-141 -147 -412 -148h-428zM317 719l127 2q391 6 392 409q0 414 -400 414h-119v-825z" />
<glyph unicode="&#x1d31;" horiz-adv-x="899" d="M49 649v62l82 6q33 2 33 33v763q0 29 -33 31l-82 6v62h748v-213h-92l-23 117q-6 29 -29 28h-336v-358h234q25 0 29 24l14 99h78v-320h-78l-14 101q-4 25 -29 24h-234v-393h392q25 0 28 27l27 141h84v-240h-799z" />
<glyph unicode="&#x1d33;" horiz-adv-x="1073" d="M63 1133q0 227 151 362t407 135q129 0 301 -45v-231h-93l-24 129q-4 25 -31 35q-72 31 -160 30q-170 0 -272 -106.5t-102 -300.5q0 -205 105.5 -316.5t287.5 -111.5q41 0 90 8t45 8v287q0 27 -33 28l-102 9v61h401v-61l-78 -9q-33 0 -32 -28v-332q-170 -51 -324 -51 q-246 0 -397 151q-140 140 -140 349z" />
<glyph unicode="&#x1d34;" horiz-adv-x="1140" d="M49 649v62l80 6q33 2 33 33v763q0 29 -33 31l-80 4v64h389v-64l-88 -4q-33 -2 -33 -31v-323h508v323q0 29 -32 31l-88 4v64h387v-64l-80 -4q-33 -2 -33 -31v-763q0 -31 33 -33l80 -6v-62h-387v62l88 6q33 2 32 33v368h-508v-368q0 -31 33 -33l88 -6v-62h-389z" />
<glyph unicode="&#x1d35;" horiz-adv-x="507" d="M51 649v62l92 6q31 2 31 33v763q0 29 -31 31l-92 4v64h406v-64l-95 -4q-33 -2 -32 -31v-763q0 -31 32 -33l95 -6v-62h-406z" />
<glyph unicode="&#x1d36;" horiz-adv-x="735" d="M39 668v245h92l33 -176q6 -31 72 -30q195 0 194 297v509q0 29 -33 31l-96 6v62h404v-62l-89 -6q-33 -2 -32 -31v-501q0 -379 -338 -379q-68 0 -207 35z" />
<glyph unicode="&#x1d37;" horiz-adv-x="980" d="M49 649v62l82 6q31 2 31 33v763q0 29 -31 31l-82 6v62h391v-62l-88 -6q-35 -2 -35 -31l2 -376h54l336 383q4 6 0 14t-13 10l-80 6v62h326v-62l-104 -12l-314 -348l344 -471l113 -8v-62h-270v45l-285 383h-107l-2 -327q0 -31 35 -33l88 -6v-62h-391z" />
<glyph unicode="&#x1d38;" horiz-adv-x="808" d="M41 649v62l90 6q31 2 31 33v763q0 29 -31 31l-90 6v62h393v-62l-82 -6q-35 -2 -35 -31v-792h324q29 0 33 24l24 173h90v-269h-747z" />
<glyph unicode="&#x1d39;" horiz-adv-x="1337" d="M45 649v62l86 6q33 2 33 33v763q0 29 -33 31l-86 6v62h344v-39l279 -705l276 701v43h348v-62l-84 -6q-33 -2 -32 -31v-763q0 -31 32 -33l84 -6v-62h-381v62l80 6q35 2 35 33v788l-354 -889h-76l-340 877v-776q0 -31 33 -33l88 -6v-62h-332z" />
<glyph unicode="&#x1d3a;" horiz-adv-x="1099" d="M39 1550v62h303v-35l512 -721v657q0 29 -33 31l-86 6v62h328v-62l-86 -6q-33 -2 -33 -31v-864h-119l-571 803v-702q0 -31 33 -33l86 -6v-62h-332v62l88 6q33 2 33 33v763q0 29 -33 31z" />
<glyph unicode="&#x1d3c;" horiz-adv-x="1130" d="M63 1133q0 213 139.5 358t362.5 145t362.5 -145t139.5 -361q0 -213 -139.5 -358t-360.5 -145q-223 0 -363.5 143.5t-140.5 362.5zM242 1133q0 -182 80 -299q86 -127 241 -127q158 0 246 127q80 115 80 294q0 184 -80 302q-88 125 -242 124q-160 0 -245 -124 q-80 -115 -80 -297z" />
<glyph unicode="&#x1d3e;" horiz-adv-x="868" d="M39 1550v62h367q221 0 322 -66.5t101 -222.5q0 -152 -116 -236q-109 -80 -285 -77q-86 0 -109 6v-266q0 -31 33 -33l101 -6v-62h-404v62l82 6q33 2 33 33v763q0 29 -33 31zM319 1090l35 -5q35 -4 52 -4q264 -2 264 240q0 221 -273 221q-27 0 -78 -2v-450z" />
<glyph unicode="&#x1d3f;" horiz-adv-x="999" d="M51 649v62l80 6q33 2 33 33v763q0 29 -33 31l-80 6v62h400q377 0 376 -254q0 -188 -252 -240q92 -20 134 -63q49 -53 76.5 -160t64.5 -145.5t147 -38.5v-60q-61 -10 -100 -10q-125 0 -174 50t-84 166t-68 155q-55 68 -182 67q-20 0 -46 -2t-24 -2v-325q0 -31 33 -33 l82 -6v-62h-383zM319 1149h31q31 -2 45 -2q266 0 267 205q0 190 -273 190h-70v-393z" />
<glyph unicode="&#x1d40;" horiz-adv-x="919" d="M25 1382v230h870v-230h-90l-23 136q-4 25 -24 24h-219v-792q0 -31 30 -33l99 -6v-62h-416v62l98 6q33 2 33 33v792h-221q-23 0 -27 -24l-20 -136h-90z" />
<glyph unicode="&#x1d41;" horiz-adv-x="1081" d="M35 1550v62h399v-62l-88 -6q-33 -2 -33 -31v-507q0 -139 52 -201q59 -76 210 -76q147 0 211 78q51 66 52 199v507q0 29 -35 31l-88 6v62h334v-62l-88 -6q-33 -2 -33 -31v-544q0 -336 -396 -336q-383 0 -382 336v544q0 29 -33 31z" />
<glyph unicode="&#x1d42;" horiz-adv-x="1429" d="M14 1550v62h353v-62l-93 -8q-23 -2 -14 -29l182 -639l242 738h117l248 -752l170 653q6 27 -21 29l-96 8v62h313v-62l-94 -16l-236 -891h-112l-256 778l-252 -778h-111l-250 891z" />
<glyph unicode="&#x1d43;" horiz-adv-x="786" d="M63 827q0 88 76 140q98 63 379 120v62q0 141 -139 141q-61 0 -111 -18v-125h-110q-57 0 -58 43q0 82 103 127q88 41 217 41q242 0 242 -215v-402q0 -29 32 -30l74 -4v-58h-229l-21 86q-143 -96 -254 -96q-86 0 -143.5 50t-57.5 138zM217 836q0 -45 31 -79t84 -34 q76 0 186 61v248q-188 -43 -254 -94q-47 -39 -47 -102z" />
<glyph unicode="&#x1d47;" horiz-adv-x="845" d="M14 1604v47l199 55h61v-401q137 53 213 53q143 0 228 -98q78 -92 78 -232q0 -172 -105 -270q-115 -109 -336 -109h-221v955h-117zM274 719h29q31 -2 47 -2q287 0 287 282q0 272 -236 273q-66 0 -127 -21v-532z" />
<glyph unicode="&#x1d48;" d="M57 977q0 158 97 264q109 117 295 117q76 0 141 -17v263h-117v47l199 55h63v-965q0 -29 31 -30l65 -4v-58h-241v78q-123 -88 -238 -88q-143 0 -225 109q-70 94 -70 229zM209 1001q0 -119 59.5 -192.5t163.5 -73.5q76 0 158 45v488q-66 20 -131 20q-115 0 -182.5 -78 t-67.5 -209z" />
<glyph unicode="&#x1d49;" horiz-adv-x="759" d="M57 987q0 168 101.5 269.5t259.5 101.5q139 0 213 -81t74 -212v-41h-500q0 -127 55 -203q66 -94 203 -94q109 0 242 82v-88q-143 -82 -291 -82q-152 0 -248 86q-109 94 -109 262zM213 1090h338v30q0 168 -148 168q-78 0 -131 -54t-59 -144z" />
<glyph unicode="&#x1d4d;" horiz-adv-x="815" d="M59 526q0 145 164 172q-16 49 -16 66q0 59 78 135q-82 18 -133 74q-57 59 -58 141q0 113 85 178.5t224 65.5q74 0 177 -43h208v-70h-153q41 -63 41 -129q0 -111 -98.5 -173t-233.5 -54q-29 -45 -12 -96q16 0 89 -9.5t81 -15.5q246 -35 246 -176q0 -102 -117 -177 t-283 -75q-137 0 -213 49t-76 137zM199 555q0 -59 49 -100q55 -49 151 -49q102 0 164 49q53 43 53 100q0 45 -28.5 67.5t-106.5 36.5q-6 6 -166 29q-116 -39 -116 -133zM242 1122q0 -74 37.5 -124t107.5 -50q68 0 105.5 50.5t37.5 125.5q0 72 -38.5 123t-104.5 51 t-105.5 -47t-39.5 -129z" />
<glyph unicode="&#x1d4f;" horiz-adv-x="827" d="M29 1604v47l196 55h64v-690h30l226 239q6 6 2 17q-4 8 -15 8l-61 6v55h297v-55l-98 -10l-203 -203l264 -358l82 -8v-58h-238v51l-200 275h-86v-234q0 -29 33 -30l65 -4v-58h-348v58l76 4q31 2 30 30v863h-116z" />
<glyph unicode="&#x1d50;" horiz-adv-x="1312" d="M43 649v58l76 4q33 2 33 30v506h-107v49l184 54h64v-80q158 88 252 88q113 0 168 -98q174 98 266 98q201 0 201 -219v-398q0 -29 32 -30l74 -4v-58h-346v58l64 4q31 2 30 30v367q0 145 -135 145q-74 0 -164 -41v-471q0 -29 33 -30l63 -4v-58h-335v58l65 4q33 2 33 30v373 q0 139 -137 139q-86 0 -164 -41v-471q0 -29 33 -30l63 -4v-58h-346z" />
<glyph unicode="&#x1d52;" horiz-adv-x="841" d="M57 995q0 158 99.5 260.5t267.5 102.5t266 -102.5t98 -260.5q0 -156 -101 -256t-267 -100t-264.5 99t-98.5 257zM219 997q0 -125 49 -204q55 -90 154 -91q100 0 156 91q51 80 51 204q0 125 -53.5 210t-153.5 85t-156 -88q-47 -80 -47 -207z" />
<glyph unicode="&#x1d56;" horiz-adv-x="862" d="M35 338v53l74 8q33 4 32 31v817h-106v49l188 54h62v-80q119 88 231 88q123 0 208 -92t85 -248q0 -170 -103.5 -271.5t-285.5 -101.5q-51 0 -135 12v-227q0 -29 32 -31l93 -8v-53h-375zM285 735q66 -25 125 -24q119 0 186 88q59 80 59 200q0 115 -56 186.5t-159 71.5 q-70 0 -155 -43v-479z" />
<glyph unicode="&#x1d57;" horiz-adv-x="522" d="M41 1251v47l104 45l70 138h68v-158h217v-72h-217v-383q0 -82 28.5 -111.5t94.5 -29.5q55 0 106 10v-57q-104 -35 -207 -35q-90 0 -128 33t-38 115v458h-98z" />
<glyph unicode="&#x1d58;" horiz-adv-x="874" d="M33 1253v50l188 55h64v-465q0 -158 147 -158q90 0 168 39v479h-108v50l186 55h61v-617q0 -29 35 -30l68 -4v-58h-242v82q-133 -92 -248 -92q-213 0 -213 225v389h-106z" />
<glyph unicode="&#x1d5b;" horiz-adv-x="813" d="M14 1286v55h340v-55l-73 -4q-33 -2 -23 -31l172 -450l188 450q12 29 -20 31l-70 4v55h269v-55l-82 -8l-269 -629h-98l-248 629z" />
<glyph unicode="&#x1d5d;" horiz-adv-x="745" d="M39 377v850q0 199 84 323q90 133 250 133q117 0 188 -65q66 -57 66 -137q0 -166 -209 -244q113 -12 194 -86q92 -86 93 -211q0 -133 -84 -220t-197 -87q-141 0 -213 108l22 13q70 -86 164 -86q172 0 172 264q0 133 -80 221q-59 66 -102 66q-8 0 -39 -12.5t-47 -12.5 q-53 0 -53 41q0 39 51 39q14 0 44 -9.5t36 -9.5q35 0 78 39q63 57 63 160q0 92 -61 148q-51 47 -115 47q-84 0 -133 -74t-49 -201v-997h-123z" />
<glyph unicode="&#x1d60;" horiz-adv-x="989" d="M45 1008q0 164 115 260q111 90 293 98l8 240q2 43 24 43q20 0 23 -43l8 -240q186 -6 295 -94q117 -94 117 -264q0 -160 -107.5 -259.5t-281.5 -113.5l6 -172q4 -86 -64 -86t-63 86l8 174q-170 16 -272 115q-109 100 -109 256zM170 1008q0 -139 70.5 -228.5t185.5 -107.5 l25 655q-127 -8 -201 -88q-80 -84 -80 -231zM516 1327l23 -655q117 18 186.5 107t69.5 229q0 145 -76 227t-203 92z" />
<glyph unicode="&#x1d9c;" horiz-adv-x="722" d="M57 991q0 172 111 273q102 94 258 94q104 0 172 -38t68 -106q0 -84 -91 -84q-37 0 -77 23v127q-33 16 -64 16q-100 0 -160.5 -79.5t-60.5 -206.5q0 -125 66.5 -203t189.5 -78q100 0 199 62v-82q-135 -70 -258 -70q-160 0 -256.5 98t-96.5 254z" />
<glyph unicode="&#x1da0;" horiz-adv-x="501" d="M45 649v58l76 4q31 2 31 30v510h-99v49l99 25q0 137 53 234q86 158 260 157q133 0 133 -86q0 -49 -72 -78q-4 4 -70.5 48.5t-70.5 46.5q-84 -39 -88 -215l-2 -109h190v-72h-190v-510q0 -29 33 -30l90 -4v-58h-373z" />
<glyph unicode="&#x1dbb;" horiz-adv-x="729" d="M70 649v78l407 547h-268q-27 0 -31 -31l-16 -106h-78v204h569v-59l-422 -563h312q29 0 32 35l17 112h82v-217h-604z" />
<glyph unicode="&#x1fef;" horiz-adv-x="716" d="M0 1409q0 92 94 92q59 0 107 -55l274 -318h-117l-311 199q-47 31 -47 82z" />
<glyph unicode="&#x2000;" horiz-adv-x="858" />
<glyph unicode="&#x2001;" horiz-adv-x="2048" />
<glyph unicode="&#x2002;" horiz-adv-x="858" />
<glyph unicode="&#x2003;" horiz-adv-x="2048" />
<glyph unicode="&#x2004;" horiz-adv-x="571" />
<glyph unicode="&#x2005;" horiz-adv-x="428" />
<glyph unicode="&#x2006;" horiz-adv-x="284" />
<glyph unicode="&#x2007;" horiz-adv-x="284" />
<glyph unicode="&#x2008;" horiz-adv-x="212" />
<glyph unicode="&#x2009;" horiz-adv-x="342" />
<glyph unicode="&#x200a;" horiz-adv-x="94" />
<glyph unicode="&#x2010;" horiz-adv-x="657" d="M90 416v153h475v-153h-475z" />
<glyph unicode="&#x2011;" horiz-adv-x="657" d="M90 416v153h475v-153h-475z" />
<glyph unicode="&#x2012;" horiz-adv-x="657" d="M90 416v153h475v-153h-475z" />
<glyph unicode="&#x2013;" horiz-adv-x="1206" d="M90 416v153h1024v-153h-1024z" />
<glyph unicode="&#x2014;" horiz-adv-x="2230" d="M90 416v153h2048v-153h-2048z" />
<glyph unicode="&#x202f;" horiz-adv-x="342" />
<glyph unicode="&#x205f;" horiz-adv-x="428" />
<glyph unicode="&#x2070;" d="M61 1130q0 219 91 353q100 147 280 147t279 -147q92 -135 92 -353q0 -217 -92 -352q-98 -145 -279 -145q-180 0 -280 145q-91 135 -91 352zM223 1130q0 -426 209 -425q209 0 209 425q0 426 -209 426t-209 -426z" />
<glyph unicode="&#x2071;" horiz-adv-x="464" d="M53 649v58l74 4q33 2 33 30v512h-107v50l189 55h61v-617q0 -29 31 -30l80 -4v-58h-361zM145 1577q0 35 29 60.5t68 25.5t65.5 -25.5t26.5 -60.5q0 -37 -26.5 -63.5t-65.5 -26.5t-68 26.5t-29 63.5z" />
<glyph unicode="&#x2074;" d="M61 936v98l504 596h107v-598h131v-96h-131v-303h-144v303h-467zM182 1032h346v414z" />
<glyph unicode="&#x2075;" d="M70 797q0 80 96 80q23 0 41 -7l59 -131q41 -37 117 -37q115 0 188 74q66 66 66 150q0 117 -76 180q-70 57 -186 57q-92 0 -244 -49v498h592v-121h-483v-272q117 37 206 36q162 0 255.5 -78.5t93.5 -215.5q0 -150 -111 -238q-117 -90 -324 -90q-115 0 -202.5 52.5 t-87.5 111.5z" />
<glyph unicode="&#x2076;" d="M61 1061q0 262 162 415.5t453 153.5v-90l-53 2q-150 6 -260.5 -91t-135.5 -265q109 90 256 90q143 0 231.5 -84t88.5 -213q0 -156 -106.5 -251t-266.5 -95q-369 0 -369 428zM219 1032q0 -326 211 -325q106 0 161.5 69.5t55.5 181.5q0 106 -57.5 166t-159.5 60 q-109 0 -207 -72q-4 -31 -4 -80z" />
<glyph unicode="&#x2077;" d="M63 1360v252h738v-80l-504 -852v-47h-164l508 858h-473l-25 -131h-80z" />
<glyph unicode="&#x2078;" d="M61 909q0 162 220 238q-178 70 -179 219q0 121 90.5 192.5t239.5 71.5q139 0 233.5 -68.5t94.5 -172.5q0 -147 -187 -232q227 -80 228 -246q0 -123 -104.5 -200.5t-264.5 -77.5q-170 0 -270.5 75.5t-100.5 200.5zM205 920q0 -94 59.5 -151.5t167.5 -57.5q96 0 155.5 52 t59.5 126q0 80 -80 131q-47 31 -225 96q-137 -69 -137 -196zM256 1399q0 -131 252 -215q111 78 110 190q0 86 -53 134t-133 48q-78 0 -127 -45.5t-49 -111.5z" />
<glyph unicode="&#x2079;" d="M61 1282q0 154 106.5 251t266.5 97q369 0 369 -430q0 -260 -163 -413.5t-452 -153.5v88h52q152 0 263 94t134 260q-113 -90 -256 -90t-231.5 84t-88.5 213zM217 1303q0 -106 57.5 -165t159.5 -59q104 0 207 72q2 29 2 78q0 326 -209 325q-106 0 -161.5 -69t-55.5 -182z " />
<glyph unicode="&#x207a;" horiz-adv-x="1280" d="M182 1036v82h414v383h88v-383h412v-82h-412v-387h-88v387h-414z" />
<glyph unicode="&#x207b;" horiz-adv-x="493" d="M68 942v107h356v-107h-356z" />
<glyph unicode="&#x207c;" horiz-adv-x="1280" d="M190 901v82h900v-82h-900zM190 1169v82h900v-82h-900z" />
<glyph unicode="&#x207d;" horiz-adv-x="645" d="M158 1063q0 256 98 412q111 180 338 202v-63q-293 -45 -293 -551q0 -508 293 -553v-64q-227 23 -338 203q-98 158 -98 414z" />
<glyph unicode="&#x207e;" horiz-adv-x="645" d="M53 446v64q291 45 291 553q0 506 -291 551v63q225 -23 338 -202q96 -156 96 -412t-96 -414q-113 -180 -338 -203z" />
<glyph unicode="&#x207f;" horiz-adv-x="886" d="M39 649v58l76 4q31 2 30 30v506h-106v49l186 54h64v-80q168 88 254 88q205 0 205 -221v-396q0 -29 32 -30l68 -4v-58h-340v58l65 4q33 2 33 30v373q0 139 -149 139q-82 0 -168 -41v-471q0 -29 33 -30l63 -4v-58h-346z" />
<glyph unicode="&#x2113;" horiz-adv-x="854" d="M51 117q96 49 185 135q-14 74 -15 184q0 498 127 797q104 244 225 244q96 0 134 -52q47 -66 47 -256q0 -231 -103 -479q-96 -227 -252 -414q33 -174 103 -174q102 0 192 244l78 -47q-90 -207 -160 -279q-53 -53 -129 -53q-150 0 -217 172q-78 -72 -162 -116zM375 631 q0 -92 8 -211q240 328 240 651q0 166 -19 225q-16 49 -57 50q-68 0 -119 -191q-53 -205 -53 -524z" />
<glyph unicode="&#x212a;" horiz-adv-x="1306" d="M66 0v88l108 8q43 4 43 45v1092q0 41 -43 45l-108 8v88h520v-88l-117 -8q-45 -4 -45 -45l2 -537h72l446 545q8 8 0 23q-6 10 -16 12l-105 10v88h434v-88l-139 -16l-418 -500l459 -672l148 -10v-88h-359v63l-381 547h-141l-2 -469q0 -41 45 -45l117 -8v-88h-520z" />
<glyph unicode="&#x212d;" horiz-adv-x="1396" d="M84 586q0 272 215 471l342 317h616l25 -65l-170 -181h-500l199 -380q37 -70 37 -115q0 -35 -29 -98l-135 -302q49 -6 107 -6q156 0 241 35q59 23 156 98l125 -63l-178 -285q-201 -39 -322 -39q-373 0 -575 230q-154 176 -154 383zM260 684q0 -143 72 -252 q82 -123 237 -174l56 129q14 33 14 64q0 35 -18 69l-248 484q-78 -84 -97 -148q-16 -49 -16 -172z" />
<glyph unicode="&#x2135;" horiz-adv-x="1220" d="M63 0l11 51q131 16 131 88q0 35 -59.5 146.5t-59.5 179.5q0 158 190 366l-49 50q-90 90 -121 149q-37 68 -36 168q0 96 63 178q53 68 90 68q18 0 19 -29q0 -4 -13.5 -23.5t-13.5 -33.5q0 -51 66 -125q51 -49 102 -100l299 -299l143 180q-74 55 -98 104q-18 35 -18 92 q0 96 71 172q57 61 97 62q18 0 18 -19q0 -4 -5 -9t-5 -19q0 -49 108 -127q129 -94 129 -238q0 -100 -43 -153q-35 -43 -75 -43q-20 0 -39 34q-31 55 -84 101l-150 -187l252 -254q90 -90 121 -149q39 -70 39 -168q0 -96 -66 -178q-53 -68 -90 -68q-18 0 -18 29q0 4 13 24.5 t13 34.5q0 49 -65 123l-103 103l-501 501q-55 -82 -56 -147q0 -86 123 -233.5t123 -235.5q0 -72 -54 -119t-132 -47h-267z" />
<glyph unicode="&#x214f;" horiz-adv-x="1839" d="M100 109q158 0 269 110q-61 135 -62 281q0 190 139 190q59 0 96.5 -48t37.5 -134q0 -147 -76 -279q80 -90 176 -90q80 0 156 72q-53 131 -54 297q0 88 41 135t99 47q133 0 133 -182q0 -147 -76 -289q70 -80 178 -80q92 0 168 72q-63 121 -63 297q0 92 43 141q35 41 92 41 q135 0 135 -182q0 -147 -70 -287q106 -113 277 -112l-21 -117q-211 0 -325 125q-109 -125 -248 -125q-156 0 -246 114q-109 -115 -240 -114q-139 0 -235 131q-129 -129 -309 -129zM414 457q0 -68 28 -131q29 68 29 131q0 117 -25 116q-32 1 -32 -116zM891 463q0 -68 24 -141 q33 70 33 141q0 111 -28 110q-29 1 -29 -110zM1366 465q0 -78 31 -146q29 68 28 146q0 109 -28 108q-31 1 -31 -108z" />
<glyph unicode="&#x2225;" horiz-adv-x="1024" d="M283 -483v2048h141v-2048h-141zM602 -483v2048h141v-2048h-141z" />
<glyph unicode="&#x27e6;" horiz-adv-x="1222" d="M285 -270v1720h850v-92h-322v-1534h322v-94h-850zM463 -176h172v1534h-172v-1534z" />
<glyph unicode="&#x27e7;" horiz-adv-x="1222" d="M90 -176h322v1534h-322v92h848v-1720h-848v94zM590 -176h172v1534h-172v-1534z" />
<glyph unicode="&#x2afd;" horiz-adv-x="1003" d="M152 -190l423 1564h119l-424 -1564h-118zM391 -190l424 1564h121l-426 -1564h-119z" />
<glyph unicode="&#x2c7d;" horiz-adv-x="1024" d="M14 1550v62h369v-62l-92 -6q-23 -4 -12 -26l270 -701l258 696q4 8 -3 19.5t-18 11.5l-84 6v62h306v-62l-88 -16l-345 -891h-118q-84 211 -351 893z" />
<glyph unicode="&#x2c88;" horiz-adv-x="1552" d="M84 659q0 389 264 584q201 147 483 148q211 0 412 -136q209 -141 227 -319h-301q-16 115 -102 227q-100 135 -219 135q-145 0 -252 -118q-125 -139 -139 -404h671q166 0 258 -39q84 -37 84 -92q0 -72 -55 -72h-102q-31 0 -107 37q-100 49 -162 68q-117 37 -243 37h-346 v-2q0 -326 110 -496q98 -152 258 -151q147 0 244 139q74 106 102 268l301 2q-25 -213 -182 -348q-180 -154 -491 -154q-289 0 -490 174q-223 190 -223 512z" />
<glyph unicode="&#x2e00;" horiz-adv-x="598" d="M78 879v561q0 27 20.5 45t44.5 18h314q66 0 65 -43q0 -45 -65 -45h-291v-536q0 -63 -43 -64q-45 1 -45 64z" />
<glyph unicode="&#x2e02;" horiz-adv-x="495" d="M78 879v362q0 29 20 47l213 201q23 20 45 20q45 0 45 -43q0 -23 -18 -39l-215 -198v-350q0 -63 -45 -64q-45 1 -45 64z" />
<glyph unicode="&#x2e03;" horiz-adv-x="495" d="M96 1475q0 39 39 38q23 0 49 -24l213 -201q20 -18 21 -47v-362q0 -66 -45 -66q-43 0 -43 66v358l-209 190q-25 23 -25 48z" />
<glyph unicode="&#x2e06;" horiz-adv-x="886" d="M74 1460q0 43 65 43h609q63 0 63 -43t-63 -43h-263v-538q0 -63 -43 -64q-43 0 -43 64v538h-260q-65 0 -65 43z" />
<glyph unicode="&#x2e09;" horiz-adv-x="751" d="M76 907q0 41 53 41q16 0 71.5 -26.5t94.5 -26.5q45 0 71.5 35t26.5 82q0 33 -46 124t-46 154q0 96 71.5 159.5t170.5 63.5q41 0 82 -16q51 -23 51 -59q0 -33 -41 -33q-16 0 -52 11t-55 11q-57 0 -98 -34.5t-41 -92.5q0 -49 46 -144t46 -152q0 -86 -58 -141.5t-144 -55.5 q-47 0 -119 29q-84 34 -84 71z" />
<glyph unicode="&#x2e0a;" horiz-adv-x="751" d="M76 1438q0 33 45 55q39 20 88 20q100 0 171 -63.5t71 -159.5q0 -66 -46.5 -156t-46.5 -122q0 -53 30 -85t69 -32q43 0 97 26.5t69 26.5q53 0 53 -41q0 -27 -37 -47q-96 -53 -166 -53q-88 0 -145.5 55.5t-57.5 141.5q0 57 46 152t46 144q0 57 -41.5 92t-97.5 35 q-16 0 -55 -11t-51 -11q-41 0 -41 33z" />
<glyph unicode="&#x2e0b;" horiz-adv-x="806" d="M78 918v522q0 27 19.5 45t45.5 18h521q27 0 46 -18.5t19 -44.5v-522q0 -25 -20.5 -44.5t-44.5 -19.5h-521q-25 0 -45 19.5t-20 44.5zM168 944h473v471h-473v-471z" />
<glyph unicode="&#x2e0c;" d="M94 1473q0 39 41 38q25 0 47 -20l584 -508q27 -23 27 -49q0 -41 -41 -41q-25 0 -47 20l-582 508q-29 25 -29 52z" />
<glyph unicode="&#xe000;" horiz-adv-x="985" d="M0 985h985v-985h-985v985z" />
<glyph unicode="&#x1d40c;" horiz-adv-x="1914" d="M59 0v49q80 0 145.5 40t65.5 99v959q0 66 -53 119q-61 59 -158 59v51h471l484 -946l395 946h467v-51q-72 0 -102 -25q-37 -31 -37 -110v-1000q0 -141 164 -141v-49h-656v49q164 0 164 141v908l-467 -1114h-53l-498 977v-773q0 -59 70 -100q63 -39 145 -39v-49h-547z" />
<glyph unicode="&#x1d504;" horiz-adv-x="1480" d="M84 1169l256 222q172 -2 289 -142q111 -133 110 -311q0 -154 -96 -301q-68 -102 -207 -234q23 -14 230 -161l264 235v481q0 178 -101 209v66q193 33 443 158l45 -62q-113 -115 -113 -219v-733q0 -80 78 -80q49 0 72 16l45 -57l-238 -264q-231 0 -231 239v119l-424 -385 l-400 271v53q371 176 371 493q0 135 -82 240q-76 94 -157 94q-57 0 -125 -12z" />
<glyph unicode="&#x1d505;" horiz-adv-x="1507" d="M84 1163l256 221q236 -37 315 -241l293 252q20 2 41 2q131 0 230 -70q106 -76 106 -192q0 -180 -156 -263q121 -41 187.5 -139t66.5 -217q0 -147 -123 -252q-94 -84 -210 -108q-88 -18 -197 -78l-201 -109l-588 322v104q182 70 258 162t76 240q0 137 -71 233 q-66 88 -146 88q-59 0 -108 -20zM426 479l506 -266q96 -2 158 76q51 63 51 135q0 143 -121 217q-98 59 -242 59q-55 0 -160 -22q-71 -113 -192 -199zM662 762l88 14q88 14 174 62q131 72 131 176q0 131 -181 131q-29 0 -77.5 -15.5t-67.5 -33.5l-47 -45q10 -51 10 -127 q1 -80 -30 -162z" />
<glyph unicode="&#x1d50a;" horiz-adv-x="1595" d="M84 608q0 139 70 258q59 98 190 211l342 297h625l18 -65l-164 -181h-497l172 -288l327 221q344 -137 344 -502q0 -229 -196 -403q-211 -182 -522 -183q-344 0 -531 177q-178 167 -178 458zM338 668q0 -123 68 -275q80 -182 208 -262l109 150q31 41 31 84q0 29 -15 53 l-321 577q-80 -139 -80 -327zM715 88q45 -10 86 -10q223 0 342 131q102 117 102 301q0 121 -71.5 209t-151.5 88q-27 0 -47 -12l-82 -45l63 -109q33 -55 33 -102q0 -55 -49 -125z" />
<glyph unicode="&#x1d50e;" horiz-adv-x="1599" d="M84 1108l90 170q39 72 92 72q45 0 97.5 -30t103.5 -30q74 0 143 45l64 41l41 -26v-543h73q86 0 145.5 64.5t61.5 146.5q2 160 49 248q57 104 191 141l258 -190l-23 -52q-215 0 -272 -211q-4 -18 -36 -67t-50 -64q29 -14 76 -108t61 -172q18 -111 43 -160q37 -74 105 -74 q51 0 76 15l43 -50l-351 -282q-205 66 -204 512q0 106 -41 175t-113 69q-55 0 -92 -7v-180q0 -31 -25.5 -67.5t-58.5 -55.5l-164 -94l233 -94q25 -10 48 -10q31 0 73 28l49 -49l-307 -237l-463 186v68l211 92q109 47 109 155l-4 549q0 82 -37 82q-10 0 -63.5 -26.5 t-104.5 -26.5q-66 0 -127 47z" />
<glyph unicode="&#x1d50f;" horiz-adv-x="1253" d="M84 891q0 201 278 356l29 -24q-106 -78 -106 -228q0 -78 112.5 -210t112.5 -199q0 -88 -111 -199q-82 -84 -153 -121l-31 33q4 -10 60.5 54.5t56.5 119.5q0 49 -64 115q-109 106 -121 123q-63 84 -63 180zM137 76l230 192q98 82 200 82q31 0 164 -63.5t174 -63.5 q82 0 139 39l56 37l37 -43q-10 -8 -226 -205q-86 -78 -139 -78q-27 0 -204 81t-206 81q-39 0 -104 -39q-43 -27 -88 -55zM379 1012q0 76 31 121q33 53 133 118q209 139 262 140q25 0 116 -58.5t126 -58.5q37 0 102 35l29 -31q-272 -203 -310 -203q-29 0 -135 74t-141 74 q-29 0 -29 -29q0 -72 70 -145q66 -61 133 -123q70 -80 70 -168q0 -131 -265 -342l-32 33q68 68 67 151q0 68 -113.5 213.5t-113.5 198.5z" />
<glyph unicode="&#x1d510;" horiz-adv-x="2068" d="M84 156v45q315 295 315 524q0 186 -106 303q-76 80 -174 105v49l239 209q133 -86 220 -261l186 140q162 121 207 121q127 0 190 -228l168 125q137 102 168 103q39 0 74 -17l166 -78q39 -18 47 -18q20 0 47 18l55 39l43 -49l-225 -178q-39 -31 -59 -31q-27 0 -82 27 q-121 61 -127 61q-37 20 -66 21q-57 0 -129 -53l-61 -46q6 -49 6 -81v-1006h-258v913q0 100 -44 179t-112 77q-47 0 -113 -49l-57 -43q33 -86 33 -164q0 -281 -311 -589l237 -95q51 -20 86 -20q47 0 101 37l43 -53l-244 -222zM1501 354v381q0 94 66 146l325 254l39 -52 l-110 -92q-55 -45 -56 -176v-491q0 -51 39 -83t90 -32q33 0 58 12l33 -53l-269 -176q-109 18 -162 101t-53 261z" />
<glyph unicode="&#x1d513;" horiz-adv-x="1677" d="M84 981q0 178 90 315q102 154 266 154q193 0 389 -297q129 201 220 201q59 0 192 -146q139 -154 238 -340q117 -219 116 -385q0 -223 -108.5 -365.5t-282.5 -142.5q-90 0 -203 50q-174 74 -186 77v-313q0 -102 -55 -180q-59 -88 -154 -88q-111 0 -180 49v88q29 -8 55 -8 q59 0 99.5 32.5t40.5 88.5v348q-164 -12 -283 -76v90q94 88 283 109l-3 702q0 127 -88 230q-82 94 -168 94q-82 0 -131 -51q-59 -59 -59 -173q0 -80 66 -157l118 -131q66 -84 66 -181q0 -119 -92 -184q-63 -45 -156 -55v59q137 27 137 123q0 43 -63 115q-98 111 -115 135 q-49 74 -49 213zM815 231q68 -10 227 -51q129 -33 191 -33q135 0 184 41t49 142q0 70 -94 270q-98 215 -209 369q-133 184 -219 184q-51 0 -90 -49t-39 -131v-742z" />
<glyph unicode="&#x1d514;" horiz-adv-x="1531" d="M86 694q0 328 209 520q188 176 465 177q49 0 76 -7v-333l325 278q154 -121 219 -262q68 -152 68 -397q0 -190 -86 -347t-232 -249q55 -61 95 -133q59 -109 106 -109q12 0 25 6l16 -26l-160 -142q-123 16 -182 117q-66 109 -78 129q-33 47 -57 66q-49 -8 -113 -9 q-254 0 -456 177q-240 204 -240 544zM332 786q0 -334 121 -522l102 96q18 16 18 60v846q-86 -20 -149 -111q-92 -131 -92 -369zM524 211q70 -20 119 -23q53 -4 115 0q78 6 102 7q96 0 170 -43q86 74 137 190q49 111 50 211q0 168 -67 322.5t-151 154.5q-47 0 -131 -63 l-32 -25v-405q0 -49 -39 -84z" />
<glyph unicode="&#x1d516;" horiz-adv-x="1337" d="M98 68l168 180h479q367 0 363 186q-2 57 -70 96q-57 31 -114 31q-59 0 -197 -2q-156 -2 -233 -2q-115 0 -202 85t-87 181q0 111 69 215q55 80 234 260q92 92 135 93q31 0 215 -51.5t213 -51.5q55 0 90 23l31 -31l-197 -225q-12 -14 -65 -15q-23 0 -210.5 54.5 t-219.5 54.5q-33 0 -90.5 -53.5t-57.5 -100.5q0 -176 228 -176h364q115 0 199 -51q111 -66 110 -201q0 -160 -170 -329l-237 -238h-725z" />
<glyph unicode="&#x1d517;" horiz-adv-x="1406" d="M94 575q0 305 309 551h-59q-39 0 -62.5 -13t-72.5 -64l-74 41l256 284h877l24 -65l-168 -181h-571q-170 -156 -201 -198q-66 -92 -65 -246q0 -236 162 -356l102 71q47 33 47 115v363q0 63 18.5 90.5t69.5 50.5l236 106v-61q-63 -27 -64 -82v-430q0 -59 -57 -98l-264 -177 q111 -49 264 -49q156 0 241 35q59 23 156 98l125 -63l-178 -285q-201 -39 -322 -39q-375 0 -575 224q-154 171 -154 378z" />
<glyph unicode="&#x1d519;" horiz-adv-x="1472" d="M90 1200l213 191q233 6 258 -299l352 299q178 0 318 -142q158 -160 158 -420q0 -135 -89 -280q-78 -127 -202 -234l-410 -346l-590 236v67q117 86 150 156q29 59 28 199v415q0 113 -96 113q-25 0 -61 -20zM346 406l479 -207q174 154 230 254q63 113 63 297 q0 166 -125 278q-100 92 -192 92q-68 0 -101 -24l-135 -101l2 -333q0 -53 -49 -99z" />
<glyph unicode="&#x1d52d;" horiz-adv-x="962" d="M57 129v78q61 16 129 24v457q0 164 -65 164q-14 0 -41 -25l-23 33l197 150q80 -59 104.5 -99.5t26.5 -130.5l252 230l88 -72q70 -57 88 -100t18 -140v-516q-164 -78 -284 -207q-63 47 -162 86q0 -166 18 -223q18 -63 93 -112l-13 -27q-176 59 -229 143q-55 -63 -133 -86 l-12 21q51 51 67 104q10 37 10 121v115q-70 12 -129 12zM385 229q150 -25 250 -73v551q0 51 -25 71l-92 76l-133 -123v-502z" />
<glyph horiz-adv-x="1480" d="M84 1092l256 219q174 -2 286.5 -118t112.5 -290q0 -152 -96 -282q-49 -70 -207 -218q23 -14 230 -161l264 235v428q0 174 -101 211v64q201 37 443 157l45 -61q-113 -113 -113 -219v-680q0 -80 78 -80q49 0 72 16l45 -57l-238 -264q-231 0 -231 239v119l-424 -385 l-400 271v53q207 98 293 207q78 102 78 252q0 133 -82 217q-72 72 -157 71q-57 0 -125 -10zM424 1434q0 45 43 77.5t102 32.5t101.5 -31.5t42.5 -78.5q0 -45 -42 -77t-102 -32q-59 0 -102 32t-43 77zM829 1434q0 47 42 78.5t102 31.5q59 0 102 -32.5t43 -77.5t-43 -77 t-102 -32t-101.5 32t-42.5 77z" />
<glyph horiz-adv-x="784" d="M35 649l282 694l-41 134q-35 111 -110 110q-37 0 -63.5 -26.5t-26.5 -57.5h-31q0 84 39 135q37 45 86 45q55 0 87 -32.5t58 -120.5l209 -690q31 -98 113 -99q31 0 52.5 30t21.5 65h30q0 -94 -31.5 -148.5t-76.5 -54.5q-100 0 -148 153l-110 363l-203 -500h-137z" />
<glyph horiz-adv-x="858" d="M94 520v834h123v-514q0 -57 34 -106.5t79 -49.5q84 0 145 127q49 104 49 197v346h123v-529q0 -141 76 -141q29 0 54.5 47t25.5 109h26q0 -86 -32 -144q-35 -63 -99 -63q-154 0 -159 254q-20 -104 -74 -172q-61 -82 -148 -82q-137 0 -186 145q0 -104 41 -220t41 -148 q0 -49 -53 -50q-66 0 -66 160z" />
<glyph horiz-adv-x="913" d="M20 829h27q0 -92 66 -92q137 0 137 297v230h-64q-102 0 -129 -80h-28q0 59 39 108q49 61 133 62h549q59 0 71 35h31q0 -125 -115 -125h-96v-424q0 -150 76 -150q39 0 68.5 44t29.5 128h29q0 -111 -45 -170t-117 -59q-164 0 -164 182v449h-231v-373q0 -258 -160 -258 q-107 -1 -107 196z" />
<glyph horiz-adv-x="821" d="M61 520v484q0 147 105.5 256.5t257.5 109.5t255 -109.5t103 -261.5q0 -147 -104.5 -256.5t-255.5 -109.5q-193 0 -291 162q0 -154 35 -245t35 -122q0 -68 -68 -68q-39 0 -53 19q-19 28 -19 141zM190 1049q0 -147 60 -254q70 -125 192 -125q106 0 164 96q51 84 51 209 q0 137 -65 244q-74 117 -189 116q-111 0 -167 -92q-46 -75 -46 -194z" />
<glyph horiz-adv-x="753" d="M0 522l655 1096h99l-656 -1096h-98z" />
<glyph horiz-adv-x="747" d="M76 1489q0 55 59 96q70 45 187 45q137 0 228 -71.5t91 -186.5q0 -190 -293 -311v-160h-86v209q223 72 223 252q0 197 -219 197l-63 -146q-23 -2 -27 -2q-100 0 -100 78zM213 727q0 37 27.5 62.5t66.5 25.5t67.5 -26.5t28.5 -61.5q0 -37 -27.5 -62.5t-68.5 -25.5 q-39 0 -66.5 26.5t-27.5 61.5z" />
<glyph horiz-adv-x="972" d="M63 1133q0 223 148.5 360t390.5 137q121 0 305 -51v-225h-92l-22 131q-4 23 -27 33q-70 31 -156 30q-164 0 -262 -102q-106 -109 -106 -309q0 -201 103.5 -313.5t285.5 -112.5q102 0 123 20q25 8 28 29l37 155h88v-233q-197 -49 -307 -49q-248 0 -397 151 q-140 142 -140 349z" />
<glyph horiz-adv-x="833" d="M47 1550v62h748v-228h-90l-23 132q-4 27 -27 26h-327v-373h235q25 0 29 25l14 102h76v-323h-76l-14 100q-4 25 -29 25h-235v-348q0 -31 30 -33l105 -6v-62h-404v62l82 6q33 2 33 33v763q0 29 -33 31z" />
<glyph horiz-adv-x="1140" d="M63 1130q0 215 140.5 360.5t365.5 145.5q229 0 373 -147q137 -141 137 -359q0 -195 -112.5 -327.5t-311.5 -163.5q4 -170 213 -170q47 0 148 14v-61q-135 -25 -228 -25q-297 0 -296 240q-190 25 -306 154q-123 134 -123 339zM244 1133q0 -180 82 -295q88 -127 245 -127 q158 0 248 125q80 115 80 294q0 182 -80 297q-88 129 -248 129t-247 -124q-80 -115 -80 -299z" />
<glyph horiz-adv-x="815" d="M68 680v254h96l20 -162q2 -23 27 -33q-8 0 44 -13t110 -13q102 0 164.5 43t62.5 121q0 76 -92 135q-35 23 -178 84q-119 51 -166 96q-72 63 -72 162q0 127 100.5 201.5t255.5 74.5q119 0 269 -45v-223h-86l-23 137q-2 16 -25 25q-29 29 -135 28q-92 0 -144 -45t-52 -118 q0 -115 213 -191q150 -53 215 -111q76 -66 76 -167q0 -121 -95 -199q-109 -88 -311 -88q-153 0 -274 47z" />
<glyph horiz-adv-x="972" d="M14 649v62l92 18l310 395l-279 410l-102 18v60h385v-60l-78 -8q-35 -4 -18 -28l188 -271l207 266q8 10 2 21q-6 8 -19 10l-79 10v60h321v-60l-98 -14l-285 -369l303 -440l94 -18v-62h-395v62l90 10q12 0 19 8q6 10 0 21l-205 301l-238 -306q-14 -23 21 -26l92 -8v-62 h-328z" />
<glyph horiz-adv-x="960" d="M14 1552v60h365v-60l-76 -8q-33 -4 -18 -28l215 -375l237 370q6 10 0 21q-6 8 -18 10l-86 10v60h311v-60l-82 -14l-309 -479v-309q0 -31 33 -33l98 -6v-62h-414v62l95 6q35 2 34 33v286l-295 498z" />
<glyph horiz-adv-x="901" d="M70 649v64l571 827h-399q-23 0 -27 -24l-22 -134h-93v230h725v-66l-573 -823h438q20 0 25 27l26 165h90v-266h-761z" />
<glyph horiz-adv-x="655" d="M213 461v1204h375v-63h-240v-1076h240v-65h-375z" />
<glyph horiz-adv-x="655" d="M68 461v65h241v1076h-241v63h378v-1204h-378z" />
<glyph horiz-adv-x="430" d="M113 735q0 41 29.5 68.5t72.5 27.5t73.5 -28.5t30.5 -67.5t-30.5 -67.5t-73.5 -28.5t-72.5 27.5t-29.5 68.5z" />
<glyph horiz-adv-x="432" d="M57 406v53q170 35 168 200h-96q-29 29 -29 68q0 37 28 60.5t69 23.5q127 0 127 -147q0 -104 -79 -176t-188 -82z" />
<glyph horiz-adv-x="768" d="M82 1466l108 31l166 -102l-6 -21l-198 12zM199 1133l2 106l155 117l19 -15l-70 -172zM322 1589l61 86l66 -86l-54 -180h-22zM393 1341l19 15l155 -117l2 -106l-106 36zM412 1395l166 102l108 -31l-70 -80l-196 -12z" />
<glyph horiz-adv-x="833" d="M57 979q0 176 118 277.5t327 101.5q115 0 217 -23v-905q0 -27 33 -31l73 -8v-53h-372v53l92 8q31 2 30 31v272q-119 -57 -215 -57q-139 0 -221 94.5t-82 239.5zM213 1001q0 -119 53 -190q61 -80 178 -80q72 0 131 19v528q-61 14 -104 14q-123 0 -190.5 -79t-67.5 -212z " />
<glyph horiz-adv-x="1536" d="M0 946v98h1536v-98h-1536z" />
</font>
</defs>
</svg>
