<?xml version="1.0" standalone="no"?>
<!DOCTYPE svg PUBLIC "-//W3C//DTD SVG 1.1//EN" "http://www.w3.org/Graphics/SVG/1.1/DTD/svg11.dtd" >
<svg xmlns="http://www.w3.org/2000/svg">
<metadata>
This is a custom SVG webfont generated by Font Squirrel.
Copyright   : Copyright c SIL International httpwwwsilorg 19982009 All rights reserved
</metadata>
<defs>
<font id="ApparatusSILBoldItalic" horiz-adv-x="854" >
<font-face units-per-em="2048" ascent="1638" descent="-410" />
<missing-glyph horiz-adv-x="600" />
<glyph horiz-adv-x="600" />
<glyph unicode=" "  horiz-adv-x="600" />
<glyph unicode="&#x09;" horiz-adv-x="600" />
<glyph unicode="&#xa0;" horiz-adv-x="600" />
<glyph unicode="!" horiz-adv-x="692" d="M102 129q0 78 54.5 130t119.5 52q57 0 100.5 -39t43.5 -104q0 -78 -56.5 -130t-121.5 -52q-53 0 -96.5 38.5t-43.5 104.5zM252 401l47 760q0 240 195 240q133 0 133 -133q0 -84 -256 -867h-119z" />
<glyph unicode="&#x22;" horiz-adv-x="677" d="M209 856l18 469q2 55 35 96t86 41q88 0 88 -88q0 -51 -174 -518h-53zM535 856l18 469q2 55 35 96t86 41q88 0 88 -88q0 -51 -174 -518h-53z" />
<glyph unicode="#" horiz-adv-x="1519" d="M127 446v140h315l84 256h-301v143h346l160 471l143 -43l-149 -428h252l153 471l146 -45l-150 -426h267v-143h-314l-82 -256h314v-140h-363l-157 -497l-148 39l152 458h-244l-162 -495l-143 39l153 456h-272zM598 586h242l86 256h-244z" />
<glyph unicode="$" horiz-adv-x="1189" d="M43 84l68 348h153l-8 -239q0 -14 14 -19q43 -18 158 -41l86 457q-313 123 -313 348q0 193 149 315q135 109 322 119l30 152h123l-28 -148q168 -14 307 -65l-70 -342h-145l8 225q0 20 -16 25q-23 12 -113 24l-82 -434q336 -119 336 -348q0 -236 -201 -365 q-143 -92 -299 -96l-37 -213h-125l41 213q-211 14 -358 84zM449 1024q0 -117 122 -174l78 393q-82 -12 -141 -71.5t-59 -147.5zM555 133q102 16 159.5 79.5t57.5 145.5q0 135 -137 191z" />
<glyph unicode="%" horiz-adv-x="1818" d="M63 967q0 201 88.5 316.5t258.5 115.5t262 -119q86 -113 86 -313q0 -201 -86 -314q-92 -119 -262 -118q-170 0 -260 118q-87 113 -87 314zM274 967q0 -324 136 -324q127 0 127 324t-127 323q-136 1 -136 -323zM399 0l858 1374h162l-858 -1374h-162zM1063 408 q0 201 88 316.5t258 115.5t258 -116t88 -316q0 -201 -86 -314q-90 -119 -260 -119t-260 119q-86 113 -86 314zM1272 408q0 -324 137 -324q125 0 125 324t-125 323q-137 1 -137 -323z" />
<glyph unicode="&#x26;" horiz-adv-x="1509" d="M41 330q0 266 340 407q-123 133 -123 273q0 170 141 282q135 109 326 109q170 0 266 -82t96 -215q0 -139 -118 -242q-102 -86 -260 -127l256 -332q84 88 147 222q6 12 -18 18l-95 14v115h431v-117l-146 -18q-82 -156 -242 -332q86 -115 157 -154.5t181 -31.5v-115 l-227 -18q-166 -14 -299 159q-221 -172 -436 -172q-156 0 -262 97q-115 100 -115 260zM315 401q0 -111 72 -177t174 -66q111 0 221 78l-323 411q-144 -103 -144 -246zM514 1063q0 -96 117 -246q209 100 209 287q0 68 -31 113q-39 55 -113 55q-70 0 -121 -49 q-61 -58 -61 -160z" />
<glyph unicode="'" horiz-adv-x="360" d="M221 856l19 469q2 55 34.5 96t85.5 41q88 0 89 -88q0 -51 -175 -518h-53z" />
<glyph unicode="(" horiz-adv-x="882" d="M162 303q0 422 190 758q225 399 615 409l-21 -120q-274 -20 -428 -471q-111 -328 -110 -648q0 -385 256 -401l-25 -121q-229 2 -356 168q-121 158 -121 426z" />
<glyph unicode=")" horiz-adv-x="882" d="M-84 -291l23 121q264 16 417 451q121 336 119 669q-2 381 -256 400l25 120q246 -8 370 -182q106 -152 107 -397q0 -420 -189 -762q-229 -414 -616 -420z" />
<glyph unicode="*" horiz-adv-x="1032" d="M109 1171l157 62l223 -164l-14 -39l-272 2zM262 860l221 164l33 -31l-86 -258l-164 -47zM410 1341l106 134l107 -134l-84 -260h-47zM512 997l35 25l221 -162l-6 -172l-164 47zM541 1071l221 162l162 -62l-97 -139l-270 -2z" />
<glyph unicode="+" horiz-adv-x="1705" d="M254 545v133h532v543h136v-543h530v-133h-530v-545h-136v545h-532z" />
<glyph unicode="," horiz-adv-x="569" d="M-96 -358l20 108q217 41 258 254h-116q-23 43 -23 84q0 80 53 131q49 45 117 45q154 0 154 -162q0 -182 -146 -317q-137 -127 -317 -143z" />
<glyph unicode="-" horiz-adv-x="708" d="M76 385l41 217h536l-43 -217h-534z" />
<glyph unicode="." horiz-adv-x="569" d="M43 143q0 70 46 116t112 46q70 0 114 -51q39 -47 39 -109q0 -61 -43 -109t-110 -48q-66 0 -112 44.5t-46 110.5z" />
<glyph unicode="/" horiz-adv-x="1001" d="M-158 -190l1149 1564h189l-1147 -1564h-191z" />
<glyph unicode="0" horiz-adv-x="1138" d="M57 459q0 358 172 633q190 307 492 307q197 0 305.5 -133t108.5 -357q0 -391 -181 -657q-188 -276 -483 -277q-188 0 -301 130.5t-113 353.5zM334 369q0 -256 174 -256q160 0 264 319q90 276 90 590q0 242 -155 242q-178 0 -287 -338q-86 -270 -86 -557z" />
<glyph unicode="1" horiz-adv-x="1138" d="M168 0v123l201 10q39 2 45 37l184 991q0 10 -12 10l-291 -38v116l475 146h133l-229 -1227q-6 -37 24 -39l179 -10v-119h-709z" />
<glyph unicode="2" horiz-adv-x="1138" d="M-16 0l12 166q457 328 610 485q190 199 191 396q0 102 -62 155q-55 47 -141 47q-51 0 -109 -16l-51 -272q-63 -35 -123 -35q-133 0 -133 131q0 129 154.5 234.5t349.5 105.5q160 0 270 -88q123 -96 123 -260q0 -375 -778 -828h522l68 182h147l-73 -403h-977z" />
<glyph unicode="3" horiz-adv-x="1138" d="M23 225q0 59 34 105q41 55 115 55q41 0 102 -25l25 -219q43 -29 111 -28q135 0 230 86t95 229q0 205 -231 205q-59 0 -133 -15l26 168q195 -12 302.5 66t107.5 217q0 102 -74 152q-55 37 -125 36q-61 0 -114 -22l-41 -240q-70 -33 -115 -32q-55 0 -94 35.5t-39 93.5 q0 141 176 231q150 76 324 76q166 0 276 -74q121 -84 121 -229q0 -127 -96.5 -221.5t-264.5 -139.5q291 -37 291 -293q0 -193 -190.5 -329t-429.5 -136q-178 0 -293 89q-96 73 -96 159z" />
<glyph unicode="4" horiz-adv-x="1138" d="M-12 375l35 172l823 848h213l-160 -844h223l-30 -176h-226l-82 -430h-247l77 430h-626zM240 551h411l105 539z" />
<glyph unicode="5" horiz-adv-x="1138" d="M27 217q0 66 44 108t109 42q31 0 86 -19l33 -219q47 -16 94 -16q150 0 247 98t97 235q0 125 -92 191q-80 55 -215 55q-66 0 -246 -18l138 700h792l-41 -221h-620l-66 -324q125 37 238 37q154 0 262 -73q133 -92 133 -269q0 -236 -186.5 -390t-448.5 -154 q-156 0 -257 67.5t-101 169.5z" />
<glyph unicode="6" horiz-adv-x="1138" d="M57 463q0 397 276.5 684t700.5 326l21 -146q-248 -25 -416 -156q-160 -125 -227 -321q145 90 305 90q164 0 264 -104.5t100 -286.5q0 -248 -182 -414q-174 -160 -412 -160q-164 0 -278 101q-152 129 -152 387zM338 436q0 -127 41 -209q51 -106 164 -106t190 117 q72 111 72 256q0 270 -232 270q-98 0 -200 -57q-35 -117 -35 -271z" />
<glyph unicode="7" horiz-adv-x="1138" d="M104 -70l824 1209h-553l-70 -201h-149l82 436h976l-20 -137l-842 -1247l-4 -60h-244z" />
<glyph unicode="8" horiz-adv-x="1138" d="M27 324q0 115 80.5 214t238.5 156q-162 88 -162 275q0 184 148.5 310t376.5 126q182 0 287.5 -85t105.5 -226q0 -135 -96 -236q-76 -82 -195 -127q244 -121 244 -305q0 -205 -167 -334t-407 -129q-215 0 -334.5 97.5t-119.5 263.5zM287 342q0 -100 55 -164 q63 -74 184 -74q117 0 189 76q63 68 63 166q0 78 -57 131q-66 59 -266 154q-168 -115 -168 -289zM453 1042q0 -80 63 -139q55 -55 184 -117q61 33 108.5 115t47.5 170q0 84 -41 137q-47 61 -137 62q-100 0 -162.5 -67t-62.5 -161z" />
<glyph unicode="9" horiz-adv-x="1138" d="M104 827q0 240 178.5 407t417.5 167q164 0 277 -76q170 -117 170 -385q0 -412 -346 -721q-276 -246 -645 -340l-37 135q467 147 657 521q-158 -84 -291 -84q-141 0 -245 77q-136 102 -136 299zM387 883q0 -135 74 -205q59 -57 157 -57q92 0 213 67q37 147 37 264 q0 160 -67 242q-55 68 -137 68q-113 0 -195 -110.5t-82 -268.5z" />
<glyph unicode=":" horiz-adv-x="569" d="M43 150q0 70 47 118.5t113 48.5q72 0 113.5 -50t41.5 -115q0 -66 -43 -115t-112 -49q-66 0 -113 47t-47 115zM162 829q0 70 46 118t111 48q72 0 115 -50t43 -116t-41 -110q-45 -51 -114 -51q-66 0 -113 46.5t-47 114.5z" />
<glyph unicode=";" horiz-adv-x="569" d="M-96 -358l18 108q221 41 262 258h-116q-25 47 -25 86q0 82 51 131t119 49q76 0 117 -46t41 -119q0 -182 -148 -322q-139 -129 -319 -145zM172 829q0 72 47 120t115 48q72 0 115 -51t43 -117t-44.5 -114.5t-113.5 -48.5q-68 0 -115 46.5t-47 116.5z" />
<glyph unicode="&#x3c;" horiz-adv-x="1705" d="M264 557v105l1178 483v-127l-1000 -408l1000 -405v-129z" />
<glyph unicode="=" horiz-adv-x="1705" d="M254 360v117h1198v-117h-1198zM254 743v117h1198v-117h-1198z" />
<glyph unicode="&#x3e;" horiz-adv-x="1705" d="M264 76v129l1000 405l-1000 408v127l1178 -483v-105z" />
<glyph unicode="?" horiz-adv-x="1089" d="M213 150q0 72 47 119.5t115 47.5q72 0 119 -53q41 -49 41 -114q0 -66 -41 -113q-47 -51 -117 -51q-68 0 -116 47t-48 117zM225 1141q0 100 103 174q117 84 309 84q176 0 282.5 -84t106.5 -234q0 -348 -506 -506l-35 -186h-147l51 291q150 47 242 135q119 113 119 264 q0 102 -74 152q-51 33 -119 33h-18l-133 -230h-50q-131 1 -131 107z" />
<glyph unicode="@" horiz-adv-x="1929" d="M156 506q0 434 315 692q268 221 621 221q301 0 491 -174q201 -180 201 -481q0 -297 -180 -490q-154 -164 -328 -163q-166 0 -176 147q-145 -147 -287 -147q-106 0 -178 82q-82 90 -82 247q0 246 160 412q152 160 354 160q106 0 197 -54l32 46h156q-35 -74 -152 -658 q-8 -39 9.5 -65.5t56.5 -26.5q96 0 190 135q106 154 107 377q0 260 -184 410q-156 125 -373 124q-342 0 -560 -222t-218 -562q0 -309 192.5 -504.5t507.5 -195.5q154 0 281 39q104 31 254 110l41 -94q-336 -184 -629 -184q-350 0 -582 221q-237 231 -237 598zM780 483 q0 -211 144 -211q86 0 182 121l76 398q8 47 -24 76.5t-89 29.5q-127 0 -208 -124t-81 -290z" />
<glyph unicode="A" horiz-adv-x="1292" d="M-141 0v115l114 16l711 1255h221l205 -1224q4 -29 29 -33l110 -14v-115h-549v117q49 0 100.5 3t45.5 34l-55 323h-439l-178 -327q-4 -6 0 -15q4 -10 12 -10l123 -8v-117h-450zM424 606h344l-78 490z" />
<glyph unicode="B" horiz-adv-x="1277" d="M-16 0v117q45 2 77 8q80 16 86 51l197 1047q6 29 -27 30l-122 9v112h567q221 0 325 -49q129 -63 130 -217q0 -270 -308 -371q270 -33 271 -282q0 -236 -174 -351q-156 -104 -431 -104h-591zM412 131q55 -6 100 -6q371 0 371 324q0 201 -271 200q-66 0 -102 -6zM530 772 h70q166 0 250 92q74 80 74 213q0 176 -217 176q-63 0 -89 -4z" />
<glyph unicode="C" horiz-adv-x="1294" d="M104 557q0 346 237 595t587 249q176 0 403 -74l-65 -354h-150q0 12 3 61t3 78q0 115 -39 123q-51 23 -114 22q-242 0 -405 -197.5t-163 -504.5q0 -215 101.5 -328.5t281.5 -113.5q68 0 103 14q33 4 45 39l92 248h154l-68 -365q-27 -12 -133 -39q-154 -37 -281 -37 q-287 0 -446 179q-146 159 -146 405z" />
<glyph unicode="D" horiz-adv-x="1425" d="M-16 0v117l110 8q16 2 33.5 16.5t19.5 24.5l199 1053q6 31 -27 32l-120 9v114h526q662 0 661 -516q0 -354 -202 -586q-236 -272 -682 -272h-518zM420 133h61q256 0 398 139q92 90 148 247t56 339q0 385 -374 385h-82z" />
<glyph unicode="E" horiz-adv-x="1183" d="M-31 0v115l113 10q45 4 51 41l199 1051q6 31 -27 32l-119 11v114h1018l-65 -334h-144l-2 174q0 29 -20 29h-365l-88 -467h223q33 0 58 74q14 53 28 104h134l-93 -489h-127q0 16 5 61q4 39 4 60q0 59 -25 59h-231l-99 -510h434q23 0 35 35l74 211h152l-70 -381h-1053z" />
<glyph unicode="F" horiz-adv-x="1093" d="M-25 0v117l136 12q20 2 24 23l205 1069q6 29 -29 30l-121 9v114h1000l-70 -356h-143l-4 194q0 29 -19 29h-340l-94 -487h228q27 0 55 75q14 51 28 101h134l-95 -494h-129q4 51 7 101v13q0 69 -21 68h-229l-90 -466q-4 -20 18 -23l141 -12l-10 -117h-582z" />
<glyph unicode="G" horiz-adv-x="1394" d="M80 553q0 385 268 627q250 223 600 223q213 0 402 -70l-66 -358h-158v209q0 18 -13 36.5t-26 20.5q-63 18 -112 19q-246 0 -414 -181q-182 -197 -182 -518q0 -236 125 -348q100 -92 266 -92q63 0 100 6l76 410q4 18 -22 20l-138 12v115h590v-115l-127 -12q-27 -2 -32 -31 l-91 -465q-29 -14 -145 -43q-170 -43 -307 -43q-311 0 -469 197q-125 158 -125 381z" />
<glyph unicode="H" horiz-adv-x="1505" d="M-47 0v117l121 10q37 4 43 35l200 1057q6 31 -28 32l-115 9v114h576v-114l-115 -9q-39 -2 -45 -39l-80 -424h549l82 431q6 31 -29 32l-119 9v114h582v-114l-119 -9q-39 -2 -45 -37l-199 -1054q-6 -31 29 -33l117 -10v-117h-580v117l131 12q25 2 31 35l90 485h-549 l-92 -491q-6 -29 46 -34t104 -7v-117h-586z" />
<glyph unicode="I" horiz-adv-x="679" d="M-37 0v117l117 8q41 2 47 37l199 1059q6 31 -46.5 33.5t-103.5 5.5v114h584v-114l-135 -9q-25 -2 -31 -32l-199 -1061q-4 -27 48.5 -32t105.5 -9v-117h-586z" />
<glyph unicode="J" horiz-adv-x="972" d="M-86 33l70 373h159v-275q0 -25 21 -25h22q113 0 174.5 92.5t100.5 309.5l129 711q6 31 -47.5 34.5t-106.5 6.5v114h586v-114l-135 -11q-23 -2 -29 -35l-121 -690q-47 -270 -164 -401q-131 -150 -368 -150q-106 0 -207 29q-66 19 -84 31z" />
<glyph unicode="K" horiz-adv-x="1361" d="M-61 0v117l116 8q39 2 45 35l201 1071q4 23 -45 24.5t-102 4.5v114h581v-114l-139 -9q-16 0 -21 -24l-98 -516h43l520 520q4 4 2 10t-8 6l-137 13v114h526v-114l-168 -19l-477 -473l285 -559q41 -82 141 -88q25 0 82 -2v-117q-193 -16 -237 -16q-115 0 -185 55 q-47 39 -88 123l-207 428h-114l-82 -447q-4 -23 47 -24.5t100 -3.5v-117h-581z" />
<glyph unicode="L" horiz-adv-x="1083" d="M-57 0v115l110 10q43 4 49 37l199 1069q4 27 -49 29h-96v114h577v-114l-135 -11q-23 -2 -27 -22l-200 -1092h340q53 0 88 129l32 152h162l-78 -416h-972z" />
<glyph unicode="M" horiz-adv-x="1802" d="M-45 0v115q41 4 80 8q76 12 82 43l209 1051q6 31 -47.5 34.5t-104.5 5.5v117h543v-67l145 -910l481 916v61h529v-117l-137 -10q-23 -4 -29 -35l-188 -1054q-4 -29 20 -31l125 -10v-117h-567v117l143 12q16 2 23 33l182 1018l-621 -1180h-157l-187 1176l-198 -1018 q-4 -27 46 -32t99 -9v-117h-471z" />
<glyph unicode="N" horiz-adv-x="1458" d="M-37 0v117l139 12q18 2 23 27l205 1079q2 14 -13 16l-139 11v112h463v-55l403 -952l166 854q6 29 -14 28l-139 13v112h481v-112l-133 -11q-25 -2 -31 -32l-229 -1219h-221l-457 1073l-178 -923q-4 -18 16 -21l137 -12v-117h-479z" />
<glyph unicode="O" horiz-adv-x="1497" d="M109 537q0 362 216 613t547 251q260 0 416 -158t156 -412q0 -344 -213 -593q-223 -264 -557 -265q-244 0 -400 148q-165 154 -165 416zM403 537q0 -195 78 -308.5t217 -113.5q197 0 326 250q117 219 117 481q0 188 -74 302t-213 114q-195 0 -330 -252 q-121 -223 -121 -473z" />
<glyph unicode="P" horiz-adv-x="1196" d="M-47 0v117h82q72 6 80 45l200 1067q4 20 -16 22l-129 11v112h530q246 0 365 -78q129 -86 129 -272q0 -254 -190 -393q-174 -129 -449 -129q-72 0 -104 4l-68 -361q-4 -20 8 -20l144 -8v-117h-582zM473 637q20 -1 39 -1q171 0 273 84q114 93 114 296q0 229 -252 229h-57z " />
<glyph unicode="Q" horiz-adv-x="1466" d="M92 541q0 352 217 602q225 258 555 258q248 0 405.5 -154.5t157.5 -400.5q0 -539 -434 -787q57 -113 101 -159q61 -70 155 -70q90 0 211 47v-113q-221 -100 -360 -100q-246 0 -383 311q-2 0 -25 -2h-39q-225 0 -385 148q-176 160 -176 420zM397 555q0 -184 76 -301 q84 -127 229 -127q186 0 312 238q109 211 108 456q0 182 -73 299q-80 127 -220 127q-188 0 -317 -241q-115 -213 -115 -451z" />
<glyph unicode="R" horiz-adv-x="1314" d="M-59 0v117l133 10q23 2 28 35l203 1069q0 16 -14 18l-139 11v114h591q444 0 445 -301q0 -174 -129 -285q-106 -92 -266 -120q96 -31 153 -123q35 -57 76 -190.5t72 -188.5q23 -39 102 -49q26 -3 47 -3t37 3v-115q-137 -14 -197 -14q-166 0 -231 84q-53 70 -84 164 q-10 25 -47 176q-12 47 -31 82q-57 102 -190 102q-8 0 -23 2h-18l-84 -453q-4 -18 47 -22t104 -6v-117h-585zM483 729h17q16 -2 28 -2q154 0 252 72q111 82 111 239q0 207 -268 207h-21q-14 -2 -20 -2z" />
<glyph unicode="S" horiz-adv-x="1064" d="M16 94l58 342h149l-2 -246q0 -14 25 -20q63 -35 166 -35q106 0 184 58q88 63 88 172q0 106 -166 206q-221 133 -239 148q-127 102 -127 242q0 203 155 323q147 115 373 115q104 0 225 -29l107 -29l-54 -358h-139l6 221q0 16 -18 29q-47 29 -131 29q-123 0 -195.5 -66 t-72.5 -149q0 -57 51 -107.5t194 -136.5q170 -102 228 -166q72 -80 71 -197q0 -166 -125 -297q-152 -158 -417 -157q-139 0 -277 53q-76 28 -117 55z" />
<glyph unicode="T" horiz-adv-x="1204" d="M117 1001l71 373h1141l-72 -373h-151l4 226q0 18 -16 18h-224l-206 -1095q-4 -18 16 -21l143 -14v-115h-600v115l150 14q14 0 18 23l205 1093h-217q-23 0 -31 -22l-74 -222h-157z" />
<glyph unicode="U" horiz-adv-x="1396" d="M141 328q0 170 154 891q6 31 -27 32l-116 11v112h575v-112l-111 -9q-43 -4 -49 -39q-147 -758 -147 -829q0 -233 262 -233q285 0 356 360l142 707q6 27 -48.5 32.5t-107.5 10.5v112h473v-112l-113 -11q-41 -4 -47 -37l-151 -776q-90 -465 -617 -465q-186 0 -299 82 q-129 93 -129 273z" />
<glyph unicode="V" horiz-adv-x="1312" d="M115 1260v114h536v-114q-47 -2 -95 -5.5t-44 -25.5l143 -916l478 920q8 14 -15 18l-117 9v114h445v-114l-119 -13l-672 -1253h-209l-200 1233q-4 25 -53 28z" />
<glyph unicode="W" horiz-adv-x="1878" d="M104 1260v114h539v-114q-47 0 -94 -3q-55 -4 -53 -28l61 -811l444 956h209l101 -979l362 834q8 18 -6 20l-127 11v114h449v-114l-129 -15l-555 -1245h-197l-104 1016l-474 -1016h-198l-94 1227q-2 20 -52 26q-41 5 -82 7z" />
<glyph unicode="X" horiz-adv-x="1271" d="M-100 0v115l82 4q31 4 59 28l477 535l-244 547q-6 20 -12 20l-135 13v112h571v-112l-120 -11q-35 -2 -23 -30l152 -347l307 349q10 10 10 18q0 16 -49 19q-39 2 -78 2v112h473v-112l-135 -13l-461 -514l260 -585q10 -23 15 -23l133 -12v-115h-578v115l131 10q10 0 17.5 8 t5.5 12l-168 387l-344 -391q0 -8 14 -16l131 -10v-115h-491z" />
<glyph unicode="Y" horiz-adv-x="1239" d="M94 1260v114h570v-114l-129 -11q-27 -2 -21 -22l166 -504l362 504q8 16 -14 18l-133 15v114h489v-112l-131 -17q-2 0 -22 -20l-8 -8l-484 -652l-77 -418q-4 -16 16 -18l143 -12v-117h-592v117l142 12q27 2 26 23l72 389l-227 688q-6 18 -13 18z" />
<glyph unicode="Z" horiz-adv-x="1116" d="M-74 0l8 113l869 1124h-408q-41 0 -76 -117l-28 -123h-162l74 377h950l-8 -110l-871 -1127h453q53 0 90 133l29 144h160l-78 -414h-1002z" />
<glyph unicode="[" horiz-adv-x="911" d="M98 -270l310 1720h557l-25 -131h-307l-262 -1460h309l-23 -129h-559z" />
<glyph unicode="\" horiz-adv-x="1101" d="M49 1374h184l818 -1564h-179z" />
<glyph unicode="]" horiz-adv-x="911" d="M-53 -270l24 129h308l262 1462h-310l25 129h557l-309 -1720h-557z" />
<glyph unicode="^" horiz-adv-x="2048" d="M489 23l484 1177h104l482 -1177h-129l-406 999l-408 -999h-127z" />
<glyph unicode="_" horiz-adv-x="1024" d="M-199 -483l35 186h1024l-35 -186h-1024z" />
<glyph unicode="`" horiz-adv-x="733" d="M133 1409q0 35 31 63.5t80 28.5q74 0 118 -53l275 -320h-158l-297 195q-49 33 -49 86z" />
<glyph unicode="a" horiz-adv-x="1193" d="M35 354q0 258 149 449q164 207 424 207q98 0 238 -45l72 45h133l-37 -144q-25 -104 -66 -325q-47 -250 -47 -312q0 -100 78 -100q86 0 139 27v-97q-211 -76 -307 -75q-160 0 -166 149q-158 -150 -313 -149q-158 0 -236 125q-61 100 -61 245zM309 395q0 -229 142 -229 q55 0 124 37q51 29 74 53l96 532q2 10 -32.5 59.5t-48.5 49.5q-186 0 -281 -180q-74 -138 -74 -322z" />
<glyph unicode="b" horiz-adv-x="1150" d="M59 76l217 1241l-161 26v84l352 80h98l-110 -618q55 47 137 84q100 45 178 45q137 0 213 -123q63 -102 64 -252q0 -254 -154 -442q-176 -219 -479 -219q-121 0 -240 41q-49 16 -115 53zM330 147q57 -51 133 -51q127 0 221 162q90 154 90 350q0 233 -156 234 q-70 0 -180 -70z" />
<glyph unicode="c" horiz-adv-x="884" d="M31 375q0 283 186 467q170 168 393 168q106 0 166 -49.5t60 -120.5q0 -68 -50.5 -111t-130.5 -47l-125 203q-88 -20 -155 -142q-76 -135 -76 -319q0 -266 188 -266q147 0 320 161v-141q-76 -76 -180 -131q-129 -68 -244 -67q-150 0 -246 98q-106 107 -106 297z" />
<glyph unicode="d" horiz-adv-x="1185" d="M43 362q0 281 168 470.5t418 189.5q84 0 162 -33l53 328l-168 26v87l356 77h98q-207 -1241 -206 -1284q0 -94 75 -94q66 0 144 27v-95q-227 -78 -314 -77q-160 0 -172 159q-49 -53 -133 -102q-104 -57 -184 -57q-147 0 -227 122q-70 104 -70 256zM315 391 q0 -227 146 -227q45 0 109.5 34.5t101.5 75.5l84 521q2 12 -40 65t-75 53q-133 0 -229.5 -159.5t-96.5 -362.5z" />
<glyph unicode="e" horiz-adv-x="980" d="M43 377q0 272 193 459q176 170 391 170q139 0 207 -78q53 -59 53 -150q0 -170 -166 -254q-136 -69 -358 -68q-29 0 -60 1v-25q-2 -20 -2 -33q0 -250 205 -249q150 0 323 153v-145q-61 -57 -172 -111q-137 -66 -251 -65q-139 0 -234 75q-129 101 -129 320zM326 559 q137 8 239.5 73.5t102.5 158.5q0 96 -88 96q-92 0 -168 -115q-59 -92 -86 -213z" />
<glyph unicode="f" horiz-adv-x="712" d="M-289 -305q0 80 60 123q10 6 28 16l215 -113q66 92 133 531q37 285 76 571l-164 -16l4 104l187 70q37 203 156 348q141 172 331 172q98 0 156 -51q47 -43 47 -96t-39 -95t-100 -51l-166 176q-92 -111 -139 -423h252v-138h-275q-25 -205 -43 -323q-43 -301 -84 -451 q-51 -186 -198.5 -336.5t-284.5 -150.5q-78 0 -119 49q-33 37 -33 84z" />
<glyph unicode="g" horiz-adv-x="1058" d="M-63 -170q0 115 114 209q80 63 180 96v29q0 82 78 174q-86 27 -145 84q-78 74 -78 180q0 174 128 290t325 116q109 0 256 -60h262v-123h-183q20 -45 21 -106q0 -166 -129 -281.5t-299 -115.5h-16q-10 -2 -17 -3q-25 -41 -20 -69l286 -137q199 -94 199 -234 q0 -141 -172 -237q-162 -88 -383 -88q-182 0 -294.5 76.5t-112.5 199.5zM170 -119q0 -78 55 -137q70 -72 197 -72q117 0 176 58q43 43 43 90q0 72 -102 119l-248 112q-121 -53 -121 -170zM344 580q0 -152 105 -152q82 0 139 111q53 98 53 211q0 147 -100 147 q-76 0 -136.5 -95t-60.5 -222z" />
<glyph unicode="h" horiz-adv-x="1253" d="M59 0l260 1321l-169 22l-3 87l371 77h103l-136 -684q223 186 387 187q70 0 134 -52q72 -59 71 -143q0 -16 -4 -35l-106 -557q-2 -11 -2 -21q0 -32 20 -49q27 -24 64 -24q70 0 137 23v-93q-39 -18 -139 -43q-115 -29 -179 -28q-49 0 -106 32q-78 43 -78 119q0 14 2 29 l107 541q2 14 2 28q0 84 -86 84q-47 0 -121 -40t-129 -91l-133 -690h-267z" />
<glyph unicode="i" horiz-adv-x="675" d="M68 852v86l346 78h100l-70 -377q-70 -373 -69 -397q0 -104 90 -105q45 0 143 33v-102q-174 -82 -338 -82t-164 159q0 113 123 680zM295 1335q0 68 43 114t106 46q68 0 109 -48t41 -110q0 -61 -41 -107t-107 -46q-63 0 -107 44t-44 107z" />
<glyph unicode="j" horiz-adv-x="684" d="M-262 -303q0 96 78 129l229 -94q39 49 88 247.5t129 843.5l-178 27v86l365 78h102l-139 -850q-39 -242 -181 -391q-199 -211 -348 -211q-63 0 -104 37t-41 98zM313 1327q0 68 45 115t111 47q68 0 108.5 -49t40.5 -111q0 -61 -41.5 -107t-107.5 -46t-111 44t-45 107z" />
<glyph unicode="k" horiz-adv-x="1159" d="M49 0l254 1327l-176 16v87l373 77h96l-193 -948q119 129 320 336q127 123 219 123q63 0 100 -47q31 -43 31 -99q0 -139 -176 -186l-70 115q-104 -80 -172 -146q106 -240 144 -307q121 -223 207 -223q18 0 110 18v-96q-45 -18 -148.5 -39.5t-144.5 -21.5q-113 0 -164 77.5 t-198 430.5l-82 -91l-72 -403h-258z" />
<glyph unicode="l" horiz-adv-x="643" d="M72 137q0 115 209 1180l-162 26v87l348 77h96l-114 -614q-113 -616 -113 -670q0 -94 74 -94q68 0 165 33v-96q-225 -84 -319 -84q-184 -1 -184 155z" />
<glyph unicode="m" horiz-adv-x="1808" d="M63 840v86l343 84h112l-35 -183q209 182 379 183q168 0 178 -183q215 182 363 183q96 0 157.5 -51.5t61.5 -149.5q0 -31 -6 -66l-100 -522q-2 -11 -3 -20q0 -27 18 -46q24 -26 64 -26q35 0 140 35v-92q-205 -84 -301 -84q-76 0 -129 26q-66 33 -66 97q0 12 2 24l113 582 q2 10 2 20q0 86 -103 86q-98 0 -221 -123l-135 -700h-256q2 12 139 700q2 16 2 29q0 94 -100 94q-88 0 -225 -121l-135 -702h-256l157 815z" />
<glyph unicode="n" horiz-adv-x="1259" d="M59 840v86l367 84h100l-34 -187q223 186 387 187q70 0 133 -52q72 -59 71 -143q0 -16 -4 -35l-106 -557q-2 -11 -2 -21q0 -32 20 -49q27 -24 64 -24q70 0 137 23v-93q-39 -18 -139 -43q-115 -29 -179 -28q-49 0 -106 32q-78 43 -78 119q0 14 2 29l107 541q2 14 2 28 q0 84 -86 84q-47 0 -121 -40t-129 -91l-133 -690h-266l159 817z" />
<glyph unicode="o" horiz-adv-x="1140" d="M59 403q0 262 174 437q168 170 404 170q170 0 281 -99q129 -113 129 -327q0 -254 -167 -430.5t-401 -176.5q-186 0 -299 107q-121 114 -121 319zM338 377q0 -276 160 -277q121 0 198 154q74 145 74 348q0 285 -164 285q-121 0 -196 -158q-72 -145 -72 -352z" />
<glyph unicode="p" horiz-adv-x="1142" d="M-141 -350q41 8 80 16q57 16 61 41l197 1120l-156 21v86l342 76h102l-24 -123q152 123 313 123q135 0 209 -111q68 -100 68 -250q0 -279 -172 -469t-418 -190q-88 0 -152 28l-55 -333l184 -35v-96h-579v96zM332 150q57 -29 129 -29q152 0 241 170q78 145 78 323 q0 225 -147 226q-80 0 -193 -80z" />
<glyph unicode="q" horiz-adv-x="1163" d="M51 346q0 268 154 463q164 207 422 207q102 0 225 -45l86 45h121l-232 -1333l183 -33v-96h-584v96l131 26q12 2 16 25l72 414q-158 -131 -295 -131q-123 0 -205 84q-94 96 -94 278zM315 389q0 -227 164 -227q96 0 193 84l88 532q4 20 -36 72.5t-58 52.5q-158 0 -258 -162 q-93 -147 -93 -352z" />
<glyph unicode="r" horiz-adv-x="901" d="M55 842v86l353 82h81l-49 -240q176 240 332 240q80 0 121 -60q31 -45 31 -98q0 -98 -82 -145q-57 -35 -131 -35l-54 149q-143 -61 -204 -184q-29 -55 -80 -350l-49 -287h-265l160 817z" />
<glyph unicode="s" horiz-adv-x="804" d="M-35 203q0 57 35 94t100 37q57 0 115 -53l-35 -146q59 -45 125 -45q57 0 99 36t42 99q0 70 -94 146l-147 118q-119 94 -119 189q0 158 133 250q117 84 279 84q113 0 178 -51q55 -45 55 -107q0 -123 -156 -137l-96 184q-14 2 -33 2q-61 0 -100 -31.5t-39 -64.5 q0 -59 117 -150q139 -106 170 -139q88 -92 88 -194q0 -147 -118 -244.5t-285 -97.5q-145 0 -234 67q-80 64 -80 154z" />
<glyph unicode="t" horiz-adv-x="761" d="M80 831v89l184 88l133 223h146l-47 -258h262v-135h-287q-100 -535 -100 -586q0 -119 110 -119q74 0 181 41v-100q-238 -90 -355 -90q-199 0 -198 190q0 125 110 664z" />
<glyph unicode="u" horiz-adv-x="1259" d="M61 840v82l357 75h88q-35 -172 -68 -342q-68 -344 -67 -387q0 -98 98 -98q102 0 233 90l140 713l258 24q-37 -186 -72 -370q-72 -371 -72 -404q0 -94 78 -94q6 0 142 23v-93q-233 -80 -322 -79q-160 0 -164 165q-219 -166 -362 -165q-88 0 -146 47q-70 55 -69 166 q0 84 108 626z" />
<glyph unicode="v" horiz-adv-x="1017" d="M-6 854v80l319 76q100 0 115 -166l51 -594q197 256 266 407l-47 297q53 57 138 58q141 0 141 -150q0 -72 -41 -151q-156 -305 -524 -711h-191q26 57 26 109q0 13 -1 26q-14 168 -27 299q-29 307 -47 361q-12 35 -27 36z" />
<glyph unicode="w" horiz-adv-x="1570" d="M0 852v82l297 78h102l39 -713q190 342 338 666l205 16l43 -756q205 266 268 422l-49 303q61 61 133 62q68 0 106 -43t38 -109q0 -217 -531 -860h-184l-39 672q-184 -356 -369 -672h-204l20 74l-45 753z" />
<glyph unicode="x" horiz-adv-x="1058" d="M-66 137q0 57 43 100.5t97 51.5l86 -105q147 115 225 287q-16 66 -61 195q-55 156 -76 157l-187 15v84l285 90q86 0 133 -71t96 -275q180 332 345 331q57 0 98 -38.5t41 -100.5q0 -68 -51 -115q-39 -35 -90 -47l-78 107q-37 -12 -99 -82q-72 -82 -112 -180 q27 -121 71 -228q80 -186 172 -186q41 0 113 14v-94q-166 -59 -272 -59q-176 0 -246 239q-4 16 -31 115q-180 -342 -346 -342q-59 0 -107.5 38t-48.5 99z" />
<glyph unicode="y" horiz-adv-x="1042" d="M-139 -279q0 63 43 104.5t88 41.5l133 -127q121 4 283 307h-70q-59 334 -88 483q-55 272 -80 310l-180 16v82l319 72q96 -16 142 -207q12 -51 84 -520l299 727h69l168 -56v-65l-127 -72q-90 -135 -139 -248q-96 -221 -127 -286q-90 -195 -174 -332q-240 -393 -465 -393 q-74 0 -126 47.5t-52 115.5z" />
<glyph unicode="z" horiz-adv-x="968" d="M-35 59l647 699l-151 -33q-31 18 -62 39q-70 37 -114 37q-66 0 -92 -35l114 -133q0 -2 -12 -23q-39 -74 -121 -73q-51 0 -79.5 39.5t-28.5 97.5q0 119 101 229.5t212 110.5q70 0 179.5 -51.5t164.5 -51.5h22l50 121l166 -102l-652 -688l148 43q16 -16 65 -45 q72 -41 123 -41q68 0 111 43l-127 141q49 98 129 98q55 0 89 -43t34 -106q0 -125 -99.5 -230.5t-222.5 -105.5q-59 0 -139 24q-66 23 -133 46q-41 12 -74 12q-27 0 -39 -4l-49 -109z" />
<glyph unicode="{" horiz-adv-x="1046" d="M133 530l27 134q111 0 162 14q39 10 77 41q61 49 103 262q29 143 45 193q37 106 108 172q109 98 439 98l-25 -121q-152 0 -215 -57q-45 -41 -72 -133q0 -2 -30 -152q-37 -178 -112 -263t-218 -120q129 -33 176 -127q20 -43 20 -115q0 -63 -18 -161q-25 -125 -29 -162 q-10 -90 17 -129q39 -57 194 -58l-22 -120q-326 -10 -410 106q-35 47 -35 133q0 53 37 242q25 125 25 174q0 63 -25.5 93t-60.5 42q-47 14 -158 14z" />
<glyph unicode="|" horiz-adv-x="1024" d="M424 -483v2048h178v-2048h-178z" />
<glyph unicode="}" horiz-adv-x="1046" d="M-37 -274l23 120q156 0 217 58q45 41 67 129q12 57 35 174q39 184 109 264q84 94 227 127q-133 35 -172 117q-29 57 -29 127q0 51 19 139q23 106 26 164q6 84 -18 121q-39 57 -193 57l25 121q328 0 397 -98q43 -59 43 -152q0 -57 -30 -213q-25 -125 -25 -170 q0 -63 25.5 -93t60.5 -40q47 -14 158 -14l-27 -134q-172 0 -242 -57q-61 -49 -102 -266q-31 -154 -43 -197q-37 -119 -102 -178q-130 -116 -449 -106z" />
<glyph unicode="~" horiz-adv-x="1705" d="M176 461v133q203 145 389 145q102 0 299 -68.5t283 -68.5q166 0 383 158v-133q-209 -143 -385 -144q-94 0 -290 69t-304 69q-156 0 -375 -160z" />
<glyph unicode="&#xa6;" horiz-adv-x="1024" d="M442 365h142v-848h-142v848zM442 717v848h142v-848h-142z" />
<glyph unicode="&#xad;" horiz-adv-x="708" d="M76 385l41 217h536l-43 -217h-534z" />
<glyph unicode="&#xb0;" horiz-adv-x="845" d="M76 1159q0 145 102.5 247.5t245.5 102.5t245.5 -102t102.5 -248q0 -143 -101.5 -245.5t-246.5 -102.5q-143 0 -245.5 102.5t-102.5 245.5zM164 1159q0 -109 74.5 -183.5t185.5 -74.5q115 0 187.5 73t72.5 185q0 109 -77 185.5t-183 76.5q-115 0 -187.5 -73.5 t-72.5 -188.5z" />
<glyph unicode="&#xb2;" d="M-12 649l10 117q342 229 457 340q143 139 143 276q0 141 -152 142q-31 0 -81 -11l-39 -190q-49 -25 -93 -25q-100 0 -100 93q0 90 117 163.5t262 73.5q121 0 203 -61q92 -68 92 -183q0 -264 -584 -579h391l52 127h110l-55 -283h-733z" />
<glyph unicode="&#xb3;" d="M16 807q0 41 29 77t84 36q31 0 76 -19l18 -151q35 -20 84 -21q102 0 173 60.5t71 160.5q0 143 -172 144q-45 0 -100 -11l18 117q145 -8 227 46t82 153q0 70 -55 106q-43 25 -94 25q-49 0 -86 -14l-31 -170q-51 -20 -86 -21q-41 0 -70.5 24.5t-29.5 65.5q0 98 133 162 q113 53 241 53q125 0 207 -53q92 -57 92 -160q0 -184 -272 -252q219 -27 219 -207q0 -133 -142.5 -228t-322.5 -95q-133 0 -219 61q-74 52 -74 111z" />
<glyph unicode="&#xb6;" horiz-adv-x="995" d="M55 973q0 217 125 313q115 88 355 88h405v-74l-127 -20v-1442h-100v1452h-156v-715q-244 0 -360 80q-142 95 -142 318z" />
<glyph unicode="&#xb7;" horiz-adv-x="761" d="M100 748q0 117 82 198.5t199 81.5t199 -82t82 -198q0 -117 -82 -198t-199 -81t-199 81t-82 198z" />
<glyph unicode="&#xb9;" d="M127 649v86l149 8q27 2 35 25l138 694q0 8 -9 8l-219 -26v80l357 102h100l-172 -858q-4 -25 18 -29l133 -6v-84h-530z" />
<glyph unicode="&#xe6;" horiz-adv-x="1517" d="M33 209q0 315 600 385q25 111 24 164q0 127 -131 127q-53 0 -82 -11l-38 -196h-183q-82 0 -82 43q0 129 144 213q131 76 297 76q195 0 268 -117q168 117 332 117q127 0 192 -80q49 -61 49 -148q0 -301 -575 -331v-33q0 -262 205 -262q141 0 321 151v-145 q-84 -72 -200 -123q-129 -55 -230 -55q-182 0 -270 118q-8 12 -23 31q-57 -49 -141 -90q-125 -59 -242 -59q-102 0 -168.5 61.5t-66.5 163.5zM301 270q0 -115 121 -114q80 0 192 71q-16 66 -16 138q0 55 10 112q-307 -47 -307 -207zM858 555q106 4 209 63q127 72 127 183 q0 90 -84 90q-88 0 -162 -115q-63 -96 -90 -221z" />
<glyph unicode="&#xe7;" horiz-adv-x="884" d="M31 373q0 285 186 469q170 168 393 168q106 0 166 -48.5t60 -121.5q0 -70 -50.5 -113t-130.5 -47l-125 205q-88 -20 -155 -142q-76 -137 -76 -321q0 -268 188 -268q147 0 320 161v-143q-76 -76 -180 -129q-129 -68 -244 -68h-23l-14 -77h6q4 2 6 2q154 0 154 -131 q0 -106 -87 -173t-206 -67q-68 0 -168 25l23 112q74 -18 133 -18q123 0 123 80q0 45 -72 45q-18 0 -53 -9l43 236q-217 86 -217 373z" />
<glyph unicode="&#xfc;" horiz-adv-x="1259" d="M61 844v84l357 76h88q-35 -172 -68 -345q-68 -344 -67 -389q0 -100 98 -100q100 0 233 92l140 717l258 25q-37 -186 -72 -375q-72 -373 -72 -406q0 -94 78 -94q6 0 142 23v-91q-233 -82 -322 -81q-160 0 -164 167q-221 -168 -362 -167q-88 0 -146 47q-70 57 -69 168 q0 88 108 630zM383 1311q0 59 39 100t92 41q61 0 101 -40t40 -95t-32 -96q-39 -49 -99 -50q-59 0 -100 41.5t-41 98.5zM799 1307q0 61 40 103t93 42q61 0 101 -40t40 -95t-33 -96q-39 -49 -98 -50q-59 0 -101 38.5t-42 97.5z" />
<glyph unicode="&#x2b0;" horiz-adv-x="940" d="M45 649l195 926l-127 14l-2 62l278 53h76l-100 -477q168 131 288 131q53 0 103.5 -39t50.5 -98q0 -12 -2 -25l-80 -389q-6 -33 14.5 -50.5t46.5 -17.5q37 0 103 17v-64q-29 -12 -105 -30q-86 -20 -133 -21q-37 0 -80 23q-59 31 -59 84q0 10 2 20l80 379q2 10 2 18 q0 59 -64 60q-84 0 -188 -92l-100 -484h-199z" />
<glyph unicode="&#x2b2;" horiz-adv-x="514" d="M-197 438q0 63 60 90l170 -65q33 33 67 174q33 127 97 590l-134 18v60l273 55h78l-105 -596q-29 -168 -135 -272q-150 -147 -262 -148q-109 0 -109 94zM236 1579q0 47 33.5 80t82.5 33q51 0 81 -34t30 -77t-31 -75.5t-80 -32.5t-82.5 30.5t-33.5 75.5z" />
<glyph unicode="&#x2b3;" horiz-adv-x="675" d="M41 1239v61l264 58h62l-37 -168q135 168 250 168q59 0 90 -43q23 -31 22 -68q0 -63 -51 -98q-43 -29 -109 -29l-38 105q-109 -43 -154 -129q-20 -41 -61 -246q-35 -182 -35 -201h-199l119 574z" />
<glyph unicode="&#x2b7;" horiz-adv-x="1177" d="M0 1247v58l223 53h76l29 -498q137 225 254 465l153 12l33 -530q154 186 201 297l-37 211q47 43 100 43q109 0 109 -107q0 -152 -400 -602h-137l-29 471q-137 -246 -278 -471h-152l15 53l-33 527z" />
<glyph unicode="&#x2b8;" horiz-adv-x="782" d="M-104 455q0 45 32.5 73.5t65.5 28.5l100 -88q90 0 211 213h-51q-47 252 -66 340q-41 190 -61 215l-135 12v58l239 51q82 -14 127 -225q23 -143 43 -285l224 510h53l125 -41v-45l-94 -49q-70 -96 -105 -174q-133 -293 -223 -431q-182 -279 -352 -278q-55 0 -94 34t-39 81z " />
<glyph unicode="&#x2e1;" horiz-adv-x="483" d="M53 745q0 39 74 408q61 317 84 420l-121 16v62l260 53h72q-8 -33 -86 -430q-84 -430 -84 -467q0 -68 55 -68q63 0 125 25v-68q-170 -59 -239 -59q-140 -1 -140 108z" />
<glyph unicode="&#x2e2;" horiz-adv-x="604" d="M-27 793q0 92 103 92q43 0 86 -39l-27 -101q39 -33 94 -32q43 0 74 25.5t31 68.5q0 49 -70 102q-23 18 -112 85t-89 130q0 109 101 176q88 57 209 58q86 0 135 -37q41 -31 41 -74q0 -82 -117 -96l-74 129q-8 2 -24 2q-45 0 -75 -21.5t-30 -46.5q0 -41 88 -104 q109 -80 127 -98q68 -63 68 -135q0 -102 -89 -171t-214 -69q-111 0 -173.5 46.5t-62.5 109.5z" />
<glyph unicode="&#x2e3;" horiz-adv-x="794" d="M-49 745q0 41 32.5 72t71.5 35l66 -74q113 88 168 201q-72 246 -103 248l-141 10v59l215 62q63 0 99 -50.5t73 -191.5q133 231 258 232q43 0 74 -27t31 -70q0 -92 -107 -114l-57 75q-29 -10 -74 -57q-53 -57 -86 -127q76 -289 182 -289q31 0 86 11v-68q-131 -41 -204 -41 q-133 0 -185 168q-16 53 -22 80q-139 -240 -260 -240q-45 0 -81 26.5t-36 69.5z" />
<glyph unicode="&#x2f8;" horiz-adv-x="428" d="M33 756q0 49 34.5 82.5t84.5 33.5q53 0 84.5 -34.5t31.5 -81.5q0 -45 -31.5 -80t-84.5 -35q-49 0 -84 33t-35 82zM121 1231q0 49 34.5 82t84.5 33q53 0 85.5 -35t32.5 -80t-32.5 -79t-83.5 -34q-49 0 -85 32t-36 81z" />
<glyph unicode="&#x307;" horiz-adv-x="0" d="M-221 1159q0 33 22.5 54.5t53.5 21.5q76 0 75 -76q0 -31 -21.5 -52.5t-53.5 -21.5q-31 0 -53.5 21.5t-22.5 52.5z" />
<glyph unicode="&#x308;" horiz-adv-x="1089" d="M213 150q0 72 47 119.5t115 47.5q72 0 119 -53q41 -49 41 -114q0 -66 -41 -113q-47 -51 -117 -51q-68 0 -116 47t-48 117zM225 1141q0 100 103 174q117 84 309 84q176 0 282.5 -84t106.5 -234q0 -348 -506 -506l-35 -186h-147l51 291q150 47 242 135q119 113 119 264 q0 102 -74 152q-51 33 -119 33h-18l-133 -230h-50q-131 1 -131 107z" />
<glyph unicode="&#x327;" horiz-adv-x="0" />
<glyph unicode="&#x37e;" horiz-adv-x="569" d="M-96 -358l18 108q221 41 262 258h-116q-25 47 -25 86q0 82 51 131t119 49q76 0 117 -46t41 -119q0 -182 -148 -322q-139 -129 -319 -145zM172 829q0 72 47 120t115 48q72 0 115 -51t43 -117t-44.5 -114.5t-113.5 -48.5q-68 0 -115 46.5t-47 116.5z" />
<glyph unicode="&#x387;" horiz-adv-x="761" d="M100 748q0 117 82 198.5t199 81.5t199 -82t82 -198q0 -117 -82 -198t-199 -81t-199 81t-82 198z" />
<glyph unicode="&#x394;" horiz-adv-x="1351" d="M0 0l645 1401h19l647 -1401h-1311zM123 72h926l-457 991z" />
<glyph unicode="&#x398;" horiz-adv-x="1511" d="M61 688q0 295 209 504t504 209t504 -209t209 -504t-209 -504t-504 -209t-504 209t-209 504zM287 688q0 -262 127 -442q137 -197 366 -197q209 0 353 217q129 195 129 422q0 250 -132 438q-143 207 -366 207q-215 0 -352 -209q-125 -188 -125 -436zM483 485v398h35 q0 -61 39 -97q31 -29 74 -28h291q39 0 71 28q41 35 41 97h35v-398h-35q0 61 -41 97q-33 29 -71 28h-291q-43 0 -74 -28q-39 -35 -39 -97h-35z" />
<glyph unicode="&#x39e;" horiz-adv-x="1286" d="M125 0v358h31q0 -178 157 -178h668q158 0 158 178h30v-358h-1044zM125 1018v358h1044v-358h-30q0 178 -158 178h-668q-158 0 -157 -178h-31zM336 477v430h35q0 -61 39 -96q31 -29 73 -29h338q39 0 72 29q41 35 41 96h35v-430h-35q0 61 -41 96q-33 29 -72 29h-338 q-43 0 -73 -29q-39 -35 -39 -96h-35z" />
<glyph unicode="&#x3a0;" horiz-adv-x="1574" d="M4 0v31q205 0 205 129v1030q0 156 -205 156v30h1430v-30q-205 0 -205 -156v-1030q0 -129 205 -129v-31h-615v31q205 0 205 129v1030q0 125 -195 125h-221q-195 0 -194 -125v-1030q0 -129 204 -129v-31h-614z" />
<glyph unicode="&#x3a8;" horiz-adv-x="1767" d="M0 1339v29q207 0 266 -47q92 -72 92 -328q0 -305 82 -405q78 -92 322 -101v703q0 156 -184 156v30h573v-30q-184 0 -184 -156v-703q244 8 321 101q82 100 82 405q0 256 92 328q59 47 267 47v-29q-96 0 -127 -49q-43 -72 -43 -315q0 -279 -84 -385q-125 -158 -508 -172 v-248q0 -63 69 -102q61 -37 135 -37v-31h-614v31q74 0 135 37q70 39 70 102v248q-383 14 -508 172q-84 106 -84 385q0 244 -43 315q-31 49 -127 49z" />
<glyph unicode="&#x1d2c;" horiz-adv-x="968" d="M-106 649v82l86 10l532 879h166l153 -856q4 -20 23 -25l82 -8v-82h-412v82q37 0 76 2t35 25l-41 225h-330l-133 -227q-10 -16 8 -19l92 -6v-82h-337zM317 1075h258l-57 342z" />
<glyph unicode="&#x1d2e;" horiz-adv-x="958" d="M-12 649v82q33 2 59 6q59 12 64 37l147 731q4 18 -20 23l-93 6v78h426q166 0 246 -35q96 -43 96 -152q0 -188 -231 -260q203 -20 203 -196q0 -319 -453 -320h-444zM309 741q29 -4 74 -4q279 0 279 228q0 139 -203 139q-59 0 -76 -4zM397 1190h54q242 0 241 213 q0 125 -162 125q-47 0 -67 -4z" />
<glyph unicode="&#x1d30;" horiz-adv-x="1069" d="M-12 649v82l82 6q35 2 41 29l149 737q4 20 -20 23l-90 6v80h395q496 0 495 -361q0 -248 -151 -411q-178 -190 -512 -191h-389zM315 743h45q195 0 299 97q154 141 154 411q0 268 -281 269h-61z" />
<glyph unicode="&#x1d31;" horiz-adv-x="888" d="M-23 649v82l84 6q33 2 39 29l150 735q4 23 -21 23l-90 8v80h764l-49 -234h-109v121q0 20 -16 21h-272l-68 -326h168q25 0 43 51q12 37 23 72h100l-70 -342h-96q2 41 6 82q0 45 -18 45h-172l-76 -357h326q16 0 26 23l56 150h114l-53 -269h-789z" />
<glyph unicode="&#x1d33;" horiz-adv-x="1046" d="M59 1036q0 270 203 441q186 156 449 155q162 0 301 -49l-49 -250h-119v146q0 37 -29 41q-45 12 -84 12q-184 0 -311 -127q-135 -137 -135 -363q0 -164 94 -243q76 -63 199 -64q55 0 75 4l56 287q4 12 -17 14l-102 9v79h442v-79l-96 -9q-18 -2 -23 -22l-69 -326 q-193 -59 -338 -59q-233 0 -352 137q-95 110 -95 266z" />
<glyph unicode="&#x1d34;" horiz-adv-x="1128" d="M-35 649v82l90 8q29 0 33 25l150 739q4 20 -21 23l-86 6v80h432v-80l-86 -6q-31 -2 -35 -27l-59 -297h412l61 301q4 20 -22 23l-89 6v80h437v-80l-90 -6q-29 -2 -33 -27l-150 -737q-4 -23 21 -23l88 -8v-82h-434v82l98 8q18 2 23 25l67 340h-412l-69 -344 q-4 -18 35 -22.5t77 -6.5v-82h-438z" />
<glyph unicode="&#x1d35;" horiz-adv-x="509" d="M-29 649v82l88 6q33 2 37 27l148 741q4 20 -35 23.5t-78 3.5v80h438v-80l-100 -6q-18 -2 -23 -23l-149 -743q-4 -18 36 -22.5t79 -6.5v-82h-441z" />
<glyph unicode="&#x1d36;" horiz-adv-x="729" d="M-63 674l51 260h118v-193q0 -16 17 -16h16q84 0 131 64.5t76 216.5l96 497q4 23 -35.5 25t-78.5 4v80h438v-80l-100 -8q-18 -2 -23 -25l-90 -483q-72 -385 -399 -385q-80 0 -154 20q-55 15 -63 23z" />
<glyph unicode="&#x1d37;" horiz-adv-x="1021" d="M-45 649v82l86 6q31 2 35 25l149 749q4 16 -33.5 18.5t-76.5 2.5v80h436v-80l-105 -6q-10 0 -14 -17l-74 -362h31l391 364q12 10 -4 13l-104 8v80h395v-80l-125 -12l-358 -332l213 -391q31 -57 106 -62q18 0 62 -2v-82q-143 -10 -179 -10q-141 0 -204 123l-156 301h-84 l-61 -313q-4 -16 36 -19q35 -2 72 -2v-82h-434z" />
<glyph unicode="&#x1d38;" horiz-adv-x="813" d="M-43 649v82l82 6q37 2 37 27l149 747q4 18 -37 21h-71v80h432v-80l-100 -8q-16 -2 -21 -15l-149 -764h253q39 0 68 91q10 53 23 106h122l-59 -293h-729z" />
<glyph unicode="&#x1d39;" horiz-adv-x="1351" d="M-33 649v82q113 0 121 35l156 735q4 20 -35 27q-39 0 -78 2v82h408v-47l108 -637l361 641v43h397v-82l-105 -6q-16 -4 -20 -25l-141 -739q-6 -18 14 -21l94 -8v-82h-426v82l109 8q12 4 16 25l137 713l-467 -828h-116l-142 824l-147 -713q-4 -18 34 -22.5t74 -6.5v-82 h-352z" />
<glyph unicode="&#x1d3a;" horiz-adv-x="1093" d="M-29 649v82l105 8q14 2 18 21l154 753q0 12 -10 13l-105 8v78h348v-39l301 -666l125 598q4 18 -10 19l-104 10v78h360v-78l-98 -8q-20 -2 -25 -23l-172 -854h-166l-342 752l-133 -645q-4 -14 12 -17l103 -8v-82h-361z" />
<glyph unicode="&#x1d3c;" horiz-adv-x="1122" d="M82 1026q0 254 162 429t409 175q197 0 313.5 -110.5t116.5 -288.5q0 -240 -159 -416q-166 -184 -418 -184q-182 0 -303 105.5t-121 289.5zM303 1026q0 -137 58.5 -216t162.5 -79q145 0 244 174q88 156 88 338q0 131 -55.5 211t-159.5 80q-145 0 -248 -176 q-90 -158 -90 -332z" />
<glyph unicode="&#x1d3e;" horiz-adv-x="897" d="M-35 649v82q31 0 62 2q53 4 59 31l150 745q2 14 -13 17l-96 8v78h397q371 0 371 -246q0 -176 -143 -274q-129 -90 -336 -91q-18 0 -47 3h-31l-51 -252q-2 -14 6 -15l108 -6v-82h-436zM354 1096q319 -16 320 266q0 160 -189 160h-43z" />
<glyph unicode="&#x1d3f;" horiz-adv-x="987" d="M-45 649v82l100 8q20 2 21 25l153 747q0 12 -10 13l-104 8v80h442q334 0 334 -211q0 -123 -98 -199q-78 -63 -199 -84q74 -23 115 -86q27 -39 57.5 -132t54 -131t140.5 -38v-80q-104 -10 -148 -10q-125 0 -174 59q-41 49 -64 115q-4 12 -34 123q-10 37 -23 57 q-43 72 -143 72q-6 0 -17 2h-14l-63 -317q-2 -14 36 -17l78 -4v-82h-440zM362 1161h13q10 -2 20 -2q117 0 189 51q84 57 84 166q0 145 -201 146h-14q-12 -2 -17 -2z" />
<glyph unicode="&#x1d40;" horiz-adv-x="903" d="M88 1352l53 260h856l-55 -260h-113l2 157q6 12 -10 13h-168l-155 -766q0 -14 12 -17l106 -8v-82h-448v82l113 8q12 0 12 17l153 766h-161q-18 0 -25 -17l-55 -153h-117z" />
<glyph unicode="&#x1d41;" horiz-adv-x="1048" d="M106 879q0 121 115 624q4 20 -20 23l-86 8v78h430v-78l-82 -6q-37 -2 -37 -29q-111 -528 -111 -579q0 -164 197 -164q213 0 266 252l107 495q4 18 -36 22.5t-81 8.5v78h354v-78l-84 -8q-35 -4 -34 -27l-115 -543q-70 -326 -463 -325q-139 0 -223 57q-97 66 -97 191z" />
<glyph unicode="&#x1d42;" horiz-adv-x="1409" d="M78 1532v80h403v-80q-35 0 -69 -2q-41 -2 -39 -21l45 -567l334 670h155l76 -686l272 583q6 12 -6 15l-94 8v80h336v-80l-96 -10l-416 -873h-148l-77 713l-357 -713h-147l-72 860q-2 17 -100 23z" />
<glyph unicode="&#x1d43;" horiz-adv-x="894" d="M27 897q0 182 112 315q123 145 318 146q76 0 178 -33l53 33h100l-28 -103q-18 -72 -49 -227q-35 -176 -35 -217q0 -72 59 -72q61 0 103 21v-68q-158 -53 -230 -53q-119 0 -125 104q-119 -104 -233 -104q-119 0 -176 88q-47 68 -47 170zM231 926q0 -160 107 -160 q86 0 149 63l72 373q2 6 -24.5 41t-36.5 35q-139 0 -211 -127q-56 -96 -56 -225z" />
<glyph unicode="&#x1d47;" horiz-adv-x="864" d="M45 702l162 871l-121 16v60l264 55h74l-82 -432q111 90 236 90q102 0 159 -84q47 -74 47 -178q0 -178 -114 -309q-133 -154 -359 -154q-92 0 -180 29q-35 11 -86 36zM248 754q43 -37 100 -37q94 0 163 110.5t69 247.5q0 164 -117 164q-49 0 -135 -49z" />
<glyph unicode="&#x1d48;" horiz-adv-x="888" d="M33 903q0 197 126 330t312 133q68 0 123 -25l39 232l-125 16v62l266 53h74q-4 -16 -78 -436q-78 -436 -78 -461q0 -68 58 -68q47 0 108 21v-68q-172 -53 -235 -53q-121 0 -129 111q-37 -37 -101 -70q-78 -41 -137 -41q-111 0 -172 86q-51 74 -51 178zM236 924 q0 -160 110 -160q33 0 81 24.5t77 53.5l63 364q0 10 -30.5 46t-55.5 36q-100 0 -172.5 -111.5t-72.5 -252.5z" />
<glyph unicode="&#x1d49;" horiz-adv-x="735" d="M33 913q0 190 145 322q131 119 293 119q104 0 156 -56q39 -41 39 -104q0 -119 -125 -176q-115 -55 -314 -47v-19q-2 -14 -2 -22q0 -174 154 -174q113 0 244 106v-102q-49 -41 -129 -76q-102 -47 -189 -47q-104 0 -176 53q-96 69 -96 223zM244 1040q104 6 181 53.5 t77 110.5q0 68 -68 68q-70 0 -125 -82q-45 -64 -65 -150z" />
<glyph unicode="&#x1d4d;" horiz-adv-x="794" d="M-47 530q0 80 86 146q59 47 135 69v19q0 61 57 123q-168 47 -168 184q0 121 96.5 203t243.5 82q80 0 193 -43h197v-86h-138q16 -33 17 -74q0 -129 -113 -209q-100 -72 -233 -72q-18 -27 -15 -47l213 -96q150 -68 150 -164q0 -98 -129 -166q-121 -61 -287 -61 q-137 0 -221 53t-84 139zM127 567q0 -55 43 -96q51 -51 147 -51q88 0 132 41q33 31 32 63q0 51 -78 84l-184 78q-92 -39 -92 -119zM258 1057q0 -106 78 -107q61 0 106 78q39 70 39 148q0 102 -75 102q-55 0 -101.5 -66.5t-46.5 -154.5z" />
<glyph unicode="&#x1d4f;" horiz-adv-x="870" d="M37 649l190 930l-131 10v62l279 53h71l-143 -664q123 129 240 236q94 86 164 86q47 0 72.5 -32t25.5 -70q0 -96 -133 -130l-51 80q-70 -49 -129 -102q78 -164 106 -215q92 -156 156 -156q16 0 49 6.5t35 6.5v-68q-129 -41 -222 -41q-86 0 -120 51q-16 23 -150 303 l-61 -63l-56 -283h-192z" />
<glyph unicode="&#x1d50;" horiz-adv-x="1355" d="M47 1237v61l258 60h84l-27 -129q156 129 285 129q123 0 133 -129q162 129 273 129q166 0 166 -141q0 -23 -7 -48l-75 -364q-14 -66 59 -66q6 0 104 25v-64q-158 -59 -225 -59q-63 0 -104 23q-53 29 -41 81l86 406q6 33 -15.5 54.5t-60.5 21.5q-63 0 -166 -86l-102 -492 h-191q0 10 105 492q2 10 2 20q0 66 -76 66q-68 0 -170 -86l-100 -492h-193l119 572z" />
<glyph unicode="&#x1d52;" horiz-adv-x="856" d="M45 932q0 182 131 307q125 119 301 119q129 0 211 -70q96 -80 96 -229q0 -178 -124.5 -301t-301.5 -123q-139 0 -223 76q-90 78 -90 221zM254 913q0 -193 119 -192q90 0 149 108q55 100 56 242q0 201 -123 201q-90 0 -148 -111q-53 -103 -53 -248z" />
<glyph unicode="&#x1d56;" horiz-adv-x="858" d="M-106 338v68q31 6 61 10q41 10 45 28l147 785l-116 14v62l256 53h78l-19 -86q115 86 234 86q100 0 157 -78q51 -72 51 -176q0 -195 -129 -328t-313 -133q-74 0 -115 21l-41 -234l138 -24v-68h-434zM250 756q41 -20 96 -21q113 0 182 119q57 100 58 225q0 158 -111 158 q-61 0 -145 -55z" />
<glyph unicode="&#x1d57;" horiz-adv-x="571" d="M59 1231v63l140 62l98 155h111l-35 -180h196v-94h-217q-74 -424 -73 -410q0 -84 81 -84q55 0 136 29v-70q-178 -63 -267 -63q-147 0 -147 133q0 96 82 465z" />
<glyph unicode="&#x1d58;" horiz-adv-x="944" d="M45 1237v59l268 52h66q0 2 -50 -239t-50 -271q0 -70 73 -70q74 0 174 63l105 500l194 17q-6 -27 -55 -261q-53 -258 -53 -280q0 -68 59 -68q18 0 61.5 8.5t45.5 8.5v-64q-176 -55 -242 -55q-123 0 -123 115q-162 -115 -272 -115q-162 0 -162 147q0 45 82 439z" />
<glyph unicode="&#x1d5b;" horiz-adv-x="763" d="M-4 1247v58l240 53q76 0 86 -117l36 -416q152 180 201 285l-35 207q37 41 103 41q106 0 106 -105q0 -37 -31 -106q-117 -209 -393 -498h-143q25 51 18 96q-16 201 -55 461q-6 25 -20 25z" />
<glyph unicode="&#x1d5d;" horiz-adv-x="745" d="M39 377v850q0 199 84 323q90 133 250 133q117 0 188 -65q66 -57 66 -137q0 -166 -209 -244q113 -12 194 -86q92 -86 93 -211q0 -133 -84 -220t-197 -87q-141 0 -213 108l22 13q70 -86 164 -86q172 0 172 264q0 133 -80 221q-59 66 -102 66q-8 0 -39 -12.5t-47 -12.5 q-53 0 -53 41q0 39 51 39q14 0 44 -9.5t36 -9.5q35 0 78 39q63 57 63 160q0 92 -61 148q-51 47 -115 47q-84 0 -133 -74t-49 -201v-997h-123z" />
<glyph unicode="&#x1d60;" horiz-adv-x="1124" d="M82 1018q0 252 158 426q166 186 432 186q109 0 174 -35l94 131l76 -45l-90 -129q160 -123 159 -317q0 -248 -163 -426q-170 -180 -418 -180q-131 0 -213 47l-103 -146l-65 54l96 137q-137 121 -137 297zM295 1036q0 -98 29 -174l450 633q-55 43 -127 43q-158 0 -262 -174 q-90 -152 -90 -328zM375 784q59 -59 145 -59q152 0 254 160q94 150 94 346q0 133 -41 192z" />
<glyph unicode="&#x1d9c;" horiz-adv-x="663" d="M23 913q0 197 139 326q129 119 295 119q80 0 125 -35t45 -86q0 -45 -38 -76t-97 -35l-95 144q-68 -14 -116 -101q-57 -94 -58 -223q0 -186 142 -186q109 0 241 112v-98q-152 -137 -319 -137q-113 0 -185 68q-79 75 -79 208z" />
<glyph unicode="&#x1da0;" horiz-adv-x="534" d="M-217 436q0 66 65 99l162 -80q47 61 84 282q23 154 74 490l-123 -13l2 74l141 49q27 139 117 244q104 119 248 119q74 0 117 -35q35 -31 35 -68t-30 -66.5t-75 -35.5l-123 123q-74 -80 -104 -295h188v-96h-207q-23 -166 -30 -228q-33 -211 -64 -315 q-39 -131 -149.5 -235.5t-212.5 -104.5q-59 0 -91 35q-24 24 -24 57z" />
<glyph unicode="&#x1dbb;" horiz-adv-x="727" d="M-27 692l486 488l-113 -23q-25 14 -47 27q-51 27 -86 26q-47 0 -68 -24l84 -92l-8 -17q-29 -51 -90 -51q-82 0 -82 96q0 84 76 161t160 77q51 0 134 -36t124 -36h16l37 84l125 -72l-490 -481l111 31q12 -12 49 -33q55 -29 92 -29q45 0 84 31l-96 99q37 70 98 69 q41 0 67 -29.5t26 -74.5q0 -88 -75 -162t-167 -74q-45 0 -105 19q-51 14 -100 30q-29 8 -55 9h-19l-10 -3l-37 -77z" />
<glyph unicode="&#x1fef;" horiz-adv-x="733" d="M133 1409q0 35 31 63.5t80 28.5q74 0 118 -53l275 -320h-158l-297 195q-49 33 -49 86z" />
<glyph unicode="&#x2000;" horiz-adv-x="862" />
<glyph unicode="&#x2001;" horiz-adv-x="2048" />
<glyph unicode="&#x2002;" horiz-adv-x="862" />
<glyph unicode="&#x2003;" horiz-adv-x="2048" />
<glyph unicode="&#x2004;" horiz-adv-x="575" />
<glyph unicode="&#x2005;" horiz-adv-x="430" />
<glyph unicode="&#x2006;" horiz-adv-x="286" />
<glyph unicode="&#x2007;" horiz-adv-x="286" />
<glyph unicode="&#x2008;" horiz-adv-x="215" />
<glyph unicode="&#x2009;" horiz-adv-x="344" />
<glyph unicode="&#x200a;" horiz-adv-x="94" />
<glyph unicode="&#x2010;" horiz-adv-x="708" d="M76 385l41 217h536l-43 -217h-534z" />
<glyph unicode="&#x2011;" horiz-adv-x="708" d="M76 385l41 217h536l-43 -217h-534z" />
<glyph unicode="&#x2012;" horiz-adv-x="708" d="M76 385l41 217h536l-43 -217h-534z" />
<glyph unicode="&#x2013;" horiz-adv-x="1155" d="M76 385l72 217h952l-76 -217h-948z" />
<glyph unicode="&#x2014;" horiz-adv-x="2179" d="M76 385l145 217h1903l-153 -217h-1895z" />
<glyph unicode="&#x202f;" horiz-adv-x="344" />
<glyph unicode="&#x205f;" horiz-adv-x="430" />
<glyph unicode="&#x2070;" d="M43 971q0 252 129 444q141 215 369 215q147 0 229 -94t82 -250q0 -274 -135 -461q-143 -193 -365 -192q-139 0 -224 91t-85 247zM250 909q0 -180 131 -180q121 0 199 223q68 193 67 414q0 168 -117 168q-135 0 -215 -236q-65 -188 -65 -389z" />
<glyph unicode="&#x2071;" horiz-adv-x="507" d="M51 1247v60l260 55h74q-104 -522 -104 -543q0 -74 67 -74q27 0 68 11l41 12v-70q-125 -57 -254 -57q-123 0 -123 111q0 76 92 475zM221 1585q0 47 33 79t80 32q49 0 80.5 -34t31.5 -77t-31.5 -74.5t-80.5 -31.5q-47 0 -80 30.5t-33 75.5z" />
<glyph unicode="&#x2074;" d="M-8 913l24 119l619 594h160l-121 -590h168l-23 -123h-170l-61 -301h-185l58 301h-469zM180 1036h307l80 377z" />
<glyph unicode="&#x2075;" d="M20 803q0 45 33 74.5t82 29.5q23 0 64 -14l24 -154q33 -10 72 -10q113 0 185.5 68.5t72.5 165.5q0 172 -231 172q-47 0 -185 -13l105 490h594l-31 -156h-465l-49 -225q98 25 178 24q117 0 197 -51q100 -63 100 -188q0 -164 -140.5 -271.5t-336.5 -107.5q-119 0 -194 47 t-75 119z" />
<glyph unicode="&#x2076;" d="M43 975q0 276 208 478t525 228l15 -102q-375 -37 -482 -334q111 63 230 64q121 0 196.5 -74t75.5 -201q0 -172 -134 -286.5t-312 -114.5q-123 0 -209 69q-113 91 -113 273zM254 954q0 -219 154 -219q84 0 140 80t56 180q0 190 -174 191q-76 0 -149 -41q-27 -62 -27 -191z " />
<glyph unicode="&#x2077;" d="M78 600l618 848h-415l-52 -141h-112l61 305h733l-16 -96l-631 -873l-4 -43h-182z" />
<glyph unicode="&#x2078;" d="M20 877q0 178 240 260q-123 59 -123 192q0 127 111.5 216t283.5 89q137 0 216 -59t79 -160q0 -174 -219 -254q182 -86 183 -213q0 -143 -125 -233t-306 -90q-160 0 -250 68.5t-90 183.5zM215 889q0 -70 41 -115q49 -51 139 -51q88 0 142 53q47 47 47 117q0 55 -43 92 q-49 41 -199 107q-127 -82 -127 -203zM340 1380q0 -96 184 -180q47 25 82 81t35 118q0 139 -133 139q-76 0 -122 -46t-46 -112z" />
<glyph unicode="&#x2079;" d="M78 1229q0 168 134 284.5t312 116.5q123 0 209 -53q127 -80 127 -268q0 -289 -260 -504q-207 -174 -483 -240l-27 94q348 100 492 365q-119 -57 -217 -57q-106 0 -185 55q-102 70 -102 207zM291 1268q0 -182 172 -183q90 0 160 48q29 76 28 184q0 113 -49 170 q-41 47 -104 47q-84 0 -145.5 -77.5t-61.5 -188.5z" />
<glyph unicode="&#x207a;" horiz-adv-x="1280" d="M190 1032v92h400v381h102v-381h398v-92h-398v-383h-102v383h-400z" />
<glyph unicode="&#x207b;" horiz-adv-x="532" d="M57 920l31 151h401l-32 -151h-400z" />
<glyph unicode="&#x207c;" horiz-adv-x="1280" d="M190 901v82h900v-82h-900zM190 1169v82h900v-82h-900z" />
<glyph unicode="&#x207d;" horiz-adv-x="661" d="M121 862q0 295 143 531q168 279 461 286l-16 -84q-205 -14 -320 -329q-84 -231 -84 -455q0 -268 193 -281l-19 -84q-172 2 -265 115t-93 301z" />
<glyph unicode="&#x207e;" horiz-adv-x="661" d="M-63 446l18 84q197 12 313 316q88 233 88 469q0 266 -192 280l18 84q184 -6 279 -129q80 -104 80 -276q0 -293 -142 -533q-171 -291 -462 -295z" />
<glyph unicode="&#x207f;" horiz-adv-x="944" d="M45 1237v61l274 60h76l-26 -131q174 131 290 131q51 0 101.5 -39t50.5 -98q0 -12 -2 -25l-80 -389q-6 -33 14.5 -50.5t47.5 -17.5q23 0 104 17v-64q-31 -14 -104 -30q-86 -20 -136 -21q-37 0 -80 23q-59 31 -59 84q0 10 2 20l82 379q2 10 2 18q0 59 -65 60 q-84 0 -189 -92l-98 -484h-201l119 574z" />
<glyph unicode="&#x2113;" d="M51 117l53 -94q242 129 439 454q211 350 211 692q0 190 -47 256q-37 51 -134 52q-121 0 -225 -244q-127 -299 -127 -797q0 -229 68.5 -349t193.5 -120q76 0 129 53q70 72 160 279l-78 47q-90 -244 -192 -244q-127 0 -127 529q0 319 53 524q51 190 119 191q41 0 57 -50 q18 -59 19 -225q0 -285 -193 -582q-176 -272 -379 -372z" />
<glyph unicode="&#x212a;" horiz-adv-x="1361" d="M-61 0v117l116 8q39 2 45 35l201 1071q4 23 -45 24.5t-102 4.5v114h581v-114l-139 -9q-16 0 -21 -24l-98 -516h43l520 520q4 4 2 10t-8 6l-137 13v114h526v-114l-168 -19l-477 -473l285 -559q41 -82 141 -88q25 0 82 -2v-117q-193 -16 -237 -16q-115 0 -185 55 q-47 39 -88 123l-207 428h-114l-82 -447q-4 -23 47 -24.5t100 -3.5v-117h-581z" />
<glyph unicode="&#x212d;" horiz-adv-x="1396" d="M84 586q0 272 215 471l342 317h616l25 -65l-170 -181h-500l199 -380q37 -70 37 -115q0 -35 -29 -98l-135 -302q49 -6 107 -6q156 0 241 35q59 23 156 98l125 -63l-178 -285q-201 -39 -322 -39q-373 0 -575 230q-154 176 -154 383zM260 684q0 -143 72 -252 q82 -123 237 -174l56 129q14 33 14 64q0 35 -18 69l-248 484q-78 -84 -97 -148q-16 -49 -16 -172z" />
<glyph unicode="&#x2135;" horiz-adv-x="1220" d="M63 0l11 51q131 16 131 88q0 35 -59.5 146.5t-59.5 179.5q0 158 190 366l-49 50q-90 90 -121 149q-37 68 -36 168q0 96 63 178q53 68 90 68q18 0 19 -29q0 -4 -13.5 -23.5t-13.5 -33.5q0 -51 66 -125q51 -49 102 -100l299 -299l143 180q-74 55 -98 104q-18 35 -18 92 q0 96 71 172q57 61 97 62q18 0 18 -19q0 -4 -5 -9t-5 -19q0 -49 108 -127q129 -94 129 -238q0 -100 -43 -153q-35 -43 -75 -43q-20 0 -39 34q-31 55 -84 101l-150 -187l252 -254q90 -90 121 -149q39 -70 39 -168q0 -96 -66 -178q-53 -68 -90 -68q-18 0 -18 29q0 4 13 24.5 t13 34.5q0 49 -65 123l-103 103l-501 501q-55 -82 -56 -147q0 -86 123 -233.5t123 -235.5q0 -72 -54 -119t-132 -47h-267z" />
<glyph unicode="&#x214f;" horiz-adv-x="1839" d="M100 109q158 0 269 110q-61 135 -62 281q0 190 139 190q59 0 96.5 -48t37.5 -134q0 -147 -76 -279q80 -90 176 -90q80 0 156 72q-53 131 -54 297q0 88 41 135t99 47q133 0 133 -182q0 -147 -76 -289q70 -80 178 -80q92 0 168 72q-63 121 -63 297q0 92 43 141q35 41 92 41 q135 0 135 -182q0 -147 -70 -287q106 -113 277 -112l-21 -117q-211 0 -325 125q-109 -125 -248 -125q-156 0 -246 114q-109 -115 -240 -114q-139 0 -235 131q-129 -129 -309 -129zM414 457q0 -68 28 -131q29 68 29 131q0 117 -25 116q-32 1 -32 -116zM891 463q0 -68 24 -141 q33 70 33 141q0 111 -28 110q-29 1 -29 -110zM1366 465q0 -78 31 -146q29 68 28 146q0 109 -28 108q-31 1 -31 -108z" />
<glyph unicode="&#x2225;" horiz-adv-x="1024" d="M283 -483v2048h141v-2048h-141zM602 -483v2048h141v-2048h-141z" />
<glyph unicode="&#x27e6;" horiz-adv-x="1222" d="M285 -270v1720h850v-92h-322v-1534h322v-94h-850zM463 -176h172v1534h-172v-1534z" />
<glyph unicode="&#x27e7;" horiz-adv-x="1222" d="M90 -176h322v1534h-322v92h848v-1720h-848v94zM590 -176h172v1534h-172v-1534z" />
<glyph unicode="&#x2afd;" horiz-adv-x="1003" d="M152 -190l423 1564h119l-424 -1564h-118zM391 -190l424 1564h121l-426 -1564h-119z" />
<glyph unicode="&#x2c7d;" horiz-adv-x="985" d="M86 1532v80h401v-80q-106 -4 -104 -23l109 -641l358 645q2 2 -2 7.5t-10 5.5l-86 6v80h333v-80l-90 -8l-503 -879h-158l-150 864q-2 16 -41 21q-28 0 -57 2z" />
<glyph unicode="&#x2c88;" horiz-adv-x="1552" d="M84 659q0 389 264 584q201 147 483 148q211 0 412 -136q209 -141 227 -319h-301q-16 115 -102 227q-100 135 -219 135q-145 0 -252 -118q-125 -139 -139 -404h671q166 0 258 -39q84 -37 84 -92q0 -72 -55 -72h-102q-31 0 -107 37q-100 49 -162 68q-117 37 -243 37h-346 v-2q0 -326 110 -496q98 -152 258 -151q147 0 244 139q74 106 102 268l301 2q-25 -213 -182 -348q-180 -154 -491 -154q-289 0 -490 174q-223 190 -223 512z" />
<glyph unicode="&#x2e00;" horiz-adv-x="598" d="M78 879v561q0 27 20.5 45t44.5 18h314q66 0 65 -43q0 -45 -65 -45h-291v-536q0 -63 -43 -64q-45 1 -45 64z" />
<glyph unicode="&#x2e02;" horiz-adv-x="495" d="M78 879v362q0 29 20 47l213 201q23 20 45 20q45 0 45 -43q0 -23 -18 -39l-215 -198v-350q0 -63 -45 -64q-45 1 -45 64z" />
<glyph unicode="&#x2e03;" horiz-adv-x="495" d="M96 1475q0 39 39 38q23 0 49 -24l213 -201q20 -18 21 -47v-362q0 -66 -45 -66q-43 0 -43 66v358l-209 190q-25 23 -25 48z" />
<glyph unicode="&#x2e06;" horiz-adv-x="886" d="M74 1460q0 43 65 43h609q63 0 63 -43t-63 -43h-263v-538q0 -63 -43 -64q-43 0 -43 64v538h-260q-65 0 -65 43z" />
<glyph unicode="&#x2e09;" horiz-adv-x="751" d="M76 907q0 41 53 41q16 0 71.5 -26.5t94.5 -26.5q45 0 71.5 35t26.5 82q0 33 -46 124t-46 154q0 96 71.5 159.5t170.5 63.5q41 0 82 -16q51 -23 51 -59q0 -33 -41 -33q-16 0 -52 11t-55 11q-57 0 -98 -34.5t-41 -92.5q0 -49 46 -144t46 -152q0 -86 -58 -141.5t-144 -55.5 q-47 0 -119 29q-84 34 -84 71z" />
<glyph unicode="&#x2e0a;" horiz-adv-x="751" d="M76 1438q0 -33 41 -33q12 0 51 11t55 11q55 0 97 -34.5t42 -92.5q0 -49 -46 -144t-46 -152q0 -86 57.5 -141.5t145.5 -55.5q70 0 166 53q37 20 37 47q0 41 -53 41q-14 0 -68.5 -26.5t-97.5 -26.5q-39 0 -69 31.5t-30 85.5q0 33 46.5 123t46.5 155q0 96 -71 159.5 t-171 63.5q-49 0 -88 -20q-45 -22 -45 -55z" />
<glyph unicode="&#x2e0b;" horiz-adv-x="806" d="M78 918v522q0 27 19.5 45t45.5 18h521q27 0 46 -18.5t19 -44.5v-522q0 -25 -20.5 -44.5t-44.5 -19.5h-521q-25 0 -45 19.5t-20 44.5zM168 944h473v471h-473v-471z" />
<glyph unicode="&#x2e0c;" horiz-adv-x="864" d="M94 1473q0 39 41 38q25 0 47 -20l584 -508q27 -23 27 -49q0 -41 -41 -41q-25 0 -47 20l-582 508q-29 25 -29 52z" />
<glyph unicode="&#xe000;" horiz-adv-x="1010" d="M0 1010h1010v-1010h-1010v1010z" />
<glyph unicode="&#x1d40c;" horiz-adv-x="1914" d="M59 0v49q80 0 145.5 40t65.5 99v959q0 66 -53 119q-61 59 -158 59v51h471l484 -946l395 946h467v-51q-72 0 -102 -25q-37 -31 -37 -110v-1000q0 -141 164 -141v-49h-656v49q164 0 164 141v908l-467 -1114h-53l-498 977v-773q0 -59 70 -100q63 -39 145 -39v-49h-547z" />
<glyph unicode="&#x1d504;" horiz-adv-x="1480" d="M84 1169l256 222q172 -2 289 -142q111 -133 110 -311q0 -154 -96 -301q-68 -102 -207 -234q23 -14 230 -161l264 235v481q0 178 -101 209v66q193 33 443 158l45 -62q-113 -115 -113 -219v-733q0 -80 78 -80q49 0 72 16l45 -57l-238 -264q-231 0 -231 239v119l-424 -385 l-400 271v53q371 176 371 493q0 135 -82 240q-76 94 -157 94q-57 0 -125 -12z" />
<glyph unicode="&#x1d505;" horiz-adv-x="1507" d="M84 1163l256 221q236 -37 315 -241l293 252q20 2 41 2q131 0 230 -70q106 -76 106 -192q0 -180 -156 -263q121 -41 187.5 -139t66.5 -217q0 -147 -123 -252q-94 -84 -210 -108q-88 -18 -197 -78l-201 -109l-588 322v104q182 70 258 162t76 240q0 137 -71 233 q-66 88 -146 88q-59 0 -108 -20zM426 479l506 -266q96 -2 158 76q51 63 51 135q0 143 -121 217q-98 59 -242 59q-55 0 -160 -22q-71 -113 -192 -199zM662 762l88 14q88 14 174 62q131 72 131 176q0 131 -181 131q-29 0 -77.5 -15.5t-67.5 -33.5l-47 -45q10 -51 10 -127 q1 -80 -30 -162z" />
<glyph unicode="&#x1d50a;" horiz-adv-x="1595" d="M84 608q0 139 70 258q59 98 190 211l342 297h625l18 -65l-164 -181h-497l172 -288l327 221q344 -137 344 -502q0 -229 -196 -403q-211 -182 -522 -183q-344 0 -531 177q-178 167 -178 458zM338 668q0 -123 68 -275q80 -182 208 -262l109 150q31 41 31 84q0 29 -15 53 l-321 577q-80 -139 -80 -327zM715 88q45 -10 86 -10q223 0 342 131q102 117 102 301q0 121 -71.5 209t-151.5 88q-27 0 -47 -12l-82 -45l63 -109q33 -55 33 -102q0 -55 -49 -125z" />
<glyph unicode="&#x1d50e;" horiz-adv-x="1599" d="M84 1108l90 170q39 72 92 72q45 0 97.5 -30t103.5 -30q74 0 143 45l64 41l41 -26v-543h73q86 0 145.5 64.5t61.5 146.5q2 160 49 248q57 104 191 141l258 -190l-23 -52q-215 0 -272 -211q-4 -18 -36 -67t-50 -64q29 -14 76 -108t61 -172q18 -111 43 -160q37 -74 105 -74 q51 0 76 15l43 -50l-351 -282q-205 66 -204 512q0 106 -41 175t-113 69q-55 0 -92 -7v-180q0 -31 -25.5 -67.5t-58.5 -55.5l-164 -94l233 -94q25 -10 48 -10q31 0 73 28l49 -49l-307 -237l-463 186v68l211 92q109 47 109 155l-4 549q0 82 -37 82q-10 0 -63.5 -26.5 t-104.5 -26.5q-66 0 -127 47z" />
<glyph unicode="&#x1d50f;" horiz-adv-x="1253" d="M84 891q0 201 278 356l29 -24q-106 -78 -106 -228q0 -78 112.5 -210t112.5 -199q0 -88 -111 -199q-82 -84 -153 -121l-31 33q4 -10 60.5 54.5t56.5 119.5q0 49 -64 115q-109 106 -121 123q-63 84 -63 180zM137 76l230 192q98 82 200 82q31 0 164 -63.5t174 -63.5 q82 0 139 39l56 37l37 -43q-10 -8 -226 -205q-86 -78 -139 -78q-27 0 -204 81t-206 81q-39 0 -104 -39q-43 -27 -88 -55zM379 1012q0 76 31 121q33 53 133 118q209 139 262 140q25 0 116 -58.5t126 -58.5q37 0 102 35l29 -31q-272 -203 -310 -203q-29 0 -135 74t-141 74 q-29 0 -29 -29q0 -72 70 -145q66 -61 133 -123q70 -80 70 -168q0 -131 -265 -342l-32 33q68 68 67 151q0 68 -113.5 213.5t-113.5 198.5z" />
<glyph unicode="&#x1d510;" horiz-adv-x="2068" d="M84 156v45q315 295 315 524q0 186 -106 303q-76 80 -174 105v49l239 209q133 -86 220 -261l186 140q162 121 207 121q127 0 190 -228l168 125q137 102 168 103q39 0 74 -17l166 -78q39 -18 47 -18q20 0 47 18l55 39l43 -49l-225 -178q-39 -31 -59 -31q-27 0 -82 27 q-121 61 -127 61q-37 20 -66 21q-57 0 -129 -53l-61 -46q6 -49 6 -81v-1006h-258v913q0 100 -44 179t-112 77q-47 0 -113 -49l-57 -43q33 -86 33 -164q0 -281 -311 -589l237 -95q51 -20 86 -20q47 0 101 37l43 -53l-244 -222zM1501 354v381q0 94 66 146l325 254l39 -52 l-110 -92q-55 -45 -56 -176v-491q0 -51 39 -83t90 -32q33 0 58 12l33 -53l-269 -176q-109 18 -162 101t-53 261z" />
<glyph unicode="&#x1d513;" horiz-adv-x="1677" d="M84 981q0 178 90 315q102 154 266 154q193 0 389 -297q129 201 220 201q59 0 192 -146q139 -154 238 -340q117 -219 116 -385q0 -223 -108.5 -365.5t-282.5 -142.5q-90 0 -203 50q-174 74 -186 77v-313q0 -102 -55 -180q-59 -88 -154 -88q-111 0 -180 49v88q29 -8 55 -8 q59 0 99.5 32.5t40.5 88.5v348q-164 -12 -283 -76v90q94 88 283 109l-3 702q0 127 -88 230q-82 94 -168 94q-82 0 -131 -51q-59 -59 -59 -173q0 -80 66 -157l118 -131q66 -84 66 -181q0 -119 -92 -184q-63 -45 -156 -55v59q137 27 137 123q0 43 -63 115q-98 111 -115 135 q-49 74 -49 213zM815 231q68 -10 227 -51q129 -33 191 -33q135 0 184 41t49 142q0 70 -94 270q-98 215 -209 369q-133 184 -219 184q-51 0 -90 -49t-39 -131v-742z" />
<glyph unicode="&#x1d514;" horiz-adv-x="1531" d="M86 694q0 328 209 520q188 176 465 177q49 0 76 -7v-333l325 278q154 -121 219 -262q68 -152 68 -397q0 -190 -86 -347t-232 -249q55 -61 95 -133q59 -109 106 -109q12 0 25 6l16 -26l-160 -142q-123 16 -182 117q-66 109 -78 129q-33 47 -57 66q-49 -8 -113 -9 q-254 0 -456 177q-240 204 -240 544zM332 786q0 -334 121 -522l102 96q18 16 18 60v846q-86 -20 -149 -111q-92 -131 -92 -369zM524 211q70 -20 119 -23q53 -4 115 0q78 6 102 7q96 0 170 -43q86 74 137 190q49 111 50 211q0 168 -67 322.5t-151 154.5q-47 0 -131 -63 l-32 -25v-405q0 -49 -39 -84z" />
<glyph unicode="&#x1d516;" horiz-adv-x="1337" d="M98 68l168 180h479q367 0 363 186q-2 57 -70 96q-57 31 -114 31q-59 0 -197 -2q-156 -2 -233 -2q-115 0 -202 85t-87 181q0 111 69 215q55 80 234 260q92 92 135 93q31 0 215 -51.5t213 -51.5q55 0 90 23l31 -31l-197 -225q-12 -14 -65 -15q-23 0 -210.5 54.5 t-219.5 54.5q-33 0 -90.5 -53.5t-57.5 -100.5q0 -176 228 -176h364q115 0 199 -51q111 -66 110 -201q0 -160 -170 -329l-237 -238h-725z" />
<glyph unicode="&#x1d517;" horiz-adv-x="1406" d="M94 575q0 305 309 551h-59q-39 0 -62.5 -13t-72.5 -64l-74 41l256 284h877l24 -65l-168 -181h-571q-170 -156 -201 -198q-66 -92 -65 -246q0 -236 162 -356l102 71q47 33 47 115v363q0 63 18.5 90.5t69.5 50.5l236 106v-61q-63 -27 -64 -82v-430q0 -59 -57 -98l-264 -177 q111 -49 264 -49q156 0 241 35q59 23 156 98l125 -63l-178 -285q-201 -39 -322 -39q-375 0 -575 224q-154 171 -154 378z" />
<glyph unicode="&#x1d519;" horiz-adv-x="1472" d="M90 1200l213 191q233 6 258 -299l352 299q178 0 318 -142q158 -160 158 -420q0 -135 -89 -280q-78 -127 -202 -234l-410 -346l-590 236v67q117 86 150 156q29 59 28 199v415q0 113 -96 113q-25 0 -61 -20zM346 406l479 -207q174 154 230 254q63 113 63 297 q0 166 -125 278q-100 92 -192 92q-68 0 -101 -24l-135 -101l2 -333q0 -53 -49 -99z" />
<glyph unicode="&#x1d52d;" horiz-adv-x="962" d="M57 129v78q61 16 129 24v457q0 164 -65 164q-14 0 -41 -25l-23 33l197 150q80 -59 104.5 -99.5t26.5 -130.5l252 230l88 -72q70 -57 88 -100t18 -140v-516q-164 -78 -284 -207q-63 47 -162 86q0 -166 18 -223q18 -63 93 -112l-13 -27q-176 59 -229 143q-55 -63 -133 -86 l-12 21q51 51 67 104q10 37 10 121v115q-70 12 -129 12zM385 229q150 -25 250 -73v551q0 51 -25 71l-92 76l-133 -123v-502z" />
<glyph horiz-adv-x="1480" d="M84 1092l256 219q174 -2 286.5 -118t112.5 -290q0 -152 -96 -282q-49 -70 -207 -218q23 -14 230 -161l264 235v428q0 174 -101 211v64q201 37 443 157l45 -61q-113 -113 -113 -219v-680q0 -80 78 -80q49 0 72 16l45 -57l-238 -264q-231 0 -231 239v119l-424 -385 l-400 271v53q207 98 293 207q78 102 78 252q0 133 -82 217q-72 72 -157 71q-57 0 -125 -10zM424 1434q0 45 43 77.5t102 32.5t101.5 -31.5t42.5 -78.5q0 -45 -42 -77t-102 -32q-59 0 -102 32t-43 77zM829 1434q0 47 42 78.5t102 31.5q59 0 102 -32.5t43 -77.5t-43 -77 t-102 -32t-101.5 32t-42.5 77z" />
<glyph horiz-adv-x="784" d="M35 649l282 694l-41 134q-35 111 -110 110q-37 0 -63.5 -26.5t-26.5 -57.5h-31q0 84 39 135q37 45 86 45q55 0 87 -32.5t58 -120.5l209 -690q31 -98 113 -99q31 0 52.5 30t21.5 65h30q0 -94 -31.5 -148.5t-76.5 -54.5q-100 0 -148 153l-110 363l-203 -500h-137z" />
<glyph horiz-adv-x="858" d="M94 520v834h123v-514q0 -57 34 -106.5t79 -49.5q84 0 145 127q49 104 49 197v346h123v-529q0 -141 76 -141q29 0 54.5 47t25.5 109h26q0 -86 -32 -144q-35 -63 -99 -63q-154 0 -159 254q-20 -104 -74 -172q-61 -82 -148 -82q-137 0 -186 145q0 -104 41 -220t41 -148 q0 -49 -53 -50q-66 0 -66 160z" />
<glyph horiz-adv-x="913" d="M20 829h27q0 -92 66 -92q137 0 137 297v230h-64q-102 0 -129 -80h-28q0 59 39 108q49 61 133 62h549q59 0 71 35h31q0 -125 -115 -125h-96v-424q0 -150 76 -150q39 0 68.5 44t29.5 128h29q0 -111 -45 -170t-117 -59q-164 0 -164 182v449h-231v-373q0 -258 -160 -258 q-107 -1 -107 196z" />
<glyph horiz-adv-x="821" d="M61 520v484q0 147 105.5 256.5t257.5 109.5t255 -109.5t103 -261.5q0 -147 -104.5 -256.5t-255.5 -109.5q-193 0 -291 162q0 -154 35 -245t35 -122q0 -68 -68 -68q-39 0 -53 19q-19 28 -19 141zM190 1049q0 -147 60 -254q70 -125 192 -125q106 0 164 96q51 84 51 209 q0 137 -65 244q-74 117 -189 116q-111 0 -167 -92q-46 -75 -46 -194z" />
<glyph horiz-adv-x="751" d="M-119 522l862 1096h142l-860 -1096h-144z" />
<glyph horiz-adv-x="817" d="M160 756q0 51 34.5 83.5t86.5 32.5q55 0 87.5 -35.5t32.5 -80.5t-32.5 -80t-85.5 -35q-51 0 -87 33t-36 82zM168 1448q0 72 78 123q88 59 231 59q133 0 213 -59.5t80 -163.5q0 -246 -381 -354l-24 -131h-111l37 204q272 80 272 279q0 63 -41 96t-104 33h-15l-98 -160h-39 q-98 0 -98 74z" />
<glyph horiz-adv-x="970" d="M78 1040q0 240 178 415t440 175q129 0 301 -51l-47 -248h-112q0 -8 4 66q2 49 -4 76q-6 37 -25 40q-39 16 -86 17q-182 0 -304 -138.5t-122 -353.5q0 -150 76 -229.5t211 -79.5q51 0 78 10q23 2 32 27l70 174h115l-52 -256q-6 -6 -98 -27q-117 -27 -211 -26 q-215 0 -336 125q-108 110 -108 284z" />
<glyph horiz-adv-x="821" d="M-18 649v82l102 8q16 2 16 17l156 749q4 18 -23 21l-90 6v80h750l-53 -250h-107l-4 137q0 20 -14 21h-254l-72 -342h172q25 0 62 122h100l-70 -346h-98l4 86q2 43 -14 43h-172l-68 -327q0 -14 14 -17l107 -8l-8 -82h-436z" />
<glyph horiz-adv-x="1099" d="M70 1028q0 246 164.5 424t412.5 178q186 0 305 -107.5t119 -279.5q0 -379 -326 -551q39 -76 76 -112q47 -49 115 -50q68 0 160 33v-78q-166 -70 -271 -69q-186 0 -286 217h-19q-18 -2 -31 -2q-168 0 -288 104q-131 111 -131 293zM297 1038q0 -129 57 -211q63 -88 172 -88 q139 0 234 166q82 147 82 320q0 129 -57.5 214t-161.5 85q-141 0 -240 -170q-86 -150 -86 -316z" />
<glyph horiz-adv-x="798" d="M12 717l43 237h113l-2 -172q8 -12 18 -14q47 -23 125 -23q80 0 137 41q66 43 66 119t-123 146q-168 94 -178 102q-96 72 -96 170q0 143 116 227q109 80 279 80q78 0 170 -20.5t80 -20.5l-41 -252h-105l4 156q0 10 -12 20q-35 20 -98 21q-92 0 -147.5 -46t-55.5 -106 q0 -41 39 -74.5t145 -95.5q127 -72 170 -116q55 -57 56 -138q0 -117 -94 -206q-113 -111 -314 -111q-104 0 -209 37q-72 25 -86 39z" />
<glyph horiz-adv-x="954" d="M-76 649v82q33 0 64 2q25 0 43 21l358 372l-184 383q0 10 -8 15l-101 10v78h428v-78l-90 -8q-25 -2 -18 -21l114 -243l230 243q8 8 8 15q0 10 -34 12t-62 2v78h356v-78l-102 -10l-346 -359l196 -409q0 -10 10 -17l101 -8v-82h-434v82l98 6q12 0 18 15l-127 270l-258 -272 q4 -6 11 -13l98 -6v-82h-369z" />
<glyph horiz-adv-x="929" d="M70 1532v80h428v-80l-97 -8q-20 -2 -16 -15l125 -352l272 352q2 10 -12 13l-98 10v80h366v-78l-98 -12q-2 0 -16 -15l-6 -6l-363 -457l-59 -290q0 -10 12 -15l108 -8v-82h-444v82l107 8q18 2 18 17l55 272l-170 481q-2 6 -10 15z" />
<glyph horiz-adv-x="837" d="M-55 649l6 80l651 787h-305q-31 0 -57 -82q-20 -63 -21 -86h-123l56 264h712l-6 -78l-653 -789h340q41 0 63 84q12 55 27 111h119l-58 -291h-751z" />
<glyph horiz-adv-x="684" d="M74 461l231 1204h418l-18 -92h-230l-196 -1022h231l-16 -90h-420z" />
<glyph horiz-adv-x="684" d="M-39 461l16 90h232l197 1024h-232l19 90h417l-231 -1204h-418z" />
<glyph horiz-adv-x="428" d="M33 750q0 49 33.5 81.5t85.5 32.5q51 0 86 -37q29 -33 28 -75q0 -43 -31.5 -77t-82.5 -34t-85 31t-34 78z" />
<glyph horiz-adv-x="382" d="M-72 451q152 78 174 186q2 6 4 18h-83q-20 35 -21 62q0 49 39 84t90 35q113 0 113 -115q0 -125 -121 -225q-78 -66 -164 -97z" />
<glyph horiz-adv-x="774" d="M82 1470l117 43l168 -114l-11 -29l-204 2zM197 1251l165 115l25 -20l-65 -181l-123 -32zM307 1589l80 94l80 -94l-64 -182h-34zM383 1348l27 18l165 -115l-4 -118l-122 32zM406 1399l165 114l121 -43l-71 -98l-203 -2z" />
<glyph horiz-adv-x="872" d="M39 893q0 188 115 324q123 145 317 145q80 0 168 -33l66 33h90l-174 -934l137 -22v-68h-439v68l99 18q10 0 12 16l53 291q-119 -92 -221 -92q-92 0 -151 57q-72 68 -72 197zM236 922q0 -158 122 -158q72 0 146 57l65 373q2 14 -26.5 51t-42.5 37q-119 0 -195 -113 q-69 -104 -69 -247z" />
<glyph horiz-adv-x="1536" d="M-14 924l28 141h1536l-28 -141h-1536z" />
</font>
</defs>
</svg>
