<?xml version="1.0" standalone="no"?>
<!DOCTYPE svg PUBLIC "-//W3C//DTD SVG 1.1//EN" "http://www.w3.org/Graphics/SVG/1.1/DTD/svg11.dtd" >
<svg xmlns="http://www.w3.org/2000/svg">
<metadata>
This is a custom SVG webfont generated by Font Squirrel.
Copyright   : Copyright 2009 Will Longaphie
Designer    : Will Longaphie
</metadata>
<defs>
<font id="MimicRegular" horiz-adv-x="487" >
<font-face units-per-em="2048" ascent="1638" descent="-410" />
<missing-glyph horiz-adv-x="614" />
<glyph unicode=" "  horiz-adv-x="614" />
<glyph unicode="&#x09;" horiz-adv-x="614" />
<glyph unicode="&#xa0;" horiz-adv-x="614" />
<glyph unicode="!" horiz-adv-x="540" d="M174 84q0 49 40 87t91 38q49 0 84 -33t35 -82t-40 -87t-91 -38q-49 0 -84 33t-35 82zM242 332v1075l157 25l-34 -1100h-123z" />
<glyph unicode="&#x22;" horiz-adv-x="708" d="M158 1450h100l-16 -451h-68zM440 1450h101q-8 -14 -17 -451h-67z" />
<glyph unicode="#" horiz-adv-x="1138" d="M125 436l20 135h164l39 312h-145l20 135h142l51 403h123l-52 -403h236l45 364h123l-45 -364h174l-12 -135h-181l-39 -312h154l-12 -135h-158l-53 -418h-123l53 418h-235l-47 -379h-123l47 379h-166zM432 571h234l39 312h-234z" />
<glyph unicode="$" horiz-adv-x="911" d="M127 983q0 147 86 236.5t233 99.5v113h93v-115q150 -18 249 -98l-55 -111q-86 59 -194 78v-467q162 -104 211 -156q88 -96 88 -244q0 -133 -82 -227t-217 -117v-125h-93v119q-162 2 -309 88l47 123q152 -76 262 -82v484q-172 111 -219 157q-100 101 -100 244zM287 997 q0 -76 47 -133q23 -29 112 -88v412q-159 -25 -159 -191zM539 113q141 47 141 209q0 111 -141 202v-411z" />
<glyph unicode="%" horiz-adv-x="1431" d="M94 1048.5q0 112.5 80 192.5t193 80q80 0 145 -41q86 -23 143 -23q119 0 228 62l104 -29l-455 -1290h-135l432 1196q-70 -39 -213 -39q23 -49 23 -108q0 -113 -80 -193t-192.5 -80t-192.5 80t-80 192.5zM215 1048.5q0 -63.5 44 -107.5t107.5 -44t107.5 44t44 107.5 t-44 107.5t-107.5 44t-107.5 -44t-44 -107.5zM788 241.5q0 112.5 80 192.5t193 80t192.5 -80t79.5 -192.5t-79.5 -192.5t-192.5 -80t-193 80t-80 192.5zM909 241.5q0 -63.5 44 -107.5t107.5 -44t107.5 44t44 107.5t-44 107.5t-107.5 44t-107.5 -44t-44 -107.5z" />
<glyph unicode="&#x26;" horiz-adv-x="911" d="M51 375q0 133 72 220t196 95q-80 20 -139 105q-57 82 -57 170q0 219 192 295q78 31 203 30h244v-127h-242q-233 0 -233 -196q0 -102 64.5 -162t168.5 -60h107v-133h-99q-150 0 -221 -41q-92 -55 -92 -194q0 -135 88 -205q78 -66 215 -66q104 0 193 27v320h125v-435 q-193 -51 -322 -51q-199 0 -326 103q-137 110 -137 305z" />
<glyph unicode="'" horiz-adv-x="425" d="M158 1450h100l-16 -451h-68z" />
<glyph unicode="(" horiz-adv-x="688" d="M96 680q0 270 140 518q141 248 374 391l17 -116q-190 -125 -301 -345q-109 -221 -109 -452q0 -520 412 -848l-15 -127q-262 201 -387 424q-131 238 -131 555z" />
<glyph unicode=")" horiz-adv-x="694" d="M63 -172q414 328 414 848q0 233 -110 452q-111 219 -301 345l16 116q233 -145 373 -391q141 -246 141 -518q0 -317 -131 -555q-125 -223 -387 -424z" />
<glyph unicode="*" horiz-adv-x="868" d="M72 1128v132l307 -146l-14 266h133l-25 -266l305 141v-127l-268 -120l217 -299h-143l-158 217l-156 -217h-133l201 299z" />
<glyph unicode="+" horiz-adv-x="964" d="M92 451v122h330v355h119v-355h331v-122h-331v-355h-119v355h-330z" />
<glyph unicode="," horiz-adv-x="495" d="M59 -229l129 372l181 -47l-217 -389z" />
<glyph unicode="." horiz-adv-x="528" d="M147 84q0 49 40 87t92 38q49 0 83.5 -33t34.5 -82t-40 -87t-91 -38q-49 0 -84 33t-35 82z" />
<glyph unicode="/" horiz-adv-x="729" d="M35 -303l530 1853h129l-530 -1853h-129z" />
<glyph unicode="0" horiz-adv-x="1069" d="M111 637q0 268 104 448q123 215 346 215t346 -215q102 -182 103 -448q0 -270 -103 -451q-121 -215 -346 -215q-223 0 -346 215q-104 185 -104 451zM279 637q0 -205 59 -358q78 -195 229 -195q150 0 228 195q59 154 59 358q0 207 -59 360q-78 195 -228 195 q-152 0 -229 -195q-59 -153 -59 -360z" />
<glyph unicode="1" horiz-adv-x="741" d="M176 1100v98q8 2 51 16q66 25 144 74h164v-1290h-177v1143z" />
<glyph unicode="2" horiz-adv-x="915" d="M90 -2q154 250 514 827q63 100 64 176q0 135 -172 136q-63 0 -164 -58q-82 -47 -146 -104l-94 106q33 29 74 60q188 139 330 139q139 0 227 -76t88 -203q0 -104 -88 -256q-195 -338 -354 -604h426v-143h-705z" />
<glyph unicode="3" horiz-adv-x="790" d="M84 -4v110q51 0 135 19q334 76 334 340q0 180 -268 180q-55 0 -162 -12v110l84 13q121 63 239 159q84 68 84 142q0 47 -35.5 76.5t-86.5 29.5q-96 0 -279 -108l-33 102q190 123 344 123q102 0 168 -60.5t66 -158.5q0 -100 -88 -182q-51 -49 -176 -119q119 0 202 -74 q84 -72 84 -190q0 -244 -186 -381q-164 -119 -418 -119h-8z" />
<glyph unicode="4" horiz-adv-x="872" d="M47 283v133l502 870h168v-870h131v-133h-135v-283h-146v283h-520zM199 416h368v680z" />
<glyph unicode="5" horiz-adv-x="892" d="M94 119q203 41 363 135q213 127 213 289q0 197 -308 196q-63 0 -194 -18l68 565h509v-143h-380l-39 -262l36 2q180 8 310 -70q139 -86 139 -270q0 -297 -399 -469q-180 -80 -297 -97z" />
<glyph unicode="6" horiz-adv-x="921" d="M61 379q0 252 172 522q162 250 388 397l86 -98q-139 -92 -256 -223q-127 -139 -189 -279q117 123 309 123q141 0 228 -94q88 -94 88 -238q0 -186 -135 -344q-141 -160 -326 -159q-166 0 -268 114q-97 109 -97 279zM197 344q0 -102 59 -171t156 -69q135 0 235 119 q96 115 96 250q0 102 -59 171t-156 69q-131 0 -233 -117q-98 -117 -98 -252z" />
<glyph unicode="7" horiz-adv-x="856" d="M90 55l504 1106h-500v125h641v-125l-516 -1161z" />
<glyph unicode="8" horiz-adv-x="921" d="M84 317q0 119 70 215q66 90 174 142q-104 63 -150 121q-57 76 -57 180q0 143 104 231q96 84 244 84q322 0 322 -307q0 -98 -74 -180q-68 -74 -162 -115q147 -78 203 -127q86 -82 86 -215q0 -174 -111 -276q-109 -100 -287 -101q-150 0 -256 100.5t-106 247.5zM238 340 q0 -102 63.5 -178t163.5 -76q98 0 161.5 76t63.5 176q0 109 -84 176l-176 104q-192 -100 -192 -278zM266 967q0 -139 172 -226q111 57 148 90q61 57 61 160q0 188 -194 189q-82 0 -134.5 -62.5t-52.5 -150.5z" />
<glyph unicode="9" horiz-adv-x="921" d="M33 782q0 195 139 357q143 168 338 168q170 0 278 -121q100 -113 101 -287q0 -264 -180 -543q-166 -260 -402 -413l-88 104q266 170 418 465q-137 -74 -277 -74q-147 0 -237 96t-90 248zM182 799q0 -102 56 -170q57 -76 159 -76q141 0 250 133q102 127 103 268 q0 102 -56 170q-57 76 -159 76q-141 0 -250 -133q-103 -127 -103 -268z" />
<glyph unicode=":" horiz-adv-x="528" d="M147 84q0 49 40 87t92 38q49 0 83.5 -33t34.5 -82t-40 -87t-91 -38q-49 0 -84 33t-35 82zM147 713q0 49 40 87t92 38q49 0 83.5 -33t34.5 -82t-40 -87t-91 -38q-49 0 -84 33t-35 82z" />
<glyph unicode=";" horiz-adv-x="491" d="M53 -229l129 372l180 -47l-217 -389zM147 709q0 51 40 89t92 38q49 0 83.5 -33t34.5 -82q0 -51 -40 -89t-91 -38q-49 0 -84 33t-35 82z" />
<glyph unicode="&#x3c;" horiz-adv-x="614" d="M68 512l378 385l97 -78l-305 -307l309 -307l-96 -78z" />
<glyph unicode="=" horiz-adv-x="983" d="M90 293v123h782v-123h-782zM90 598v123h782v-123h-782z" />
<glyph unicode="&#x3e;" horiz-adv-x="614" d="M68 205l309 307l-305 307l96 78l379 -385l-383 -385z" />
<glyph unicode="?" horiz-adv-x="733" d="M147 84q0 49 40 87t92 38q49 0 83.5 -33t34.5 -82t-40 -87t-91 -38q-49 0 -84 33t-35 82zM160 1264q-4 104 0 116q131 37 260 37q123 0 191.5 -63.5t68.5 -184.5q0 -98 -100 -229l-164 -217q-80 -109 -80 -287v-104h-125v104q0 131 8 180q14 88 70 162l168 226 q70 94 69 161q0 127 -118 127q-47 1 -248 -28z" />
<glyph unicode="@" horiz-adv-x="1454" d="M63 721q0 311 207 536q205 223 502 224q291 0 465 -211q172 -205 170 -520q-2 -276 -277 -455q-49 -31 -98 -31q-68 0 -108.5 42t-40.5 112q-18 -72 -85 -115t-149 -43q-100 0 -157.5 64.5t-59.5 173.5q0 96 49 157q45 57 230 109q170 49 170 67v111q0 125 -131 125 q-121 0 -230 -127l-47 84q51 68 131 111t158 43q248 0 248 -236v-539q0 -51 55 -51q18 0 33 10l2 -2q195 121 194 375q0 240 -145 414q-152 182 -377 182q-233 0 -399 -178t-166 -432t168 -440.5t401 -186.5q305 0 479 197l70 -60q-100 -121 -254 -196q-154 -72 -295 -72h-4 q-297 0 -502 221q-207 226 -207 537zM559 504q0 -59 31 -98t84 -39q90 0 151 100q55 90 56 186v95q0 -14 -129 -62q-139 -49 -170 -92q-23 -33 -23 -90z" />
<glyph unicode="A" horiz-adv-x="1044" d="M25 0l409 1290h176l410 -1290h-168l-137 416h-385l-137 -416h-168zM369 551h307l-154 569z" />
<glyph unicode="B" horiz-adv-x="1028" d="M164 20v1270h317q125 0 203 -30q190 -76 190 -295q0 -88 -57 -170q-59 -84 -137 -105q129 -10 199 -98q68 -86 67 -217q0 -195 -135 -303q-127 -102 -326 -103q-128 0 -321 51zM328 135q88 -27 153 -26q139 0 220 68.5t81 199.5q0 143 -92 194q-72 41 -219 41h-143v-477z M328 745h151q104 0 169 59.5t65 162.5q0 197 -234 196h-151v-418z" />
<glyph unicode="C" horiz-adv-x="1017" d="M113 645q0 262 118 451q139 225 383 225q195 0 332 -88l-59 -107q-121 66 -273 66q-166 0 -260 -205q-78 -168 -78 -350q0 -203 70 -348q92 -186 272 -187q164 0 279 84l70 -102q-145 -115 -357 -115q-256 0 -389 219q-108 183 -108 457z" />
<glyph unicode="D" horiz-adv-x="1079" d="M164 0v1290h373q254 0 374 -207q96 -168 97 -440q0 -266 -109 -440q-129 -203 -383 -203h-352zM326 131h190q326 0 326 508q0 520 -314 520h-202v-1028z" />
<glyph unicode="E" horiz-adv-x="929" d="M164 0v1290h663v-137h-499v-410h383v-141h-383v-461h520v-141h-684z" />
<glyph unicode="F" horiz-adv-x="843" d="M164 0v1290h606v-135h-442v-412h350v-141h-350v-602h-164z" />
<glyph unicode="G" horiz-adv-x="1073" d="M113 645q0 262 118 451q139 225 383 225q160 0 334 -88l-63 -109q-113 70 -271 70q-160 0 -258 -197q-80 -162 -80 -360q0 -207 68 -348q90 -188 274 -189q106 0 181 29v422h151v-528q-131 -53 -336 -54q-258 0 -391 219q-110 181 -110 457z" />
<glyph unicode="H" horiz-adv-x="1122" d="M164 0v1290h164v-547h467v547h163v-1290h-163v604h-467v-604h-164z" />
<glyph unicode="I" d="M164 0v1290h160v-1290h-160z" />
<glyph unicode="J" horiz-adv-x="501" d="M47 -211q131 39 131 166v1335h160v-1347q0 -207 -291 -277v123z" />
<glyph unicode="K" horiz-adv-x="993" d="M164 0v1290h164v-590l450 590h174l-495 -663q287 -319 409 -467q100 -123 113 -150q0 -8 -2 -10h-207l-442 539v-539h-164z" />
<glyph unicode="L" horiz-adv-x="782" d="M164 0v1290h155v-1155h445v-135h-600z" />
<glyph unicode="M" horiz-adv-x="1519" d="M164 0v1290h217l379 -1089l379 1089h217v-1290h-164v877q0 51 10 178l-371 -1055h-143l-371 1057q10 -123 11 -176v-881h-164z" />
<glyph unicode="N" horiz-adv-x="1134" d="M164 0v1290h217l436 -987q-10 109 -10 180v807h164v-1290h-168l-486 1053q10 -106 11 -176v-877h-164z" />
<glyph unicode="O" horiz-adv-x="1122" d="M113 645q0 252 98 440q123 236 350 236t350 -236q98 -188 98.5 -440t-98.5 -440q-123 -236 -350 -236t-350 236q-98 188 -98 440zM276 645q0 -172 60 -332q80 -209 225.5 -209t224.5 209q59 160 59.5 332t-59.5 332q-80 209 -225 209t-225 -209q-60 -160 -60 -332z" />
<glyph unicode="P" horiz-adv-x="1001" d="M164 0v1290h278q209 0 336 -92q143 -104 144 -305q0 -190 -115 -311t-303 -121q-98 0 -176 41v-502h-164zM328 637q98 -43 166 -43q121 0 194 92q70 84 70 209q0 133 -94 203q-82 61 -222 61h-114v-522z" />
<glyph unicode="Q" horiz-adv-x="1122" d="M113 645q0 252 98 440q123 236 350 236t350 -236q98 -188 99 -440q0 -205 -72 -383q-90 -215 -252 -272q129 -137 262 -137q25 0 31 2v-150q-45 -4 -49 -4q-111 0 -219 84l-160 152l-37 34q-203 25 -313 254q-88 187 -88 420zM276 645q0 -172 60 -332q80 -209 225.5 -209 t224.5 209q59 160 59.5 332t-59.5 332q-80 209 -225 209t-225 -209q-60 -160 -60 -332z" />
<glyph unicode="R" horiz-adv-x="1034" d="M164 0v1290h278q209 0 336 -92q143 -104 144 -305q0 -162 -85 -276.5t-235 -145.5l381 -471h-190l-394 471q-35 10 -71 31v-502h-164zM328 637q94 -43 151 -43q127 0 203 84t76 217t-94 203q-82 61 -222 61h-114v-522z" />
<glyph unicode="S" horiz-adv-x="888" d="M92 983q0 164 101 252q94 86 258 86q88 0 174 -42t129 -110l-92 -77q-76 98 -211 98q-88 0 -143.5 -49t-55.5 -133q0 -129 143 -222l267 -172q143 -119 143 -295q0 -160 -111 -253q-113 -96 -270 -97q-162 0 -307 121l69 117q127 -106 240 -107q96 0 158.5 62.5 t62.5 159.5q0 111 -143 204l-268 174q-144 119 -144 283z" />
<glyph unicode="T" horiz-adv-x="829" d="M20 1147v143h789v-143h-315v-1147h-160v1147h-314z" />
<glyph unicode="U" horiz-adv-x="1142" d="M162 502v788h164v-790q0 -395 245.5 -395.5t245.5 397.5v788h164v-796q0 -223 -90 -363q-106 -162 -320 -162q-211 0 -319 164q-90 140 -90 369z" />
<glyph unicode="V" horiz-adv-x="1044" d="M12 1290h178l336 -1093l338 1093h170l-422 -1290h-180z" />
<glyph unicode="W" horiz-adv-x="1449" d="M20 1290h175l198 -913q12 -57 17 -135l235 1048h164l235 -1048q0 66 17 135l207 913h166l-304 -1290h-174l-229 1042l-229 -1042h-174z" />
<glyph unicode="X" horiz-adv-x="1007" d="M20 0l383 662l-372 628h178l285 -473l274 473h168l-354 -620l401 -670h-188l-303 512l-293 -512h-179z" />
<glyph unicode="Y" horiz-adv-x="964" d="M27 1290h174l286 -643l289 643h164l-377 -817v-473h-162v473z" />
<glyph unicode="Z" horiz-adv-x="937" d="M74 0v139l557 1010h-512v141h702v-141l-567 -1006h623v-143h-803z" />
<glyph unicode="[" horiz-adv-x="507" d="M57 -319v1818h318v-119h-191v-1581h191v-118h-318z" />
<glyph unicode="\" horiz-adv-x="686" d="M25 1550h127l530 -1853h-127z" />
<glyph unicode="]" horiz-adv-x="509" d="M135 -201h191v1581h-191v119h318v-1818h-318v118z" />
<glyph unicode="^" horiz-adv-x="1277" d="M145 655q233 412 435 795h114l434 -795h-143l-348 629l-348 -629h-144z" />
<glyph unicode="_" horiz-adv-x="921" d="M0 -154h922v-122h-922v122z" />
<glyph unicode="`" horiz-adv-x="692" d="M92 1411l127 129l316 -299l-66 -92z" />
<glyph unicode="a" horiz-adv-x="849" d="M63 264q0 106 58 182q53 66 276 127q205 55 205 78v129q0 145 -158 146q-145 0 -276 -148l-55 96q61 80 157.5 129.5t188.5 49.5q139 0 217 -66q82 -70 82 -207v-780h-154v172q-25 -84 -108 -137q-78 -47 -172 -47q-121 0 -190 74.5t-71 201.5zM215 270q0 -68 39 -113.5 t100 -45.5q109 0 183 116q66 106 65 217v109q0 -16 -153 -68q-172 -59 -207 -108q-27 -35 -27 -107z" />
<glyph unicode="b" horiz-adv-x="1030" d="M168 92v1329h156v-493q94 106 249 106q174 0 273 -157q84 -131 84 -318q0 -250 -90 -401q-111 -188 -344 -189q-164 0 -328 123zM324 178q74 -84 202 -84q133 0 199 164q45 115 45 279q0 369 -219 368q-129 0 -227 -112v-615z" />
<glyph unicode="c" horiz-adv-x="843" d="M100 492q0 209 95 360q115 182 307 182q154 0 262 -102l-70 -92q-88 72 -190 71q-125 0 -193 -143q-55 -113 -55 -256q0 -152 55 -268q72 -152 205 -152q86 0 225 90l52 -96q-135 -117 -289 -117q-197 0 -307 170q-97 146 -97 353z" />
<glyph unicode="d" horiz-adv-x="1048" d="M102 444q0 254 91 406q106 184 339 184q90 0 197 -30v417h156v-1421h-148v150q-20 -84 -106 -136q-76 -45 -170 -45q-170 0 -273 158q-86 135 -86 317zM262 467q0 -133 45 -236q61 -139 174 -139q117 0 187 131q61 111 61 236v413q-90 37 -184 37q-283 0 -283 -442z" />
<glyph unicode="e" horiz-adv-x="964" d="M100 528q0 197 113 346q123 160 313 160q145 0 246 -119q94 -113 102 -260q0 -10 1.5 -25.5t2.5 -38t1 -40.5h-619v-39q0 -147 51 -264q68 -156 193 -156q98 0 284 127l50 -98q-176 -152 -351 -152q-199 0 -303 191q-84 151 -84 368zM279 668h436q0 94 -56 168 q-55 76 -147 75q-90 0 -156 -80q-54 -63 -77 -163z" />
<glyph unicode="f" horiz-adv-x="585" d="M51 903v101h135v159q0 242 351 285l28 -121q-51 0 -114 -29q-109 -53 -109 -161v-133h199v-119h-199v-885h-156v885z" />
<glyph unicode="g" horiz-adv-x="931" d="M82 -170q0 88 61 152q43 43 140 92q-57 6 -96.5 43t-39.5 86q0 72 62 116q43 33 123 64q-98 35 -157.5 121t-59.5 190q0 150 96 246q94 94 248 94q90 0 149 -30h277v-123h-146q47 -84 47 -192.5t-69.5 -195.5t-179.5 -120q-229 -70 -230 -144q0 -72 254 -71h70 q102 0 169.5 -57.5t67.5 -151.5q0 -166 -145 -268q-131 -90 -301 -91q-139 0 -227 50q-113 63 -113 190zM233 -139q0 -158 197 -158q102 0 191 61q96 68 96 166q0 119 -197 119h-121q-166 -92 -166 -188zM264 700q0 -86 49 -153q51 -74 137.5 -74t137.5 74q49 68 49 153.5 t-51 155.5q-53 72 -135 72t-136 -72q-51 -70 -51 -156z" />
<glyph unicode="h" horiz-adv-x="1062" d="M168 0v1421h156v-491q49 35 147 71q98 33 178 33q145 0 205 -78q45 -59 45 -194v-762h-156v762q0 76 -20 104q-29 41 -100 41q-78 0 -172 -37q-84 -31 -127 -67v-803h-156z" />
<glyph unicode="i" d="M123 1284q0 47 33.5 78t83.5 31q45 0 78.5 -31t33.5 -74q0 -47 -33.5 -77.5t-82.5 -30.5q-45 0 -79 30.5t-34 73.5zM168 0v1004h151v-1004h-151z" />
<glyph unicode="j" d="M37 -266q131 61 131 162v1108h151v-1123q0 -195 -282 -274v127zM123 1284q0 47 33.5 78t83.5 31q45 0 78.5 -31t33.5 -74q0 -47 -33.5 -77.5t-82.5 -30.5q-45 0 -79 30.5t-34 73.5z" />
<glyph unicode="k" horiz-adv-x="964" d="M168 0v1421h156v-837l362 420h184l-368 -433l454 -571h-186l-446 559v-559h-156z" />
<glyph unicode="l" horiz-adv-x="483" d="M158 2v1421h149v-1421h-149z" />
<glyph unicode="m" horiz-adv-x="1579" d="M168 0v1004h156v-74q143 104 276 104q182 0 238 -106q51 43 145 73q92 33 162 33q270 0 270 -272v-762h-155v762q0 145 -130 145q-147 0 -262 -92q2 -12 2 -53v-762h-155v762q0 145 -129 145q-131 0 -262 -104v-803h-156z" />
<glyph unicode="n" horiz-adv-x="1062" d="M168 0v1004h156v-74q49 35 147 71q98 33 178 33q145 0 205 -78q45 -59 45 -194v-762h-156v762q0 76 -20 104q-29 41 -100 41q-78 0 -174 -37q-86 -35 -125 -67v-803h-156z" />
<glyph unicode="o" horiz-adv-x="999" d="M100 500q0 201 97 356q115 178 303 178t303 -178q96 -156 96 -356q0 -205 -96 -355q-111 -176 -303.5 -176t-302.5 176q-97 150 -97 355zM256 500q0 -141 57 -262q72 -145 186.5 -145.5t186.5 145.5q57 121 57 262q0 143 -57 264q-72 147 -186.5 147t-186.5 -147 q-57 -121 -57 -264z" />
<glyph unicode="p" horiz-adv-x="1056" d="M172 -360v1364h156v-76q115 106 270 106q174 0 272 -157q84 -131 84 -318q0 -236 -69 -383q-96 -207 -299 -207q-186 0 -258 158v-487h-156zM328 498q0 -152 47 -262q63 -143 200 -144q127 0 183 170q37 111 37 275q0 150 -39 241q-55 133 -181 133q-127 0 -247 -118 v-295z" />
<glyph unicode="q" horiz-adv-x="1056" d="M102 481q0 213 95 369q111 184 309 184q154 0 381 -63v-1331h-156v487q-74 -158 -258 -158q-186 0 -289 170q-82 137 -82 342zM264 537q0 -442 217 -443q51 0 99 29q152 92 151 375v376q-80 33 -190 33q-135 0 -213 -121q-64 -102 -64 -249z" />
<glyph unicode="r" horiz-adv-x="653" d="M168 0v1004h158v-80q59 59 77 71q57 39 140 39q51 0 100 -30l-55 -140q-35 27 -92 27q-63 0 -172 -109v-782h-156z" />
<glyph unicode="s" horiz-adv-x="860" d="M96 768q0 131 109 205q94 61 231 61q207 0 309 -139l-81 -82q-100 100 -232 100q-72 0 -123 -32q-59 -37 -59 -105q0 -80 141 -149l189 -92q184 -88 184 -275q0 -143 -109 -221q-96 -70 -245 -70q-162 0 -293 119l57 111q143 -109 244 -109q82 0 135 35q61 39 61 119 q0 92 -127 157l-213 107q-178 90 -178 260z" />
<glyph unicode="t" horiz-adv-x="626" d="M51 903v101h144v178h143v-178h203v-119h-199v-678q0 -113 80 -113q45 0 119 29l34 -96q-96 -57 -208 -58q-180 0 -181 230v686z" />
<glyph unicode="u" horiz-adv-x="1062" d="M166 244v762h156v-762q0 -74 18 -105q25 -41 96 -41q66 0 160 35q94 37 145 82v791h156v-1004h-152v86q-139 -117 -323 -117q-141 0 -199 70q-57 64 -57 203z" />
<glyph unicode="v" horiz-adv-x="925" d="M20 1004h168l277 -828l278 828h156l-360 -1004h-154z" />
<glyph unicode="w" horiz-adv-x="1372" d="M25 1004h163l230 -816l194 816h162l213 -816l203 816h149l-276 -1004h-166q-59 215 -201 819l-194 -819h-172z" />
<glyph unicode="x" horiz-adv-x="868" d="M25 0l317 520l-301 484h170l217 -349l211 349h164l-293 -478l334 -526h-174l-244 391l-238 -391h-163z" />
<glyph unicode="y" horiz-adv-x="929" d="M23 1004h163l289 -863l275 863h155q-86 -299 -166 -535q-195 -565 -327 -721q-76 -88 -240 -129v123q53 12 131 78q29 23 53 76l41 88z" />
<glyph unicode="z" horiz-adv-x="872" d="M70 0v133l518 739h-477v132h657v-136l-518 -735h557v-133h-737z" />
<glyph unicode="{" horiz-adv-x="681" d="M82 541v96q61 0 114.5 71.5t53.5 174.5v360q0 266 201 266h120l23 -110h-121q-57 0 -77.5 -37t-20.5 -148v-360q0 -172 -152 -270q152 -90 152 -262v-361q0 -113 21.5 -147.5t88.5 -34.5h109l-23 -111h-116q-205 0 -205 264v361q0 102 -53 174q-54 74 -115 74z" />
<glyph unicode="|" horiz-adv-x="454" d="M166 -37v1585h123v-1585h-123z" />
<glyph unicode="}" horiz-adv-x="681" d="M82 -221h108q68 0 89.5 34.5t21.5 147.5v361q0 172 152 262q-152 98 -152 270v360q0 111 -20.5 148t-77.5 37h-121l22 110h121q201 0 201 -266v-360q0 -104 51 -174q53 -72 117 -72v-96q-66 0 -117 -74q-51 -70 -51 -174v-361q0 -264 -205 -264h-117z" />
<glyph unicode="~" horiz-adv-x="1363" d="M299 504v127q59 127 178 127q80 0 213 -70t209 -70q113 0 164 119v-147q-55 -106 -178 -107q-76 0 -213 70t-209 70q-107 0 -164 -119z" />
<glyph unicode="&#xa1;" horiz-adv-x="540" d="M119 905q0 51 40 89t91 38q49 0 84 -33.5t35 -83t-40 -87t-91 -37.5q-49 0 -84 32.5t-35 81.5zM143 -430l35 1100h123l-2 -1080z" />
<glyph unicode="&#xa2;" horiz-adv-x="843" d="M100 492q0 227 96.5 365t252.5 171v141h92v-139q137 -14 223 -98l-70 -92q-61 49 -153 65v-811q76 8 200 88l52 -96q-100 -94 -252 -115v-123h-92v123q-131 20 -226 131q-123 144 -123 390zM256 512q0 -123 41 -236q51 -137 152 -174v795q-98 -33 -152 -160 q-41 -104 -41 -225z" />
<glyph unicode="&#xa3;" horiz-adv-x="905" d="M61 791l41 102h80v270q0 129 105 197q88 57 225 57q147 0 213 -57l-35 -94q-63 37 -166 37q-186 0 -186 -170v-240h274v-123h-274v-260q0 -174 -47 -385h325q164 0 199 47v-113q-53 -59 -221 -59h-485q74 328 73 514v264z" />
<glyph unicode="&#xa4;" horiz-adv-x="1110" d="M90 627h141q-2 18 -2 63q0 47 2 66h-139l-2 129h156q25 231 162 375q147 154 370 153q205 0 348 -143l-57 -123q-113 137 -301 137q-330 0 -379 -399h381v-129h-397q0 -14 -1 -29.5t-2 -25t-1 -13.5l4 -61h397l-2 -129h-379q23 -188 118 -291t241 -103q188 0 317 162 v-164q-127 -127 -328 -127q-193 0 -332 141.5t-159 381.5h-154z" />
<glyph unicode="&#xa5;" horiz-adv-x="974" d="M25 1290h174l288 -643l289 643h172l-239 -518h247v-123h-303l-84 -182v-10h383v-123h-383v-334h-163v334h-375v123h375v12l-84 180h-287v123h229z" />
<glyph unicode="&#xa7;" horiz-adv-x="860" d="M43 -190l57 112q150 -90 308 -90q90 0 143 43t53 125q0 98 -135 164l-250 125q-135 68 -135 200q0 242 274 283q-143 68 -176 96q-90 72 -90 170q0 139 103 217q94 70 237 70q158 0 295 -78l-55 -106q-141 66 -244 65q-82 0 -132 -43t-50 -119q0 -74 133 -141 q233 -119 248 -129q133 -96 133 -227q0 -223 -225 -273q217 -111 217 -247q0 -154 -103 -238q-96 -80 -250 -80q-188 1 -356 101zM238 496q0 -57 55 -95q51 -35 108 -34q90 0 148 39q68 45 67 131q0 63 -51 104t-121 41q-206 0 -206 -186z" />
<glyph unicode="&#xa8;" horiz-adv-x="786" d="M121 1276q0 45 36 83t81 38q35 0 59.5 -23.5t24.5 -58.5q0 -43 -39 -79t-84 -36q-78 0 -78 76zM436 1276q0 45 36 83t81 38q35 0 59.5 -23.5t24.5 -58.5q0 -43 -39 -79t-84 -36q-78 0 -78 76z" />
<glyph unicode="&#xa9;" horiz-adv-x="1800" d="M246 502q0 272 192.5 464.5t464.5 192.5q274 0 467 -192.5t193 -465t-195 -466.5q-193 -193 -465 -193t-464.5 193t-192.5 467zM346 501.5q0 -233.5 164 -397.5q162 -162 399 -161q227 0 391 163q162 162 162 396q0 231 -163.5 395t-395 164t-395.5 -164 q-162 -162 -162 -395.5zM594 500q0 154 78 256q86 115 235 114q123 0 209 -79l-55 -70q-59 51 -154 51q-197 0 -196 -266q0 -117 47 -189q55 -86 164 -86q78 0 172 70l43 -68q-109 -98 -219 -98q-152 0 -242 109q-82 100 -82 256z" />
<glyph unicode="&#xaa;" horiz-adv-x="860" d="M96 768q0 131 109 205q94 61 231 61q207 0 309 -139l-81 -82q-100 100 -232 100q-72 0 -123 -32q-59 -37 -59 -105q0 -80 141 -149l189 -92q184 -88 184 -275q0 -143 -109 -221q-96 -70 -245 -70q-162 0 -293 119l57 111q143 -109 244 -109q82 0 135 35q61 39 61 119 q0 92 -127 157l-213 107q-178 90 -178 260zM117 1409l65 92l248 -205l252 203l66 -92l-316 -299z" />
<glyph unicode="&#xab;" horiz-adv-x="1024" d="M68 512l378 385l97 -78l-305 -307l309 -307l-96 -78zM432 512l379 385l96 -78l-305 -307l309 -307l-96 -78z" />
<glyph unicode="&#xac;" horiz-adv-x="1095" d="M94 760v123h826v-523l-121 -22v422h-705z" />
<glyph unicode="&#xad;" horiz-adv-x="618" d="M111 461v123h391v-123h-391z" />
<glyph unicode="&#xae;" horiz-adv-x="1800" d="M242 499.5q0 274.5 190 465.5q193 193 467 192q272 0 464.5 -192.5t192.5 -464.5q0 -274 -192.5 -467t-464.5 -193t-464.5 192.5t-192.5 467zM342 500q0 -238 162 -400q164 -160 401 -159q231 0 391 163q160 162 160 396q0 231 -164 395t-393 164q-231 0 -395 -164 q-162 -162 -162 -395zM688 145v727h176q125 0 205 -55q94 -63 94 -182q0 -84 -57 -160q-57 -74 -139 -82l225 -248h-131l-223 248q-27 8 -45 19v-267h-105zM793 498q55 -27 94 -27q78 0 123 46t45 122q0 150 -191 149h-71v-290z" />
<glyph unicode="&#xaf;" horiz-adv-x="686" d="M61 1174v120h562v-120h-562z" />
<glyph unicode="&#xb0;" horiz-adv-x="720" d="M68 1038.5q0 116.5 84 200.5t200.5 84t200.5 -84t84 -200.5t-84 -200.5t-200.5 -84t-200.5 84t-84 200.5zM160 1038q0 -80 56 -136t136 -56t136.5 56t56.5 136t-56.5 136.5t-136.5 56.5t-136 -56.5t-56 -136.5z" />
<glyph unicode="&#xb1;" horiz-adv-x="915" d="M92 451v122h330v355h119v-355h331v-122h-331v-256h-119v256h-330zM113 -2v123h739v-123h-739z" />
<glyph unicode="&#xb4;" horiz-adv-x="692" d="M121 1241l315 299l127 -129l-377 -262z" />
<glyph unicode="&#xb5;" horiz-adv-x="1062" d="M164 145v859h155v-762q0 -76 19 -107q25 -39 96 -39q68 0 162 35q92 37 143 82v791h156v-1004h-152v86q-141 -117 -323 -117q-31 0 -88 31q35 -109 35 -180q0 -80 -35 -144l-148 -26q49 113 49 194q0 59 -34.5 151.5t-34.5 149.5z" />
<glyph unicode="&#xb6;" horiz-adv-x="1112" d="M35 952q0 197 125 309.5t342 112.5h499v-1372h-149v1237h-242v-1237h-147v569q-186 0 -307 109q-121 110 -121 272z" />
<glyph unicode="&#xb7;" horiz-adv-x="528" d="M147 493.5q0 49.5 40 87t92 37.5q49 0 83.5 -32.5t34.5 -81.5t-40 -87t-91 -38q-49 0 -84 32.5t-35 82z" />
<glyph unicode="&#xb8;" horiz-adv-x="823" d="M389 -2h213q76 -55 76 -127q0 -68 -74 -137q-57 -55 -137 -90l-78 63q166 88 166 154q0 59 -66 59q-27 0 -100 -18v96z" />
<glyph unicode="&#xba;" horiz-adv-x="843" d="M100 492q0 209 95 360q115 182 307 182q154 0 262 -102l-70 -92q-88 72 -190 71q-125 0 -193 -143q-55 -113 -55 -256q0 -152 55 -268q72 -152 205 -152q86 0 225 90l52 -96q-135 -117 -289 -117q-197 0 -307 170q-97 146 -97 353zM256 1241l315 299l127 -129l-376 -262z " />
<glyph unicode="&#xbb;" horiz-adv-x="1024" d="M131 205l309 307l-305 307l96 78l379 -385l-383 -385zM496 205l309 307l-305 307l96 78l379 -385l-383 -385z" />
<glyph unicode="&#xbf;" horiz-adv-x="733" d="M86 -164q0 98 100 230l164 215q80 104 80 286v99h125v-99q0 -131 -8 -180q-14 -88 -70 -162l-168 -225q-70 -94 -69 -160q0 -129 118 -129q92 0 230 31v-117q-158 -39 -242 -39q-123 0 -191.5 64.5t-68.5 185.5zM369 909q0 49 40 87t91 38q49 0 83.5 -32.5t34.5 -82 t-39.5 -87t-91.5 -37.5q-49 0 -83.5 32.5t-34.5 81.5z" />
<glyph unicode="&#xc0;" horiz-adv-x="1044" d="M25 0l409 1290h176l410 -1290h-168l-137 416h-385l-137 -416h-168zM307 1677l127 129l316 -299l-66 -92zM369 551h307l-154 569z" />
<glyph unicode="&#xc1;" horiz-adv-x="1044" d="M25 0l409 1290h176l410 -1290h-168l-137 416h-385l-137 -416h-168zM307 1507l316 299l127 -129l-377 -262zM369 551h307l-154 569z" />
<glyph unicode="&#xc2;" horiz-adv-x="1044" d="M25 0l409 1290h176l410 -1290h-168l-137 416h-385l-137 -416h-168zM203 1505l313 301l313 -299l-65 -94l-248 205l-248 -205zM369 551h307l-154 569z" />
<glyph unicode="&#xc3;" horiz-adv-x="1044" d="M25 0l409 1290h176l410 -1290h-168l-137 416h-385l-137 -416h-168zM139 1581q150 119 246 119q61 0 145 -45q88 -45 136 -45q55 0 90 14q27 12 82 51l63 -78q-74 -68 -125 -91t-125 -23q-41 0 -129 45q-84 45 -143 45q-47 0 -180 -80zM369 551h307l-154 569z" />
<glyph unicode="&#xc4;" horiz-adv-x="1044" d="M25 0l409 1290h176l410 -1290h-168l-137 416h-385l-137 -416h-168zM258 1542q0 45 36 83t81 38q35 0 59.5 -23.5t24.5 -58.5q0 -43 -39 -79t-84 -36q-78 0 -78 76zM369 551h307l-154 569zM573 1542q0 45 36 83t81 38q35 0 59.5 -23.5t24.5 -58.5q0 -43 -39 -79t-84 -36 q-78 0 -78 76z" />
<glyph unicode="&#xc5;" horiz-adv-x="1044" d="M25 0l409 1290h176l410 -1290h-168l-137 416h-385l-137 -416h-168zM309 1606q0 88 64 151q66 66 153.5 66t149.5 -64q63 -63 63 -153t-63.5 -153.5t-153.5 -63.5q-88 0 -151 63q-62 64 -62 154zM369 551h307l-154 569zM401 1605.5q0 -49.5 37 -86t84 -36.5q49 0 86 36.5 t37 86t-35 86.5t-82 37q-51 0 -89 -37t-38 -86.5z" />
<glyph unicode="&#xc6;" horiz-adv-x="1486" d="M25 0l407 1290h191l98 -432v432h663v-137h-499v-410h383v-141h-383v-461h520v-141h-684v416h-389l-137 -416h-170zM371 551h305l-154 569z" />
<glyph unicode="&#xc7;" horiz-adv-x="1017" d="M113 645q0 262 118 451q139 225 383 225q201 0 332 -88l-59 -107q-125 68 -273 68q-82 0 -159 -68q-70 -63 -107 -139q-72 -150 -72 -350q0 -209 70 -350q90 -188 272 -189q162 0 277 90l72 -104q-96 -78 -250 -107q53 -53 53 -106q0 -68 -74 -137q-57 -55 -137 -90 l-78 63q166 88 166 154q0 59 -65 59q-27 0 -101 -18v82q-195 53 -291 262q-77 172 -77 399z" />
<glyph unicode="&#xc8;" horiz-adv-x="929" d="M164 0v1290h663v-137h-499v-410h383v-141h-383v-461h520v-141h-684zM285 1677l127 129l315 -299l-65 -92z" />
<glyph unicode="&#xc9;" horiz-adv-x="929" d="M164 0v1290h663v-137h-499v-410h383v-141h-383v-461h520v-141h-684zM289 1507l315 299l127 -129l-377 -262z" />
<glyph unicode="&#xca;" horiz-adv-x="929" d="M164 0v1290h663v-137h-499v-410h383v-141h-383v-461h520v-141h-684zM184 1505l314 301l313 -299l-66 -94l-247 205l-248 -205z" />
<glyph unicode="&#xcb;" horiz-adv-x="929" d="M164 0v1290h663v-137h-499v-410h383v-141h-383v-461h520v-141h-684zM240 1542q0 45 34.5 83t81.5 38q35 0 58.5 -23.5t23.5 -58.5q0 -45 -38 -80t-83 -35q-77 0 -77 76zM555 1542q0 45 35 83t82 38q35 0 58.5 -23.5t23.5 -58.5q0 -45 -38 -80t-83 -35q-78 0 -78 76z" />
<glyph unicode="&#xcc;" d="M25 1677l127 129l315 -299l-66 -92zM164 0v1290h160v-1290h-160z" />
<glyph unicode="&#xcd;" d="M23 1507l315 299l127 -129l-377 -262zM164 0v1290h160v-1290h-160z" />
<glyph unicode="&#xce;" d="M-70 1505l314 301l313 -299l-65 -94l-248 205l-248 -205zM164 0v1290h160v-1290h-160z" />
<glyph unicode="&#xcf;" d="M-14 1542q0 45 35.5 83t80.5 38q35 0 59.5 -23.5t24.5 -58.5q0 -43 -38.5 -79t-84.5 -36q-77 0 -77 76zM164 0v1290h160v-1290h-160zM301 1542q0 45 36 83t81 38q35 0 59.5 -23.5t24.5 -58.5q0 -43 -39 -79t-84 -36q-78 0 -78 76z" />
<glyph unicode="&#xd1;" horiz-adv-x="1134" d="M164 0v1290h217l436 -987q-10 109 -10 180v807h164v-1290h-168l-486 1053q10 -106 11 -176v-877h-164zM195 1581q150 119 245 119q61 0 146 -45q88 -45 135 -45q55 0 90 14q27 12 82 51l63 -78q-74 -68 -125 -91t-124 -23q-41 0 -129 45q-84 45 -144 45q-49 0 -180 -80z " />
<glyph unicode="&#xd2;" horiz-adv-x="1122" d="M113 645q0 252 98 440q123 236 350 236t350 -236q98 -188 98.5 -440t-98.5 -440q-123 -236 -350 -236t-350 236q-98 188 -98 440zM276 645q0 -172 60 -332q80 -209 225.5 -209t224.5 209q59 160 59.5 332t-59.5 332q-80 209 -225 209t-225 -209q-60 -160 -60 -332z M336 1677l127 129l315 -299l-65 -92z" />
<glyph unicode="&#xd3;" horiz-adv-x="1122" d="M113 645q0 252 98 440q123 236 350 236t350 -236q98 -188 98.5 -440t-98.5 -440q-123 -236 -350 -236t-350 236q-98 188 -98 440zM276 645q0 -172 60 -332q80 -209 225.5 -209t224.5 209q59 160 59.5 332t-59.5 332q-80 209 -225 209t-225 -209q-60 -160 -60 -332z M342 1507l315 299l127 -129l-376 -262z" />
<glyph unicode="&#xd4;" horiz-adv-x="1122" d="M113 645q0 252 98 440q123 236 350 236t350 -236q98 -188 98.5 -440t-98.5 -440q-123 -236 -350 -236t-350 236q-98 188 -98 440zM246 1511l313 301l313 -299l-65 -94l-248 205l-248 -205zM276 645q0 -172 60 -332q80 -209 225.5 -209t224.5 209q59 160 59.5 332 t-59.5 332q-80 209 -225 209t-225 -209q-60 -160 -60 -332z" />
<glyph unicode="&#xd5;" horiz-adv-x="1122" d="M113 645q0 252 98 440q123 236 350 236t350 -236q98 -188 98.5 -440t-98.5 -440q-123 -236 -350 -236t-350 236q-98 188 -98 440zM176 1581q150 119 246 119q61 0 145 -45q88 -45 135 -45q55 0 91 14q27 12 81 51l64 -78q-74 -68 -125 -91t-125 -23q-41 0 -129 45 q-84 45 -143 45q-47 0 -180 -80zM276 645q0 -172 60 -332q80 -209 225.5 -209t224.5 209q59 160 59.5 332t-59.5 332q-80 209 -225 209t-225 -209q-60 -160 -60 -332z" />
<glyph unicode="&#xd6;" horiz-adv-x="1122" d="M113 645q0 252 98 440q123 236 350 236t350 -236q98 -188 98.5 -440t-98.5 -440q-123 -236 -350 -236t-350 236q-98 188 -98 440zM276 645q0 -172 60 -332q80 -209 225.5 -209t224.5 209q59 160 59.5 332t-59.5 332q-80 209 -225 209t-225 -209q-60 -160 -60 -332z M299 1542q0 45 36 83t81 38q35 0 59.5 -23.5t24.5 -58.5q0 -43 -39 -79t-84 -36q-78 0 -78 76zM614 1542q0 45 36 83t81 38q35 0 59.5 -23.5t24.5 -58.5q0 -43 -39 -79t-84 -36q-78 0 -78 76z" />
<glyph unicode="&#xd8;" horiz-adv-x="1122" d="M113 653q0 248 98 437q123 231 350 231q80 0 139 -27l70 240h102l-84 -293q115 -92 173 -272q49 -150 49 -324q0 -252 -99 -440q-119 -236 -350 -236q-59 0 -131 23l-80 -279h-102l94 330q-117 90 -178 279q-51 159 -51 331zM276 633q0 -305 109 -443l279 971 q-45 25 -103 25q-166 0 -237 -207q-48 -141 -48 -346zM467 123q45 -18 94 -19q285 0 285 541q0 297 -103 442z" />
<glyph unicode="&#xd9;" horiz-adv-x="1142" d="M162 502v788h164v-790q0 -395 245.5 -395.5t245.5 397.5v788h164v-796q0 -223 -90 -363q-106 -162 -320 -162q-211 0 -319 164q-90 140 -90 369zM354 1677l127 129l316 -299l-66 -92z" />
<glyph unicode="&#xda;" horiz-adv-x="1142" d="M162 502v788h164v-790q0 -395 245.5 -395.5t245.5 397.5v788h164v-796q0 -223 -90 -363q-106 -162 -320 -162q-211 0 -319 164q-90 140 -90 369zM358 1507l316 299l127 -129l-377 -262z" />
<glyph unicode="&#xdb;" horiz-adv-x="1142" d="M162 502v788h164v-790q0 -395 245.5 -395.5t245.5 397.5v788h164v-796q0 -223 -90 -363q-106 -162 -320 -162q-211 0 -319 164q-90 140 -90 369zM254 1505l313 301l314 -299l-66 -94l-248 205l-248 -205z" />
<glyph unicode="&#xdc;" horiz-adv-x="1126" d="M162 502v788h164v-790q0 -395 245.5 -395.5t245.5 397.5v788h164v-796q0 -223 -90 -363q-106 -162 -320 -162q-211 0 -319 164q-90 140 -90 369zM311 1542q0 45 36 83t81 38q35 0 59.5 -23.5t24.5 -58.5q0 -43 -39 -79t-84 -36q-78 0 -78 76zM627 1542q0 45 35.5 83 t80.5 38q35 0 59.5 -23.5t24.5 -58.5q0 -43 -38.5 -79t-83.5 -36q-78 0 -78 76z" />
<glyph unicode="&#xdf;" horiz-adv-x="1171" d="M123 -2v1003q0 281 153 390q96 68 252 67q184 0 299 -84q127 -96 127 -274q0 -217 -161 -299q115 -27 178 -137q53 -96 53 -224q0 -203 -111 -331q-121 -139 -317 -140q-63 0 -129 11v147q55 -6 88 -6q123 0 213 65q90 68 90 244q0 168 -131 248q-76 45 -166 45 q-37 0 -86 2v129h49q158 0 209 66q66 84 66 161q0 111 -62 176q-68 72 -198 72q-164 0 -226 -129q-41 -86 -41 -199v-1003h-149z" />
<glyph unicode="&#xe0;" horiz-adv-x="954" d="M63 264q0 106 58 182q53 66 276 127q205 55 205 78v129q0 145 -158 146q-145 0 -276 -148l-55 96q61 80 157.5 129.5t188.5 49.5q139 0 217 -66q82 -70 82 -207v-780h-154v172q-25 -84 -108 -137q-78 -47 -172 -47q-121 0 -190 74.5t-71 201.5zM215 270q0 -68 39 -113.5 t100 -45.5q109 0 183 116q66 106 65 217v109q0 -16 -153 -68q-172 -59 -207 -108q-27 -35 -27 -107zM244 1411l127 129l315 -299l-65 -92z" />
<glyph unicode="&#xe1;" horiz-adv-x="954" d="M63 264q0 106 58 182q53 66 276 127q205 55 205 78v129q0 145 -158 146q-145 0 -276 -148l-55 96q61 80 157.5 129.5t188.5 49.5q139 0 217 -66q82 -70 82 -207v-780h-154v172q-25 -84 -108 -137q-78 -47 -172 -47q-121 0 -190 74.5t-71 201.5zM215 270q0 -68 39 -113.5 t100 -45.5q109 0 183 116q66 106 65 217v109q0 -16 -153 -68q-172 -59 -207 -108q-27 -35 -27 -107zM258 1241l315 299l127 -129l-376 -262z" />
<glyph unicode="&#xe2;" horiz-adv-x="954" d="M63 264q0 106 58 182q53 66 276 127q205 55 205 78v129q0 145 -158 146q-145 0 -276 -148l-55 96q61 80 157.5 129.5t188.5 49.5q139 0 217 -66q82 -70 82 -207v-780h-154v172q-25 -84 -108 -137q-78 -47 -172 -47q-121 0 -190 74.5t-71 201.5zM147 1239l314 301 l313 -299l-65 -94l-248 205l-248 -205zM215 270q0 -68 39 -113.5t100 -45.5q109 0 183 116q66 106 65 217v109q0 -16 -153 -68q-172 -59 -207 -108q-27 -35 -27 -107z" />
<glyph unicode="&#xe3;" horiz-adv-x="954" d="M63 264q0 106 58 182q53 66 276 127q205 55 205 78v129q0 145 -158 146q-145 0 -276 -148l-55 96q61 80 157.5 129.5t188.5 49.5q139 0 217 -66q82 -70 82 -207v-780h-154v172q-25 -84 -108 -137q-78 -47 -172 -47q-121 0 -190 74.5t-71 201.5zM86 1315q150 119 246 119 q61 0 145 -45q88 -45 135 -46q55 0 90 15q27 12 82 51l64 -78q-74 -68 -125 -91t-125 -23q-41 0 -129 45q-84 45 -143 45q-47 0 -181 -80zM215 270q0 -68 39 -113.5t100 -45.5q109 0 183 116q66 106 65 217v109q0 -16 -153 -68q-172 -59 -207 -108q-27 -35 -27 -107z" />
<glyph unicode="&#xe4;" horiz-adv-x="954" d="M63 264q0 106 58 182q53 66 276 127q205 55 205 78v129q0 145 -158 146q-145 0 -276 -148l-55 96q61 80 157.5 129.5t188.5 49.5q139 0 217 -66q82 -70 82 -207v-780h-154v172q-25 -84 -108 -137q-78 -47 -172 -47q-121 0 -190 74.5t-71 201.5zM203 1276q0 45 35.5 83 t80.5 38q35 0 59.5 -23.5t24.5 -58.5q0 -43 -38.5 -79t-83.5 -36q-78 0 -78 76zM215 270q0 -68 39 -113.5t100 -45.5q109 0 183 116q66 106 65 217v109q0 -16 -153 -68q-172 -59 -207 -108q-27 -35 -27 -107zM518 1276q0 45 36 83t81 38q35 0 59.5 -23.5t24.5 -58.5 q0 -43 -39 -79t-84 -36q-78 0 -78 76z" />
<glyph unicode="&#xe5;" horiz-adv-x="954" d="M63 264q0 106 58 182q53 66 276 127q205 55 205 78v129q0 145 -158 146q-145 0 -276 -148l-55 96q61 80 157.5 129.5t188.5 49.5q139 0 217 -66q82 -70 82 -207v-780h-154v172q-25 -84 -108 -137q-78 -47 -172 -47q-121 0 -190 74.5t-71 201.5zM215 270q0 -68 39 -113.5 t100 -45.5q109 0 183 116q66 106 65 217v109q0 -16 -153 -68q-172 -59 -207 -108q-27 -35 -27 -107zM244 1350q0 88 63 151q66 66 154 66t150.5 -64.5t62.5 -152.5q0 -90 -63.5 -153.5t-153.5 -63.5q-88 0 -150.5 64.5t-62.5 152.5zM336 1350q0 -49 36 -86t85 -37t86 36.5 t37 86t-34 86.5t-83 37q-51 0 -89 -36t-38 -87z" />
<glyph unicode="&#xe6;" horiz-adv-x="1484" d="M88 246q-2 104 59 182q53 66 277 127q205 55 205 78v129q0 145 -158 145q-143 0 -276 -147l-58 96q61 78 157.5 128t190.5 50q203 0 271 -139q117 139 291 139q145 0 245 -119q96 -117 103 -260q0 -10 1 -25.5t2 -38t1 -40.5h-619v-39q0 -147 51 -264q68 -156 193 -156 q98 0 285 127l49 -98q-176 -152 -350 -152q-225 0 -324 242l-27 -51q-43 -82 -131 -136.5t-176 -54.5q-121 0 -190.5 75t-71.5 202zM242 252q0 -68 37.5 -114t101.5 -46q109 0 182 117q66 106 66 217v109q0 -18 -156 -70q-168 -57 -205 -107q-26 -34 -26 -106zM799 668h436 q0 94 -55 168q-55 76 -148 75q-90 0 -155 -80q-55 -63 -78 -163z" />
<glyph unicode="&#xe7;" horiz-adv-x="843" d="M100 492q0 240 101 372q127 170 301 170q154 0 262 -102l-70 -92q-82 70 -190 69q-82 0 -148 -73q-49 -57 -77 -154q-23 -84 -23 -170q0 -137 55 -264q70 -156 195 -156q96 0 235 90l52 -96q-72 -66 -179 -98q63 -57 64 -117q0 -68 -74 -137q-57 -55 -137 -90l-78 63 q166 88 166 154q0 59 -66 59q-27 0 -100 -18v84q-147 51 -223 204q-66 132 -66 302z" />
<glyph unicode="&#xe8;" horiz-adv-x="964" d="M100 528q0 197 113 346q123 160 313 160q145 0 246 -119q94 -113 102 -260q0 -10 1.5 -25.5t2.5 -38t1 -40.5h-619v-39q0 -147 51 -264q68 -156 193 -156q98 0 284 127l50 -98q-176 -152 -351 -152q-199 0 -303 191q-84 151 -84 368zM279 668h436q0 94 -56 168 q-55 76 -147 75q-90 0 -156 -80q-54 -63 -77 -163zM293 1411l127 129l315 -299l-65 -92z" />
<glyph unicode="&#xe9;" horiz-adv-x="964" d="M100 528q0 197 113 346q123 160 313 160q145 0 246 -119q94 -113 102 -260q0 -10 1.5 -25.5t2.5 -38t1 -40.5h-619v-39q0 -147 51 -264q68 -156 193 -156q98 0 284 127l50 -98q-176 -152 -351 -152q-199 0 -303 191q-84 151 -84 368zM279 668h436q0 94 -56 168 q-55 76 -147 75q-90 0 -156 -80q-54 -63 -77 -163zM313 1241l316 299l127 -129l-377 -262z" />
<glyph unicode="&#xea;" horiz-adv-x="964" d="M100 528q0 197 113 346q123 160 313 160q145 0 246 -119q94 -113 102 -260q0 -10 1.5 -25.5t2.5 -38t1 -40.5h-619v-39q0 -147 51 -264q68 -156 193 -156q98 0 284 127l50 -98q-176 -152 -351 -152q-199 0 -303 191q-84 151 -84 368zM199 1239l313 301l313 -299l-65 -94 l-248 205l-248 -205zM279 668h436q0 94 -56 168q-55 76 -147 75q-90 0 -156 -80q-54 -63 -77 -163z" />
<glyph unicode="&#xeb;" horiz-adv-x="964" d="M100 528q0 197 113 346q123 160 313 160q145 0 246 -119q94 -113 102 -260q0 -10 1.5 -25.5t2.5 -38t1 -40.5h-619v-39q0 -147 51 -264q68 -156 193 -156q98 0 284 127l50 -98q-176 -152 -351 -152q-199 0 -303 191q-84 151 -84 368zM270 1276q0 45 36 83t81 38 q35 0 59.5 -23.5t24.5 -58.5q0 -43 -39 -79t-84 -36q-78 0 -78 76zM279 668h436q0 94 -56 168q-55 76 -147 75q-90 0 -156 -80q-54 -63 -77 -163zM586 1276q0 45 35.5 83t80.5 38q35 0 59.5 -23.5t24.5 -58.5q0 -43 -38.5 -79t-83.5 -36q-78 0 -78 76z" />
<glyph unicode="&#xec;" d="M23 1411l127 129l315 -299l-66 -92zM168 0v1004h151v-1004h-151z" />
<glyph unicode="&#xed;" d="M41 1241l315 299l127 -129l-377 -262zM168 0v1004h151v-1004h-151z" />
<glyph unicode="&#xee;" d="M-76 1239l314 301l313 -299l-66 -94l-247 205l-248 -205zM168 0v1004h151v-1004h-151z" />
<glyph unicode="&#xef;" d="M-16 1276q0 45 34.5 83t81.5 38q33 0 58.5 -24.5t25.5 -57.5q0 -43 -39 -79t-84 -36q-77 0 -77 76zM168 0v1004h151v-1004h-151zM299 1276q0 45 35 83t82 38q33 0 58.5 -24.5t25.5 -57.5q0 -43 -39 -79t-84 -36q-78 0 -78 76z" />
<glyph unicode="&#xf1;" horiz-adv-x="1062" d="M166 1315q150 119 246 119q61 0 145 -45q88 -45 135 -46q55 0 90 15q27 12 82 51l64 -78q-74 -68 -125 -91t-125 -23q-41 0 -129 45q-84 45 -143 45q-49 0 -181 -80zM168 0v1004h156v-74q49 35 147 71q98 33 178 33q145 0 205 -78q45 -59 45 -194v-762h-156v762 q0 76 -20 104q-29 41 -100 41q-78 0 -174 -37q-86 -35 -125 -67v-803h-156z" />
<glyph unicode="&#xf2;" horiz-adv-x="999" d="M100 500q0 201 97 356q115 178 303 178t303 -178q96 -156 96 -356q0 -205 -96 -355q-111 -176 -303.5 -176t-302.5 176q-97 150 -97 355zM256 500q0 -141 57 -262q72 -145 186.5 -145.5t186.5 145.5q57 121 57 262q0 143 -57 264q-72 147 -186.5 147t-186.5 -147 q-57 -121 -57 -264zM281 1411l127 129l315 -299l-66 -92z" />
<glyph unicode="&#xf3;" horiz-adv-x="999" d="M100 500q0 201 97 356q115 178 303 178t303 -178q96 -156 96 -356q0 -205 -96 -355q-111 -176 -303.5 -176t-302.5 176q-97 150 -97 355zM256 500q0 -141 57 -262q72 -145 186.5 -145.5t186.5 145.5q57 121 57 262q0 143 -57 264q-72 147 -186.5 147t-186.5 -147 q-57 -121 -57 -264zM293 1241l315 299l127 -129l-377 -262z" />
<glyph unicode="&#xf4;" horiz-adv-x="999" d="M100 500q0 201 97 356q115 178 303 178t303 -178q96 -156 96 -356q0 -205 -96 -355q-111 -176 -303.5 -176t-302.5 176q-97 150 -97 355zM193 1239l313 301l313 -299l-65 -94l-248 205l-248 -205zM256 500q0 -141 57 -262q72 -145 186.5 -145.5t186.5 145.5 q57 121 57 262q0 143 -57 264q-72 147 -186.5 147t-186.5 -147q-57 -121 -57 -264z" />
<glyph unicode="&#xf5;" horiz-adv-x="999" d="M100 500q0 201 97 356q115 178 303 178t303 -178q96 -156 96 -356q0 -205 -96 -355q-111 -176 -303.5 -176t-302.5 176q-97 150 -97 355zM117 1315q150 119 245 119q61 0 146 -45q88 -45 135 -46q55 0 90 15q27 12 82 51l64 -78q-74 -68 -125.5 -91t-124.5 -23 q-41 0 -129 45q-84 45 -144 45q-49 0 -180 -80zM256 500q0 -141 57 -262q72 -145 186.5 -145.5t186.5 145.5q57 121 57 262q0 143 -57 264q-72 147 -186.5 147t-186.5 -147q-57 -121 -57 -264z" />
<glyph unicode="&#xf6;" horiz-adv-x="999" d="M100 500q0 201 97 356q115 178 303 178t303 -178q96 -156 96 -356q0 -205 -96 -355q-111 -176 -303.5 -176t-302.5 176q-97 150 -97 355zM250 1276q0 45 36 83t81 38q35 0 59.5 -23.5t24.5 -58.5q0 -43 -39 -79t-84 -36q-78 0 -78 76zM256 500q0 -141 57 -262 q72 -145 186.5 -145.5t186.5 145.5q57 121 57 262q0 143 -57 264q-72 147 -186.5 147t-186.5 -147q-57 -121 -57 -264zM565 1276q0 45 36 83t81 38q35 0 59.5 -23.5t24.5 -58.5q0 -43 -39 -79t-84 -36q-78 0 -78 76z" />
<glyph unicode="&#xf7;" horiz-adv-x="1001" d="M111 451v122h778v-122h-778zM381 209q0 49 40 87t91 38q49 0 84 -33t35 -82t-40 -87t-91 -38q-49 0 -84 33t-35 82zM381 817q0 49 40 87t91 38q49 0 84 -32.5t35 -82t-40 -87.5t-91 -38q-49 0 -84 33t-35 82z" />
<glyph unicode="&#xf8;" horiz-adv-x="999" d="M100 500q0 201 97 356q115 178 303 178q49 0 94 -12l49 170h102l-61 -213q104 -68 164 -211q51 -123 51 -268q0 -205 -96 -355q-111 -176 -303 -176q-57 0 -101 15l-59 -211h-102l71 254q-104 72 -159 209q-50 123 -50 264zM256 500q0 -229 92 -338l213 741q-25 8 -61 8 q-131 0 -197 -147q-47 -112 -47 -264zM434 100q37 -10 66 -10q131 0 196 148q47 111 47 262q0 231 -96 346z" />
<glyph unicode="&#xf9;" horiz-adv-x="1058" d="M164 244v762h155v-762q0 -76 19 -107q25 -39 96 -39q66 0 160 35q88 31 145 82v791h156v-1004h-152v86q-137 -117 -323 -117q-137 0 -196.5 65t-59.5 208zM313 1411l127 129l316 -299l-66 -92z" />
<glyph unicode="&#xfa;" horiz-adv-x="1058" d="M164 244v762h155v-762q0 -76 19 -107q25 -39 96 -39q66 0 160 35q88 31 145 82v791h156v-1004h-152v86q-137 -117 -323 -117q-137 0 -196.5 65t-59.5 208zM313 1241l316 299l127 -129l-377 -262z" />
<glyph unicode="&#xfb;" horiz-adv-x="1058" d="M164 244v762h155v-762q0 -76 19 -107q25 -39 96 -39q66 0 160 35q88 31 145 82v791h156v-1004h-152v86q-137 -117 -323 -117q-137 0 -196.5 65t-59.5 208zM207 1239l313 301l314 -299l-66 -94l-248 205l-248 -205z" />
<glyph unicode="&#xfc;" horiz-adv-x="1058" d="M164 244v762h155v-762q0 -76 19 -107q25 -39 96 -39q66 0 160 35q88 31 145 82v791h156v-1004h-152v86q-137 -117 -323 -117q-137 0 -196.5 65t-59.5 208zM270 1276q0 45 36 83t81 38q35 0 59.5 -23.5t24.5 -58.5q0 -43 -39 -79t-84 -36q-78 0 -78 76zM586 1276 q0 45 35.5 83t80.5 38q35 0 59.5 -23.5t24.5 -58.5q0 -43 -38.5 -79t-83.5 -36q-78 0 -78 76z" />
<glyph unicode="&#xff;" horiz-adv-x="929" d="M23 1004h163l234 -658q43 -125 55 -205q158 393 275 863h155q-86 -299 -166 -535q-195 -565 -327 -721q-90 -102 -240 -139v139q63 27 119 76q41 35 106 160zM217 1276q0 45 36 83t81 38q35 0 59.5 -23.5t24.5 -58.5q0 -43 -39 -79t-84 -36q-78 0 -78 76zM532 1276 q0 45 36 83t81 38q35 0 59.5 -23.5t24.5 -58.5q0 -43 -39 -79t-84 -36q-78 0 -78 76z" />
<glyph unicode="&#x131;" d="M168 0v1004h151v-1004h-151z" />
<glyph unicode="&#x152;" horiz-adv-x="1306" d="M113 653q0 238 94 414q119 223 332 223h665v-137h-499v-410h382v-141h-382v-461h520v-141h-686q-221 0 -334 229q-92 180 -92 424zM270 633q0 -186 47 -318q68 -186 224 -186v1030q-158 0 -226 -198q-45 -129 -45 -328z" />
<glyph unicode="&#x153;" horiz-adv-x="1558" d="M100 500q0 201 97 356q115 178 303 178q197 0 297 -172q123 172 323 172q145 0 246 -119q92 -109 102 -260q0 -10 1 -25.5t2.5 -38t1.5 -40.5h-619v-39q0 -147 53 -266q72 -154 201 -154q152 0 254 60l47 -101q-131 -82 -328 -82q-178 0 -288 160q-113 -160 -293 -160 q-193 0 -303 176q-97 150 -97 355zM256 499.5q0 -151.5 47 -261.5q66 -147 197 -148q160 0 219 209q-25 102 -25 229q0 82 27 168q-61 215 -221 215q-131 0 -197 -147q-47 -113 -47 -264.5zM872 668h437q0 94 -56 170q-55 78 -147 77q-88 0 -156 -81q-55 -68 -78 -166z" />
<glyph unicode="&#x178;" horiz-adv-x="964" d="M27 1290h174l286 -643l289 643h164l-377 -817v-473h-162v473zM244 1542q0 45 35.5 83t80.5 38q35 0 59.5 -23.5t24.5 -58.5q0 -43 -38.5 -79t-83.5 -36q-78 0 -78 76zM559 1542q0 45 36 83t81 38q35 0 59.5 -23.5t24.5 -58.5q0 -43 -39 -79t-84 -36q-78 0 -78 76z" />
<glyph unicode="&#x192;" horiz-adv-x="786" d="M20 -102q111 147 181 473q35 170 82 514l-123 16l22 103h115l22 163q33 248 267 248q96 0 170 -49v-121q-82 45 -152 45q-92 0 -125 -106q-12 -35 -28 -180h229l-21 -119h-225q-117 -827 -330 -1090z" />
<glyph unicode="&#x2c6;" horiz-adv-x="823" d="M123 1239l313 301l314 -299l-66 -94l-248 205l-248 -205z" />
<glyph unicode="&#x2c7;" horiz-adv-x="823" d="M123 1409l65 92l248 -205l252 203l66 -92l-316 -299z" />
<glyph unicode="&#x2c9;" horiz-adv-x="686" d="M61 1174v120h562v-120h-562z" />
<glyph unicode="&#x2d8;" horiz-adv-x="823" d="M98 1409l99 109q29 -96 77 -170q68 -100 141.5 -100.5t141.5 102.5q49 68 78 170l94 -113q-57 -106 -129 -182q-100 -104 -186 -104.5t-185 104.5q-74 78 -131 184z" />
<glyph unicode="&#x2d9;" horiz-adv-x="380" d="M92 1266q0 49 37 84.5t84 35.5q39 0 66.5 -28.5t27.5 -67.5q0 -47 -38 -80.5t-87 -33.5q-39 0 -64.5 25.5t-25.5 64.5z" />
<glyph unicode="&#x2da;" horiz-adv-x="1064" d="M309 1350q0 88 64 151q66 66 153.5 66t150 -64.5t62.5 -152.5q0 -90 -63.5 -153.5t-153.5 -63.5q-88 0 -150.5 64.5t-62.5 152.5zM401 1350q0 -49 36 -86t85 -37t86 36.5t37 86t-33.5 86.5t-83.5 37q-51 0 -89 -36t-38 -87z" />
<glyph unicode="&#x2db;" horiz-adv-x="565" d="M254 -125q0 20 8 39q23 59 80 78q37 10 117 10v-68h-19q-104 0 -104 -65q0 -88 184 -180l-53 -43q-80 35 -137 90q-76 69 -76 139z" />
<glyph unicode="&#x2dc;" horiz-adv-x="778" d="M2 1315q150 119 246 119q61 0 145 -45q88 -45 135 -46q55 0 90 15q27 12 82 51l64 -78q-74 -68 -125 -91t-125 -23q-41 0 -129 45q-84 45 -143 45q-49 0 -181 -80z" />
<glyph unicode="&#x2dd;" horiz-adv-x="1198" d="M121 1241l315 299l127 -129q-195 -127 -287 -190.5t-90 -71.5zM582 1241l237 223l127 -129l-299 -186z" />
<glyph unicode="&#x394;" horiz-adv-x="1370" d="M82 641q0 248 176 424t424 176t424 -176q178 -176 178 -424t-178 -424q-174 -174 -424 -174t-424 174q-176 176 -176 424zM453 291l663 352l-663 356v-708z" />
<glyph unicode="&#x3a9;" horiz-adv-x="753" d="M74 1167q0 147 86 263q92 123 237 122q111 0 185 -88q74 -86 80 -200q0 -18 1 -38t2 -29t1 -13h-469q-2 -6 -2 -29q0 -106 41 -201q51 -119 145 -118q66 0 217 96l37 -74q-137 -115 -266 -115q-152 0 -232 144q-63 114 -63 280zM209 1274h332q0 74 -39 125 q-47 59 -115 59t-119 -61q-45 -53 -59 -123z" />
<glyph unicode="&#x3bc;" horiz-adv-x="1062" d="M164 145v859h155v-762q0 -76 19 -107q25 -39 96 -39q68 0 162 35q92 37 143 82v791h156v-1004h-152v86q-141 -117 -323 -117q-31 0 -88 31q35 -109 35 -180q0 -80 -35 -144l-148 -26q49 113 49 194q0 59 -34.5 151.5t-34.5 149.5z" />
<glyph unicode="&#x3c0;" horiz-adv-x="868" d="M123 295v709l663 -357z" />
<glyph unicode="&#x2000;" horiz-adv-x="911" />
<glyph unicode="&#x2001;" horiz-adv-x="1822" />
<glyph unicode="&#x2002;" horiz-adv-x="911" />
<glyph unicode="&#x2003;" horiz-adv-x="1822" />
<glyph unicode="&#x2004;" horiz-adv-x="606" />
<glyph unicode="&#x2005;" horiz-adv-x="454" />
<glyph unicode="&#x2006;" horiz-adv-x="303" />
<glyph unicode="&#x2007;" horiz-adv-x="303" />
<glyph unicode="&#x2008;" horiz-adv-x="227" />
<glyph unicode="&#x2009;" horiz-adv-x="364" />
<glyph unicode="&#x200a;" horiz-adv-x="100" />
<glyph unicode="&#x2013;" horiz-adv-x="733" d="M0 461v123h733v-123h-733z" />
<glyph unicode="&#x2014;" horiz-adv-x="1245" d="M0 463v123h1245v-123h-1245z" />
<glyph unicode="&#x2018;" horiz-adv-x="546" d="M94 977l264 377l93 -64l-129 -372z" />
<glyph unicode="&#x2019;" horiz-adv-x="552" d="M98 915l129 373l228 -59l-265 -377z" />
<glyph unicode="&#x201a;" horiz-adv-x="528" d="M59 -223l129 373l187 -50l-223 -387z" />
<glyph unicode="&#x201c;" horiz-adv-x="913" d="M96 977l264 377l93 -64l-129 -372zM459 977l264 377l92 -64l-129 -372z" />
<glyph unicode="&#x201d;" horiz-adv-x="913" d="M96 915l129 373l228 -59l-265 -377zM459 915l129 373l227 -59l-264 -377z" />
<glyph unicode="&#x201e;" horiz-adv-x="888" d="M59 -223l129 373l187 -50l-223 -387zM436 -223l129 373l187 -50l-224 -387z" />
<glyph unicode="&#x2020;" horiz-adv-x="856" d="M68 868v136h272v286h154v-286h286l-20 -136h-266v-440q0 -123 -76 -459q-78 340 -78 459v440h-272z" />
<glyph unicode="&#x2021;" horiz-adv-x="856" d="M68 428v133h272v307h-272v136h272v284h154v-284h286l-20 -136h-266v-307h286l-20 -133h-266l-76 -459l-78 459h-272z" />
<glyph unicode="&#x2022;" horiz-adv-x="751" d="M193 766q0 78 54 132t132 54t132 -54t54 -132q0 -76 -54 -130t-132 -54t-132 54t-54 130z" />
<glyph unicode="&#x2026;" horiz-adv-x="1236" d="M143 84q0 49 40 87t91 38q49 0 84 -33t35 -82t-40 -87t-91 -38q-49 0 -84 33t-35 82zM496 84q0 49 39.5 87t91.5 38q49 0 83.5 -33t34.5 -82t-39.5 -87t-91.5 -38q-49 0 -83.5 33t-34.5 82zM844 84q0 49 40 87t91 38q49 0 84 -33t35 -82t-40 -87t-91 -38q-49 0 -84 33 t-35 82z" />
<glyph unicode="&#x202f;" horiz-adv-x="364" />
<glyph unicode="&#x2030;" horiz-adv-x="2058" d="M94 1048.5q0 112.5 80 192.5t193 80q68 0 118 -27q4 -2 12.5 -7t14.5 -7q55 -23 143 -23q127 0 228 62l104 -29l-455 -1290h-135l432 1196q-78 -43 -213 -39q23 -45 23 -108q0 -113 -80 -193t-192.5 -80t-192.5 80t-80 192.5zM215 1048.5q0 -63.5 44 -107.5t107.5 -44 t107.5 44t44 107.5t-44 107.5t-107.5 44t-107.5 -44t-44 -107.5zM788 241.5q0 112.5 80 192.5t193 80t192.5 -80t79.5 -192.5t-79.5 -192.5t-192.5 -80t-193 80t-80 192.5zM909 241.5q0 -63.5 44 -107.5t107.5 -44t107.5 44t44 107.5t-44 107.5t-107.5 44t-107.5 -44 t-44 -107.5zM1417 241.5q0 112.5 80 192.5t192.5 80t192.5 -80t80 -192.5t-80 -192.5t-192.5 -80t-192.5 80t-80 192.5zM1538 241.5q0 -63.5 44 -107.5t107.5 -44t107.5 44t44 107.5t-44 107.5t-107.5 44t-107.5 -44t-44 -107.5z" />
<glyph unicode="&#x2039;" horiz-adv-x="614" d="M68 512l378 385l97 -78l-305 -307l309 -307l-96 -78z" />
<glyph unicode="&#x203a;" horiz-adv-x="614" d="M68 205l309 307l-305 307l96 78l379 -385l-383 -385z" />
<glyph unicode="&#x205f;" horiz-adv-x="454" />
<glyph unicode="&#x2122;" horiz-adv-x="1642" d="M137 1331v90h498v-90h-199v-723h-100v723h-199zM731 608v813h137l240 -686l238 686h137v-813h-103v553q0 39 6 111l-233 -664h-90l-234 666q6 -70 7 -111v-555h-105z" />
<glyph unicode="&#x2126;" horiz-adv-x="753" d="M74 1167q0 147 86 263q92 123 237 122q111 0 185 -88q74 -86 80 -200q0 -18 1 -38t2 -29t1 -13h-469q-2 -6 -2 -29q0 -106 41 -201q51 -119 145 -118q66 0 217 96l37 -74q-137 -115 -266 -115q-152 0 -232 144q-63 114 -63 280zM209 1274h332q0 74 -39 125 q-47 59 -115 59t-119 -61q-45 -53 -59 -123z" />
<glyph unicode="&#x2202;" horiz-adv-x="24" d="M0 0v1421h25v-1421h-25z" />
<glyph unicode="&#x2206;" horiz-adv-x="1370" d="M82 641q0 248 176 424t424 176t424 -176q178 -176 178 -424t-178 -424q-174 -174 -424 -174t-424 174q-176 176 -176 424zM453 291l663 352l-663 356v-708z" />
<glyph unicode="&#x220f;" horiz-adv-x="868" d="M117 330v639h635v-639h-635z" />
<glyph unicode="&#x2211;" horiz-adv-x="970" d="M141 1290h684v-119h-428l379 -495l-387 -551h457v-123h-699l465 672z" />
<glyph unicode="&#x2212;" horiz-adv-x="618" d="M111 461v123h391v-123h-391z" />
<glyph unicode="&#x2215;" horiz-adv-x="694" d="M-150 -268l881 1794h129l-880 -1794h-130z" />
<glyph unicode="&#x2219;" horiz-adv-x="528" d="M147 493.5q0 49.5 40 87t92 37.5q49 0 83.5 -32.5t34.5 -81.5t-40 -87t-91 -38q-49 0 -84 32.5t-35 82z" />
<glyph unicode="&#x221a;" horiz-adv-x="460" />
<glyph unicode="&#x221e;" horiz-adv-x="1267" d="M23 -115l954 1616h129l-954 -1616h-129zM147 1300v93q29 0 109 28h104v-641h-124v520h-89zM739 0v117q88 43 181 149q100 113 100 205q0 78 -98 78q-88 0 -183 -76v107q61 49 92 63q41 18 109 19q207 0 207 -189q0 -166 -221 -358h243v-115h-430z" />
<glyph unicode="&#x222b;" horiz-adv-x="675" d="M143 815v98q8 2 52 17q66 25 143 74h166v-1004h-174v856z" />
<glyph unicode="&#x2248;" horiz-adv-x="1370" d="M82 641q0 248 176 424t424 176t424 -176q178 -176 178 -424t-178 -424q-174 -174 -424 -174t-424 174q-176 176 -176 424z" />
<glyph unicode="&#x2260;" horiz-adv-x="983" d="M90 295v121h291l115 184h-406v121h479l111 176l76 -43l-86 -133h202v-121h-276l-117 -184h393v-121h-469l-122 -195l-64 50l90 145h-217z" />
<glyph unicode="&#x2264;" horiz-adv-x="460" d="M23 -229l188 356l168 -43l-264 -377z" />
<glyph unicode="&#x2265;" horiz-adv-x="460" d="M106 84q0 51 39 88t91 37q49 0 83.5 -33t34.5 -82q0 -51 -39 -88t-90 -37q-49 0 -84 33t-35 82z" />
<glyph unicode="&#x22f2;" horiz-adv-x="1370" d="M82 641q0 248 176 424t424 176t424 -176q178 -176 178 -424t-178 -424q-174 -174 -424 -174t-424 174q-176 176 -176 424z" />
<glyph unicode="&#x25ca;" horiz-adv-x="974" d="M59 649l416 416l416 -416l-416 -416z" />
<glyph unicode="&#xe000;" horiz-adv-x="1004" d="M0 1005h1005v-1005h-1005v1005z" />
<glyph unicode="&#xfb01;" horiz-adv-x="1069" d="M47 903v101h135v112q0 168 123 254q106 76 283 76q111 0 213 -29q145 -41 145 -125q0 -49 -36 -80.5t-87 -31.5q-66 0 -86 45l-39 84q-39 45 -149 45q-104 0 -164 -84q-47 -72 -47 -185v-81h199v-119h-199v-885h-156v885zM760 0v1004h151v-1004h-151z" />
<glyph unicode="&#xfb02;" horiz-adv-x="1069" d="M47 903v101h135v112q0 150 105 240q96 84 249.5 84t225.5 -78v57h151v-1016q0 -199 62 -403h-162q-51 135 -51 403v828q-70 111 -201 110q-147 0 -194 -104q-29 -68 -29 -233h199v-119h-199v-885h-156v885z" />
<glyph horiz-adv-x="0" />
<glyph horiz-adv-x="614" />
</font>
</defs>
</svg>
